<svg id="1ade8714-35b2-40e3-a8a6-43163d108727" data-name="Layer 1" xmlns="http://www.w3.org/2000/svg" width="220" height="85" viewBox="0 0 220 85"><title>Untitled-3</title><path d="M28.65872,72.51213C15.64388,72.58011,5,59.21169,5,42.87977a32.69257,32.69257,0,0,1,.38762-5.23816H15.64388a20.96064,20.96064,0,0,0-.66218,5.23816c0,9.67146,6.17585,17.16158,13.677,17.16158,5.5128,0,10.25461-4.13656,12.45972-9.99363H28.26769V37.64161H51.98334a41.39942,41.39942,0,0,1,.38511,5.23816c0,16.33192-10.6405,29.5669-23.70974,29.63236h0Z" style="fill:#008d75"/><path d="M68.15326,71.79458a6.86627,6.86627,0,0,1-3.94862,1.29215,6.45807,6.45807,0,0,1-3.00806-.7447,8.45864,8.45864,0,0,1-2.6952-2.31054,11.23509,11.23509,0,0,1-1.69205-3.3297,13.156,13.156,0,0,1-.627-4.11358V37.64161H67.90247V64.78228a0.8775,0.8775,0,0,0,.21936.62649,0.70251,0.70251,0,0,0,.533.23547,0.6739,0.6739,0,0,0,.18785-0.04,0.37362,0.37362,0,0,0,.18829-0.11734,0.8893,0.8893,0,0,1,.3757-0.19551,1.88461,1.88461,0,0,1,.37622-0.03908,1.35543,1.35543,0,0,1,1.09655.62736,2.289,2.289,0,0,1,.47015,1.40949,2.7896,2.7896,0,0,1-.03108.431,0.74965,0.74965,0,0,1-.15677.35272A8.95991,8.95991,0,0,1,68.15326,71.79458Z" style="fill:#008d75"/><path d="M107.32477,69.836a6.78177,6.78177,0,0,1-5.8919,3.25075,6.965,6.965,0,0,1-5.7662-3.09432,11.86991,11.86991,0,0,1-2.31854-7.326V49.97546a3.79815,3.79815,0,0,0-1.15958-3.17293,4.32082,4.32082,0,0,0-2.72663-.90113,3.30392,3.30392,0,0,0-.50114.03917,3.17878,3.17878,0,0,1-.50157.03908,6.86377,6.86377,0,0,0-2.19363.7051,6.73673,6.73673,0,0,0-1.755,1.2535v16.844a0.79224,0.79224,0,0,0,.25079.66557,0.98464,0.98464,0,0,0,.62693.19638,0.193,0.193,0,0,1,.15643-0.079,0.19185,0.19185,0,0,0,.15686-0.07826q0.125-.07639.18785-0.11725a0.36485,0.36485,0,0,1,.18829-0.03908,0.19469,0.19469,0,0,1,.15643-0.07826H86.391a1.378,1.378,0,0,1,1.09655.58741,2.24658,2.24658,0,0,1,.47015,1.44945v0.19551a0.30765,0.30765,0,0,1-.0625.19638,0.79782,0.79782,0,0,1-.03142.19629,0.53707,0.53707,0,0,1-.09393.19551,8.95991,8.95991,0,0,1-3.00849,3.72168,6.86627,6.86627,0,0,1-3.94862,1.29215H80.06084a6.7338,6.7338,0,0,1-2.60128-.901,7.996,7.996,0,0,1-2.35006-2.1542,11.23509,11.23509,0,0,1-1.69205-3.3297,12.90254,12.90254,0,0,1-.627-4.03541V37.64161H84.57353L84.5106,40.96583a13.31807,13.31807,0,0,1,4.35583-2.78147,16.37269,16.37269,0,0,1,5.04569-1.13573h0.62649a12.78473,12.78473,0,0,1,3.16492.39146,10.293,10.293,0,0,1,2.914,1.25385,8.52945,8.52945,0,0,1,3.32213,3.68216,12.15666,12.15666,0,0,1,1.12894,5.32712V61.88347a0.68323,0.68323,0,0,0,.24991.62649,0.92925,0.92925,0,0,0,.50158.15643,0.75755,0.75755,0,0,0,.34515-0.07817,0.65068,0.65068,0,0,0,.21928-0.15643,0.25257,0.25257,0,0,0,.06295-0.15643,1.27273,1.27273,0,0,1,.43863-1.05756,1.97767,1.97767,0,0,1,.94022-0.431h0.187a1.58094,1.58094,0,0,1,1.03457.39189,1.34854,1.34854,0,0,1,.47006,1.09664A13.19618,13.19618,0,0,1,107.32477,69.836Z" style="fill:#008d75"/><path d="M147.93763,80.05917a8.31961,8.31961,0,0,1-5.64032,3.2907H142.14a0.42636,0.42636,0,0,0-.21927.07817h-0.3758a13.79835,13.79835,0,0,1-1.69248-.11734,11.28562,11.28562,0,0,1-1.94329-.431,11.56941,11.56941,0,0,1-3.47856-1.68483,3.53069,3.53069,0,0,1-1.59822-3.01615V78.10057a2.29582,2.29582,0,0,1,.94021-2.115,5.89036,5.89036,0,0,1,1.88043-.62736h0.25079a7.51083,7.51083,0,0,0,1.81827-.50836,1.70991,1.70991,0,0,0,.81443-1.76309V68.15116a15.22942,15.22942,0,0,1-4.45018,3.64343,13.172,13.172,0,0,1-4.95178,1.52675,7.18346,7.18346,0,0,0-.75149.03917,7.21071,7.21071,0,0,1-.75227.03908q-5.89239-.07913-10.68646-5.01383-4.79452-4.93475-4.79447-13.71018,0-8.61665,4.85741-13.67066,4.85693-5.05331,10.74843-5.05327h0.81522a13.37241,13.37241,0,0,1,5.26461,1.44936,14.69759,14.69759,0,0,1,4.701,3.87811V37.64161h11.72007v35.367A10.93539,10.93539,0,0,1,147.93763,80.05917Zm-9.40109-30.31874a7.91546,7.91546,0,0,0-3.07133-2.78147,8.3852,8.3852,0,0,0-3.76-.90069,8.0793,8.0793,0,0,0-5.60968,2.35006q-2.53872,2.35071-2.53834,6.81644A8.79509,8.79509,0,0,0,126.127,62.0016a7.87482,7.87482,0,0,0,5.70326,2.31054,7.97846,7.97846,0,0,0,6.70632-3.68251V49.74043Z" style="fill:#008d75"/><path d="M185.35415,64.90041q-0.87732.74466-1.75455,1.44858-0.941.78422-1.81748,1.5284-0.87864.74479-1.75465,1.44858A18.33684,18.33684,0,0,1,175.891,71.9901a17.907,17.907,0,0,1-4.38813,1.40949q-0.75236.07782-1.47233,0.1573a13.74934,13.74934,0,0,1-1.47322.07817,14.61051,14.61051,0,0,1-10.74852-4.77837q-4.67073-4.77911-4.66947-14.18111,0-8.93094,4.85741-13.90569,4.85562-4.97431,10.74843-4.97466a13.60328,13.60328,0,0,1,7.39575,2.2718,16.70245,16.70245,0,0,1,5.892,7.051,0.793,0.793,0,0,1,.15634.39146,3.48684,3.48684,0,0,1,.03151.47015,2.86821,2.86821,0,0,1-.15643.9793,2.00878,2.00878,0,0,1-.47093.74427l-15.48,13.55375a9.18894,9.18894,0,0,0,3.22777,3.28983,8.447,8.447,0,0,0,4.0421,1.25385h0.94021a1.66435,1.66435,0,0,0,.50157-0.07817,7.10112,7.10112,0,0,0,1.47234-.31372,7.63954,7.63954,0,0,0,1.41115-.62649q2.00443-1.17437,3.98-2.35049,1.974-1.17568,3.91719-2.34962a0.19181,0.19181,0,0,1,.15643-0.07826h0.15643a1.183,1.183,0,0,1,1.066.50836,2.35824,2.35824,0,0,1,.56365,1.37119,0.31141,0.31141,0,0,1,.06205.19638v0.19551a1.67654,1.67654,0,0,1-.125.62649,1.51926,1.51926,0,0,1-.37657.54832Q186.23138,64.15658,185.35415,64.90041ZM171.75444,48.76113a6.04128,6.04128,0,0,0-1.94327-.666h-0.90958a0.91818,0.91818,0,0,0-.34428.07817,1.44521,1.44521,0,0,0-.34428.03908,2.71094,2.71094,0,0,0-.34515.11778A4.14337,4.14337,0,0,0,165.361,50.7979a11.27152,11.27152,0,0,0-.81521,3.95593v0.31364q0,0.70523.06294,1.37119a12.1221,12.1221,0,0,0,.18872,1.29215l8.64873-7.59892A6.12933,6.12933,0,0,0,171.75444,48.76113Z" style="fill:#008d75"/><path d="M214.93715,44.96128L215,45.03945v0.54876a0.85525,0.85525,0,0,1-.06285.3132,4.64421,4.64421,0,0,1-.15643.58741,0.93681,0.93681,0,0,1-.2822.43107q-0.87734.94039-1.78695,1.91943-0.90788.9806-1.7852,1.99777-0.8798,1.01938-1.78685,1.99768-0.90788.98113-1.7852,1.91908a2.339,2.339,0,0,1-.47093.35359,1.11773,1.11773,0,0,1-.53213.11734,1.69419,1.69419,0,0,1-1.09664-.62736,1.96932,1.96932,0,0,1-.47093-1.33124V52.83475a0.30058,0.30058,0,0,1,.06294-0.19595V51.93406a7.537,7.537,0,0,0-1.12894-3.56482,3.054,3.054,0,0,0-2.69477-1.60622,3.37671,3.37671,0,0,0-2.569,1.41028,4.8402,4.8402,0,0,0-1.19013,3.212q-0.06372,1.80374-.06285,3.4467v4.31a9.48976,9.48976,0,0,0,.06285,1.09655v4.54377a0.87219,0.87219,0,0,0,.21936.62649,0.69884,0.69884,0,0,0,.53213.23547,0.66691,0.66691,0,0,0,.18707-0.04,0.3748,0.3748,0,0,0,.18865-0.11734,0.90155,0.90155,0,0,1,.37578-0.19551,1.89276,1.89276,0,0,1,.3757-0.03908,1.35833,1.35833,0,0,1,1.09831.62736,2.29368,2.29368,0,0,1,.46927,1.40949,2.80629,2.80629,0,0,1-.03054.431,0.75616,0.75616,0,0,1-.15818.35272,8.95751,8.95751,0,0,1-3.00762,3.72168,6.86266,6.86266,0,0,1-3.94775,1.29215,6.4608,6.4608,0,0,1-3.00935-.7447,8.449,8.449,0,0,1-2.69478-2.31054,10.01126,10.01126,0,0,1-1.72391-3.3297,13.50879,13.50879,0,0,1-.59507-4.03541V37.64161h11.72094v2.22723a11.17311,11.17311,0,0,1,3.41572-3.2121,8.12881,8.12881,0,0,1,4.22995-1.17525,8.47734,8.47734,0,0,1,6.17332,2.66378,15.488,15.488,0,0,1,3.85435,6.65914v0.15686Z" style="fill:#008d75"/><path d="M57.66365,21.43719a7.14463,7.14463,0,0,1-.513-2.077A10.02692,10.02692,0,0,0,57.302,16.1961a6.02009,6.02009,0,0,0-.10249-1.58169l-0.011.018a0.86176,0.86176,0,0,0-.8435-0.97329c-0.53927-.20753-1.32263,1.45184-1.32263,1.45184-0.0034-.09526-0.00765-0.18872-0.01445-0.27718-0.15806-2.183-1.37544-2.50265-1.37544-2.50265-1.80723-.97414-1.599,1.73757-1.599,1.73757-2.0155-2.43289-3.33659-1.46039-3.33659-1.46039-2.50265,2.22547.83393,3.61451,0.83393,3.61451a2.20947,2.20947,0,0,0-1.30111-.07093l0.00138-.00558-0.012.00919a0.878,0.878,0,0,0-.5601.54326,1.09759,1.09759,0,0,0-.13107,1.03174,0.78389,0.78389,0,0,0,.46633.59687l-0.02587.00531a2.78587,2.78587,0,0,0,1.46948.65908,1.9382,1.9382,0,0,0-1.33793.68411,0.88371,0.88371,0,0,0,.34115,1.21727c0.0739,0.05441.14876,0.11221,0.22352,0.17,0.012,0.00691.02386,0.012,0.0357,0.0187h0l0.0323,0.01705a12.293,12.293,0,0,0,4.19353.42042l-0.0136.008a3.77289,3.77289,0,0,1,1.70224.35767c4.04673,2.51036,4.23045,10.39426,4.23045,10.39426l0.76428-.20912A27.27993,27.27993,0,0,0,57.66365,21.43719Z" style="fill:#4e1180"/><path d="M76.52121,17.66409a1.09783,1.09783,0,0,0-.13176-1.03291,0.87659,0.87659,0,0,0-.5559-0.53938L75.81808,16.08l0.00175,0.00717a2.211,2.211,0,0,0-1.30159.07109s3.33574-1.39074.83393-3.61462c0,0-1.321-.9725-3.33659,1.46055,0,0,.20832-2.71188-1.59811-1.73933,0,0-1.219.32139-1.37634,2.50265-0.0059.09006-.01105,0.18192-0.01445,0.27877,0,0-.7833-1.65926-1.32257-1.45173a0.86188,0.86188,0,0,0-.84328.97207l-0.01121-.01838a6.02862,6.02862,0,0,0-.10249,1.58249,10.0292,10.0292,0,0,0,.15132,3.161,7.18608,7.18608,0,0,1-.51212,2.07926,27.29049,27.29049,0,0,0-1.94579,10.63287l0.76332,0.21082s0.18378-7.87753,4.22588-10.39246a3.77478,3.77478,0,0,1,1.70687-.35948l-0.0161-.0094a12.26054,12.26054,0,0,0,4.196-.42069l0.032-.01583,0.00027,0.00053,0.02014-.01057,0.00967-.00478,0.00085-.00074,0.005-.00266c0.07486-.05781.14967-0.11556,0.22278-0.17166a0.88233,0.88233,0,0,0,.343-1.21562,1.93557,1.93557,0,0,0-1.33612-.6849,2.79729,2.79729,0,0,0,1.46656-.65823L76.053,18.26239A0.78551,0.78551,0,0,0,76.52121,17.66409Z" style="fill:#4e1180"/><path d="M69.37523,9.62446c-0.147-1.47235-2.72452-1.17822-2.72452-1.17822a2.24541,2.24541,0,0,0,.88414-2.57576C67.0197,3.514,64.5901,5.35533,64.5901,5.35533c0-3.38339-1.14023-3.90641-2.79567-3.76221-2.451.21348-2.21044,3.76221-2.21044,3.76221-2.57576-1.62026-3.09091.29413-3.09091,0.29413a2.35724,2.35724,0,0,0,.222,1.92629,5.09641,5.09641,0,0,0,.72077,1.23061l0.00446,0.043c-1.35424-.62912-1.97778-0.55558-2.26149-0.3879l0.00935-.0373a1.549,1.549,0,0,0-.63905,1.4757l0.001,0.01323,0.0059,0.027a1.56043,1.56043,0,0,0,.88988,1.07966l-0.171-.059s1.73593,1.42108,2.50669,2.009a12.44013,12.44013,0,0,1,2.75869,4.8126L60.525,17.787s0.54018,3.77252.7392,8.32383c0.03289,2.40851.02375,4.65937,0.01716,5.62-0.00483.10594-.007,0.21337-0.01254,0.31889l0.01015-.00377-0.00159.17894,1.61936-.22278c-0.80928-1.76637.73617-14.86964,0.73617-14.86964A6.98668,6.98668,0,0,1,67.53485,11.612C69.89038,10.80262,69.37523,9.62446,69.37523,9.62446Z" style="fill:#4e1180"/></svg>