<svg id="38d1fc17-b0d6-4081-a63e-a556238459a4" data-name="Layer 1" xmlns="http://www.w3.org/2000/svg" width="20" height="20" viewBox="0 0 20 20"><title>starh</title><path d="M18.67355,7.1285l-5.23284-.49495a0.9049,0.9049,0,0,1-.74964-0.55492L10.817,1.53621a0.89672,0.89672,0,0,0-1.664,0L7.2935,6.07864a0.88336,0.88336,0,0,1-.74963.55492L1.31178,7.1285A0.90434,0.90434,0,0,0,.80221,8.70236l3.9429,3.46332a0.89859,0.89859,0,0,1,.28487.88513L3.84555,17.90809a0.90456,0.90456,0,0,0,1.33454.9897l4.36232-2.56357a0.90547,0.90547,0,0,1,.91512,0l4.36233,2.56357a0.90161,0.90161,0,0,0,1.33454-.9897l-1.16906-4.85728A0.8973,0.8973,0,0,1,15.27,12.16568L19.2131,8.70236a0.91549,0.91549,0,0,0-.53955-1.57386h0Zm0,0" style="fill:#43c2a7"/></svg>