<svg id="5a71ce40-8d3e-475a-8356-e177deee76a0" data-name="Layer 1" xmlns="http://www.w3.org/2000/svg" width="36" height="32" viewBox="0 0 36 32"><title>78979</title><path d="M17.9964,15.11646a2.77568,2.77568,0,0,0,2.7818-2.747V2.74786a2.7802,2.7802,0,0,0-5.56,0V12.3695a2.77492,2.77492,0,0,0,2.77823,2.747h0Zm0,0" style="fill:#43c2a7"/><path d="M23.94019,2.37751a1.1163,1.1163,0,0,0-1.54394,1.029V7.05666a1.11474,1.11474,0,0,0,.56135.96564A9.90419,9.90419,0,1,1,8.09906,16.59081,9.94364,9.94364,0,0,1,13.046,8.02589a1.11558,1.11558,0,0,0,.55062-0.963V3.4065a1.11229,1.11229,0,0,0-1.54037-1.029,15.39672,15.39672,0,1,0,11.884,0h0Zm0,0" style="fill:#43c2a7"/></svg>