<svg id="a732405a-4326-49b7-bac6-9d664ae3368b" data-name="Layer 1" xmlns="http://www.w3.org/2000/svg" width="36" height="32" viewBox="0 0 36 32"><title>354435</title><rect x="20.51487" y="22.05345" width="8.6564" height="3.74135" style="fill:#43c2a7"/><rect x="6.82764" y="6.67898" width="8.65644" height="3.74202" style="fill:#43c2a7"/><polygon points="29.172 26.454 29.173 25.795 29.172 25.795 29.172 26.454" style="fill:#43c2a7"/><path d="M31.692,0H4.30787A2.31066,2.31066,0,0,0,2,2.308V29.692A2.31023,2.31023,0,0,0,4.30787,32H31.692A2.3103,2.3103,0,0,0,34,29.692V2.308A2.31073,2.31073,0,0,0,31.692,0ZM16.14444,26.53532H6.16825a0.65943,0.65943,0,0,1,0-1.31887h9.97619A0.65943,0.65943,0,1,1,16.14444,26.53532Zm0-3.72653H6.16825a0.65939,0.65939,0,1,1,0-1.31878h9.97619A0.65939,0.65939,0,1,1,16.14444,22.80879Zm0-3.72712H6.16825a0.65939,0.65939,0,1,1,0-1.31878h9.97619A0.65939,0.65939,0,1,1,16.14444,19.08167Zm0-3.72729H6.16825a0.65943,0.65943,0,0,1,0-1.31887h9.97619A0.65943,0.65943,0,1,1,16.14444,15.35438ZM16.80391,10.421A1.32048,1.32048,0,0,1,15.485,11.73978H6.82764A1.32046,1.32046,0,0,1,5.50886,10.421V6.679A1.32057,1.32057,0,0,1,6.82764,5.36019H15.485A1.32058,1.32058,0,0,1,16.80391,6.679v3.742ZM30.49106,25.7948a1.31971,1.31971,0,0,1-1.31878,1.31878h-8.6574a1.32014,1.32014,0,0,1-1.31878-1.31878V22.05345a1.32057,1.32057,0,0,1,1.31878-1.31878h8.6574a1.32014,1.32014,0,0,1,1.31878,1.31878V25.7948Zm-0.65939-6.71314H19.85548a0.65939,0.65939,0,1,1,0-1.31878h9.97619A0.65939,0.65939,0,0,1,29.83167,19.08167Zm0-3.72729H19.85548a0.65943,0.65943,0,0,1,0-1.31887h9.97619A0.65943,0.65943,0,0,1,29.83167,15.35438Zm0-3.7272H19.85548a0.65939,0.65939,0,1,1,0-1.31878h9.97619A0.65939,0.65939,0,0,1,29.83167,11.62718Zm0-3.72729H19.85548a0.65939,0.65939,0,1,1,0-1.31878h9.97619A0.65939,0.65939,0,0,1,29.83167,7.89989Z" style="fill:#43c2a7"/></svg>