<svg id="b3360c17-fe84-4ff8-880a-9bd6f6e2ffde" data-name="Layer 1" xmlns="http://www.w3.org/2000/svg" width="36" height="32" viewBox="0 0 36 32"><title>FGGHFG</title><path d="M19.5861,24.99452a2.02007,2.02007,0,0,1-2.02035,2.0202H2.02035A2.01969,2.01969,0,0,1,0,24.99452V7.00562A2.01972,2.01972,0,0,1,2.02035,4.98527H28.1718a2.01973,2.01973,0,0,1,2.02035,2.02035V9.83388a2.01972,2.01972,0,0,1-2.02035,2.02035h-7.484A1.107,1.107,0,0,0,19.5861,13.116V24.99452Zm16.4139,0a2.01959,2.01959,0,0,0-2.02035-2.01975H22.3635a2.02,2.02,0,1,0,0,4.04H33.97965A2.01969,2.01969,0,0,0,36,24.99452h0Zm0-5.05965a2.01969,2.01969,0,0,0-2.02035-2.01975H22.3635a2.02005,2.02005,0,1,0,0,4.04011H33.97965A2.01982,2.01982,0,0,0,36,19.93488h0Zm0-5.0595a2.01959,2.01959,0,0,0-2.02035-2.01975H22.3635a2.02,2.02,0,1,0,0,4.04H33.97965A2.01969,2.01969,0,0,0,36,14.87538h0ZM12.90765,15.051c-1.66875-.42765-2.08245-0.6339-2.08245-1.269V13.755a1.01994,1.01994,0,0,1,1.2405-.8415,4.036,4.036,0,0,1,2.03025.64815,1.00164,1.00164,0,0,0,.5379.15285,0.97793,0.97793,0,0,0,.99255-0.98085,0.96647,0.96647,0,0,0-.47055-0.84135A5.41415,5.41415,0,0,0,13.1028,11.126v-0.7272a0.91935,0.91935,0,0,0-1.8387,0v0.72075a2.85181,2.85181,0,0,0-2.55,2.82886v0.027c0,1.91775,1.25625,2.45625,3.1998,2.95365,1.61475,0.4137,1.9458.6885,1.9458,1.2276v0.02745c0,0.5655-.525.91065-1.3944,0.91065a4.07952,4.07952,0,0,1-2.46975-.87015,1.02656,1.02656,0,0,0-.60525-0.1911,0.97537,0.97537,0,0,0-.9933.9798,0.98708,0.98708,0,0,0,.39915.798,6.17023,6.17023,0,0,0,2.468,1.0377v0.7605a0.91935,0.91935,0,0,0,1.8387,0v-0.6837a2.913,2.913,0,0,0,2.86815-2.948V17.94918c-0.0006-1.68345-1.1052-2.3877-3.0633-2.89815h0Zm0,0" style="fill:#43c2a7"/></svg>