<svg id="d611b386-4470-4f55-992f-4aad2aa03ce0" data-name="Layer 1" xmlns="http://www.w3.org/2000/svg" width="36" height="32" viewBox="0 0 36 32"><title>Untitled-3</title><path d="M22.10479,22.47163c-0.81879-.13018-0.83768-2.382-0.83768-2.382a11.46444,11.46444,0,0,0,2.93082-5.58525c1.41055,0,2.28184-3.40526.87092-4.60349C25.12783,8.63968,26.88235,0,18,0s-7.12774,8.63968-7.06885,9.90087c-1.41092,1.19823-.53963,4.60349.871,4.60349a11.46469,11.46469,0,0,0,2.93072,5.58525s-0.0188,2.25184-.83768,2.382C11.25745,22.89126,2.94847,27.23577,2.94847,32H33.05153c0-4.76423-8.30889-9.10874-10.94674-9.52837h0Zm0,0" style="fill:#43c2a7"/></svg>