<svg id="8f36843d-6079-4fa8-b521-ab344e2d5cd7" data-name="b58d4ebc-de5e-466c-ada2-6d3db6b66e12" xmlns="http://www.w3.org/2000/svg" width="32" height="32" viewBox="0 0 32 32"><title>attach</title><path d="M19.92245,6.92775a1.20107,1.20107,0,0,0-.77713.28924l-0.01105-.01106L9.63892,16.66935a4.6893,4.6893,0,0,0-1.52325,3.62343A4.021,4.021,0,0,0,9.33433,23.261a4.63561,4.63561,0,0,0,3.26111,1.172h0.02733a5.08564,5.08564,0,0,0,3.62466-1.52325L27.26511,11.89451a6.47236,6.47236,0,0,0,.175-9.4585,7.07841,7.07841,0,0,0-10.00167,0L3.63836,16.234A9.02323,9.02323,0,0,0,16.39851,28.99535L30.6859,14.65791A1.2332,1.2332,0,0,0,31,13.82674a1.211,1.211,0,0,0-1.21129-1.21129,1.19745,1.19745,0,0,0-.82043.32608l-0.00368-.00491L14.67752,27.27435a6.58939,6.58939,0,0,1-9.31819-9.31941L19.15976,4.1573a4.643,4.643,0,0,1,6.55939,0,3.98129,3.98129,0,0,1,1.269,2.99828,4.53976,4.53976,0,0,1-1.4431,3.01763L14.50342,21.21269a2.66755,2.66755,0,0,1-1.88893.78665,1.83706,1.83706,0,0,1-2.06518-1.697,2.67642,2.67642,0,0,1,.78664-1.88925l9.51961-9.48583-0.01074-.01074a1.20565,1.20565,0,0,0-.92237-1.98873h0Zm0,0" style="fill:#686868"/></svg>