<?xml version="1.0" encoding="utf-8"?>
<!-- Generator: Adobe Illustrator 18.0.0, SVG Export Plug-In . SVG Version: 6.00 Build 0)  -->
<!DOCTYPE svg PUBLIC "-//W3C//DTD SVG 1.1//EN" "http://www.w3.org/Graphics/SVG/1.1/DTD/svg11.dtd">
<svg version="1.1" id="Layer_1" xmlns="http://www.w3.org/2000/svg" xmlns:xlink="http://www.w3.org/1999/xlink" x="0px" y="0px"
	 viewBox="0 0 953 662" enable-background="new 0 0 953 662" xml:space="preserve">
<rect x="-0.8" fill="#F4F1F0" width="953.8" height="662"/>
<g>
	<path fill="#6F51A1" d="M438.5,86.8c0-2.3-2.2-4.2-5-4.5c0,0,0,0,0.1,0c0.5-0.3,0.9-0.7,1.3-1.1c0,0,0,0,0,0c3-3,3.5-7.5,1.1-9.9
		c-2.4-2.4-6.9-1.9-9.9,1.1l0,0c-0.4,0.4-0.8,0.9-1.1,1.3c0,0,0,0,0,0.1c-0.3-2.8-2.2-5-4.5-5c-2.5,0-4.4,2.4-4.5,5.5
		c-0.1-0.1-0.1-0.2-0.2-0.3c-2.2-2.2-5.5-2.6-7.2-0.8c-1.5,1.5-1.5,4-0.1,6.1c2.5,4.5,1.8,11-1.3,16.7c-0.4,0.7-0.8,1.4-1.3,2.1
		c-1.8,3-3.2,6.2-4.4,9.6c-1.7,5.2-2.7,10.8-2.7,16.6v0.4c0,1.1,0.9,2,2,2c1.1,0,2-0.9,2-2c0-0.1,0-0.4,0-0.4
		c0-12.6,6.4-23.7,14.8-26.2c0.8-0.2,1.6-0.4,2.4-0.4c0.1,0,0.2,0,0.3,0c2.9-0.3,5.7,0.2,8,1.4c2.1,1.3,4.6,1.3,6.1-0.2
		c1.8-1.8,1.4-5-0.8-7.2c-0.1-0.1-0.2-0.1-0.3-0.2C436.1,91.3,438.5,89.3,438.5,86.8"/>
	<path fill="#6F51A1" d="M408.1,67.6L408.1,67.6c2.9-0.6,5-2.7,5-5.2c0-3-3-5.4-6.8-5.4c-0.1,0-0.3,0-0.4,0c2.5-2.6,2.8-6.3,0.8-8.4
		c-2-2-5.4-1.7-8,0.5c0,0,0-0.1,0-0.1c0.1-0.6,0.2-1.3,0.2-2c0,0,0,0,0,0c0-5.1-3.3-9.2-7.4-9.2c-4.1,0-7.4,4.1-7.4,9.2c0,0,0,0,0,0
		c0,0.7,0.1,1.4,0.2,2c0,0,0,0.1,0,0.1c-2.6-2.2-6.1-2.4-8-0.5c-2.1,2.1-1.7,5.8,0.8,8.4c-0.1,0-0.3,0-0.4,0c-3.7,0-6.8,2.4-6.8,5.4
		c0,2.5,2.1,4.6,5,5.2c8.2,2.3,14.3,13,14.3,24.1v32.5c0,1.3,1.1,2.4,2.4,2.4c1.3,0,2.4-1.1,2.4-2.4V91.8
		C393.8,80.6,399.8,70,408.1,67.6"/>
	<path fill="#6F51A1" d="M381.6,107.6c-1.1-3.4-2.6-6.6-4.4-9.6c-0.5-0.7-0.9-1.4-1.3-2.1c-3.1-5.7-3.9-12.1-1.3-16.7v0
		c1.3-2.1,1.3-4.6-0.2-6.1c-1.8-1.8-5-1.4-7.2,0.8c-0.1,0.1-0.2,0.2-0.2,0.3c-0.1-3-2.1-5.5-4.5-5.5c-2.3,0-4.2,2.2-4.5,5
		c0,0,0,0,0-0.1c-0.3-0.5-0.7-0.9-1.1-1.3v0c-3-3-7.5-3.5-9.9-1.1c-2.4,2.4-1.9,6.9,1.1,9.9c0,0,0,0,0,0c0.4,0.4,0.9,0.8,1.3,1.1
		c0,0,0,0,0.1,0c-2.8,0.3-5,2.2-5,4.5c0,2.5,2.4,4.4,5.5,4.5c-0.1,0.1-0.2,0.1-0.3,0.2c-2.2,2.2-2.6,5.5-0.8,7.2
		c1.5,1.5,4,1.5,6.1,0.2c2.3-1.3,5.1-1.7,8-1.4c0.1,0,0.2,0,0.3,0c0.8,0.1,1.6,0.2,2.4,0.4c8.4,2.5,14.8,13.6,14.8,26.2v0.4
		c0,1.1,0.9,2,2,2c1.1,0,2-0.9,2-2c0-0.1,0-0.4,0-0.4C384.3,118.4,383.4,112.8,381.6,107.6"/>
	<path fill="#028C76" d="M531.1,141.9c-5.2-4.6-11.8-7.3-19-7.3c-17,0-30.8,15.3-30.8,34.1c0,18.8,13.8,34.1,30.8,34.1
		c7.2,0,13.8-2.7,19-7.3v11.9c0,0.7-0.4,1.2-1,1.2c-0.3,0-0.7-0.3-0.7-0.3c-0.5-0.4-1.1-0.7-1.8-0.7c-1.7,0-3,1.7-3,3.8
		c0,3.3,5.5,11.1,13.4,11.1c8.4,0,15.3-8.6,15.3-19.1v-67.6h-22.3V141.9z M531.1,178.7c-2.8,4.3-7.4,7.2-12.6,7.2
		c-8.6,0-15.5-7.7-15.5-17.2c0-9.5,6.9-17.2,15.5-17.2c5.2,0,9.8,2.8,12.6,7.2V178.7z"/>
	<path fill="#028C76" d="M406,188c-0.7,0-1.3,0.3-1.8,0.7c0,0-0.4,0.3-0.7,0.3c-0.5,0-1-0.5-1-1.2v-52.1h-22.3v48
		c0,10.5,6.8,19.1,15.3,19.1c8,0,13.4-7.7,13.4-11.1C409,189.7,407.7,188,406,188"/>
	<path fill="#028C76" d="M478.2,180c-1.7,0-3,1.7-3,3.8c0,0.8-0.5,1.4-1.1,1.4c-0.6,0-1.1-0.6-1.1-1.4c0,0,0-24.4,0-25.7
		c0-8.8-3.7-16.8-10.7-20.8c-8.6-5-19.7-2.8-28.2,4.6v-6.1h-22.3v48c0,10.5,6.8,19.1,15.3,19.1c8,0,13.4-7.7,13.4-11.1
		c0-2.1-1.4-3.8-3-3.8c-0.7,0-1.3,0.3-1.8,0.7c0,0-0.4,0.3-0.7,0.3c-0.5,0-1-0.5-1-1.2v-33.7c3.7-2.9,8.3-3.6,11.9-1.5
		c3.1,1.8,4.8,5.4,4.8,9.3c0,0,0,17.7,0,21.8c0,10.5,6.8,19.1,15.3,19.1c8.4,0,15.3-8.5,15.3-19.1C481.2,181.7,479.9,180,478.2,180"
		/>
	<path fill="#028C76" d="M319.7,153.6h30.3c-5.5,14-17,23.7-30.3,23.7c-18.6,0-33.7-18.9-33.8-42.1h-20c0,37.1,24.1,67.1,53.7,67.1
		c29.7,0,53.7-30,53.7-67.1l-53.7,0V153.6z"/>
	<path fill="#028C76" d="M676.4,137.3c-8.6-5-19.7-2.8-28.3,4.6v-6.1h-22.3v23c0,6.9-6.9,30.2-33.2,27.1c-2.9-0.3-6.9-1.5-10.3-6
		l36.6-21.1c-5.6-17.1-21.9-27.4-37.3-23.3c-16.1,4.3-25.1,22.7-20.2,41c4.2,15.7,17.3,26.4,31,26.4c15.4,0,26.7-8.5,33.4-17
		c0.8,9.6,7.3,17,15.2,17c8,0,13.4-7.7,13.4-11.1c0-2.1-1.4-3.8-3-3.8c-0.7,0-1.3,0.3-1.8,0.7c0,0-0.4,0.3-0.7,0.3
		c-0.5,0-1-0.5-1-1.2v-33.7c3.7-2.9,8.3-3.6,11.9-1.5c3.1,1.8,4.8,5.4,4.8,9.3c0,0,0,2.4,0,5.7l22.1-12.8
		C686.2,147.3,682.6,140.8,676.4,137.3 M586.1,151.9c4.5-1.2,9.3,1.2,12.7,5.7l-20.8,12C576.7,161.1,580.1,153.5,586.1,151.9"/>
</g>
<g>
	<path fill="#6F51A1" d="M182,375.2v-63.1h37.3v11.3h-23.7v14H216v11.3h-20.3v15h24.7v11.3H182z"/>
	<path fill="#6F51A1" d="M259.5,358.4c0-10-29.1-8.6-29.1-28.5c0-10.4,9.2-18.6,22.2-18.6c10.5,0,17.1,4.9,19.2,7.6l-8.5,10.2
		c-1.5-1.9-5.1-5.8-11.8-5.8c-4.5,0-7,2.5-7,5.7c0,10.2,29,8.6,29,28.7c0,9.5-7.8,18.6-23.8,18.6c-12.1,0-19.7-5.4-21.9-7.8
		l7.8-11.3c2.7,2.7,8.2,7.6,15.8,7.6C256.9,364.5,259.5,361.7,259.5,358.4z"/>
	<path fill="#6F51A1" d="M290.5,323.5h-15.7v-11.3H320v11.3h-15.7v51.7h-13.8V323.5z"/>
	<path fill="#6F51A1" d="M355.7,312.1l19.2,63.1h-14.4l-4-14.5h-21.1l-4,14.5h-13.9l19.1-63.1H355.7z M338.5,349.4h14.8l-2.4-8.8
		c-2.4-8.7-3.7-13.3-4.8-18.9h-0.4c-1.1,5.4-2.4,10.5-4.7,18.5L338.5,349.4z"/>
	<path fill="#6F51A1" d="M408.6,375.2v-63.1H446v11.3h-23.7v16.7h20.3v11.3h-20.3v23.7H408.6z"/>
	<path fill="#6F51A1" d="M491.7,352.4v-40.2h13.8v38.2c0,19.3-11.8,25.7-25.7,25.7c-16.3,0-23.1-9.8-23.1-22.8v-41.2h13.8v38.5
		c0,9,3.2,14,11.3,14C488.2,364.6,491.7,361.1,491.7,352.4z"/>
	<path fill="#6F51A1" d="M532.2,329.3c0.6,6.3,0.9,11.2,0.9,22v23.8h-13.1v-63.1h16.5l12.9,24.8c3.1,6,6.6,13,8.9,19.3h0.4
		c-0.7-8.8-0.7-17.5-0.7-24.2v-20h13v63.1h-16.1l-13.9-26.6c-3.1-6.1-5.8-12.3-8.4-19.3H532.2z"/>
	<path fill="#6F51A1" d="M610.4,311.3c12.4,0,18,5.5,19.7,7.4l-9,10c-2.1-2.5-5-5.8-11.7-5.8c-8.5,0-12.8,6.4-12.8,20.5
		c0,13,4.5,20.9,13.9,20.9c5.8,0,9.4-3.1,11.2-5.3l7.6,9.7c-2.7,3.2-9.1,7.4-20,7.4c-19.3,0-26.9-13-26.9-31.8
		C582.5,324.5,591.9,311.3,610.4,311.3z"/>
	<path fill="#6F51A1" d="M639.6,312.1h13.8v63.1h-13.8V312.1z"/>
	<path fill="#6F51A1" d="M691.1,376.1c-15.8,0-25.6-8.5-25.6-32c0-22.9,11.2-32.8,26.5-32.8c15.7,0,25.8,8.6,25.8,32.1
		C717.8,366.3,706.5,376.1,691.1,376.1z M691.9,364.7c7.2,0,11.6-5.1,11.6-20.7c0-15.8-4.8-21.3-12.4-21.3
		c-6.8,0-11.5,4.9-11.5,20.5C679.6,359.1,684.3,364.7,691.9,364.7z M692,307.5l-7-5.9l16.6-13.7l11.8,6.9L692,307.5z"/>
	<path fill="#6F51A1" d="M741.6,329.3c0.6,6.3,0.9,11.2,0.9,22v23.8h-13.1v-63.1h16.5l12.9,24.8c3.1,6,6.6,13,8.9,19.3h0.4
		c-0.7-8.8-0.7-17.5-0.7-24.2v-20h13v63.1h-16.1l-13.9-26.6c-3.1-6.1-5.8-12.3-8.4-19.3H741.6z"/>
	<path fill="#6F51A1" d="M64.4,483.2v-63.1h37.3v11.3H78.1v14h20.3v11.3H78.1v15h24.7v11.3H64.4z"/>
	<path fill="#6F51A1" d="M141.9,466.4c0-10-29.1-8.6-29.1-28.5c0-10.4,9.2-18.6,22.2-18.6c10.5,0,17.1,4.9,19.2,7.6l-8.5,10.2
		c-1.5-1.9-5.1-5.8-11.8-5.8c-4.5,0-7,2.5-7,5.7c0,10.2,29,8.6,29,28.7c0,9.5-7.8,18.6-23.8,18.6c-12.1,0-19.7-5.4-21.9-7.8L118,465
		c2.7,2.7,8.2,7.6,15.8,7.6C139.3,472.5,141.9,469.7,141.9,466.4z"/>
	<path fill="#6F51A1" d="M173,431.5h-15.7v-11.3h45.1v11.3h-15.7v51.7H173V431.5z"/>
	<path fill="#6F51A1" d="M238.1,420.1l19.2,63.1h-14.4l-4-14.5h-21.1l-4,14.5h-13.9l19.1-63.1H238.1z M220.9,457.4h14.8l-2.4-8.8
		c-2.4-8.7-3.7-13.3-4.8-18.9h-0.4c-1.1,5.4-2.4,10.5-4.7,18.5L220.9,457.4z"/>
	<path fill="#6F51A1" d="M286.4,420.1c14,0,21.9,5.3,21.9,18.5c0,11-5.9,16.1-13.3,17.5v0.4c3.3,1.6,5.4,4,8.4,9.3l9.6,17.4h-16.4
		l-10.4-20.5c-1.2-2.2-2.9-3-5.8-3h-0.9v23.5h-13.6v-63.1H286.4z M279.4,448.8h5.2c7.3,0,9.6-3.1,9.6-9c0-5.8-3.4-8.4-9.4-8.4h-5.4
		V448.8z"/>
	<path fill="#6F51A1" d="M353.2,420.1l19.2,63.1H358l-4-14.5h-21.1l-4,14.5H315l19.1-63.1H353.2z M336,457.4h14.8l-2.4-8.8
		c-2.4-8.7-3.7-13.3-4.8-18.9h-0.4c-1.1,5.4-2.4,10.5-4.7,18.5L336,457.4z M344.2,415.5l-7-5.9l16.6-13.7l11.8,6.9L344.2,415.5z"/>
	<path fill="#6F51A1" d="M406.1,420.1h19.6c20.5,0,29.8,10,29.8,30.1c0,16.1-6.4,32.9-29.6,32.9h-19.8V420.1z M419.8,471.9h5
		c12.9,0,16.6-8.2,16.6-20.3c0-15.2-6.7-20.1-16.6-20.1h-5V471.9z"/>
	<path fill="#6F51A1" d="M467.7,420.1h13.8v63.1h-13.8V420.1z"/>
	<path fill="#6F51A1" d="M523.6,466.4c0-10-29.1-8.6-29.1-28.5c0-10.4,9.2-18.6,22.2-18.6c10.5,0,17.1,4.9,19.2,7.6l-8.5,10.2
		c-1.5-1.9-5.1-5.8-11.8-5.8c-4.5,0-7,2.5-7,5.7c0,10.2,29,8.6,29,28.7c0,9.5-7.8,18.6-23.8,18.6c-12.1,0-19.7-5.4-21.9-7.8
		l7.8-11.3c2.7,2.7,8.2,7.6,15.8,7.6C521,472.5,523.6,469.7,523.6,466.4z"/>
	<path fill="#6F51A1" d="M592,438.9c0,11.8-6.2,22-24.7,22h-5.2v22.4h-13.8v-63.1h21.6C582.7,420.1,592,424.9,592,438.9z
		 M562.1,431.7v17.8h4.5c9.2,0,11.2-4,11.2-8.8c0-6.2-3.1-9-10.1-9H562.1z"/>
	<path fill="#6F51A1" d="M624.7,484.1c-15.8,0-25.6-8.5-25.6-32c0-22.9,11.2-32.8,26.5-32.8c15.7,0,25.8,8.6,25.8,32.1
		C651.4,474.3,640.1,484.1,624.7,484.1z M625.6,472.7c7.2,0,11.6-5.1,11.6-20.7c0-15.8-4.8-21.3-12.4-21.3
		c-6.8,0-11.5,4.9-11.5,20.5C613.2,467.1,617.9,472.7,625.6,472.7z"/>
	<path fill="#6F51A1" d="M675.2,437.3c0.6,6.3,0.9,11.2,0.9,22v23.8H663v-63.1h16.5l12.9,24.8c3.1,6,6.6,13,8.9,19.3h0.4
		c-0.7-8.8-0.7-17.5-0.7-24.2v-20h13v63.1h-16.1L684,456.6c-3.1-6.1-5.8-12.3-8.4-19.3H675.2z"/>
	<path fill="#6F51A1" d="M729.4,420.1h13.8v63.1h-13.8V420.1z"/>
	<path fill="#6F51A1" d="M804.1,463.9c0,8.2-4.1,19.3-25.1,19.3h-20.9v-63.1h22.6c11.2,0,20.3,3.7,20.3,16.4
		c0,7.1-4.4,11.6-9.2,13.3v0.4C797.9,450.9,804.1,455,804.1,463.9z M779.1,431.5h-7.4v13.9h6.8c6.7,0,9.3-3.4,9.3-7
		C787.8,434.5,785.6,431.5,779.1,431.5z M790.2,464.3c0-5.5-4.6-7.6-9.7-7.6h-8.7v15.1h9.4C788.1,471.9,790.2,467.9,790.2,464.3z"/>
	<path fill="#6F51A1" d="M830,420.1v51.7h23.2v11.3h-37v-63.1H830z"/>
	<path fill="#6F51A1" d="M862,483.2v-63.1h37.3v11.3h-23.7v14H896v11.3h-20.3v15h24.7v11.3H862z"/>
	<path fill="#6F51A1" d="M186.9,546.9c0,11.8-6.2,22-24.7,22H157v22.4h-13.8v-63.1h21.6C177.6,528.1,186.9,532.9,186.9,546.9z
		 M157,539.7v17.8h4.5c9.2,0,11.2-4,11.2-8.8c0-6.2-3.1-9-10.1-9H157z"/>
	<path fill="#6F51A1" d="M217.7,528.1c14,0,21.9,5.3,21.9,18.5c0,11-5.9,16.1-13.3,17.5v0.4c3.3,1.6,5.4,4,8.4,9.3l9.6,17.4h-16.4
		l-10.4-20.5c-1.2-2.2-2.9-3-5.8-3h-0.9v23.5h-13.6v-63.1H217.7z M210.8,556.8h5.2c7.3,0,9.6-3.1,9.6-9c0-5.8-3.4-8.4-9.4-8.4h-5.4
		V556.8z"/>
	<path fill="#6F51A1" d="M274.8,592.1c-15.8,0-25.6-8.5-25.6-32c0-22.9,11.2-32.8,26.5-32.8c15.7,0,25.8,8.6,25.8,32.1
		C301.5,582.3,290.2,592.1,274.8,592.1z M275.6,580.7c7.2,0,11.6-5.1,11.6-20.7c0-15.8-4.8-21.3-12.4-21.3
		c-6.8,0-11.5,4.9-11.5,20.5C263.3,575.1,268,580.7,275.6,580.7z M275.7,523.5l-7-5.9l16.6-13.7l11.8,6.9L275.7,523.5z"/>
	<path fill="#6F51A1" d="M333.2,570.8L322,591.2h-15.8l20.2-32.2l-19.2-30.9h16.6l10.6,19.3h0.4l10.1-19.3h15.8L341.6,559l20.2,32.2
		h-16.5l-11.8-20.4H333.2z"/>
	<path fill="#6F51A1" d="M370.3,528.1h13.8v63.1h-13.8V528.1z"/>
	<path fill="#6F51A1" d="M433,562.2l11.8-34h20.6v63.1h-13.1v-46.7h-0.4l-14,39.1h-11.3l-13.9-39.1h-0.5v46.7h-12.6v-63.1h21.1
		l12,34H433z"/>
	<path fill="#6F51A1" d="M512.4,528.1l19.2,63.1h-14.4l-4-14.5h-21.1l-4,14.5h-13.9l19.1-63.1H512.4z M495.2,565.4h14.8l-2.4-8.8
		c-2.4-8.7-3.7-13.3-4.8-18.9h-0.4c-1.1,5.4-2.4,10.5-4.7,18.5L495.2,565.4z"/>
	<path fill="#6F51A1" d="M573.8,562.2l11.8-34h20.6v63.1h-13.1v-46.7h-0.4l-14,39.1h-11.3l-13.9-39.1h-0.5v46.7h-12.6v-63.1h21.1
		l12,34H573.8z"/>
	<path fill="#6F51A1" d="M621,591.2v-63.1h37.3v11.3h-23.7v14H655v11.3h-20.3v15h24.7v11.3H621z"/>
	<path fill="#6F51A1" d="M684.1,545.3c0.6,6.3,0.9,11.2,0.9,22v23.8h-13.1v-63.1h16.5l12.9,24.8c3.1,6,6.6,13,8.9,19.3h0.4
		c-0.7-8.8-0.7-17.5-0.7-24.2v-20h13v63.1h-16.1l-13.9-26.6c-3.1-6.1-5.8-12.3-8.4-19.3H684.1z"/>
	<path fill="#6F51A1" d="M746.2,539.5h-15.7v-11.3h45.1v11.3h-15.7v51.7h-13.8V539.5z"/>
	<path fill="#6F51A1" d="M783.1,591.2v-63.1h37.3v11.3h-23.7v14h20.3v11.3h-20.3v15h24.7v11.3H783.1z"/>
</g>
</svg>
