<svg id="c86161e8-8d88-4784-9d18-6295dd9f8545" data-name="Layer 1" xmlns="http://www.w3.org/2000/svg" width="28" height="28" viewBox="0 0 28 28"><title>cook</title><path d="M25.22321,3.72081A6.76539,6.76539,0,0,0,19.1712.7695a8.23282,8.23282,0,0,0-4.58655,1.557A7.21889,7.21889,0,0,0,9.28215,0,7.38646,7.38646,0,0,0,5.81493,13.85342v4.397a1.04891,1.04891,0,0,0,.7245.98863c0,0.02188-.00526.042-0.00526,0.07107a8.77344,8.77344,0,0,0,4.74316,8.15091,0.21416,0.21416,0,0,1,.06317.02739,5.65269,5.65269,0,0,0,.66857.24208c0.05067,0.01456.09278,0.02912,0.14345,0.042,0.206,0.05824.41917,0.1001,0.63238,0.14378,0.06317,0.00724.12174,0.02007,0.17833,0.02731A6.07008,6.07008,0,0,0,13.78052,28a5.97055,5.97055,0,0,0,.81-0.05643c0.05133-.00724.10726-0.02007,0.16385-0.02731,0.21321-.03644.42773-0.07831,0.64093-0.13654a1.004,1.004,0,0,1,.12042-0.03463c0.23492-.0709.45471-0.15653,0.68239-0.2494l0.04409-.0218c2.78681-1.209,4.78594-4.40238,4.78594-8.16375V19.27552a1.03925,1.03925,0,0,0,.91073-1.02506V13.22993a6.63216,6.63216,0,0,0,2.99277-2.731C26.25568,8.0156,26.35373,5.60512,25.22321,3.72081ZM18.57172,18.454a6.9084,6.9084,0,0,0-1.05945-.15028c-0.37837-.02912-0.77781-0.05972-1.1904-0.09139a20.16013,20.16013,0,0,0-2.5815-.11409c-0.88046-.05889-1.75631.05174-2.58347,0.07156-0.41457.00749-.80808,0.077-1.18777,0.10529-0.3764.04508-.739,0.05791-1.06405,0.12322-0.65344.11327-1.21014,0.16936-1.5872,0.26305l-0.60474.12174a12.00818,12.00818,0,0,1,2.11626-.75494c0.32441-.10043.68634-0.1511,1.06537-0.23665a9.49635,9.49635,0,0,1,1.20158-.21041,18.47218,18.47218,0,0,1,2.64664-.15628c0.45207,0.01168.90349,0.02344,1.34833,0.035,0.44484,0.01127.87585,0.1131,1.295,0.1627a13.63913,13.63913,0,0,1,2.26169.46c1.29634,0.39088,2.1314.70065,2.1314,0.70065S19.8786,18.681,18.57172,18.454Z" style="fill:#545454"/></svg>