<svg id="bcb05095-74df-430c-8ebe-ca345ba3c8ac" data-name="Layer 1" xmlns="http://www.w3.org/2000/svg" width="100" height="80" viewBox="0 0 100 80"><title>Untitled-4</title><path d="M53.92119,74.00561A4.99407,4.99407,0,0,1,48.92644,79H10.49475A4.99313,4.99313,0,0,1,5.5,74.00561V29.53305a4.99321,4.99321,0,0,1,4.99475-4.99476h64.6522a4.99321,4.99321,0,0,1,4.99476,4.99476v6.99207a4.99321,4.99321,0,0,1-4.99476,4.99475H56.64482c-1.6578,0-2.72362,1.19142-2.72362,3.11937V74.00561Zm40.57881,0a4.99288,4.99288,0,0,0-4.99475-4.99327H60.78754a4.99383,4.99383,0,1,0,0,9.98766h28.7177A4.99312,4.99312,0,0,0,94.5,74.00561h0Zm0-12.50858a4.99312,4.99312,0,0,0-4.99475-4.99328H60.78754a4.994,4.994,0,1,0,0,9.988h28.7177A4.99344,4.99344,0,0,0,94.5,61.497h0Zm0-12.5082a4.99288,4.99288,0,0,0-4.99475-4.99328H60.78754a4.99383,4.99383,0,1,0,0,9.98766h28.7177A4.99312,4.99312,0,0,0,94.5,48.98883h0Z" style="fill:#fff"/></svg>