<svg id="ce2ac6ad-fd8b-4b8b-95c6-2e9185993985" data-name="Layer 1" xmlns="http://www.w3.org/2000/svg" width="200" height="160" viewBox="0 0 200 160"><title>Untitled-5</title><rect width="200" height="160" style="fill:#c2b9ba"/><circle cx="100.40729" cy="80.24626" r="64.49747" style="fill:#fff"/><path d="M69.09536,109.61982c-0.00346-.66517-0.00577-0.18707,0,0h0Zm0,0"/><path d="M99.83434,79.438c8.98709,0,16.27458-8.84967,16.27458-19.76734,0-10.91679-2.39307-19.76733-16.27458-19.76733-13.88267,0-16.27458,8.85054-16.27458,19.76733,0,10.91767,7.28662,19.76734,16.27458,19.76734h0Zm0,0" style="fill:#c2b9ba"/><path d="M130.53753,108.82271c-0.30112-19.01843-2.78543-24.43743-21.79145-27.8681,0,0-2.6763,3.4093-8.91174,3.4093-6.23631,0-8.91261-3.4093-8.91261-3.4093-18.79844,3.39343-21.434,8.73245-21.78018,27.25a4.35406,4.35406,0,0,1-.04619,1.41523c0.00115,0.32941.00231,0.93829,0.00231,1.99841,0,0,4.52429,9.1225,30.73667,9.1225,26.21122,0,30.73581-9.1225,30.73581-9.1225,0-.68106.00115-1.15481,0.00115-1.4773a13.08545,13.08545,0,0,1-.03378-1.31823h0Zm0,0" style="fill:#c2b9ba"/></svg>