<?xml version="1.0" standalone="no"?>
<!DOCTYPE svg PUBLIC "-//W3C//DTD SVG 1.1//EN" "http://www.w3.org/Graphics/SVG/1.1/DTD/svg11.dtd" >
<svg>
<metadata>
Created by FontForge 20090914 at Fri Sep  9 20:09:47 2016
 By www-data
Copyright 2010, 2014 Indian Type Foundry. All rights reserved.
</metadata>
<defs>
<font id="KohinoorDevanagari-Light" horiz-adv-x="0" >
  <font-face 
    font-family="Kohinoor Devanagari"
    font-weight="300"
    font-stretch="normal"
    units-per-em="1000"
    panose-1="2 0 0 0 0 0 0 0 0 0"
    ascent="800"
    descent="-200"
    x-height="539"
    cap-height="701"
    bbox="-607 -510.997 2032 1021"
    underline-thickness="50"
    underline-position="-50"
    unicode-range="U+000D-U+FB02"
  />
<missing-glyph horiz-adv-x="750" 
d="M180 0v701h390v-701h-390zM234 651v-601h282v601h-282z" />
    <glyph glyph-name="fi" unicode="fi" horiz-adv-x="583" 
d="M496 539v-539.001h-58v489h-257v-489h-58v489h-92v50h92v66c0 50.667 16.333 89.667 49 117s81.667 41 147 41c35.333 0 68.166 -3.33301 98.499 -10s51.833 -13.667 64.5 -21l-19 -49c-37.333 18.667 -88.333 28 -153 28c-45.333 0 -78.166 -8.16699 -98.499 -24.5
s-30.5 -42.166 -30.5 -77.499v-70h315z" />
    <glyph glyph-name="fl" unicode="fl" horiz-adv-x="625" 
d="M496 721v-605.001c0 -25.333 4.5 -43.666 13.5 -54.999s24.167 -17 45.5 -17c18.667 0 36 4.33301 52 13v-52c-18 -8 -40.333 -12 -67 -12c-68 0 -102 35.667 -102 107v592c-32.667 12.667 -75 19 -127 19c-45.333 0 -78.333 -8.16699 -99 -24.5s-31 -42.166 -31 -77.499
v-70h135v-50h-135v-489h-58v489h-92v50h92v66c0 50.667 16.333 89.667 49 117s81.667 41 147 41c38 0 73 -4.33301 105 -13s56 -18.334 72 -29.001z" />
    <glyph glyph-name="f_f" unicode="ff" horiz-adv-x="665" 
d="M438 539l-0.000976562 92.999c0 22.667 3.33301 41.667 10 57c-36.667 14.667 -82.667 22 -138 22c-45.333 0 -78.166 -8.16699 -98.499 -24.5s-30.5 -42.166 -30.5 -77.499v-70h257zM661.999 751.999l-14.001 -51c-19.333 6.66699 -44.666 10 -75.999 10
c-50.667 0 -76 -25.667 -76 -77v-95h146v-50h-146v-489h-58v489h-257v-489h-58v489h-92v50h92v66c0 50.667 16.333 89.667 49 117s81.667 41 147 41c68 0 121.333 -9.66699 160 -29c25.333 20 59.333 30 102 30c31.333 0 58.333 -4 81 -12z" />
    <glyph glyph-name="f_f_i" unicode="ffi" horiz-adv-x="898" 
d="M438 539l-0.000976562 65.999c0 31.333 6 58 18 80c-38 17.333 -86.667 26 -146 26c-45.333 0 -78.166 -8.16699 -98.499 -24.5s-30.5 -42.166 -30.5 -77.499v-70h257zM810.999 538.999l-0.000976562 -539.001h-58v489h-257v-489h-58v489h-257v-489h-58v489h-92v50h92v66
c0 50.667 16.333 89.667 49 117s81.667 41 147 41c74 0 131.333 -12.667 172 -38c32.667 25.333 80.334 38 143.001 38c35.333 0 68.166 -3.33301 98.499 -10s51.833 -13.667 64.5 -21l-19 -49c-37.333 18.667 -88.333 28 -153 28c-45.333 0 -78.166 -8.16699 -98.499 -24.5
s-30.5 -42.166 -30.5 -77.499v-70h315z" />
    <glyph glyph-name="f_f_l" unicode="ffl" horiz-adv-x="940" 
d="M438 539l-0.000976562 65.999c0 31.333 6 58 18 80c-38 17.333 -86.667 26 -146 26c-45.333 0 -78.166 -8.16699 -98.499 -24.5s-30.5 -42.166 -30.5 -77.499v-70h257zM810.999 720.999l-0.000976562 -605.001c0 -25.333 4.5 -43.666 13.5 -54.999s24.167 -17 45.5 -17
c18.667 0 36 4.33301 52 13v-52c-18 -8 -40.333 -12 -67 -12c-68 0 -102 35.667 -102 107v592c-32.667 12.667 -75 19 -127 19c-45.333 0 -78.333 -8.16699 -99 -24.5s-31 -42.166 -31 -77.499v-70h135v-50h-135v-489h-58v489h-257v-489h-58v489h-92v50h92v66
c0 50.667 16.333 89.667 49 117s81.667 41 147 41c74 0 131.333 -12.667 172 -38c32.667 25.333 80.334 38 143.001 38c38 0 73 -4.33301 105 -13s56 -18.334 72 -29.001z" />
    <glyph glyph-name=".notdef" horiz-adv-x="750" 
d="M180 0v701h390v-701h-390zM234 651v-601h282v601h-282z" />
    <glyph glyph-name="NULL" 
 />
    <glyph glyph-name="NULL" 
 />
    <glyph glyph-name="CR" unicode="&#xd;" horiz-adv-x="290" 
 />
    <glyph glyph-name="space" unicode=" " horiz-adv-x="290" 
 />
    <glyph glyph-name="exclam" unicode="!" horiz-adv-x="274" 
d="M157 237l-45 -0.000976562c-0.666992 20.667 -3.16699 88.834 -7.5 204.501s-7.83301 202.167 -10.5 259.5h80c-2 -46 -4.83301 -122.333 -8.5 -229s-6.5 -185 -8.5 -235zM85 52.999c0 14.667 5 27.167 15 37.5s22 15.5 36 15.5c14.667 0 27.167 -5 37.5 -15
s15.5 -22.667 15.5 -38c0 -14 -5.16699 -26 -15.5 -36s-22.833 -15 -37.5 -15c-14 0 -26 5 -36 15s-15 22 -15 36z" />
    <glyph glyph-name="quotedbl" unicode="&#x22;" horiz-adv-x="302" 
d="M103 505h-43l-15 211h73zM242 505h-43l-15 211h73z" />
    <glyph glyph-name="numbersign" unicode="#" horiz-adv-x="662" 
d="M42 257h118l33 186h-112v52h121l35 193h55l-35 -193h214l35 193h55l-35 -193h94v-52h-103l-33 -186h97v-52h-106l-36 -205h-55l36 205h-214l-36 -205h-55l36 205h-109v52zM248 443l-33 -186h214l33 186h-214z" />
    <glyph glyph-name="dollar" unicode="$" horiz-adv-x="521" 
d="M257 386l57.9971 -26.999c24.667 -11.333 44.334 -21.333 59.001 -30s30.334 -20 47.001 -34s29 -30.333 37 -49s12 -39.667 12 -63c0 -44 -16 -83.167 -48 -117.5s-78 -54.833 -138 -61.5l1 -145h-59l1 143c-78.667 3.33301 -143.667 25.666 -195 66.999l39 52
c46.667 -41.333 105.667 -62 177 -62c55.333 0 95.833 11 121.5 33s38.5 51 38.5 87c0 32 -11 58 -33 78s-54.333 39.333 -97 58l-61 27c-45.333 20 -80.666 43.167 -105.999 69.5s-38 61.833 -38 106.5c0 46 16 84 48 114s72.333 48.333 121 55l-1 141h59l-1 -138
c66 -3.33301 118.333 -20 157 -50l-42 -50c-14.667 13.333 -34.834 24 -60.501 32s-51.167 12 -76.5 12c-44 0 -78.833 -10 -104.5 -30s-38.5 -47.667 -38.5 -83c0 -31.333 10.333 -56.833 31 -76.5s51.334 -39.167 92.001 -58.5z" />
    <glyph glyph-name="percent" unicode="%" horiz-adv-x="814" 
d="M341 510c0 -63.333 -13.668 -111.333 -41.001 -144s-62.666 -49 -105.999 -49c-44 0 -79 16 -105 48s-39 79.667 -39 143c0 61.333 13.667 108.333 41 141s63 49 107 49c43.333 0 78 -15.833 104 -47.5s39 -78.5 39 -140.5zM196.999 366c58.667 0 88 47 88 141
c0 94.667 -30.667 142 -92 142c-58 0 -87 -46.667 -87 -140c0 -95.333 30.333 -143 91 -143zM619.999 39c58.667 0 88 47 88 141c0 94.667 -30.667 142 -92 142c-58 0 -87 -46.667 -87 -140c0 -95.333 30.333 -143 91 -143zM763.999 183
c0 -63.333 -13.668 -111.333 -41.001 -144s-62.666 -49 -105.999 -49c-44 0 -79 16 -105 48s-39 79.667 -39 143c0 61.333 13.667 108.333 41 141s63 49 107 49c43.333 0 78 -15.833 104 -47.5s39 -78.5 39 -140.5zM672.998 645l-473 -626l-43 32l473 627z" />
    <glyph glyph-name="ampersand" unicode="&#x26;" horiz-adv-x="667" 
d="M45 177c0 94 56.998 158.001 170.998 192.001c-48 53.333 -72 106.666 -72 159.999c0 44.667 15.833 82.334 47.5 113.001s72.5 46 122.5 46c48.667 0 88 -15.167 118 -45.5s45 -67.833 45 -112.5c0 -92.667 -55.667 -154 -167 -184
c40 -45.333 104.333 -108.333 193 -189c37.333 58 56 124.667 56 200h55c-2.66699 -92 -26.334 -170.667 -71.001 -236c40.667 -36 85.334 -73.333 134.001 -112v-9h-76c-35.333 28 -66.666 54 -93.999 78c-58 -60 -135 -90 -231 -90
c-75.333 0 -132.666 19.167 -171.999 57.5s-59 82.166 -59 131.499zM275.998 38.001c80 0 144.333 24.999 193 74.999c-97.333 90.667 -169.333 162.334 -216 215.001c-101.333 -25.333 -152 -74.333 -152 -147c0 -38.667 15 -72.167 45 -100.5s73.333 -42.5 130 -42.5z
M200.998 529c0 -48 23.667 -95.668 71 -143.001c58 14.667 97.333 33.834 118 57.501s31 52.5 31 86.5c0 29.333 -9.66699 54.333 -29 75s-45.333 31 -78 31c-33.333 0 -60.5 -9.66699 -81.5 -29s-31.5 -45.333 -31.5 -78z" />
    <glyph glyph-name="quotesingle" unicode="'" horiz-adv-x="163" 
d="M103 505h-43l-15 211h73z" />
    <glyph glyph-name="parenleft" unicode="(" horiz-adv-x="304" 
d="M83 298c0 64.667 8.00098 127.499 24.001 188.499s35.833 112.333 59.5 154s45.167 75.334 64.5 101.001s36 44.5 50 56.5h69v-6c-60 -55.333 -109.833 -125.833 -149.5 -211.5s-59.5 -179.834 -59.5 -282.501c0 -102 19.833 -195.833 59.5 -281.5
s89.5 -156.167 149.5 -211.5v-6h-68c-14 12 -30.833 31 -50.5 57s-41.334 59.833 -65.001 101.5s-43.5 92.834 -59.5 153.501s-24 123 -24 187z" />
    <glyph glyph-name="parenright" unicode=")" horiz-adv-x="304" 
d="M221 298c0 -64 -7.99902 -126.332 -23.999 -186.999s-35.833 -111.834 -59.5 -153.501s-45.334 -75.5 -65.001 -101.5s-36.5 -45 -50.5 -57h-68v6c60 55.333 109.833 125.833 149.5 211.5s59.5 179.5 59.5 281.5c0 102.667 -19.833 196.834 -59.5 282.501
s-89.5 156.167 -149.5 211.5v6h69c14 -12 30.667 -30.833 50 -56.5s40.833 -59.334 64.5 -101.001s43.5 -93 59.5 -154s24 -123.833 24 -188.5z" />
    <glyph glyph-name="asterisk" unicode="*" horiz-adv-x="397" 
d="M226 644l-4 -87l82 31l53 18l18 -53l-55 -19l-83 -23l55 -68l33 -45l-45 -33l-35 46l-47 71l-48 -72l-33 -46l-45 33l33 47l53 67l-83 23l-54 18l17 53l55 -17l80 -30l-3 86v57h56v-57z" />
    <glyph glyph-name="plus" unicode="+" horiz-adv-x="520" 
d="M489 365v-56h-201v-201h-58v201h-200v56h200v202h58v-202h201z" />
    <glyph glyph-name="comma" unicode="," horiz-adv-x="227" 
d="M67 -131l-16.999 30.999c44.667 18.667 67 44.334 67 77.001c0 15.333 -4.83301 27.833 -14.5 37.5s-24.167 19.834 -43.5 30.501v5c0 15.333 5.16699 28.166 15.5 38.499s23.166 15.5 38.499 15.5c18 0 33.167 -7 45.5 -21s18.5 -34 18.5 -60
c0 -37.333 -11.667 -70 -35 -98s-48.333 -46.667 -75 -56z" />
    <glyph glyph-name="hyphen" unicode="-" horiz-adv-x="327" 
d="M302 264h-277v56h277v-56z" />
    <glyph glyph-name="period" unicode="." horiz-adv-x="204" 
d="M50 53c0 14.667 5 27.167 15 37.5s22 15.5 36 15.5c15.333 0 28 -5 38 -15s15 -22.667 15 -38c0 -14 -5.16699 -26 -15.5 -36s-22.833 -15 -37.5 -15c-14 0 -26 5 -36 15s-15 22 -15 36z" />
    <glyph glyph-name="slash" unicode="/" horiz-adv-x="325" 
d="M268 730h57l-269 -858h-56z" />
    <glyph glyph-name="zero" unicode="0" horiz-adv-x="535" 
d="M265 -9c-71.333 0 -123.334 26.501 -156.001 79.501s-49 136.167 -49 249.5c0 224 70 336 210 336c70.667 0 122.5 -26.667 155.5 -80s49.5 -136.333 49.5 -249s-17.167 -196.834 -51.5 -252.501s-87.166 -83.5 -158.499 -83.5zM121.999 327.001
c0 -94 11.5 -164.168 34.5 -210.501s60.5 -69.5 112.5 -69.5s89 21.833 111 65.5s33 112.834 33 207.501c0 94 -11.667 164.167 -35 210.5s-61 69.5 -113 69.5s-88.833 -22 -110.5 -66s-32.5 -113 -32.5 -207z" />
    <glyph glyph-name="one" unicode="1" horiz-adv-x="394" 
d="M201 647h66v-647h-59v411l3 172h-4l-70 -50l-84 -59l-36 50z" />
    <glyph glyph-name="two" unicode="2" horiz-adv-x="461" 
d="M102 60l0.000976562 -3.99902l97 1h209v-57h-368l-10 56c2 2 40.333 45.333 115 130s112.667 128 114 130c48.667 54 73 110.333 73 169c0 34 -10.5 61.167 -31.5 81.5s-49.167 30.5 -84.5 30.5c-60 0 -97 -31.667 -111 -95l-61 16c9.33301 38 29.5 69.667 60.5 95
s69.833 38 116.5 38c52.667 0 94.667 -14.833 126 -44.5s47 -68.834 47 -117.501c0 -69.333 -31.667 -140.333 -95 -213l-95 -108l-16 -17l-34.5 -37l-34.5 -37c-10.667 -11.333 -16.334 -17 -17.001 -17z" />
    <glyph glyph-name="three" unicode="3" horiz-adv-x="474" 
d="M297 331l0.00292969 -3.99902c33.333 -4.66699 60.666 -18.5 81.999 -41.5s32 -57.833 32 -104.5c0 -60 -17.333 -106.5 -52 -139.5s-84 -49.5 -148 -49.5c-40 0 -75.333 8.66699 -106 26s-53.667 38.666 -69 63.999l50 37c28.667 -47.333 72.667 -71 132 -71
c90.667 0 136 43.333 136 130c0 44 -12.5 74.833 -37.5 92.5s-64.5 26.5 -118.5 26.5h-41v53h41c90.667 0 136 44 136 132c0 34.667 -10 62.834 -30 84.501s-49 32.5 -87 32.5c-61.333 0 -99.333 -29.333 -114 -88l-60 15c9.33301 37.333 29.666 68 60.999 92s70 36 116 36
c53.333 0 96 -14.667 128 -44s48 -70.333 48 -123c0 -44 -9.33301 -79.333 -28 -106s-42.334 -43.334 -71.001 -50.001z" />
    <glyph glyph-name="four" unicode="4" horiz-adv-x="484" 
d="M314 159h-273l-15 55l264 433h81v-434h95v-54h-95v-159h-57v159zM316 585h-4l-68 -118l-154 -254h224v235z" />
    <glyph glyph-name="five" unicode="5" horiz-adv-x="490" 
d="M241 -8c-82 0 -143 35 -183 105l59 31c25.333 -53.333 69 -80 131 -80c44 0 77 13.167 99 39.5s33 63.5 33 111.5c0 91.333 -43.333 137 -130 137c-40 0 -72 -13.333 -96 -40l-71 25l28 326h302v-56h-250l-20 -236l5 -1c29.333 23.333 66.666 35 111.999 35
c58 0 102.833 -15.5 134.5 -46.5s47.5 -77.167 47.5 -138.5c0 -66 -18.167 -117.833 -54.5 -155.5s-85.166 -56.5 -146.499 -56.5z" />
    <glyph glyph-name="six" unicode="6" horiz-adv-x="495" 
d="M146 386l3 -1.99902c29.333 19.333 69.333 29 120 29c55.333 0 98.833 -17.333 130.5 -52s47.5 -84.334 47.5 -149.001c0 -68 -17.833 -121.833 -53.5 -161.5s-83.167 -59.5 -142.5 -59.5c-127.333 0 -191 79.667 -191 239c0 93.333 22.5 177 67.5 251
s97.833 129.333 158.5 166h89v-6c-56 -33.333 -102.5 -69.833 -139.5 -109.5s-66.833 -88.167 -89.5 -145.5zM255 357.001c-49.333 0 -91.334 -12 -126.001 -36c-6 -20 -9 -50 -9 -90c0 -64.667 12.167 -112 36.5 -142s56.833 -45 97.5 -45
c42.667 0 75.334 13.333 98.001 40s34 65.667 34 117c0 104 -43.667 156 -131 156z" />
    <glyph glyph-name="seven" unicode="7" horiz-adv-x="419" 
d="M324 585v4.00098c-29.333 -0.666992 -67.333 -1 -114 -1h-201v59h362l15 -59l-113 -240c-56.667 -118.667 -85 -225.667 -85 -321v-27h-59v27c0 101.333 30.333 216.666 91 345.999l53 116z" />
    <glyph glyph-name="eight" unicode="8" horiz-adv-x="531" 
d="M264 354c40 0 71.501 11.167 94.501 33.5s34.5 54.833 34.5 97.5c0 36 -11.333 64.667 -34 86s-54 32 -94 32s-71.167 -10.167 -93.5 -30.5s-33.5 -48.833 -33.5 -85.5c0 -42 11.167 -74.667 33.5 -98s53.166 -35 92.499 -35zM263.001 -9
c-64.667 0 -114.666 14.832 -149.999 44.499s-53 74.5 -53 134.5c0 44.667 10.667 80 32 106s48.333 44 81 54v4c-26 5.33301 -47.833 20.333 -65.5 45s-26.5 59 -26.5 103c0 56 17.5 99 52.5 129s80.167 45 135.5 45c54.667 0 98.5 -14.333 131.5 -43s49.5 -70 49.5 -124
c0 -81.333 -31.667 -132.333 -95 -153v-4c32.667 -6 60 -21.667 82 -47s33 -61.666 33 -108.999c0 -59.333 -18.333 -105 -55 -137s-87.334 -48 -152.001 -48zM261.002 302.999c-46 0 -80.667 -11 -104 -33s-35 -54 -35 -96s12.333 -74.333 37 -97s60 -34 106 -34
c96 0 144 43 144 129c0 87.333 -49.333 131 -148 131z" />
    <glyph glyph-name="nine" unicode="9" horiz-adv-x="490" 
d="M347 269l-2.99902 1.99902c-32.667 -20 -73.334 -30 -122.001 -30c-54.667 0 -98.167 16.833 -130.5 50.5s-48.5 82.5 -48.5 146.5c0 66.667 18.333 119.667 55 159s84.334 59 143.001 59c126 0 189 -79 189 -237c0 -94 -22.333 -178.333 -67 -253
s-96.334 -130 -155.001 -166h-91v6c115.333 68.667 192 156.334 230 263.001zM238.001 295.999c46 0 87.333 13 124 39c4 24.667 6 52 6 82c0 122.667 -44 184 -132 184c-42 0 -74.333 -13 -97 -39s-34 -63.667 -34 -113c0 -102 44.333 -153 133 -153z" />
    <glyph glyph-name="colon" unicode=":" horiz-adv-x="204" 
d="M50 467c0 14.667 5 27.167 15 37.5s22 15.5 36 15.5c15.333 0 28 -5 38 -15s15 -22.667 15 -38c0 -14 -5.16699 -26 -15.5 -36s-22.833 -15 -37.5 -15c-14 0 -26 5 -36 15s-15 22 -15 36zM50 62c0 14.667 5 27.167 15 37.5s22 15.5 36 15.5
c15.333 0 28 -5.16699 38 -15.5s15 -22.833 15 -37.5c0 -14 -5.16699 -26 -15.5 -36s-22.833 -15 -37.5 -15c-14 0 -26 5 -36 15s-15 22 -15 36z" />
    <glyph glyph-name="semicolon" unicode=";" horiz-adv-x="227" 
d="M62 468c0 14.667 5 27.167 15 37.5s22 15.5 36 15.5c15.333 0 28 -5.16699 38 -15.5s15 -22.833 15 -37.5c0 -14 -5.16699 -26 -15.5 -36s-22.833 -15 -37.5 -15c-14 0 -26 5 -36 15s-15 22 -15 36zM67 -131l-16.999 30.999c44.667 18.667 67 44.334 67 77.001
c0 15.333 -4.83301 27.833 -14.5 37.5s-24.167 19.834 -43.5 30.501v5c0 15.333 5.16699 28.166 15.5 38.499s23.166 15.5 38.499 15.5c18 0 33.167 -7 45.5 -21s18.5 -34 18.5 -60c0 -37.333 -11.667 -70 -35 -98s-48.333 -46.667 -75 -56z" />
    <glyph glyph-name="less" unicode="&#x3c;" horiz-adv-x="520" 
d="M87 343l143 -62l259 -118v-63l-459 214v63l459 214v-63l-259 -119l-143 -62v-4z" />
    <glyph glyph-name="equal" unicode="=" horiz-adv-x="520" 
d="M30 420v56h459v-56h-459zM30 198v56h459v-56h-459z" />
    <glyph glyph-name="greater" unicode="&#x3e;" horiz-adv-x="520" 
d="M432 347l-143 62l-259 119v63l459 -214v-63l-459 -214v63l259 118l143 62v4z" />
    <glyph glyph-name="question" unicode="?" horiz-adv-x="479" 
d="M250 656c-50.667 0 -91.999 -15.334 -123.999 -46.001l-40 49c41.333 35.333 95.666 53 162.999 53c53.333 0 95.666 -13.167 126.999 -39.5s47 -64.166 47 -113.499c0 -23.333 -2.66699 -44.5 -8 -63.5s-14 -37 -26 -54s-22.5 -30.5 -31.5 -40.5
s-22.167 -23.333 -39.5 -40l-112 -106c-18.667 7.33301 -28 19.666 -28 36.999c0 14.667 9.5 31.667 28.5 51s40 37.833 63 55.5s44 40.334 63 68.001s28.5 55.834 28.5 84.501c0 33.333 -9.66699 59.166 -29 77.499s-46.666 27.5 -81.999 27.5zM195.001 52.999
c0 14.667 5 27.167 15 37.5s22 15.5 36 15.5c14.667 0 27.167 -5 37.5 -15s15.5 -22.667 15.5 -38c0 -14 -5.16699 -26 -15.5 -36s-22.833 -15 -37.5 -15c-14 0 -26 5 -36 15s-15 22 -15 36z" />
    <glyph glyph-name="at" unicode="@" horiz-adv-x="889" 
d="M618 -67c-26 -18 -58.998 -32.1699 -98.998 -42.5029s-79 -15.5 -117 -15.5c-106.667 0 -189.667 29.833 -249 89.5s-89 140.167 -89 241.5c0 76.667 19 148.5 57 215.5s89.667 120.333 155 160s136.333 59.5 213 59.5c101.333 0 182.666 -27.833 243.999 -83.5
s92 -129.5 92 -221.5c0 -77.333 -19 -142.666 -57 -195.999s-87.333 -80 -148 -80c-45.333 0 -74 17 -86 51h-4c-30.667 -36 -70.667 -54 -120 -54c-46 0 -80.333 14 -103 42s-34 64.333 -34 109c0 72.667 21.667 132.334 65 179.001s96.333 70 159 70
c45.333 0 83.666 -8.66699 114.999 -26l-26 -178c-6 -39.333 -9 -69.666 -9 -90.999c0 -34 16.667 -51 50 -51c42 0 75.833 20.667 101.5 62s38.5 94 38.5 158c0 82 -25.667 145.167 -77 189.5s-121 66.5 -209 66.5c-96 0 -179.667 -37.667 -251 -113s-107 -163 -107 -263
c0 -91.333 24.5 -161.166 73.5 -209.499s120.833 -72.5 215.5 -72.5c32 0 64.5 4.66699 97.5 14s60.5 21.666 82.5 36.999zM419.002 106.997c24 0 46.001 6.83301 66.001 20.5s33.667 30.167 41 49.5c2 28 3.66699 46 5 54l23 166c-16.667 6 -36.334 9 -59.001 9
c-48.667 0 -88.5 -18 -119.5 -54s-46.5 -80.333 -46.5 -133c0 -74.667 30 -112 90 -112z" />
    <glyph glyph-name="A" unicode="A" horiz-adv-x="575" 
d="M158 272h258l-89 272l-38 116h-4l-37 -114zM505 0l-71 216h-294l-71 -216h-63l231 701h101l231 -701h-64z" />
    <glyph glyph-name="B" unicode="B" horiz-adv-x="594" 
d="M401 358c39.333 -4.66699 70.666 -20.999 93.999 -48.999s35 -66.333 35 -115c0 -61.333 -18.833 -109 -56.5 -143s-93.5 -51 -167.5 -51h-208v701h205c56.667 0 102.834 -14.5 138.501 -43.5s53.5 -73.833 53.5 -134.5c0 -43.333 -8.5 -79.333 -25.5 -108
s-39.833 -46.334 -68.5 -53.001v-4zM434 518.001c0 85.333 -48.333 128.001 -145 128.001h-132v-266h138c47.333 0 82.333 10.667 105 32s34 56.666 34 105.999zM308 55.002c55.333 0 95.833 10.167 121.5 30.5s38.5 54.833 38.5 103.5c0 90.667 -54.333 136 -163 136h-148
v-270h151z" />
    <glyph glyph-name="C" unicode="C" horiz-adv-x="563" 
d="M65 346c0 116.667 24.168 206.667 72.501 270s117.833 95 208.5 95c77.333 0 136.333 -17 177 -51l-37 -48c-36 28 -85 42 -147 42c-67.333 0 -119.5 -25 -156.5 -75s-55.5 -125.667 -55.5 -227c0 -100.667 18.5 -176.667 55.5 -228s91.167 -77 162.5 -77
c65.333 0 112 13 140 39l34 -43c-38 -35.333 -99.333 -53 -184 -53c-90.667 0 -158.334 31.167 -203.001 93.5s-67 149.833 -67 262.5z" />
    <glyph glyph-name="D" unicode="D" horiz-adv-x="637" 
d="M98 0v701h175c102.667 0 178.167 -27.833 226.5 -83.5s72.5 -143.167 72.5 -262.5c0 -120.667 -24.833 -210 -74.5 -268s-125.5 -87 -227.5 -87h-172zM158 644l0.000976562 -587.001h115c81.333 0 141.166 21.833 179.499 65.5s57.5 118.5 57.5 224.5
c0 106.667 -20 182.834 -60 228.501s-101 68.5 -183 68.5h-109z" />
    <glyph glyph-name="E" unicode="E" horiz-adv-x="518" 
d="M473 0h-375v701h360v-56h-300v-262h265v-56h-265v-271h315v-56z" />
    <glyph glyph-name="F" unicode="F" horiz-adv-x="481" 
d="M160 0h-62v701h357v-56h-295v-278h261v-56h-261v-311z" />
    <glyph glyph-name="G" unicode="G" horiz-adv-x="630" 
d="M358 711c83.333 0 145.001 -18.333 185.001 -55l-39 -48c-34 30.667 -84.333 46 -151 46c-29.333 0 -56.166 -4.33301 -80.499 -13s-48 -23.5 -71 -44.5s-41.167 -52.167 -54.5 -93.5s-20 -91.333 -20 -150c0 -107.333 18.667 -185.333 56 -234s92.666 -73 165.999 -73
c61.333 0 107.666 10.667 138.999 32v277h60v-302c-48.667 -42 -119 -63 -211 -63c-89.333 0 -157 30 -203 90s-69 149.667 -69 269c0 120.667 27.167 211.167 81.5 271.5s124.833 90.5 211.5 90.5z" />
    <glyph glyph-name="H" unicode="H" horiz-adv-x="678" 
d="M520 701h60v-701h-60v328h-362v-328h-60v701h60v-317h362v317z" />
    <glyph glyph-name="I" unicode="I" horiz-adv-x="276" 
d="M108 0v701h60v-701h-60z" />
    <glyph glyph-name="J" unicode="J" horiz-adv-x="373" 
d="M9 7l21 56c25.333 -13.333 57 -20 95 -20c32 0 55 7.5 69 22.5s21 39.167 21 72.5v563h60v-563c0 -45.333 -13 -81.833 -39 -109.5s-65.667 -41.5 -119 -41.5c-45.333 0 -81.333 6.66699 -108 20z" />
    <glyph glyph-name="K" unicode="K" horiz-adv-x="559" 
d="M158 701v-701h-60v701h60zM190 349l257 352h71l-257 -353l280 -348h-78l-273 345v4z" />
    <glyph glyph-name="L" unicode="L" horiz-adv-x="486" 
d="M98 701h60v-645h313v-56h-373v701z" />
    <glyph glyph-name="M" unicode="M" horiz-adv-x="841" 
d="M417 169h6l220 532h100v-701h-59v631h-6l-110.5 -263l-110.5 -263h-74l-220 526h-6v-631h-59v701h100z" />
    <glyph glyph-name="N" unicode="N" horiz-adv-x="690" 
d="M163 631h-8v-631h-57v701h93l261 -489l76 -142h8v631h56v-701h-92l-260 487z" />
    <glyph glyph-name="O" unicode="O" horiz-adv-x="664" 
d="M127 354c0 -110 17.666 -188.665 52.999 -235.998s86.333 -71 153 -71s117.334 22.667 152.001 68s52 122.666 52 231.999c0 110 -17.667 188.667 -53 236s-86.333 71 -153 71c-66 0 -116.5 -22.833 -151.5 -68.5s-52.5 -122.834 -52.5 -231.501zM598.999 354.002
c0 -242.667 -90.333 -364 -271 -364c-175.333 0 -263 119 -263 357c0 242.667 90.333 364 271 364c175.333 0 263 -119 263 -357z" />
    <glyph glyph-name="P" unicode="P" horiz-adv-x="549" 
d="M289 701c71.333 0 126.167 -16.5 164.5 -49.5s57.5 -82.833 57.5 -149.5c0 -70.667 -20.167 -124.667 -60.5 -162s-97.833 -56 -172.5 -56h-120v-284h-60v701h191zM273.001 645l-115 -0.000976562v-305h122c58.667 0 101.5 12.833 128.5 38.5s40.5 64.834 40.5 117.501
s-14.667 90.667 -44 114s-73.333 35 -132 35z" />
    <glyph glyph-name="Q" unicode="Q" horiz-adv-x="665" 
d="M439 6l199 -120.999l-66 -36l-212 142c-46 -3.33301 -86.5 0.666992 -121.5 12s-63.333 27.5 -85 48.5s-39.167 47.667 -52.5 80s-22.5 65.833 -27.5 100.5s-7.5 73 -7.5 115c0 242.667 90.333 364 271 364c175.333 0 263 -119 263 -357
c0 -188.667 -53.667 -303.334 -161 -344.001v-4zM128 354.001c0 -110 17.666 -188.665 52.999 -235.998s86.333 -71 153 -71s117.334 22.667 152.001 68s52 122.666 52 231.999c0 110 -17.667 188.667 -53 236s-86.333 71 -153 71c-66 0 -116.5 -22.833 -151.5 -68.5
s-52.5 -122.834 -52.5 -231.501z" />
    <glyph glyph-name="R" unicode="R" horiz-adv-x="590" 
d="M98 701h161.999c154 0 231 -65 231 -195c0 -54 -15.667 -98.167 -47 -132.5s-69.333 -53.5 -114 -57.5v-4c28.667 -12 56.334 -40.667 83.001 -86l135 -226h-72l-130 223c-30 50.667 -70.333 76 -121 76h-67v-299h-60v701zM157.999 645v-291h99
c114.667 0 172 48.333 172 145c0 52 -14.833 89.333 -44.5 112s-74.5 34 -134.5 34h-92z" />
    <glyph glyph-name="S" unicode="S" horiz-adv-x="522" 
d="M249 47c50.667 0 90.167 12.1689 118.5 36.502s42.5 55.5 42.5 93.5c0 23.333 -6.16699 43.833 -18.5 61.5s-28.5 32.5 -48.5 44.5s-41.833 23.333 -65.5 34s-47.5 22 -71.5 34s-46 25.333 -66 40s-36.167 33.667 -48.5 57s-18.5 50 -18.5 80c0 52 19.667 95.5 59 130.5
s89.333 52.5 150 52.5c70 0 127.333 -17.333 172 -52l-37 -49c-39.333 29.333 -85.333 44 -138 44c-44.667 0 -80 -11.333 -106 -34s-39 -52.334 -39 -89.001c0 -32 11.5 -59.333 34.5 -82s51 -41.334 84 -56.001l99.5 -46c33.333 -16 61.5 -38 84.5 -66
s34.5 -61.667 34.5 -101c0 -54.667 -20.333 -100 -61 -136s-95.667 -54 -165 -54c-86.667 0 -157.667 23.333 -213 70l37 48c52 -40.667 112 -61 180 -61z" />
    <glyph glyph-name="T" unicode="T" horiz-adv-x="469" 
d="M205 0v645h-191v56h441v-56h-190v-645h-60z" />
    <glyph glyph-name="U" unicode="U" horiz-adv-x="675" 
d="M340 47c120 0 180.001 60.667 180.001 182v472h60v-466c0 -78 -21.333 -138.333 -64 -181s-103.334 -64 -182.001 -64c-76 0 -134.833 20.667 -176.5 62s-62.5 100.333 -62.5 177v472h60v-465c0 -64 16.5 -111.5 49.5 -142.5s78.167 -46.5 135.5 -46.5z" />
    <glyph glyph-name="V" unicode="V" horiz-adv-x="583" 
d="M241 0l-231 701h65l176 -537l40 -121h4l40 121l176 537h62l-231 -701h-101z" />
    <glyph glyph-name="W" unicode="W" horiz-adv-x="916" 
d="M240 51h4l45 176l120 474h98l123 -480l44 -170h4l44 169l124 481h60l-181 -701h-98l-124 485l-44 170h-4l-43 -171l-123 -484h-98l-181 701h61l123 -474z" />
    <glyph glyph-name="X" unicode="X" horiz-adv-x="577" 
d="M288 314h-5l-195 -314h-68l230 360l-217 341h72l181 -291h5l180 291h68l-215 -338l233 -363h-72z" />
    <glyph glyph-name="Y" unicode="Y" horiz-adv-x="518" 
d="M520 701l-231 -441v-260h-60v260l-231 441h70l191 -377h4l191 377h66z" />
    <glyph glyph-name="Z" unicode="Z" horiz-adv-x="505" 
d="M101 61v-4h367v-57h-428l-11 59l366 581v4h-334v57h393l11 -59z" />
    <glyph glyph-name="bracketleft" unicode="[" horiz-adv-x="294" 
d="M153 748v-902h111v-49h-169v1000h169v-49h-111z" />
    <glyph glyph-name="backslash" unicode="\" horiz-adv-x="325" 
d="M57 730l268 -858h-56l-269 858h57z" />
    <glyph glyph-name="bracketright" unicode="]" horiz-adv-x="294" 
d="M141 748h-111v49h169v-1000h-169v49h111v902z" />
    <glyph glyph-name="asciicircum" unicode="^" horiz-adv-x="520" 
d="M258 665l-61 -142l-89 -203h-62l173 381h82l173 -380h-62l-89 203l-61 141h-4z" />
    <glyph glyph-name="underscore" unicode="_" horiz-adv-x="476" 
d="M476 -111h-476v56h476v-56z" />
    <glyph glyph-name="grave" unicode="`" horiz-adv-x="500" 
d="M136 743l61 33l167 -122l-40 -28z" />
    <glyph glyph-name="a" unicode="a" horiz-adv-x="544" 
d="M372 122v133c-74.667 2 -136 -6.83301 -184 -26.5s-72 -50.834 -72 -93.501c0 -27.333 9.5 -50.166 28.5 -68.499s45.167 -27.5 78.5 -27.5c32 0 61.167 8.16699 87.5 24.5s46.833 35.833 61.5 58.5zM251 546c56 0 99.1699 -13.332 129.503 -39.999
s45.5 -66.334 45.5 -119.001v-252c0 -60.667 19 -91 57 -91h13v-45c-4 -1.33301 -9.33301 -2 -16 -2c-50.667 0 -83.334 22.333 -98.001 67h-4c-12.667 -14 -24.167 -25.333 -34.5 -34s-27.5 -17.667 -51.5 -27s-50.667 -14 -80 -14c-47.333 0 -85 14 -113 42s-42 61 -42 99
c0 58 27.667 102 83 132s132.666 44.333 231.999 43v63c0 46 -10.167 78.167 -30.5 96.5s-51.5 27.5 -93.5 27.5c-56.667 0 -100.334 -22.333 -131.001 -67l-43 36c40.667 56.667 99.667 85 177 85z" />
    <glyph glyph-name="b" unicode="b" horiz-adv-x="548" 
d="M87 17v741.999h58v-261h4c34 30 80 45 138 45c59.333 0 108 -21.167 146 -63.5s57 -106.166 57 -191.499c0 -92 -22 -164.667 -66 -218s-109.333 -80 -196 -80c-59.333 0 -106.333 9 -141 27zM241 43.999c57.333 0 103.167 20 137.5 60s51.5 97.667 51.5 173
c0 76.667 -15.167 131.334 -45.5 164.001s-68.5 49 -114.5 49c-23.333 0 -46.5 -5.33301 -69.5 -16s-41.5 -25.334 -55.5 -44.001v-369c26 -11.333 58 -17 96 -17z" />
    <glyph glyph-name="c" unicode="c" horiz-adv-x="463" 
d="M58 261c0 96 20.335 167.667 61.002 215s94.667 71 162 71c63.333 0 111.666 -16.667 144.999 -50l-39 -47c-30 28.667 -67 43 -111 43c-105.333 0 -158 -74.333 -158 -223c0 -149.333 52.667 -224 158 -224c47.333 0 83.666 13.333 108.999 40l35 -45
c-31.333 -32.667 -81 -49 -149 -49c-142 0 -213 89.667 -213 269z" />
    <glyph glyph-name="d" unicode="d" horiz-adv-x="549" 
d="M404 530l0.000976562 228.998h58v-759h-42l-15 58h-4c-12 -20 -30.667 -36.5 -56 -49.5s-54.333 -19.5 -87 -19.5c-64 0 -113.333 21.333 -148 64s-52 107.334 -52 194.001c0 92.667 23.167 164.334 69.5 215.001s110.166 76 191.499 76c28.667 0 57 -2.66699 85 -8z
M268.001 41.998c65.333 0 110.668 32.667 136.001 98v333c-28 7.33301 -56.333 11 -85 11c-134 0 -201 -76.333 -201 -229c0 -76 14.167 -130.5 42.5 -163.5s64.166 -49.5 107.499 -49.5z" />
    <glyph glyph-name="e" unicode="e" horiz-adv-x="535" 
d="M424 87l26.999 -48.001c-42.667 -30 -96.667 -45 -162 -45c-77.333 0 -135.166 21.667 -173.499 65s-57.5 114.333 -57.5 213c0 93.333 21.5 162.5 64.5 207.5s95.5 67.5 157.5 67.5c61.333 0 108.333 -18.667 141 -56s49 -88.333 49 -153c0 -26 -1.66699 -56.667 -5 -92
h-348c4 -71.333 20.5 -122.166 49.5 -152.499s72.5 -45.5 130.5 -45.5c52 0 94.333 13 127 39zM272.999 492.999c-41.333 0 -76.667 -15 -106 -45s-46 -79.333 -50 -148h293c0.666992 9.33301 1 21.333 1 36c0 104.667 -46 157 -138 157z" />
    <glyph glyph-name="f" unicode="f" horiz-adv-x="350" 
d="M347 752l-14.001 -50.999c-19.333 6.66699 -44.666 10 -75.999 10c-50.667 0 -76 -25.667 -76 -77v-95h146v-50h-146v-489h-58v489h-92v50h92v93c0 41.333 12 73.666 36 96.999s59.667 35 107 35c31.333 0 58.333 -4 81 -12z" />
    <glyph glyph-name="g" unicode="g" horiz-adv-x="548" 
d="M461 516l-0.000976562 -528c0 -68.667 -19 -120.667 -57 -156s-90.667 -53 -158 -53c-70 0 -125.333 17.333 -166 52l34 50c36 -32 84 -48 144 -48c51.333 0 88.5 12.833 111.5 38.5s34.5 64.5 34.5 116.5v56h-4c-35.333 -30.667 -81.666 -46 -138.999 -46
c-59.333 0 -108 20.833 -146 62.5s-57 105.167 -57 190.5c0 91.333 22 162.833 66 214.5s109.333 77.5 196 77.5c59.333 0 106.333 -9 141 -27zM402.999 472c-26 11.333 -58 16.999 -96 16.999c-58 0 -104 -19.167 -138 -57.5s-51 -94.833 -51 -169.5
c0 -76.667 15.167 -131 45.5 -163s68.5 -48 114.5 -48c23.333 0 46.5 5.33301 69.5 16s41.5 25.334 55.5 44.001v361z" />
    <glyph glyph-name="h" unicode="h" horiz-adv-x="564" 
d="M309 549c52 0 93.5 -15.667 124.5 -47s46.5 -73.666 46.5 -126.999v-375h-58v367c0 37.333 -10.167 68 -30.5 92s-49.833 36 -88.5 36c-39.333 0 -72.833 -10.333 -100.5 -31s-46.834 -45.334 -57.501 -74.001v-390h-58v759h58v-282h4
c6.66699 8.66699 14.834 17.5 24.501 26.5s27.167 18.833 52.5 29.5s53 16 83 16z" />
    <glyph glyph-name="i" unicode="i" horiz-adv-x="287" 
d="M119 0v539h58v-539h-58zM95 700c0 14 4.66699 25.667 14 35s20.666 14 33.999 14c14 0 25.667 -4.66699 35 -14s14 -21 14 -35c0 -13.333 -4.66699 -24.666 -14 -33.999s-21 -14 -35 -14c-13.333 0 -24.666 4.66699 -33.999 14s-14 20.666 -14 33.999z" />
    <glyph glyph-name="j" unicode="j" horiz-adv-x="244" 
d="M-4 -222l-20.998 51.001c16.667 5.33301 31.167 11.666 43.5 18.999s24.666 18 36.999 32s21.666 33.167 27.999 57.5s9.5 53.166 9.5 86.499v515h58v-517c0 -129.333 -51.667 -210.666 -155 -243.999zM69.002 700.001c0 14 4.66699 25.667 14 35s20.666 14 33.999 14
c14 0 25.667 -4.66699 35 -14s14 -21 14 -35c0 -13.333 -4.66699 -24.666 -14 -33.999s-21 -14 -35 -14c-13.333 0 -24.666 4.66699 -33.999 14s-14 20.666 -14 33.999z" />
    <glyph glyph-name="k" unicode="k" horiz-adv-x="482" 
d="M145 759v-759h-58v759h58zM163 274v4l206 261h77l-210 -259v-4l224 -276h-77z" />
    <glyph glyph-name="l" unicode="l" horiz-adv-x="281" 
d="M94 759l58 -0.000976562v-643c0 -25.333 4.5 -43.666 13.5 -54.999s24.167 -17 45.5 -17c18.667 0 36 4.33301 52 13v-52c-18 -8 -40.333 -12 -67 -12c-68 0 -102 35.667 -102 107v659z" />
    <glyph glyph-name="m" unicode="m" horiz-adv-x="843" 
d="M435 460c10.667 25.333 29.5 46.5 56.5 63.5s60.833 25.5 101.5 25.5c53.333 0 94.333 -15.167 123 -45.5s43 -74.5 43 -132.5v-371h-58v358c0 44.667 -10 78.667 -30 102s-48.667 35 -86 35c-34.667 0 -63.667 -9.83301 -87 -29.5s-38.666 -42.167 -45.999 -67.5v-398
h-58v353c0 45.333 -10 80.333 -30 105s-48.667 37 -86 37c-35.333 0 -64.833 -10.5 -88.5 -31.5s-38.5 -45.5 -44.5 -73.5v-390h-58v539h43l13 -60h4c27.333 46.667 73.666 70 138.999 70c74 0 122.333 -29.667 145 -89h4z" />
    <glyph glyph-name="n" unicode="n" horiz-adv-x="564" 
d="M480 371l-0.000976562 -371.002h-58v357c0 44.667 -11 78.834 -33 102.501s-53.333 35.5 -94 35.5c-35.333 0 -66.5 -10.167 -93.5 -30.5s-45.833 -45.166 -56.5 -74.499v-390h-58v539h43l13 -59h4c5.33301 7.33301 13.333 15.5 24 24.5s28.334 18.667 53.001 29
s51 15.5 79 15.5c54.667 0 97.5 -15 128.5 -45s47.167 -74.333 48.5 -133z" />
    <glyph glyph-name="o" unicode="o" horiz-adv-x="550" 
d="M118 274c0 -77.333 12.833 -134.667 38.5 -172s66.167 -56 121.5 -56c54.667 0 94 18 118 54s36 92 36 168c0 77.333 -12.833 134.5 -38.5 171.5s-66.167 55.5 -121.5 55.5c-54.667 0 -94 -17.833 -118 -53.5s-36 -91.5 -36 -167.5zM272 -8.00098
c-142.667 0 -214 92 -214 276c0 187.333 73.333 281 220 281c142.667 0 214 -91.667 214 -275c0 -188 -73.333 -282 -220 -282z" />
    <glyph glyph-name="p" unicode="p" horiz-adv-x="549" 
d="M491 291c0 -92.667 -23.1689 -164.332 -69.502 -214.999s-110.166 -76 -191.499 -76c-28.667 0 -57 2.66699 -85 8v-202h-58v733h44l13 -57h4c32.667 44.667 80.334 67 143.001 67c64 0 113.333 -21.333 148 -64s52 -107.334 52 -194.001zM144.998 65.002
c28 -7.33301 56.3311 -11 84.998 -11c134 0 201 76.333 201 229c0 76 -14.167 130.5 -42.5 163.5s-64.166 49.5 -107.499 49.5c-61.333 0 -106.666 -28.333 -135.999 -85v-346z" />
    <glyph glyph-name="q" unicode="q" horiz-adv-x="548" 
d="M461 516v-709.999h-58v229h-4c-34 -30 -80 -45 -138 -45c-59.333 0 -108 21.167 -146 63.5s-57 106.166 -57 191.499c0 92 22 164.667 66 218s109.333 80 196 80c59.333 0 106.333 -9 141 -27zM307 489.001c-57.333 0 -103.167 -20 -137.5 -60s-51.5 -97.667 -51.5 -173
c0 -76.667 15.167 -131.334 45.5 -164.001s68.5 -49 114.5 -49c23.333 0 46.5 5.33301 69.5 16s41.5 25.334 55.5 44.001v369c-26 11.333 -58 17 -96 17z" />
    <glyph glyph-name="r" unicode="r" horiz-adv-x="345" 
d="M339 541l0.000976562 -62.001c-20 6 -40 9 -60 9c-66.667 0 -111.334 -25.667 -134.001 -77v-411h-58v539h43l13 -55h4c13.333 18.667 32 33.834 56 45.501s50.333 17.5 79 17.5c22 0 41 -2 57 -6z" />
    <glyph glyph-name="s" unicode="s" horiz-adv-x="468" 
d="M346 141c0 24.667 -9.50391 44.8369 -28.5039 60.5039s-42 28.167 -69 37.5s-54.167 19.333 -81.5 30s-50.5 27 -69.5 49s-28.5 50 -28.5 84c0 40 16 74.167 48 102.5s76 42.5 132 42.5c28 0 55.5 -4.66699 82.5 -14s48.5 -22 64.5 -38l-38 -44
c-26.667 28 -63.667 42 -111 42c-40 0 -70 -8.5 -90 -25.5s-30 -38.5 -30 -64.5c0 -20.667 6.83301 -38.334 20.5 -53.001s30.834 -25.667 51.501 -33s42.834 -16 66.501 -26s45.834 -20 66.501 -30s37.834 -25.333 51.501 -46s20.5 -45.334 20.5 -74.001
c0 -40.667 -16.5 -75.834 -49.5 -105.501s-78.5 -44.5 -136.5 -44.5c-77.333 0 -138.333 21.667 -183 65l38 46c38 -38 87.333 -57 148 -57c40 0 70.833 9.16699 92.5 27.5s32.5 41.166 32.5 68.499z" />
    <glyph glyph-name="t" unicode="t" horiz-adv-x="375" 
d="M237 -5c-88 0 -132 46.667 -132 140v354h-83v38l83 12l16 143h42v-143h152v-50h-152v-347c0 -62.667 28 -94 84 -94c36 0 64.333 6 85 18l17 -49c-28 -14.667 -65.333 -22 -112 -22z" />
    <glyph glyph-name="u" unicode="u" horiz-adv-x="564" 
d="M84 168l-0.00195312 371h58v-354c0 -48 10.5 -83.667 31.5 -107s53.833 -35 98.5 -35c43.333 0 78.666 12.167 105.999 36.5s41 61.5 41 111.5v348h58v-539h-43l-13 58h-4c-5.33301 -8 -13.166 -16.5 -23.499 -25.5s-27.833 -18.5 -52.5 -28.5s-51.667 -15 -81 -15
c-55.333 0 -98.166 15 -128.499 45s-46.166 74.667 -47.499 134z" />
    <glyph glyph-name="v" unicode="v" horiz-adv-x="465" 
d="M77 539l113.001 -341c13.333 -39.333 27 -86.333 41 -141h4c11.333 40 25.666 87 42.999 141l113 341h62l-186 -539h-69l-186 539h65z" />
    <glyph glyph-name="w" unicode="w" horiz-adv-x="737" 
d="M371 487h-4l-123 -487h-86l-144 539h61l81 -311l44 -175h4l36 149l85 337h89l84 -338l36 -148h4l45 175l81 311h59l-145 -539h-86z" />
    <glyph glyph-name="x" unicode="x" horiz-adv-x="466" 
d="M374 0l-141 232h-4l-138 -232h-69l175 280l-165 259h69l131 -212h4l129 212h68l-165 -260l176 -279h-70z" />
    <glyph glyph-name="y" unicode="y" horiz-adv-x="486" 
d="M23 -200l9 55c14.667 -5.33301 31 -8 49 -8c35.333 0 63.5 10 84.5 30s38.833 53 53.5 99l-193 563h62l95 -288l64 -198h4c10 40.667 29.667 106.667 59 198l93 288h60l-192 -580c-18 -54.667 -42.167 -96.167 -72.5 -124.5s-70.833 -42.5 -121.5 -42.5
c-18.667 0 -36.667 2.66699 -54 8z" />
    <glyph glyph-name="z" unicode="z" horiz-adv-x="434" 
d="M96 58v-4h289v-54h-340l-10 68l281 413v4h-258v54h305l15 -68z" />
    <glyph glyph-name="braceleft" unicode="{" horiz-adv-x="321" 
d="M67 330c32 6.66699 55.167 18.5 69.5 35.5s21.5 41.833 21.5 74.5c0 17.333 -3.66699 50.333 -11 99s-11 87 -11 115c0 99.333 43.667 149 131 149c18.667 0 35.667 -3 51 -9l-12 -46c-14.667 5.33301 -28.667 8 -42 8c-46.667 0 -70 -34.667 -70 -104
c0 -22 3.66699 -58.167 11 -108.5s11 -84.833 11 -103.5c0 -75.333 -30.333 -122.333 -91 -141v-4c60.667 -18.667 91 -65.667 91 -141c0 -18.667 -3.66699 -53.167 -11 -103.5s-11 -86.5 -11 -108.5c0 -69.333 23.333 -104 70 -104c13.333 0 27.333 2.66699 42 8l12 -46
c-15.333 -6 -32.333 -9 -51 -9c-87.333 0 -131 49.667 -131 149c0 28 3.66699 66.333 11 115s11 81.667 11 99c0 32.667 -7.16699 57.5 -21.5 74.5s-37.5 28.833 -69.5 35.5v66z" />
    <glyph glyph-name="bar" unicode="|" horiz-adv-x="270" 
d="M160 -239h-50v1071h50v-1071z" />
    <glyph glyph-name="braceright" unicode="}" horiz-adv-x="321" 
d="M254 330v-66c-32 -6.66699 -55.167 -18.5 -69.5 -35.5s-21.5 -41.833 -21.5 -74.5c0 -17.333 3.66699 -50.333 11 -99s11 -87 11 -115c0 -99.333 -43.667 -149 -131 -149c-18.667 0 -35.667 3 -51 9l12 46c14.667 -5.33301 28.667 -8 42 -8c46.667 0 70 34.667 70 104
c0 22 -3.66699 58.167 -11 108.5s-11 84.833 -11 103.5c0 75.333 30.333 122.333 91 141v4c-60.667 18.667 -91 65.667 -91 141c0 18.667 3.66699 53.167 11 103.5s11 86.5 11 108.5c0 69.333 -23.333 104 -70 104c-13.333 0 -27.333 -2.66699 -42 -8l-12 46
c15.333 6 32.333 9 51 9c87.333 0 131 -49.667 131 -149c0 -28 -3.66699 -66.333 -11 -115s-11 -81.667 -11 -99c0 -32.667 7.16699 -57.5 21.5 -74.5s37.5 -28.833 69.5 -35.5z" />
    <glyph glyph-name="asciitilde" unicode="~" horiz-adv-x="520" 
d="M25 273c-1.33301 5.33301 -2 14.332 -2 26.999c0 32.667 9.5 58 28.5 76s44.167 27 75.5 27c33.333 0 79.5 -12.833 138.5 -38.5s100.833 -38.5 125.5 -38.5c34.667 0 52 17.667 52 53c0 8.66699 -1 17.334 -3 26.001l54 -5c1.33301 -5.33301 2 -14.333 2 -27
c0 -32.667 -9.5 -58 -28.5 -76s-44.167 -27 -75.5 -27c-33.333 0 -79.5 12.833 -138.5 38.5s-100.833 38.5 -125.5 38.5c-34.667 0 -52 -17.667 -52 -53c0 -8 1 -16.667 3 -26z" />
    <glyph glyph-name="exclamdown" unicode="&#xa1;" horiz-adv-x="274" 
d="M117 284h45l18 -434h-80c1.33301 39.333 4 108.333 8 207zM189 498c0 -14.667 -5 -27.167 -15 -37.5s-22 -15.5 -36 -15.5c-14.667 0 -27.167 5.16699 -37.5 15.5s-15.5 22.833 -15.5 37.5c0 14 5.16699 26 15.5 36s22.833 15 37.5 15c14 0 26 -5 36 -15s15 -22 15 -36z
" />
    <glyph glyph-name="cent" unicode="&#xa2;" horiz-adv-x="464" 
d="M189 70l150.001 412.001c-16.667 7.33301 -37.334 11 -62.001 11c-105.333 0 -158 -74.333 -158 -223c0 -100.667 23.333 -167.334 70 -200.001zM173.001 -125.999h-54.999l51 140c-73.333 36 -110 118.333 -110 247c0 96 20.333 167.667 61 215s94.667 71 162 71
c25.333 0 51 -3.66699 77 -11l43 118h55l-51 -140c2.66699 -2 5.33398 -4.16699 8.00098 -6.5l7.5 -6.5c2.33301 -2 4.16602 -3.33301 5.49902 -4l-44 -46l-146 -401c10.667 -2.66699 24 -4 40 -4c47.333 0 83.666 13.333 108.999 40l35 -45
c-31.333 -32.667 -81 -49 -149 -49c-17.333 0 -35.333 1.66699 -54 5z" />
    <glyph glyph-name="sterling" unicode="&#xa3;" horiz-adv-x="540" 
d="M128 58l-0.000976562 -4h379v-54h-435l-12 63c45.333 24.667 70.333 71 75 139l8 111h-78v52h82l10 136c4.66699 62 24.667 109.333 60 142s81.333 49 138 49c64 0 114 -19.333 150 -58l-42 -45c-27.333 32 -67.666 48 -120.999 48c-75.333 0 -116.333 -44 -123 -132
l-11 -140h224v-52h-228l-8 -112c-6 -71.333 -28.667 -119 -68 -143z" />
    <glyph glyph-name="currency" unicode="&#xa4;" horiz-adv-x="520" 
d="M46 324c0 50 14.332 94 42.999 132l-61 62l41 41l61 -62c38.667 29.333 83.334 44 134.001 44c48.667 0 91.667 -13.333 129 -40l58 58l41 -41l-58 -58c26.667 -37.333 40 -80.333 40 -129c0 -50 -15 -94.333 -45 -133l63 -62l-41 -41l-63 62
c-37.333 -28 -81.333 -42 -132 -42c-50 0 -92.667 13 -128 39l-59 -59l-41 41l58 58c-26.667 36 -40 79.333 -40 130zM99.999 328c0 -46.667 15 -85.168 45 -115.501s68.333 -45.5 115 -45.5s85 15 115 45s45 68.333 45 115s-15 85.334 -45 116.001s-68.333 46 -115 46
s-85 -15.167 -115 -45.5s-45 -68.833 -45 -115.5z" />
    <glyph glyph-name="yen" unicode="&#xa5;" horiz-adv-x="492" 
d="M16 324h166l-182 364h70l111 -229l65 -145h4l66 147l110 227h66l-183 -364h167v-56h-200v-268h-60v268h-200v56z" />
    <glyph glyph-name="brokenbar" unicode="&#xa6;" horiz-adv-x="270" 
d="M160 392h-50v339h50v-339zM160 -141h-50v339h50v-339z" />
    <glyph glyph-name="section" unicode="&#xa7;" horiz-adv-x="577" 
d="M415 -5h4.99902c25.333 35.333 38 76.333 38 123c0 30.667 -7.66699 59.5 -23 86.5s-34.666 50 -57.999 69l-75.5 60l-75.5 59c-23.333 18.333 -42.666 40.5 -57.999 66.5s-23 53.667 -23 83c0 14 2 29 6 45h-4c-21.333 -32 -32 -71.667 -32 -119
c0 -34.667 10.667 -66.834 32 -96.501s47.166 -55.667 77.499 -78l90.5 -67.5c30 -22.667 55.667 -49 77 -79s32 -62.333 32 -97c0 -17.333 -3 -35.666 -9 -54.999zM106.999 -133l9.99902 57.999c26 -8.66699 54 -13 84 -13c58.667 0 102.167 12.333 130.5 37
s42.5 55.334 42.5 92.001c0 23.333 -7.66699 46 -23 68s-34.333 41.333 -57 58l-74 56.5c-26.667 21 -51.334 41.833 -74.001 62.5s-41.667 46.5 -57 77.5s-23 64.5 -23 100.5c0 74.667 26 138.667 78 192s120.667 80 206 80c32 0 59.333 -3 82 -9l-9 -57
c-22 6.66699 -45.333 10 -70 10c-51.333 0 -91 -11 -119 -33s-42 -51.333 -42 -88c0 -22 5.83301 -43.167 17.5 -63.5s26.834 -39 45.501 -56s39.5 -34 62.5 -51s45.833 -34.833 68.5 -53.5s43.334 -38.167 62.001 -58.5s33.834 -44 45.501 -71s17.5 -55.833 17.5 -86.5
c0 -74 -28.5 -136.5 -85.5 -187.5s-132.5 -76.5 -226.5 -76.5c-30.667 0 -61.334 4 -92.001 12z" />
    <glyph glyph-name="dieresis" unicode="&#xa8;" horiz-adv-x="500" 
d="M121 708c0 12 3.83301 21.833 11.5 29.5s17.5 11.5 29.5 11.5c11.333 0 21 -3.83301 29 -11.5s12 -17.5 12 -29.5c0 -11.333 -4 -21 -12 -29s-17.667 -12 -29 -12c-12 0 -21.833 4 -29.5 12s-11.5 17.667 -11.5 29zM297 708c0 12 4 21.833 12 29.5s17.667 11.5 29 11.5
c12 0 21.833 -3.83301 29.5 -11.5s11.5 -17.5 11.5 -29.5c0 -11.333 -3.83301 -21 -11.5 -29s-17.5 -12 -29.5 -12c-11.333 0 -21 4 -29 12s-12 17.667 -12 29z" />
    <glyph glyph-name="copyright" unicode="&#xa9;" horiz-adv-x="834" 
d="M118 346c0 -87.333 28.333 -159.833 85 -217.5s128.334 -86.5 215.001 -86.5s158 28.167 214 84.5s84 128.166 84 215.499s-28.333 159.833 -85 217.5s-128.334 86.5 -215.001 86.5s-158 -28.167 -214 -84.5s-84 -128.166 -84 -215.499zM60 342
c0 102.667 33.833 187.667 101.5 255s153.167 101 256.5 101c105.333 0 191 -32.833 257 -98.5s99 -150.167 99 -253.5c0 -102.667 -33.833 -187.667 -101.5 -255s-153.167 -101 -256.5 -101c-105.333 0 -191 32.833 -257 98.5s-99 150.167 -99 253.5zM264 341
c0 66 15.667 116.833 47 152.5s71.666 53.5 120.999 53.5c48 0 83 -12.667 105 -38l-30 -41c-19.333 20.667 -45.333 31 -78 31s-59.167 -12.667 -79.5 -38s-30.5 -63.333 -30.5 -114c0 -101.333 37.667 -152 113 -152c30 0 54.667 9.66699 74 29l28 -41
c-26 -24.667 -62 -37 -108 -37c-49.333 0 -88.666 16 -117.999 48s-44 81 -44 147z" />
    <glyph glyph-name="guillemotleft" unicode="&#xab;" horiz-adv-x="463" 
d="M233 267l140 199l40 -30l-112 -169l112 -169l-40 -29zM50 267l140 199l40 -30l-112 -169l112 -169l-40 -29z" />
    <glyph glyph-name="logicalnot" unicode="&#xac;" horiz-adv-x="520" 
d="M500 199h-58v190h-422v56h480v-246z" />
    <glyph glyph-name="registered" unicode="&#xae;" horiz-adv-x="517" 
d="M257 335c49.333 0 89.668 16 121.001 48s47 72 47 120s-15.833 88 -47.5 120s-71.5 48 -119.5 48c-48.667 0 -88.5 -15.667 -119.5 -47s-46.5 -71 -46.5 -119s15.667 -88.333 47 -121s70.666 -49 117.999 -49zM258.002 297c-62 0 -112.167 19 -150.5 57
s-57.5 87.333 -57.5 148s19.667 110.667 59 150s89.333 59 150 59c62 0 112.167 -19 150.5 -57s57.5 -87.333 57.5 -148s-19.667 -110.667 -59 -150s-89.333 -59 -150 -59zM258.002 483h-24v-81h-39v215h67c48 0 72 -21 72 -63c0 -33.333 -13 -53.333 -39 -60l51 -92h-47z
M234.002 517h26c22.667 0 34 11 34 33c0 21.333 -10.333 32 -31 32h-29v-65z" />
    <glyph glyph-name="macron" unicode="&#xaf;" horiz-adv-x="500" 
d="M401 676h-303v46h303v-46z" />
    <glyph glyph-name="degree" unicode="&#xb0;" horiz-adv-x="332" 
d="M30 563c0 39.333 13 71.666 39 96.999s59 38 99 38s72.333 -12 97 -36s37 -55.667 37 -95s-13 -71.666 -39 -96.999s-59 -38 -99 -38s-72.333 12 -97 36s-37 55.667 -37 95zM78 565c0 -25.333 8.66699 -46.833 26 -64.5s38.666 -26.5 63.999 -26.5s46 8.66699 62 26
s24 39 24 65c0 25.333 -8.66699 46.833 -26 64.5s-38.666 26.5 -63.999 26.5s-46 -8.66699 -62 -26s-24 -39 -24 -65z" />
    <glyph glyph-name="plusminus" unicode="&#xb1;" horiz-adv-x="520" 
d="M489 309h-201v-200h201v-56h-459v56h200v200h-200v56h200v202h58v-202h201v-56z" />
    <glyph glyph-name="twosuperior" unicode="&#xb2;" horiz-adv-x="339" 
d="M153 504l-64 -61c18 0.666992 45 1 81 1h131v-46h-271l-7 42l162 167c34.667 36.667 52 70.667 52 102c0 20.667 -6.33301 37.167 -19 49.5s-31 18.5 -55 18.5c-20.667 0 -37.667 -6 -51 -18s-22 -26.667 -26 -44l-52 14c7.33301 26 22 47.5 44 64.5s50 25.5 84 25.5
c40 0 71.167 -9.66699 93.5 -29s33.5 -45 33.5 -77c0 -44 -22.333 -89.333 -67 -136z" />
    <glyph glyph-name="threesuperior" unicode="&#xb3;" horiz-adv-x="344" 
d="M293 709c0 -49.333 -20 -83.666 -60 -102.999c47.333 -10.667 71 -42.334 71 -95.001c0 -39.333 -12.5 -69.666 -37.5 -90.999s-60.833 -32 -107.5 -32c-56.667 0 -99 20.333 -127 61l38 29c22.667 -31.333 53.667 -47 93 -47c60 0 90 26 90 78
c0 26.667 -8.5 45.667 -25.5 57s-43.167 17 -78.5 17h-35v40h35c60.667 0 91 27.333 91 82c0 20.667 -6.66699 37.667 -20 51s-32.666 20 -57.999 20c-40.667 0 -67 -19 -79 -57l-48 13c6.66699 25.333 21.5 46.166 44.5 62.499s51.167 24.5 84.5 24.5
c39.333 0 70.666 -9.83301 93.999 -29.5s35 -46.5 35 -80.5z" />
    <glyph glyph-name="acute" unicode="&#xb4;" horiz-adv-x="500" 
d="M364 743l-188 -117l-40 28l167 122z" />
    <glyph glyph-name="uni00B5" unicode="&#xb5;" horiz-adv-x="599" 
d="M544 51c1.33301 0 3.00098 0.166992 5.00098 0.5s3.66699 0.5 5 0.5v-51c-4.66699 -0.666992 -11.667 -1 -21 -1c-51.333 -0 -84 24.333 -98 73h-4c-28 -54.667 -80.333 -82 -157 -82c-57.333 0 -100.333 17.333 -129 52v-237h-58v733h58v-342
c0 -52.667 10.5 -91 31.5 -115s53.833 -36 98.5 -36c43.333 0 78.666 12.5 105.999 37.5s41 62.167 41 111.5v344h58v-379c0 -40 5 -68.167 15 -84.5s26.333 -24.5 49 -24.5z" />
    <glyph glyph-name="paragraph" unicode="&#xb6;" horiz-adv-x="549" 
d="M416 701v-701h-48v701h48zM264 701l-1 -627.001c0 -102 -35.333 -180.333 -106 -235l-36 34c20 16.667 35.667 31.5 47 44.5s21.833 33.333 31.5 61s14.5 60.834 14.5 99.501v241h-18c-52 0 -93.5 15.5 -124.5 46.5s-46.5 77.167 -46.5 138.5c0 65.333 17 114.5 51 147.5
s82 49.5 144 49.5h44z" />
    <glyph glyph-name="periodcentered" unicode="&#xb7;" horiz-adv-x="214" 
d="M55 352c0 14.667 5 27.167 15 37.5s22 15.5 36 15.5c14.667 0 27.167 -5.16699 37.5 -15.5s15.5 -22.833 15.5 -37.5c0 -14 -5.16699 -26 -15.5 -36s-22.833 -15 -37.5 -15c-14 0 -26 5 -36 15s-15 22 -15 36z" />
    <glyph glyph-name="cedilla" unicode="&#xb8;" horiz-adv-x="500" 
d="M305 -114c0 -56 -29.333 -94.667 -88 -116l-23 34c36.667 18.667 55 44.334 55 77.001c0 21.333 -7.66699 42.666 -23 63.999v4h61c12 -17.333 18 -38.333 18 -63z" />
    <glyph glyph-name="onesuperior" unicode="&#xb9;" horiz-adv-x="280" 
d="M146 809h54v-411h-52v261l3 101h-3c-12 -11.333 -25 -21.333 -39 -30l-68 -42l-28 43z" />
    <glyph glyph-name="guillemotright" unicode="&#xbb;" horiz-adv-x="463" 
d="M230 267l-140 -198l-40 29l112 169l-112 169l40 30zM413 267l-140 -198l-40 29l112 169l-112 169l40 30z" />
    <glyph glyph-name="questiondown" unicode="&#xbf;" horiz-adv-x="389" 
d="M224 -105c50.667 0 91.999 15.334 123.999 46.001l40 -49c-41.333 -35.333 -95.666 -53 -162.999 -53c-53.333 0 -95.666 13.167 -126.999 39.5s-47 64.166 -47 113.499c0 23.333 2.66699 44.5 8 63.5s14 37 26 54s22.5 30.5 31.5 40.5s22.167 23.333 39.5 40l112 106
c18.667 -7.33301 28 -19.666 28 -36.999c0 -14.667 -9.5 -31.667 -28.5 -51s-40 -37.833 -63 -55.5s-44 -40.334 -63 -68.001s-28.5 -55.834 -28.5 -84.501c0 -33.333 9.66699 -59.166 29 -77.499s46.666 -27.5 81.999 -27.5zM278.999 498.001
c0 -14.667 -5 -27.167 -15 -37.5s-22 -15.5 -36 -15.5c-14.667 0 -27.167 5.16699 -37.5 15.5s-15.5 22.833 -15.5 37.5c0 14 5.16699 26 15.5 36s22.833 15 37.5 15c14 0 26 -5 36 -15s15 -22 15 -36z" />
    <glyph glyph-name="Agrave" unicode="&#xc0;" horiz-adv-x="575" 
d="M316 804l-40 -28l-188 117l61 33zM158 272h258l-89 272l-38 116h-4l-37 -114zM505 0l-71 216h-294l-71 -216h-63l231 701h101l231 -701h-64z" />
    <glyph glyph-name="Aacute" unicode="&#xc1;" horiz-adv-x="575" 
d="M470 913l-188 -117l-40 28l167 122zM158 272h258l-89 272l-38 116h-4l-37 -114zM505 0l-71 216h-294l-71 -216h-63l231 701h101l231 -701h-64z" />
    <glyph glyph-name="Acircumflex" unicode="&#xc2;" horiz-adv-x="575" 
d="M287 893l-166 -98l-23 35l189 124l189 -124l-22 -35zM158 272h258l-89 272l-38 116h-4l-37 -114zM505 0l-71 216h-294l-71 -216h-63l231 701h101l231 -701h-64z" />
    <glyph glyph-name="Atilde" unicode="&#xc3;" horiz-adv-x="575" 
d="M417 898l24.0029 -40c-1.33301 -3.33301 -4.83301 -7.5 -10.5 -12.5s-15.334 -10.333 -29.001 -16s-28.834 -8.5 -45.501 -8.5c-14.667 0 -37 5.66699 -67 17s-52 17 -66 17c-26.667 0 -49 -8 -67 -24l-23 40l5 4l9 7c2.66699 2 6.83398 4.5 12.501 7.5
s11.334 5.5 17.001 7.5s12.667 3.66699 21 5s17.166 2 26.499 2c17.333 0 40.666 -5.5 69.999 -16.5s50 -16.5 62 -16.5c27.333 0 47.666 9 60.999 27zM158.003 272h258l-89 272l-38 116h-4l-37 -114zM505.003 0l-71 216h-294l-71 -216h-63l231 701h101l231 -701h-64z" />
    <glyph glyph-name="Adieresis" unicode="&#xc4;" horiz-adv-x="575" 
d="M375 837c-11.333 0 -21 4 -29 12s-12 17.667 -12 29c0 12 4 21.833 12 29.5s17.667 11.5 29 11.5c12 0 21.833 -3.83301 29.5 -11.5s11.5 -17.5 11.5 -29.5c0 -11.333 -3.83301 -21 -11.5 -29s-17.5 -12 -29.5 -12zM199 837c-12 0 -21.833 4 -29.5 12
s-11.5 17.667 -11.5 29c0 12 3.83301 21.833 11.5 29.5s17.5 11.5 29.5 11.5c11.333 0 21 -3.83301 29 -11.5s12 -17.5 12 -29.5c0 -11.333 -4 -21 -12 -29s-17.667 -12 -29 -12zM158 272h258l-89 272l-38 116h-4l-37 -114zM505 0l-71 216h-294l-71 -216h-63l231 701h101
l231 -701h-64z" />
    <glyph glyph-name="Aring" unicode="&#xc5;" horiz-adv-x="575" 
d="M285 948c-18.667 0 -33.166 -5.5 -43.499 -16.5s-15.5 -25.833 -15.5 -44.5c0 -19.333 5.66699 -34.666 17 -45.999s26.666 -17 45.999 -17c18 0 32.167 5.5 42.5 16.5s15.5 25.833 15.5 44.5c0 19.333 -5.66699 34.666 -17 45.999s-26.333 17 -45 17zM285.001 785
c-30.667 0 -55.167 8.83301 -73.5 26.5s-27.5 41.5 -27.5 71.5c0 30.667 9.83301 55.667 29.5 75s44.834 29 75.501 29s55.167 -8.83301 73.5 -26.5s27.5 -41.5 27.5 -71.5c0 -30.667 -9.83301 -55.667 -29.5 -75s-44.834 -29 -75.501 -29zM158.001 272h258l-89 272l-38 116
h-4l-37 -114zM505.001 0l-71 216h-294l-71 -216h-63l231 701h101l231 -701h-64z" />
    <glyph glyph-name="AE" unicode="&#xc6;" horiz-adv-x="830" 
d="M785 0h-353v225h-245l-127 -225h-65l396 701h379v-56h-282v-262h247v-56h-247v-271h297v-56zM432 657h-4l-210 -376h214v376z" />
    <glyph glyph-name="Ccedilla" unicode="&#xc7;" horiz-adv-x="563" 
d="M65 346c0 116.667 24.168 206.667 72.501 270s117.833 95 208.5 95c77.333 0 136.333 -17 177 -51l-37 -48c-36 28 -85 42 -147 42c-67.333 0 -119.5 -25 -156.5 -75s-55.5 -125.667 -55.5 -227c0 -100.667 18.5 -176.667 55.5 -228s91.167 -77 162.5 -77
c65.333 0 112 13 140 39l34 -43c-38 -35.333 -99.333 -53 -184 -53c-90.667 0 -158.334 31.167 -203.001 93.5s-67 149.833 -67 262.5zM397.001 -114c0 -56 -29.333 -94.667 -88 -116l-23 34c36.667 18.667 55 44.334 55 77.001c0 21.333 -7.66699 42.666 -23 63.999v4h61
c12 -17.333 18 -38.333 18 -63z" />
    <glyph glyph-name="Egrave" unicode="&#xc8;" horiz-adv-x="518" 
d="M473 0h-375v701h360v-56h-300v-262h265v-56h-265v-271h315v-56zM89 913l61 33l167 -122l-40 -28z" />
    <glyph glyph-name="Eacute" unicode="&#xc9;" horiz-adv-x="518" 
d="M471 913l-188 -117l-40 28l167 122zM473 0h-375v701h360v-56h-300v-262h265v-56h-265v-271h315v-56z" />
    <glyph glyph-name="Ecircumflex" unicode="&#xca;" horiz-adv-x="518" 
d="M458 830l-22 -35l-167 98l-166 -98l-23 35l189 124zM473 0h-375v701h360v-56h-300v-262h265v-56h-265v-271h315v-56z" />
    <glyph glyph-name="Edieresis" unicode="&#xcb;" horiz-adv-x="518" 
d="M147 878c0 12 3.83301 21.833 11.5 29.5s17.5 11.5 29.5 11.5c11.333 0 21 -3.83301 29 -11.5s12 -17.5 12 -29.5c0 -11.333 -4 -21 -12 -29s-17.667 -12 -29 -12c-12 0 -21.833 4 -29.5 12s-11.5 17.667 -11.5 29zM323 878c0 12 4 21.833 12 29.5s17.667 11.5 29 11.5
c12 0 21.833 -3.83301 29.5 -11.5s11.5 -17.5 11.5 -29.5c0 -11.333 -3.83301 -21 -11.5 -29s-17.5 -12 -29.5 -12c-11.333 0 -21 4 -29 12s-12 17.667 -12 29zM473 0h-375v701h360v-56h-300v-262h265v-56h-265v-271h315v-56z" />
    <glyph glyph-name="Igrave" unicode="&#xcc;" horiz-adv-x="276" 
d="M108 0v701h60v-701h-60zM-51 913l61 33l167 -122l-40 -28z" />
    <glyph glyph-name="Iacute" unicode="&#xcd;" horiz-adv-x="276" 
d="M108 0v701h60v-701h-60zM322 913l-188 -117l-40 28l167 122z" />
    <glyph glyph-name="Icircumflex" unicode="&#xce;" horiz-adv-x="276" 
d="M108 0v701h60v-701h-60zM327 830l-22 -35l-167 98l-166 -98l-23 35l189 124z" />
    <glyph glyph-name="Idieresis" unicode="&#xcf;" horiz-adv-x="276" 
d="M108 0v701h60v-701h-60zM9 878c0 12 3.83301 21.833 11.5 29.5s17.5 11.5 29.5 11.5c11.333 0 21 -3.83301 29 -11.5s12 -17.5 12 -29.5c0 -11.333 -4 -21 -12 -29s-17.667 -12 -29 -12c-12 0 -21.833 4 -29.5 12s-11.5 17.667 -11.5 29zM185 878c0 12 4 21.833 12 29.5
s17.667 11.5 29 11.5c12 0 21.833 -3.83301 29.5 -11.5s11.5 -17.5 11.5 -29.5c0 -11.333 -3.83301 -21 -11.5 -29s-17.5 -12 -29.5 -12c-11.333 0 -21 4 -29 12s-12 17.667 -12 29z" />
    <glyph glyph-name="Eth" unicode="&#xd0;" horiz-adv-x="643" 
d="M164 57l115.001 -0.000976562c81.333 0 141.166 21.833 179.499 65.5s57.5 118.5 57.5 224.5c0 106.667 -20 182.834 -60 228.501s-101 68.5 -183 68.5h-109v-263h172v-48h-172v-276zM104.001 700.999h175c102.667 0 178.167 -27.833 226.5 -83.5
s72.5 -143.167 72.5 -262.5c0 -120.667 -24.833 -210 -74.5 -268s-125.5 -87 -227.5 -87h-172v333h-74v48h74v320z" />
    <glyph glyph-name="Ntilde" unicode="&#xd1;" horiz-adv-x="690" 
d="M214 831l-22.9971 40l5 4l9 7c2.66699 2 6.83398 4.5 12.501 7.5s11.334 5.5 17.001 7.5s12.667 3.66699 21 5s17.166 2 26.499 2c17.333 0 40.666 -5.5 69.999 -16.5s50 -16.5 62 -16.5c27.333 0 47.666 9 60.999 27l24 -40
c-1.33301 -3.33301 -4.83301 -7.5 -10.5 -12.5s-15.334 -10.333 -29.001 -16s-28.834 -8.5 -45.501 -8.5c-14.667 0 -37 5.66699 -67 17s-52 17 -66 17c-26.667 0 -49 -8 -67 -24zM163.003 631h-8v-631h-57v701h93l261 -489l76 -142h8v631h56v-701h-92l-260 487z" />
    <glyph glyph-name="Ograve" unicode="&#xd2;" horiz-adv-x="664" 
d="M127 354c0 -110 17.666 -188.665 52.999 -235.998s86.333 -71 153 -71s117.334 22.667 152.001 68s52 122.666 52 231.999c0 110 -17.667 188.667 -53 236s-86.333 71 -153 71c-66 0 -116.5 -22.833 -151.5 -68.5s-52.5 -122.834 -52.5 -231.501zM598.999 354.002
c0 -242.667 -90.333 -364 -271 -364c-175.333 0 -263 119 -263 357c0 242.667 90.333 364 271 364c175.333 0 263 -119 263 -357zM141.999 913.002l61 33l167 -122l-40 -28z" />
    <glyph glyph-name="Oacute" unicode="&#xd3;" horiz-adv-x="664" 
d="M518 913l-188 -117l-40 28l167 122zM127 354c0 -110 17.666 -188.665 52.999 -235.998s86.333 -71 153 -71s117.334 22.667 152.001 68s52 122.666 52 231.999c0 110 -17.667 188.667 -53 236s-86.333 71 -153 71c-66 0 -116.5 -22.833 -151.5 -68.5
s-52.5 -122.834 -52.5 -231.501zM598.999 354.002c0 -242.667 -90.333 -364 -271 -364c-175.333 0 -263 119 -263 357c0 242.667 90.333 364 271 364c175.333 0 263 -119 263 -357z" />
    <glyph glyph-name="Ocircumflex" unicode="&#xd4;" horiz-adv-x="664" 
d="M521 830l-22 -35l-167 98l-166 -98l-23 35l189 124zM127 354c0 -110 17.666 -188.665 52.999 -235.998s86.333 -71 153 -71s117.334 22.667 152.001 68s52 122.666 52 231.999c0 110 -17.667 188.667 -53 236s-86.333 71 -153 71c-66 0 -116.5 -22.833 -151.5 -68.5
s-52.5 -122.834 -52.5 -231.501zM598.999 354.002c0 -242.667 -90.333 -364 -271 -364c-175.333 0 -263 119 -263 357c0 242.667 90.333 364 271 364c175.333 0 263 -119 263 -357z" />
    <glyph glyph-name="Otilde" unicode="&#xd5;" horiz-adv-x="664" 
d="M127 354c0 -110 17.666 -188.665 52.999 -235.998s86.333 -71 153 -71s117.334 22.667 152.001 68s52 122.666 52 231.999c0 110 -17.667 188.667 -53 236s-86.333 71 -153 71c-66 0 -116.5 -22.833 -151.5 -68.5s-52.5 -122.834 -52.5 -231.501zM598.999 354.002
c0 -242.667 -90.333 -364 -271 -364c-175.333 0 -263 119 -263 357c0 242.667 90.333 364 271 364c175.333 0 263 -119 263 -357zM268.999 904.002c17.333 0 40.6689 -5.5 70.002 -16.5s50 -16.5 62 -16.5c27.333 0 47.666 9 60.999 27l24 -40
c-1.33301 -3.33301 -4.83301 -7.5 -10.5 -12.5s-15.334 -10.333 -29.001 -16s-28.834 -8.5 -45.501 -8.5c-14.667 0 -37 5.66699 -67 17s-52 17 -66 17c-26.667 0 -49 -8 -67 -24l-23 40l5 4l9 7c2.66699 2 6.83398 4.5 12.501 7.5s11.334 5.5 17.001 7.5
s12.667 3.66699 21 5s17.166 2 26.499 2z" />
    <glyph glyph-name="Odieresis" unicode="&#xd6;" horiz-adv-x="664" 
d="M203 878c0 12 3.83301 21.833 11.5 29.5s17.5 11.5 29.5 11.5c11.333 0 21 -3.83301 29 -11.5s12 -17.5 12 -29.5c0 -11.333 -4 -21 -12 -29s-17.667 -12 -29 -12c-12 0 -21.833 4 -29.5 12s-11.5 17.667 -11.5 29zM379 878c0 12 4 21.833 12 29.5s17.667 11.5 29 11.5
c12 0 21.833 -3.83301 29.5 -11.5s11.5 -17.5 11.5 -29.5c0 -11.333 -3.83301 -21 -11.5 -29s-17.5 -12 -29.5 -12c-11.333 0 -21 4 -29 12s-12 17.667 -12 29zM127 354c0 -110 17.666 -188.665 52.999 -235.998s86.333 -71 153 -71s117.334 22.667 152.001 68
s52 122.666 52 231.999c0 110 -17.667 188.667 -53 236s-86.333 71 -153 71c-66 0 -116.5 -22.833 -151.5 -68.5s-52.5 -122.834 -52.5 -231.501zM598.999 354.002c0 -242.667 -90.333 -364 -271 -364c-175.333 0 -263 119 -263 357c0 242.667 90.333 364 271 364
c175.333 0 263 -119 263 -357z" />
    <glyph glyph-name="multiply" unicode="&#xd7;" horiz-adv-x="520" 
d="M64 495l39 38l156 -158l158 159l39 -40l-158 -157l158 -157l-39 -38l-157 157l-157 -158l-39 40l158 157z" />
    <glyph glyph-name="Oslash" unicode="&#xd8;" horiz-adv-x="664" 
d="M499 558l-302 -459.999c33.333 -34 78.666 -51 135.999 -51c66.667 0 117.334 22.667 152.001 68s52 122.666 52 231.999c0 90 -12.667 160.333 -38 211zM165 143.001l302 460.001c-32 34 -77.333 51 -136 51c-66 0 -116.5 -22.833 -151.5 -68.5
s-52.5 -122.834 -52.5 -231.501c0 -92 12.667 -162.333 38 -211zM599 711.002l-61.999 -94c41.333 -60 62 -147.667 62 -263c0 -242.667 -90.333 -364 -271 -364c-70.667 0 -126.334 18 -167.001 54l-34 -53h-62l61 93c-40.667 58 -61 145.667 -61 263
c0 242.667 90.333 364 271 364c68.667 0 124 -18 166 -54l36 54h61z" />
    <glyph glyph-name="Ugrave" unicode="&#xd9;" horiz-adv-x="675" 
d="M340 47c120 0 180.001 60.667 180.001 182v472h60v-466c0 -78 -21.333 -138.333 -64 -181s-103.334 -64 -182.001 -64c-76 0 -134.833 20.667 -176.5 62s-62.5 100.333 -62.5 177v472h60v-465c0 -64 16.5 -111.5 49.5 -142.5s78.167 -46.5 135.5 -46.5zM150.001 913
l61 33l167 -122l-40 -28z" />
    <glyph glyph-name="Uacute" unicode="&#xda;" horiz-adv-x="675" 
d="M537 913l-188 -117l-40 28l167 122zM340 47c120 0 180.001 60.667 180.001 182v472h60v-466c0 -78 -21.333 -138.333 -64 -181s-103.334 -64 -182.001 -64c-76 0 -134.833 20.667 -176.5 62s-62.5 100.333 -62.5 177v472h60v-465c0 -64 16.5 -111.5 49.5 -142.5
s78.167 -46.5 135.5 -46.5z" />
    <glyph glyph-name="Ucircumflex" unicode="&#xdb;" horiz-adv-x="675" 
d="M526 830l-22 -35l-167 98l-166 -98l-23 35l189 124zM340 47c120 0 180.001 60.667 180.001 182v472h60v-466c0 -78 -21.333 -138.333 -64 -181s-103.334 -64 -182.001 -64c-76 0 -134.833 20.667 -176.5 62s-62.5 100.333 -62.5 177v472h60v-465
c0 -64 16.5 -111.5 49.5 -142.5s78.167 -46.5 135.5 -46.5z" />
    <glyph glyph-name="Udieresis" unicode="&#xdc;" horiz-adv-x="675" 
d="M208 878c0 12 3.83301 21.833 11.5 29.5s17.5 11.5 29.5 11.5c11.333 0 21 -3.83301 29 -11.5s12 -17.5 12 -29.5c0 -11.333 -4 -21 -12 -29s-17.667 -12 -29 -12c-12 0 -21.833 4 -29.5 12s-11.5 17.667 -11.5 29zM384 878c0 12 4 21.833 12 29.5s17.667 11.5 29 11.5
c12 0 21.833 -3.83301 29.5 -11.5s11.5 -17.5 11.5 -29.5c0 -11.333 -3.83301 -21 -11.5 -29s-17.5 -12 -29.5 -12c-11.333 0 -21 4 -29 12s-12 17.667 -12 29zM340 47c120 0 180.001 60.667 180.001 182v472h60v-466c0 -78 -21.333 -138.333 -64 -181
s-103.334 -64 -182.001 -64c-76 0 -134.833 20.667 -176.5 62s-62.5 100.333 -62.5 177v472h60v-465c0 -64 16.5 -111.5 49.5 -142.5s78.167 -46.5 135.5 -46.5z" />
    <glyph glyph-name="Yacute" unicode="&#xdd;" horiz-adv-x="518" 
d="M520 701l-231 -441v-260h-60v260l-231 441h70l191 -377h4l191 377h66zM459 913l-188 -117l-40 28l167 122z" />
    <glyph glyph-name="Thorn" unicode="&#xde;" horiz-adv-x="487" 
d="M154 701v-149.001c24.667 10 56.334 15 95.001 15c57.333 0 103.5 -17.333 138.5 -52s52.5 -86 52.5 -154c0 -79.333 -18.333 -137.666 -55 -174.999s-86.334 -56 -149.001 -56c-30.667 0 -58 3.66699 -82 11v-141h-56v701h56zM230 508.999c-28 0 -52.667 -4 -74 -12
v-297c24 -8 49.333 -12 76 -12c97.333 0 146 55.333 146 166c0 103.333 -49.333 155 -148 155z" />
    <glyph glyph-name="germandbls" unicode="&#xdf;" horiz-adv-x="571" 
d="M233 79c34 -22 72.6641 -32.999 115.997 -32.999c36 0 64.833 8.5 86.5 25.5s32.5 39.5 32.5 67.5c0 22.667 -7 42.667 -21 60s-31.167 31.833 -51.5 43.5l-61 34.5c-20.333 11.333 -37.5 25.5 -51.5 42.5s-21 36.5 -21 58.5c0 18 6.66699 36 20 54s28 33.5 44 46.5
s30.667 30.167 44 51.5s20 44 20 68c0 32.667 -10.667 57.5 -32 74.5s-49.333 25.5 -84 25.5c-39.333 0 -70.666 -12.333 -93.999 -37s-35 -61 -35 -109v-552h-58v552c0 66 18.333 115.833 55 149.5s82.667 50.5 138 50.5c51.333 0 92.166 -14.167 122.499 -42.5
s45.5 -65.5 45.5 -111.5c0 -28.667 -6.5 -55.334 -19.5 -80.001s-27.167 -43.834 -42.5 -57.501s-29.5 -27.667 -42.5 -42s-19.5 -26.5 -19.5 -36.5c0 -14 7 -27 21 -39s30.833 -23.667 50.5 -35s39.334 -23.666 59.001 -36.999s36.5 -30.833 50.5 -52.5s21 -46.5 21 -74.5
c0 -42 -15.667 -77.667 -47 -107s-75.666 -44 -132.999 -44c-59.333 0 -105.666 12.667 -138.999 38z" />
    <glyph glyph-name="agrave" unicode="&#xe0;" horiz-adv-x="544" 
d="M372 122v133c-74.667 2 -136 -6.83301 -184 -26.5s-72 -50.834 -72 -93.501c0 -27.333 9.5 -50.166 28.5 -68.499s45.167 -27.5 78.5 -27.5c32 0 61.167 8.16699 87.5 24.5s46.833 35.833 61.5 58.5zM251 546c56 0 99.1699 -13.332 129.503 -39.999
s45.5 -66.334 45.5 -119.001v-252c0 -60.667 19 -91 57 -91h13v-45c-4 -1.33301 -9.33301 -2 -16 -2c-50.667 0 -83.334 22.333 -98.001 67h-4c-12.667 -14 -24.167 -25.333 -34.5 -34s-27.5 -17.667 -51.5 -27s-50.667 -14 -80 -14c-47.333 0 -85 14 -113 42s-42 61 -42 99
c0 58 27.667 102 83 132s132.666 44.333 231.999 43v63c0 46 -10.167 78.167 -30.5 96.5s-51.5 27.5 -93.5 27.5c-56.667 0 -100.334 -22.333 -131.001 -67l-43 36c40.667 56.667 99.667 85 177 85zM68.0029 743.001l61 33l167 -122l-40 -28z" />
    <glyph glyph-name="aacute" unicode="&#xe1;" horiz-adv-x="544" 
d="M372 122v133c-74.667 2 -136 -6.83301 -184 -26.5s-72 -50.834 -72 -93.501c0 -27.333 9.5 -50.166 28.5 -68.499s45.167 -27.5 78.5 -27.5c32 0 61.167 8.16699 87.5 24.5s46.833 35.833 61.5 58.5zM251 546c56 0 99.1699 -13.332 129.503 -39.999
s45.5 -66.334 45.5 -119.001v-252c0 -60.667 19 -91 57 -91h13v-45c-4 -1.33301 -9.33301 -2 -16 -2c-50.667 0 -83.334 22.333 -98.001 67h-4c-12.667 -14 -24.167 -25.333 -34.5 -34s-27.5 -17.667 -51.5 -27s-50.667 -14 -80 -14c-47.333 0 -85 14 -113 42s-42 61 -42 99
c0 58 27.667 102 83 132s132.666 44.333 231.999 43v63c0 46 -10.167 78.167 -30.5 96.5s-51.5 27.5 -93.5 27.5c-56.667 0 -100.334 -22.333 -131.001 -67l-43 36c40.667 56.667 99.667 85 177 85zM449.003 743.001l-188 -117l-40 28l167 122z" />
    <glyph glyph-name="acircumflex" unicode="&#xe2;" horiz-adv-x="544" 
d="M372 122v133c-74.667 2 -136 -6.83301 -184 -26.5s-72 -50.834 -72 -93.501c0 -27.333 9.5 -50.166 28.5 -68.499s45.167 -27.5 78.5 -27.5c32 0 61.167 8.16699 87.5 24.5s46.833 35.833 61.5 58.5zM251 546c56 0 99.1699 -13.332 129.503 -39.999
s45.5 -66.334 45.5 -119.001v-252c0 -60.667 19 -91 57 -91h13v-45c-4 -1.33301 -9.33301 -2 -16 -2c-50.667 0 -83.334 22.333 -98.001 67h-4c-12.667 -14 -24.167 -25.333 -34.5 -34s-27.5 -17.667 -51.5 -27s-50.667 -14 -80 -14c-47.333 0 -85 14 -113 42s-42 61 -42 99
c0 58 27.667 102 83 132s132.666 44.333 231.999 43v63c0 46 -10.167 78.167 -30.5 96.5s-51.5 27.5 -93.5 27.5c-56.667 0 -100.334 -22.333 -131.001 -67l-43 36c40.667 56.667 99.667 85 177 85zM448.003 660.001l-22 -35l-167 98l-166 -98l-23 35l189 124z" />
    <glyph glyph-name="atilde" unicode="&#xe3;" horiz-adv-x="544" 
d="M372 122v133c-74.667 2 -136 -6.83301 -184 -26.5s-72 -50.834 -72 -93.501c0 -27.333 9.5 -50.166 28.5 -68.499s45.167 -27.5 78.5 -27.5c32 0 61.167 8.16699 87.5 24.5s46.833 35.833 61.5 58.5zM251 546c56 0 99.1699 -13.332 129.503 -39.999
s45.5 -66.334 45.5 -119.001v-252c0 -60.667 19 -91 57 -91h13v-45c-4 -1.33301 -9.33301 -2 -16 -2c-50.667 0 -83.334 22.333 -98.001 67h-4c-12.667 -14 -24.167 -25.333 -34.5 -34s-27.5 -17.667 -51.5 -27s-50.667 -14 -80 -14c-47.333 0 -85 14 -113 42s-42 61 -42 99
c0 58 27.667 102 83 132s132.666 44.333 231.999 43v63c0 46 -10.167 78.167 -30.5 96.5s-51.5 27.5 -93.5 27.5c-56.667 0 -100.334 -22.333 -131.001 -67l-43 36c40.667 56.667 99.667 85 177 85zM209.003 734.001c17.333 0 40.6689 -5.5 70.002 -16.5s50 -16.5 62 -16.5
c27.333 0 47.666 9 60.999 27l24 -40c-1.33301 -3.33301 -4.83301 -7.5 -10.5 -12.5s-15.334 -10.333 -29.001 -16s-28.834 -8.5 -45.501 -8.5c-14.667 0 -37 5.66699 -67 17s-52 17 -66 17c-26.667 0 -49 -8 -67 -24l-23 40l5 4l9 7c2.66699 2 6.83398 4.5 12.501 7.5
s11.334 5.5 17.001 7.5s12.667 3.66699 21 5s17.166 2 26.499 2z" />
    <glyph glyph-name="adieresis" unicode="&#xe4;" horiz-adv-x="544" 
d="M372 122v133c-74.667 2 -136 -6.83301 -184 -26.5s-72 -50.834 -72 -93.501c0 -27.333 9.5 -50.166 28.5 -68.499s45.167 -27.5 78.5 -27.5c32 0 61.167 8.16699 87.5 24.5s46.833 35.833 61.5 58.5zM251 546c56 0 99.1699 -13.332 129.503 -39.999
s45.5 -66.334 45.5 -119.001v-252c0 -60.667 19 -91 57 -91h13v-45c-4 -1.33301 -9.33301 -2 -16 -2c-50.667 0 -83.334 22.333 -98.001 67h-4c-12.667 -14 -24.167 -25.333 -34.5 -34s-27.5 -17.667 -51.5 -27s-50.667 -14 -80 -14c-47.333 0 -85 14 -113 42s-42 61 -42 99
c0 58 27.667 102 83 132s132.666 44.333 231.999 43v63c0 46 -10.167 78.167 -30.5 96.5s-51.5 27.5 -93.5 27.5c-56.667 0 -100.334 -22.333 -131.001 -67l-43 36c40.667 56.667 99.667 85 177 85zM140.003 708.001c0 12 3.83301 21.833 11.5 29.5s17.5 11.5 29.5 11.5
c11.333 0 21 -3.83301 29 -11.5s12 -17.5 12 -29.5c0 -11.333 -4 -21 -12 -29s-17.667 -12 -29 -12c-12 0 -21.833 4 -29.5 12s-11.5 17.667 -11.5 29zM316.003 708.001c0 12 4 21.833 12 29.5s17.667 11.5 29 11.5c12 0 21.833 -3.83301 29.5 -11.5s11.5 -17.5 11.5 -29.5
c0 -11.333 -3.83301 -21 -11.5 -29s-17.5 -12 -29.5 -12c-11.333 0 -21 4 -29 12s-12 17.667 -12 29z" />
    <glyph glyph-name="aring" unicode="&#xe5;" horiz-adv-x="544" 
d="M372 122v133c-74.667 2 -136 -6.83301 -184 -26.5s-72 -50.834 -72 -93.501c0 -27.333 9.5 -50.166 28.5 -68.499s45.167 -27.5 78.5 -27.5c32 0 61.167 8.16699 87.5 24.5s46.833 35.833 61.5 58.5zM251 546c56 0 99.1699 -13.332 129.503 -39.999
s45.5 -66.334 45.5 -119.001v-252c0 -60.667 19 -91 57 -91h13v-45c-4 -1.33301 -9.33301 -2 -16 -2c-50.667 0 -83.334 22.333 -98.001 67h-4c-12.667 -14 -24.167 -25.333 -34.5 -34s-27.5 -17.667 -51.5 -27s-50.667 -14 -80 -14c-47.333 0 -85 14 -113 42s-42 61 -42 99
c0 58 27.667 102 83 132s132.666 44.333 231.999 43v63c0 46 -10.167 78.167 -30.5 96.5s-51.5 27.5 -93.5 27.5c-56.667 0 -100.334 -22.333 -131.001 -67l-43 36c40.667 56.667 99.667 85 177 85zM169.003 713.001c0 30.667 9.83301 55.667 29.5 75s44.834 29 75.501 29
s55.167 -8.83301 73.5 -26.5s27.5 -41.5 27.5 -71.5c0 -30.667 -9.83301 -55.667 -29.5 -75s-44.834 -29 -75.501 -29s-55.167 8.83301 -73.5 26.5s-27.5 41.5 -27.5 71.5zM332.003 715.001c0 19.333 -5.66797 34.666 -17.001 45.999s-26.333 17 -45 17
s-33.167 -5.5 -43.5 -16.5s-15.5 -25.833 -15.5 -44.5c0 -19.333 5.83301 -34.666 17.5 -45.999s26.834 -17 45.501 -17c18 0 32.167 5.5 42.5 16.5s15.5 25.833 15.5 44.5z" />
    <glyph glyph-name="ae" unicode="&#xe6;" horiz-adv-x="844" 
d="M409 92h-4.00098c-26.667 -69.333 -88 -104 -184 -104c-58 0 -100.667 14.333 -128 43s-41 63.334 -41 104.001c0 20 2.5 38 7.5 54s14.667 31.833 29 47.5s33 28.834 56 39.501s53.667 19.167 92 25.5s83.166 9.5 134.499 9.5v62c0 79.333 -42.333 119 -127 119
c-54 0 -95.333 -21 -124 -63l-48 37c44.667 53.333 103.334 80 176.001 80c88.667 0 144.334 -29 167.001 -87h4c40 58.667 96 88 168 88c61.333 0 108.666 -18.833 141.999 -56.5s50 -88.834 50 -153.501c0 -32 -1.33301 -62.333 -4 -91h-349
c4 -70.667 20.833 -121.334 50.5 -152.001s73.5 -46 131.5 -46c56 0 101.333 15.667 136 47l28 -50c-37.333 -34 -94.666 -51 -171.999 -51c-94 0 -157.667 32.667 -191 98zM223.999 37c98 0 147 49.001 147 147.001v77c-91.333 0 -157.666 -9 -198.999 -27
s-62 -48.667 -62 -92c0 -30.667 10.667 -55.834 32 -75.501s48.666 -29.5 81.999 -29.5zM577.999 493.001c-40 0 -74.5 -14.667 -103.5 -44s-45.167 -79 -48.5 -149h293c0.666992 9.33301 1 21 1 35c0 50.667 -12 89.667 -36 117s-59.333 41 -106 41z" />
    <glyph glyph-name="ccedilla" unicode="&#xe7;" horiz-adv-x="463" 
d="M58 261c0 96 20.335 167.667 61.002 215s94.667 71 162 71c63.333 0 111.666 -16.667 144.999 -50l-39 -47c-30 28.667 -67 43 -111 43c-105.333 0 -158 -74.333 -158 -223c0 -149.333 52.667 -224 158 -224c47.333 0 83.666 13.333 108.999 40l35 -45
c-31.333 -32.667 -81 -49 -149 -49c-142 0 -213 89.667 -213 269zM314.002 -114c0 -56 -29.333 -94.667 -88 -116l-23 34c36.667 18.667 55 44.334 55 77.001c0 21.333 -7.66699 42.666 -23 63.999v4h61c12 -17.333 18 -38.333 18 -63z" />
    <glyph glyph-name="egrave" unicode="&#xe8;" horiz-adv-x="535" 
d="M424 87l26.999 -48.001c-42.667 -30 -96.667 -45 -162 -45c-77.333 0 -135.166 21.667 -173.499 65s-57.5 114.333 -57.5 213c0 93.333 21.5 162.5 64.5 207.5s95.5 67.5 157.5 67.5c61.333 0 108.333 -18.667 141 -56s49 -88.333 49 -153c0 -26 -1.66699 -56.667 -5 -92
h-348c4 -71.333 20.5 -122.166 49.5 -152.499s72.5 -45.5 130.5 -45.5c52 0 94.333 13 127 39zM272.999 492.999c-41.333 0 -76.667 -15 -106 -45s-46 -79.333 -50 -148h293c0.666992 9.33301 1 21.333 1 36c0 104.667 -46 157 -138 157zM87.998 742.999l61 33l167 -122
l-40 -28z" />
    <glyph glyph-name="eacute" unicode="&#xe9;" horiz-adv-x="535" 
d="M472 743l-188 -117l-40 28l167 122zM424 87l26.999 -48.001c-42.667 -30 -96.667 -45 -162 -45c-77.333 0 -135.166 21.667 -173.499 65s-57.5 114.333 -57.5 213c0 93.333 21.5 162.5 64.5 207.5s95.5 67.5 157.5 67.5c61.333 0 108.333 -18.667 141 -56
s49 -88.333 49 -153c0 -26 -1.66699 -56.667 -5 -92h-348c4 -71.333 20.5 -122.166 49.5 -152.499s72.5 -45.5 130.5 -45.5c52 0 94.333 13 127 39zM272.999 492.999c-41.333 0 -76.667 -15 -106 -45s-46 -79.333 -50 -148h293c0.666992 9.33301 1 21.333 1 36
c0 104.667 -46 157 -138 157z" />
    <glyph glyph-name="ecircumflex" unicode="&#xea;" horiz-adv-x="535" 
d="M456 660l-22 -35l-167 98l-166 -98l-23 35l189 124zM424 87l26.999 -48.001c-42.667 -30 -96.667 -45 -162 -45c-77.333 0 -135.166 21.667 -173.499 65s-57.5 114.333 -57.5 213c0 93.333 21.5 162.5 64.5 207.5s95.5 67.5 157.5 67.5c61.333 0 108.333 -18.667 141 -56
s49 -88.333 49 -153c0 -26 -1.66699 -56.667 -5 -92h-348c4 -71.333 20.5 -122.166 49.5 -152.499s72.5 -45.5 130.5 -45.5c52 0 94.333 13 127 39zM272.999 492.999c-41.333 0 -76.667 -15 -106 -45s-46 -79.333 -50 -148h293c0.666992 9.33301 1 21.333 1 36
c0 104.667 -46 157 -138 157z" />
    <glyph glyph-name="edieresis" unicode="&#xeb;" horiz-adv-x="535" 
d="M138 708c0 12 3.83301 21.833 11.5 29.5s17.5 11.5 29.5 11.5c11.333 0 21 -3.83301 29 -11.5s12 -17.5 12 -29.5c0 -11.333 -4 -21 -12 -29s-17.667 -12 -29 -12c-12 0 -21.833 4 -29.5 12s-11.5 17.667 -11.5 29zM314 708c0 12 4 21.833 12 29.5s17.667 11.5 29 11.5
c12 0 21.833 -3.83301 29.5 -11.5s11.5 -17.5 11.5 -29.5c0 -11.333 -3.83301 -21 -11.5 -29s-17.5 -12 -29.5 -12c-11.333 0 -21 4 -29 12s-12 17.667 -12 29zM424 87l26.999 -48.001c-42.667 -30 -96.667 -45 -162 -45c-77.333 0 -135.166 21.667 -173.499 65
s-57.5 114.333 -57.5 213c0 93.333 21.5 162.5 64.5 207.5s95.5 67.5 157.5 67.5c61.333 0 108.333 -18.667 141 -56s49 -88.333 49 -153c0 -26 -1.66699 -56.667 -5 -92h-348c4 -71.333 20.5 -122.166 49.5 -152.499s72.5 -45.5 130.5 -45.5c52 0 94.333 13 127 39z
M272.999 492.999c-41.333 0 -76.667 -15 -106 -45s-46 -79.333 -50 -148h293c0.666992 9.33301 1 21.333 1 36c0 104.667 -46 157 -138 157z" />
    <glyph glyph-name="igrave" unicode="&#xec;" horiz-adv-x="287" 
d="M119 0v539h58v-539h-58zM-40 743l61 33l167 -122l-40 -28z" />
    <glyph glyph-name="iacute" unicode="&#xed;" horiz-adv-x="287" 
d="M119 0v539h58v-539h-58zM329 743l-188 -117l-40 28l167 122z" />
    <glyph glyph-name="icircumflex" unicode="&#xee;" horiz-adv-x="287" 
d="M119 0v539h58v-539h-58zM333 660l-22 -35l-167 98l-166 -98l-23 35l189 124z" />
    <glyph glyph-name="idieresis" unicode="&#xef;" horiz-adv-x="287" 
d="M119 0v539h58v-539h-58zM15 708c0 12 3.83301 21.833 11.5 29.5s17.5 11.5 29.5 11.5c11.333 0 21 -3.83301 29 -11.5s12 -17.5 12 -29.5c0 -11.333 -4 -21 -12 -29s-17.667 -12 -29 -12c-12 0 -21.833 4 -29.5 12s-11.5 17.667 -11.5 29zM191 708c0 12 4 21.833 12 29.5
s17.667 11.5 29 11.5c12 0 21.833 -3.83301 29.5 -11.5s11.5 -17.5 11.5 -29.5c0 -11.333 -3.83301 -21 -11.5 -29s-17.5 -12 -29.5 -12c-11.333 0 -21 4 -29 12s-12 17.667 -12 29z" />
    <glyph glyph-name="eth" unicode="&#xf0;" horiz-adv-x="518" 
d="M453 263c0 -82 -17.3311 -146.331 -51.998 -192.998s-87 -70 -157 -70c-59.333 0 -106.833 19.667 -142.5 59s-53.5 92.333 -53.5 159c0 70.667 19.5 125.5 58.5 164.5s87.5 58.5 145.5 58.5c47.333 0 85.666 -9.33301 114.999 -28l3 2c-18.667 56 -46.667 106 -84 150
l-142 -86v56l108 66c-34.667 33.333 -76.334 64.666 -125.001 93.999v6h88c31.333 -18.667 60.333 -42 87 -70l119 73v-56l-86 -53c78.667 -96.667 118 -207.334 118 -332.001zM393.002 257.002c0 28 -2.66699 56.999 -8 86.999c-12.667 11.333 -31 21.333 -55 30
s-49.333 13 -76 13c-45.333 0 -81 -13.667 -107 -41s-39 -68.333 -39 -123c0 -55.333 12.833 -97.166 38.5 -125.499s61.167 -42.5 106.5 -42.5c43.333 0 77.5 16.5 102.5 49.5s37.5 83.833 37.5 152.5z" />
    <glyph glyph-name="ntilde" unicode="&#xf1;" horiz-adv-x="564" 
d="M480 371l-0.000976562 -371.002h-58v357c0 44.667 -11 78.834 -33 102.501s-53.333 35.5 -94 35.5c-35.333 0 -66.5 -10.167 -93.5 -30.5s-45.833 -45.166 -56.5 -74.499v-390h-58v539h43l13 -59h4c5.33301 7.33301 13.333 15.5 24 24.5s28.334 18.667 53.001 29
s51 15.5 79 15.5c54.667 0 97.5 -15 128.5 -45s47.167 -74.333 48.5 -133zM218.999 733.998c17.333 0 40.6689 -5.5 70.002 -16.5s50 -16.5 62 -16.5c27.333 0 47.666 9 60.999 27l24 -40c-1.33301 -3.33301 -4.83301 -7.5 -10.5 -12.5s-15.334 -10.333 -29.001 -16
s-28.834 -8.5 -45.501 -8.5c-14.667 0 -37 5.66699 -67 17s-52 17 -66 17c-26.667 0 -49 -8 -67 -24l-23 40l5 4l9 7c2.66699 2 6.83398 4.5 12.501 7.5s11.334 5.5 17.001 7.5s12.667 3.66699 21 5s17.166 2 26.499 2z" />
    <glyph glyph-name="ograve" unicode="&#xf2;" horiz-adv-x="550" 
d="M118 274c0 -77.333 12.833 -134.667 38.5 -172s66.167 -56 121.5 -56c54.667 0 94 18 118 54s36 92 36 168c0 77.333 -12.833 134.5 -38.5 171.5s-66.167 55.5 -121.5 55.5c-54.667 0 -94 -17.833 -118 -53.5s-36 -91.5 -36 -167.5zM272 -8.00098
c-142.667 0 -214 92 -214 276c0 187.333 73.333 281 220 281c142.667 0 214 -91.667 214 -275c0 -188 -73.333 -282 -220 -282zM87 742.999l61 33l167 -122l-40 -28z" />
    <glyph glyph-name="oacute" unicode="&#xf3;" horiz-adv-x="550" 
d="M458 743l-188 -117l-40 28l167 122zM118 274c0 -77.333 12.833 -134.667 38.5 -172s66.167 -56 121.5 -56c54.667 0 94 18 118 54s36 92 36 168c0 77.333 -12.833 134.5 -38.5 171.5s-66.167 55.5 -121.5 55.5c-54.667 0 -94 -17.833 -118 -53.5s-36 -91.5 -36 -167.5z
M272 -8.00098c-142.667 0 -214 92 -214 276c0 187.333 73.333 281 220 281c142.667 0 214 -91.667 214 -275c0 -188 -73.333 -282 -220 -282z" />
    <glyph glyph-name="ocircumflex" unicode="&#xf4;" horiz-adv-x="550" 
d="M464 660l-22 -35l-167 98l-166 -98l-23 35l189 124zM118 274c0 -77.333 12.833 -134.667 38.5 -172s66.167 -56 121.5 -56c54.667 0 94 18 118 54s36 92 36 168c0 77.333 -12.833 134.5 -38.5 171.5s-66.167 55.5 -121.5 55.5c-54.667 0 -94 -17.833 -118 -53.5
s-36 -91.5 -36 -167.5zM272 -8.00098c-142.667 0 -214 92 -214 276c0 187.333 73.333 281 220 281c142.667 0 214 -91.667 214 -275c0 -188 -73.333 -282 -220 -282z" />
    <glyph glyph-name="otilde" unicode="&#xf5;" horiz-adv-x="550" 
d="M118 274c0 -77.333 12.833 -134.667 38.5 -172s66.167 -56 121.5 -56c54.667 0 94 18 118 54s36 92 36 168c0 77.333 -12.833 134.5 -38.5 171.5s-66.167 55.5 -121.5 55.5c-54.667 0 -94 -17.833 -118 -53.5s-36 -91.5 -36 -167.5zM272 -8.00098
c-142.667 0 -214 92 -214 276c0 187.333 73.333 281 220 281c142.667 0 214 -91.667 214 -275c0 -188 -73.333 -282 -220 -282zM212 733.999c17.333 0 40.6689 -5.5 70.002 -16.5s50 -16.5 62 -16.5c27.333 0 47.666 9 60.999 27l24 -40
c-1.33301 -3.33301 -4.83301 -7.5 -10.5 -12.5s-15.334 -10.333 -29.001 -16s-28.834 -8.5 -45.501 -8.5c-14.667 0 -37 5.66699 -67 17s-52 17 -66 17c-26.667 0 -49 -8 -67 -24l-23 40l5 4l9 7c2.66699 2 6.83398 4.5 12.501 7.5s11.334 5.5 17.001 7.5
s12.667 3.66699 21 5s17.166 2 26.499 2z" />
    <glyph glyph-name="odieresis" unicode="&#xf6;" horiz-adv-x="550" 
d="M146 708c0 12 3.83301 21.833 11.5 29.5s17.5 11.5 29.5 11.5c11.333 0 21 -3.83301 29 -11.5s12 -17.5 12 -29.5c0 -11.333 -4 -21 -12 -29s-17.667 -12 -29 -12c-12 0 -21.833 4 -29.5 12s-11.5 17.667 -11.5 29zM322 708c0 12 4 21.833 12 29.5s17.667 11.5 29 11.5
c12 0 21.833 -3.83301 29.5 -11.5s11.5 -17.5 11.5 -29.5c0 -11.333 -3.83301 -21 -11.5 -29s-17.5 -12 -29.5 -12c-11.333 0 -21 4 -29 12s-12 17.667 -12 29zM118 274c0 -77.333 12.833 -134.667 38.5 -172s66.167 -56 121.5 -56c54.667 0 94 18 118 54s36 92 36 168
c0 77.333 -12.833 134.5 -38.5 171.5s-66.167 55.5 -121.5 55.5c-54.667 0 -94 -17.833 -118 -53.5s-36 -91.5 -36 -167.5zM272 -8.00098c-142.667 0 -214 92 -214 276c0 187.333 73.333 281 220 281c142.667 0 214 -91.667 214 -275c0 -188 -73.333 -282 -220 -282z" />
    <glyph glyph-name="divide" unicode="&#xf7;" horiz-adv-x="520" 
d="M30 309v56h459v-56h-459zM207 515c0 14.667 5 27.167 15 37.5s22 15.5 36 15.5c14.667 0 27.167 -5 37.5 -15s15.5 -22.667 15.5 -38c0 -14 -5.16699 -26 -15.5 -36s-22.833 -15 -37.5 -15c-14 0 -26 5 -36 15s-15 22 -15 36zM207 159c0 14.667 5 27.167 15 37.5
s22 15.5 36 15.5c14.667 0 27.167 -5 37.5 -15s15.5 -22.667 15.5 -38c0 -14 -5.16699 -26 -15.5 -36s-22.833 -15 -37.5 -15c-14 0 -26 5 -36 15s-15 22 -15 36z" />
    <glyph glyph-name="oslash" unicode="&#xf8;" horiz-adv-x="550" 
d="M272 -8c-54 0 -97.333 12.667 -130 38l-26 -39h-56v3l48 71c-33.333 45.333 -50 113 -50 203c0 187.333 73.333 281 220 281c53.333 0 97 -13 131 -39l26 39h55v-3l-48 -71c33.333 -46 50 -113 50 -201c0 -188 -73.333 -282 -220 -282zM432 268c0 64 -9 114.667 -27 152
l-229 -340c24.667 -22.667 58.667 -34 102 -34c54.667 0 94 18 118 54s36 92 36 168zM118 274c0 -67.333 8.99902 -118.667 26.999 -154l230 340c-25.333 23.333 -59.666 35 -102.999 35c-54.667 0 -94 -17.833 -118 -53.5s-36 -91.5 -36 -167.5z" />
    <glyph glyph-name="ugrave" unicode="&#xf9;" horiz-adv-x="564" 
d="M84 168l-0.00195312 371h58v-354c0 -48 10.5 -83.667 31.5 -107s53.833 -35 98.5 -35c43.333 0 78.666 12.167 105.999 36.5s41 61.5 41 111.5v348h58v-539h-43l-13 58h-4c-5.33301 -8 -13.166 -16.5 -23.499 -25.5s-27.833 -18.5 -52.5 -28.5s-51.667 -15 -81 -15
c-55.333 0 -98.166 15 -128.499 45s-46.166 74.667 -47.499 134zM94.998 743l61 33l167 -122l-40 -28z" />
    <glyph glyph-name="uacute" unicode="&#xfa;" horiz-adv-x="564" 
d="M479 743l-188 -117l-40 28l167 122zM84 168l-0.00195312 371h58v-354c0 -48 10.5 -83.667 31.5 -107s53.833 -35 98.5 -35c43.333 0 78.666 12.167 105.999 36.5s41 61.5 41 111.5v348h58v-539h-43l-13 58h-4c-5.33301 -8 -13.166 -16.5 -23.499 -25.5
s-27.833 -18.5 -52.5 -28.5s-51.667 -15 -81 -15c-55.333 0 -98.166 15 -128.499 45s-46.166 74.667 -47.499 134z" />
    <glyph glyph-name="ucircumflex" unicode="&#xfb;" horiz-adv-x="564" 
d="M471 660l-22 -35l-167 98l-166 -98l-23 35l189 124zM84 168l-0.00195312 371h58v-354c0 -48 10.5 -83.667 31.5 -107s53.833 -35 98.5 -35c43.333 0 78.666 12.167 105.999 36.5s41 61.5 41 111.5v348h58v-539h-43l-13 58h-4c-5.33301 -8 -13.166 -16.5 -23.499 -25.5
s-27.833 -18.5 -52.5 -28.5s-51.667 -15 -81 -15c-55.333 0 -98.166 15 -128.499 45s-46.166 74.667 -47.499 134z" />
    <glyph glyph-name="udieresis" unicode="&#xfc;" horiz-adv-x="564" 
d="M153 708c0 12 3.83301 21.833 11.5 29.5s17.5 11.5 29.5 11.5c11.333 0 21 -3.83301 29 -11.5s12 -17.5 12 -29.5c0 -11.333 -4 -21 -12 -29s-17.667 -12 -29 -12c-12 0 -21.833 4 -29.5 12s-11.5 17.667 -11.5 29zM329 708c0 12 4 21.833 12 29.5s17.667 11.5 29 11.5
c12 0 21.833 -3.83301 29.5 -11.5s11.5 -17.5 11.5 -29.5c0 -11.333 -3.83301 -21 -11.5 -29s-17.5 -12 -29.5 -12c-11.333 0 -21 4 -29 12s-12 17.667 -12 29zM84 168l-0.00195312 371h58v-354c0 -48 10.5 -83.667 31.5 -107s53.833 -35 98.5 -35
c43.333 0 78.666 12.167 105.999 36.5s41 61.5 41 111.5v348h58v-539h-43l-13 58h-4c-5.33301 -8 -13.166 -16.5 -23.499 -25.5s-27.833 -18.5 -52.5 -28.5s-51.667 -15 -81 -15c-55.333 0 -98.166 15 -128.499 45s-46.166 74.667 -47.499 134z" />
    <glyph glyph-name="yacute" unicode="&#xfd;" horiz-adv-x="486" 
d="M23 -200l9 55c14.667 -5.33301 31 -8 49 -8c35.333 0 63.5 10 84.5 30s38.833 53 53.5 99l-193 563h62l95 -288l64 -198h4c10 40.667 29.667 106.667 59 198l93 288h60l-192 -580c-18 -54.667 -42.167 -96.167 -72.5 -124.5s-70.833 -42.5 -121.5 -42.5
c-18.667 0 -36.667 2.66699 -54 8zM447 743l-188 -117l-40 28l167 122z" />
    <glyph glyph-name="thorn" unicode="&#xfe;" horiz-adv-x="548" 
d="M490 284c0 -91.333 -22.001 -163.167 -66.001 -215.5s-107.667 -78.5 -191 -78.5c-35.333 0 -64.666 4 -87.999 12v-191h-58v941h58v-254h4c34 30 79 45 135 45c60.667 0 110.167 -21.333 148.5 -64s57.5 -107.667 57.5 -195zM144.999 57.999
c28 -9.33301 60.333 -13.999 97 -13.999c57.333 0 103 20 137 60s51 98 51 174c0 141.333 -53 212 -159 212c-22.667 0 -46 -5.33301 -70 -16s-42.667 -25.334 -56 -44.001v-372z" />
    <glyph glyph-name="ydieresis" unicode="&#xff;" horiz-adv-x="486" 
d="M23 -200l9 55c14.667 -5.33301 31 -8 49 -8c35.333 0 63.5 10 84.5 30s38.833 53 53.5 99l-193 563h62l95 -288l64 -198h4c10 40.667 29.667 106.667 59 198l93 288h60l-192 -580c-18 -54.667 -42.167 -96.167 -72.5 -124.5s-70.833 -42.5 -121.5 -42.5
c-18.667 0 -36.667 2.66699 -54 8zM114 708c0 12 3.83301 21.833 11.5 29.5s17.5 11.5 29.5 11.5c11.333 0 21 -3.83301 29 -11.5s12 -17.5 12 -29.5c0 -11.333 -4 -21 -12 -29s-17.667 -12 -29 -12c-12 0 -21.833 4 -29.5 12s-11.5 17.667 -11.5 29zM290 708
c0 12 4 21.833 12 29.5s17.667 11.5 29 11.5c12 0 21.833 -3.83301 29.5 -11.5s11.5 -17.5 11.5 -29.5c0 -11.333 -3.83301 -21 -11.5 -29s-17.5 -12 -29.5 -12c-11.333 0 -21 4 -29 12s-12 17.667 -12 29z" />
    <glyph glyph-name="Amacron" unicode="&#x100;" horiz-adv-x="575" 
d="M439 892v-46h-303v46h303zM158 272h258l-89 272l-38 116h-4l-37 -114zM505 0l-71 216h-294l-71 -216h-63l231 701h101l231 -701h-64z" />
    <glyph glyph-name="amacron" unicode="&#x101;" horiz-adv-x="544" 
d="M372 122v133c-74.667 2 -136 -6.83301 -184 -26.5s-72 -50.834 -72 -93.501c0 -27.333 9.5 -50.166 28.5 -68.499s45.167 -27.5 78.5 -27.5c32 0 61.167 8.16699 87.5 24.5s46.833 35.833 61.5 58.5zM251 546c56 0 99.1699 -13.332 129.503 -39.999
s45.5 -66.334 45.5 -119.001v-252c0 -60.667 19 -91 57 -91h13v-45c-4 -1.33301 -9.33301 -2 -16 -2c-50.667 0 -83.334 22.333 -98.001 67h-4c-12.667 -14 -24.167 -25.333 -34.5 -34s-27.5 -17.667 -51.5 -27s-50.667 -14 -80 -14c-47.333 0 -85 14 -113 42s-42 61 -42 99
c0 58 27.667 102 83 132s132.666 44.333 231.999 43v63c0 46 -10.167 78.167 -30.5 96.5s-51.5 27.5 -93.5 27.5c-56.667 0 -100.334 -22.333 -131.001 -67l-43 36c40.667 56.667 99.667 85 177 85zM405.003 676.001h-303v46h303v-46z" />
    <glyph glyph-name="Abreve" unicode="&#x102;" horiz-adv-x="575" 
d="M406 931l40 -26c-34.667 -60 -87.667 -90 -159 -90c-70.667 0 -123.667 30 -159 90l40 26c25.333 -45.333 65 -68 119 -68s93.667 22.667 119 68zM158 272h258l-89 272l-38 116h-4l-37 -114zM505 0l-71 216h-294l-71 -216h-63l231 701h101l231 -701h-64z" />
    <glyph glyph-name="abreve" unicode="&#x103;" horiz-adv-x="544" 
d="M372 122v133c-74.667 2 -136 -6.83301 -184 -26.5s-72 -50.834 -72 -93.501c0 -27.333 9.5 -50.166 28.5 -68.499s45.167 -27.5 78.5 -27.5c32 0 61.167 8.16699 87.5 24.5s46.833 35.833 61.5 58.5zM251 546c56 0 99.1699 -13.332 129.503 -39.999
s45.5 -66.334 45.5 -119.001v-252c0 -60.667 19 -91 57 -91h13v-45c-4 -1.33301 -9.33301 -2 -16 -2c-50.667 0 -83.334 22.333 -98.001 67h-4c-12.667 -14 -24.167 -25.333 -34.5 -34s-27.5 -17.667 -51.5 -27s-50.667 -14 -80 -14c-47.333 0 -85 14 -113 42s-42 61 -42 99
c0 58 27.667 102 83 132s132.666 44.333 231.999 43v63c0 46 -10.167 78.167 -30.5 96.5s-51.5 27.5 -93.5 27.5c-56.667 0 -100.334 -22.333 -131.001 -67l-43 36c40.667 56.667 99.667 85 177 85zM255.003 645.001c-71.333 0 -124.333 30 -159 90l40 26
c25.333 -45.333 65 -68 119 -68s93.667 22.667 119 68l40 -26c-34.667 -60 -87.667 -90 -159 -90z" />
    <glyph glyph-name="Aogonek" unicode="&#x104;" horiz-adv-x="575" 
d="M158 272h258l-89 272l-38 116h-4l-37 -114zM583 -180l8 -48c-16.667 -6 -40 -9 -70 -9c-39.333 0 -69 9.83301 -89 29.5s-30 45.167 -30 76.5c0 52 33.333 98.667 100 140l-68 207h-294l-71 -216h-63l231 701h101l231 -701c-28.667 -14.667 -54.334 -33 -77.001 -55
s-34 -45.667 -34 -71c0 -41.333 27 -62 81 -62c16.667 0 31.334 2.66699 44.001 8z" />
    <glyph glyph-name="aogonek" unicode="&#x105;" horiz-adv-x="544" 
d="M372 122v133c-74.667 2 -136 -6.83301 -184 -26.5s-72 -50.834 -72 -93.501c0 -27.333 9.5 -50.166 28.5 -68.499s45.167 -27.5 78.5 -27.5c32 0 61.167 8.16699 87.5 24.5s46.833 35.833 61.5 58.5zM513 -179l8.00098 -47.998c-16.667 -6 -40 -9 -70 -9
c-39.333 0 -69 9.83301 -89 29.5s-30 45.167 -30 76.5c0 51.333 32.333 97.333 97 138c-22 11.333 -37.667 30 -47 56h-4c-12.667 -14 -24.167 -25.333 -34.5 -34s-27.5 -17.667 -51.5 -27s-50.667 -14 -80 -14c-47.333 0 -85 14 -113 42s-42 61 -42 99
c0 58 27.667 102 83 132s132.666 44.333 231.999 43v63c0 46 -10.167 78.167 -30.5 96.5s-51.5 27.5 -93.5 27.5c-56.667 0 -100.334 -22.333 -131.001 -67l-43 36c40.667 56.667 99.667 85 177 85c56 0 99.167 -13.333 129.5 -40s45.5 -66.334 45.5 -119.001v-252
c0 -60.667 19 -91 57 -91h13v-39l3 -4l-3 -2l-2 -1c-28 -14 -52.667 -31.833 -74 -53.5s-32 -44.834 -32 -69.501c0 -41.333 27 -62 81 -62c16.667 0 31.334 2.66699 44.001 8z" />
    <glyph glyph-name="Cacute" unicode="&#x106;" horiz-adv-x="563" 
d="M520 913l-188 -117l-40 28l167 122zM65 346c0 116.667 24.168 206.667 72.501 270s117.833 95 208.5 95c77.333 0 136.333 -17 177 -51l-37 -48c-36 28 -85 42 -147 42c-67.333 0 -119.5 -25 -156.5 -75s-55.5 -125.667 -55.5 -227c0 -100.667 18.5 -176.667 55.5 -228
s91.167 -77 162.5 -77c65.333 0 112 13 140 39l34 -43c-38 -35.333 -99.333 -53 -184 -53c-90.667 0 -158.334 31.167 -203.001 93.5s-67 149.833 -67 262.5z" />
    <glyph glyph-name="cacute" unicode="&#x107;" horiz-adv-x="463" 
d="M449 743l-188 -117l-40 28l167 122zM58 261c0 96 20.335 167.667 61.002 215s94.667 71 162 71c63.333 0 111.666 -16.667 144.999 -50l-39 -47c-30 28.667 -67 43 -111 43c-105.333 0 -158 -74.333 -158 -223c0 -149.333 52.667 -224 158 -224
c47.333 0 83.666 13.333 108.999 40l35 -45c-31.333 -32.667 -81 -49 -149 -49c-142 0 -213 89.667 -213 269z" />
    <glyph glyph-name="Ccircumflex" unicode="&#x108;" horiz-adv-x="563" 
d="M533 830l-22 -35l-167 98l-166 -98l-23 35l189 124zM65 346c0 116.667 24.168 206.667 72.501 270s117.833 95 208.5 95c77.333 0 136.333 -17 177 -51l-37 -48c-36 28 -85 42 -147 42c-67.333 0 -119.5 -25 -156.5 -75s-55.5 -125.667 -55.5 -227
c0 -100.667 18.5 -176.667 55.5 -228s91.167 -77 162.5 -77c65.333 0 112 13 140 39l34 -43c-38 -35.333 -99.333 -53 -184 -53c-90.667 0 -158.334 31.167 -203.001 93.5s-67 149.833 -67 262.5z" />
    <glyph glyph-name="ccircumflex" unicode="&#x109;" horiz-adv-x="463" 
d="M447 660l-22 -35l-167 98l-166 -98l-23 35l189 124zM58 261c0 96 20.335 167.667 61.002 215s94.667 71 162 71c63.333 0 111.666 -16.667 144.999 -50l-39 -47c-30 28.667 -67 43 -111 43c-105.333 0 -158 -74.333 -158 -223c0 -149.333 52.667 -224 158 -224
c47.333 0 83.666 13.333 108.999 40l35 -45c-31.333 -32.667 -81 -49 -149 -49c-142 0 -213 89.667 -213 269z" />
    <glyph glyph-name="Cdotaccent" unicode="&#x10a;" horiz-adv-x="563" 
d="M65 346c0 116.667 24.168 206.667 72.501 270s117.833 95 208.5 95c77.333 0 136.333 -17 177 -51l-37 -48c-36 28 -85 42 -147 42c-67.333 0 -119.5 -25 -156.5 -75s-55.5 -125.667 -55.5 -227c0 -100.667 18.5 -176.667 55.5 -228s91.167 -77 162.5 -77
c65.333 0 112 13 140 39l34 -43c-38 -35.333 -99.333 -53 -184 -53c-90.667 0 -158.334 31.167 -203.001 93.5s-67 149.833 -67 262.5zM293.001 870c0 14 4.66699 25.667 14 35s20.666 14 33.999 14c14 0 25.667 -4.66699 35 -14s14 -21 14 -35
c0 -13.333 -4.66699 -24.666 -14 -33.999s-21 -14 -35 -14c-13.333 0 -24.666 4.66699 -33.999 14s-14 20.666 -14 33.999z" />
    <glyph glyph-name="cdotaccent" unicode="&#x10b;" horiz-adv-x="463" 
d="M58 261c0 96 20.335 167.667 61.002 215s94.667 71 162 71c63.333 0 111.666 -16.667 144.999 -50l-39 -47c-30 28.667 -67 43 -111 43c-105.333 0 -158 -74.333 -158 -223c0 -149.333 52.667 -224 158 -224c47.333 0 83.666 13.333 108.999 40l35 -45
c-31.333 -32.667 -81 -49 -149 -49c-142 0 -213 89.667 -213 269zM230.002 700c0 14 4.66699 25.667 14 35s20.666 14 33.999 14c14 0 25.667 -4.66699 35 -14s14 -21 14 -35c0 -13.333 -4.66699 -24.666 -14 -33.999s-21 -14 -35 -14c-13.333 0 -24.666 4.66699 -33.999 14
s-14 20.666 -14 33.999z" />
    <glyph glyph-name="Ccaron" unicode="&#x10c;" horiz-adv-x="563" 
d="M518 922l-189 -124l-189 124l23 35l166 -98l167 98zM65 346c0 116.667 24.168 206.667 72.501 270s117.833 95 208.5 95c77.333 0 136.333 -17 177 -51l-37 -48c-36 28 -85 42 -147 42c-67.333 0 -119.5 -25 -156.5 -75s-55.5 -125.667 -55.5 -227
c0 -100.667 18.5 -176.667 55.5 -228s91.167 -77 162.5 -77c65.333 0 112 13 140 39l34 -43c-38 -35.333 -99.333 -53 -184 -53c-90.667 0 -158.334 31.167 -203.001 93.5s-67 149.833 -67 262.5z" />
    <glyph glyph-name="ccaron" unicode="&#x10d;" horiz-adv-x="463" 
d="M455 752l-189 -124l-189 124l23 35l166 -98l167 98zM58 261c0 96 20.335 167.667 61.002 215s94.667 71 162 71c63.333 0 111.666 -16.667 144.999 -50l-39 -47c-30 28.667 -67 43 -111 43c-105.333 0 -158 -74.333 -158 -223c0 -149.333 52.667 -224 158 -224
c47.333 0 83.666 13.333 108.999 40l35 -45c-31.333 -32.667 -81 -49 -149 -49c-142 0 -213 89.667 -213 269z" />
    <glyph glyph-name="Dcaron" unicode="&#x10e;" horiz-adv-x="637" 
d="M488 922l-189 -124l-189 124l23 35l166 -98l167 98zM98 0v701h175c102.667 0 178.167 -27.833 226.5 -83.5s72.5 -143.167 72.5 -262.5c0 -120.667 -24.833 -210 -74.5 -268s-125.5 -87 -227.5 -87h-172zM158 644l0.000976562 -587.001h115
c81.333 0 141.166 21.833 179.499 65.5s57.5 118.5 57.5 224.5c0 106.667 -20 182.834 -60 228.501s-101 68.5 -183 68.5h-109z" />
    <glyph glyph-name="dcaron" unicode="&#x10f;" horiz-adv-x="620" 
d="M554 525l-19.999 34c44 18.667 66 43 66 73c0 26 -18 48.667 -54 68v5c0 15.333 5.16699 28.166 15.5 38.499s23.166 15.5 38.499 15.5c18 0 33.167 -7 45.5 -21s18.5 -34 18.5 -60c0 -37.333 -11.5 -69.666 -34.5 -96.999s-48.167 -46 -75.5 -56zM404.001 530
l0.000976562 228.998h58v-759h-42l-15 58h-4c-12 -20 -30.667 -36.5 -56 -49.5s-54.333 -19.5 -87 -19.5c-64 0 -113.333 21.333 -148 64s-52 107.334 -52 194.001c0 92.667 23.167 164.334 69.5 215.001s110.166 76 191.499 76c28.667 0 57 -2.66699 85 -8zM268.002 41.998
c65.333 0 110.668 32.667 136.001 98v333c-28 7.33301 -56.333 11 -85 11c-134 0 -201 -76.333 -201 -229c0 -76 14.167 -130.5 42.5 -163.5s64.166 -49.5 107.499 -49.5z" />
    <glyph glyph-name="Dcroat" unicode="&#x110;" horiz-adv-x="648" 
d="M164 57l115.001 -0.000976562c81.333 0 141.166 21.833 179.499 65.5s57.5 118.5 57.5 224.5c0 106.667 -20 182.834 -60 228.501s-101 68.5 -183 68.5h-109v-254h172v-48h-172v-285zM104.001 700.999h175c102.667 0 178.167 -27.833 226.5 -83.5
s72.5 -143.167 72.5 -262.5c0 -120.667 -24.833 -210 -74.5 -268s-125.5 -87 -227.5 -87h-172v342h-74v48h74v311z" />
    <glyph glyph-name="dcroat" unicode="&#x111;" horiz-adv-x="552" 
d="M404 185l0.000976562 288c-28 7.33301 -56.333 11 -85 11c-134 0 -201 -76.333 -201 -229c0 -76 14.167 -130.5 42.5 -163.5s64.166 -49.5 107.499 -49.5c38.667 0 71 12 97 36s39 59.667 39 107zM523.001 671l0.000976562 -48.002h-61v-623l-41 -4l-16 62h-4
c-12 -20 -30.667 -36.5 -56 -49.5s-54.333 -19.5 -87 -19.5c-64 0 -113.333 21.333 -148 64s-52 107.334 -52 194.001c0 92.667 23.167 164.334 69.5 215.001s110.166 76 191.499 76c28.667 0 57 -2.66699 85 -8v93h-187v48h187v88h58v-88h61z" />
    <glyph glyph-name="Emacron" unicode="&#x112;" horiz-adv-x="518" 
d="M473 0h-375v701h360v-56h-300v-262h265v-56h-265v-271h315v-56zM432 846h-303v46h303v-46z" />
    <glyph glyph-name="emacron" unicode="&#x113;" horiz-adv-x="535" 
d="M424 87l26.999 -48.001c-42.667 -30 -96.667 -45 -162 -45c-77.333 0 -135.166 21.667 -173.499 65s-57.5 114.333 -57.5 213c0 93.333 21.5 162.5 64.5 207.5s95.5 67.5 157.5 67.5c61.333 0 108.333 -18.667 141 -56s49 -88.333 49 -153c0 -26 -1.66699 -56.667 -5 -92
h-348c4 -71.333 20.5 -122.166 49.5 -152.499s72.5 -45.5 130.5 -45.5c52 0 94.333 13 127 39zM272.999 492.999c-41.333 0 -76.667 -15 -106 -45s-46 -79.333 -50 -148h293c0.666992 9.33301 1 21.333 1 36c0 104.667 -46 157 -138 157zM418.998 675.999h-303v46h303v-46z
" />
    <glyph glyph-name="Ebreve" unicode="&#x114;" horiz-adv-x="518" 
d="M473 0h-375v701h360v-56h-300v-262h265v-56h-265v-271h315v-56zM277 815c-71.333 0 -124.333 30 -159 90l40 26c25.333 -45.333 65 -68 119 -68s93.667 22.667 119 68l40 -26c-34.667 -60 -87.667 -90 -159 -90z" />
    <glyph glyph-name="ebreve" unicode="&#x115;" horiz-adv-x="535" 
d="M424 87l26.999 -48.001c-42.667 -30 -96.667 -45 -162 -45c-77.333 0 -135.166 21.667 -173.499 65s-57.5 114.333 -57.5 213c0 93.333 21.5 162.5 64.5 207.5s95.5 67.5 157.5 67.5c61.333 0 108.333 -18.667 141 -56s49 -88.333 49 -153c0 -26 -1.66699 -56.667 -5 -92
h-348c4 -71.333 20.5 -122.166 49.5 -152.499s72.5 -45.5 130.5 -45.5c52 0 94.333 13 127 39zM272.999 492.999c-41.333 0 -76.667 -15 -106 -45s-46 -79.333 -50 -148h293c0.666992 9.33301 1 21.333 1 36c0 104.667 -46 157 -138 157zM266.998 644.999
c-71.333 0 -124.333 30 -159 90l40 26c25.333 -45.333 65 -68 119 -68s93.667 22.667 119 68l40 -26c-34.667 -60 -87.667 -90 -159 -90z" />
    <glyph glyph-name="Edotaccent" unicode="&#x116;" horiz-adv-x="518" 
d="M473 0h-375v701h360v-56h-300v-262h265v-56h-265v-271h315v-56zM231 870c0 14 4.66699 25.667 14 35s20.666 14 33.999 14c14 0 25.667 -4.66699 35 -14s14 -21 14 -35c0 -13.333 -4.66699 -24.666 -14 -33.999s-21 -14 -35 -14c-13.333 0 -24.666 4.66699 -33.999 14
s-14 20.666 -14 33.999z" />
    <glyph glyph-name="edotaccent" unicode="&#x117;" horiz-adv-x="535" 
d="M424 87l26.999 -48.001c-42.667 -30 -96.667 -45 -162 -45c-77.333 0 -135.166 21.667 -173.499 65s-57.5 114.333 -57.5 213c0 93.333 21.5 162.5 64.5 207.5s95.5 67.5 157.5 67.5c61.333 0 108.333 -18.667 141 -56s49 -88.333 49 -153c0 -26 -1.66699 -56.667 -5 -92
h-348c4 -71.333 20.5 -122.166 49.5 -152.499s72.5 -45.5 130.5 -45.5c52 0 94.333 13 127 39zM272.999 492.999c-41.333 0 -76.667 -15 -106 -45s-46 -79.333 -50 -148h293c0.666992 9.33301 1 21.333 1 36c0 104.667 -46 157 -138 157zM218.998 699.999
c0 14 4.66699 25.667 14 35s20.666 14 33.999 14c14 0 25.667 -4.66699 35 -14s14 -21 14 -35c0 -13.333 -4.66699 -24.666 -14 -33.999s-21 -14 -35 -14c-13.333 0 -24.666 4.66699 -33.999 14s-14 20.666 -14 33.999z" />
    <glyph glyph-name="Eogonek" unicode="&#x118;" horiz-adv-x="518" 
d="M487 -180l8 -48.001c-16.667 -6 -40 -9 -70 -9c-39.333 0 -69 9.83301 -89 29.5s-30 45.167 -30 76.5c0 48.667 28.667 92.334 86 131.001h-294v701h360v-56h-300v-262h265v-56h-265v-271h315v-56c-28.667 -14.667 -54.334 -33 -77.001 -55s-34 -45.667 -34 -71
c0 -41.333 27 -62 81 -62c16.667 0 31.334 2.66699 44.001 8z" />
    <glyph glyph-name="eogonek" unicode="&#x119;" horiz-adv-x="535" 
d="M117 300h292.999c0.666992 9.33301 1 21.333 1 36c0 104.667 -46 157 -138 157c-41.333 0 -76.666 -15 -105.999 -45s-46 -79.333 -50 -148zM446.999 -152l7.99902 -48c-16.667 -6 -40 -9 -70 -9c-39.333 0 -69 9.83301 -89 29.5s-30 45.167 -30 76.5
c0 35.333 15 68 45 98c-4.66699 -0.666992 -12 -1 -22 -1c-77.333 0 -135.166 21.667 -173.499 65s-57.5 114.333 -57.5 213c0 93.333 21.5 162.5 64.5 207.5s95.5 67.5 157.5 67.5c61.333 0 108.333 -18.667 141 -56s49 -88.333 49 -153c0 -26 -1.66699 -56.667 -5 -92
h-348c4 -71.333 20.5 -122.166 49.5 -152.499s72.5 -45.5 130.5 -45.5c52 0 94.333 13 127 39l27 -48c-8.66699 -6.66699 -18.334 -12.334 -29.001 -17.001c-27.333 -14.667 -50.833 -32.5 -70.5 -53.5s-29.5 -43.167 -29.5 -66.5c0 -41.333 27 -62 81 -62
c16.667 0 31.334 2.66699 44.001 8z" />
    <glyph glyph-name="Ecaron" unicode="&#x11a;" horiz-adv-x="518" 
d="M448 922l-189 -124l-189 124l23 35l166 -98l167 98zM473 0h-375v701h360v-56h-300v-262h265v-56h-265v-271h315v-56z" />
    <glyph glyph-name="ecaron" unicode="&#x11b;" horiz-adv-x="535" 
d="M456 752l-189 -124l-189 124l23 35l166 -98l167 98zM424 87l26.999 -48.001c-42.667 -30 -96.667 -45 -162 -45c-77.333 0 -135.166 21.667 -173.499 65s-57.5 114.333 -57.5 213c0 93.333 21.5 162.5 64.5 207.5s95.5 67.5 157.5 67.5c61.333 0 108.333 -18.667 141 -56
s49 -88.333 49 -153c0 -26 -1.66699 -56.667 -5 -92h-348c4 -71.333 20.5 -122.166 49.5 -152.499s72.5 -45.5 130.5 -45.5c52 0 94.333 13 127 39zM272.999 492.999c-41.333 0 -76.667 -15 -106 -45s-46 -79.333 -50 -148h293c0.666992 9.33301 1 21.333 1 36
c0 104.667 -46 157 -138 157z" />
    <glyph glyph-name="Gcircumflex" unicode="&#x11c;" horiz-adv-x="630" 
d="M540 830l-22 -35l-167 98l-166 -98l-23 35l189 124zM358 711c83.333 0 145.001 -18.333 185.001 -55l-39 -48c-34 30.667 -84.333 46 -151 46c-29.333 0 -56.166 -4.33301 -80.499 -13s-48 -23.5 -71 -44.5s-41.167 -52.167 -54.5 -93.5s-20 -91.333 -20 -150
c0 -107.333 18.667 -185.333 56 -234s92.666 -73 165.999 -73c61.333 0 107.666 10.667 138.999 32v277h60v-302c-48.667 -42 -119 -63 -211 -63c-89.333 0 -157 30 -203 90s-69 149.667 -69 269c0 120.667 27.167 211.167 81.5 271.5s124.833 90.5 211.5 90.5z" />
    <glyph glyph-name="gcircumflex" unicode="&#x11d;" horiz-adv-x="548" 
d="M475 660l-22 -35l-167 98l-166 -98l-23 35l189 124zM461 516l-0.000976562 -528c0 -68.667 -19 -120.667 -57 -156s-90.667 -53 -158 -53c-70 0 -125.333 17.333 -166 52l34 50c36 -32 84 -48 144 -48c51.333 0 88.5 12.833 111.5 38.5s34.5 64.5 34.5 116.5v56h-4
c-35.333 -30.667 -81.666 -46 -138.999 -46c-59.333 0 -108 20.833 -146 62.5s-57 105.167 -57 190.5c0 91.333 22 162.833 66 214.5s109.333 77.5 196 77.5c59.333 0 106.333 -9 141 -27zM402.999 472c-26 11.333 -58 16.999 -96 16.999c-58 0 -104 -19.167 -138 -57.5
s-51 -94.833 -51 -169.5c0 -76.667 15.167 -131 45.5 -163s68.5 -48 114.5 -48c23.333 0 46.5 5.33301 69.5 16s41.5 25.334 55.5 44.001v361z" />
    <glyph glyph-name="Gbreve" unicode="&#x11e;" horiz-adv-x="630" 
d="M358 711c83.333 0 145.001 -18.333 185.001 -55l-39 -48c-34 30.667 -84.333 46 -151 46c-29.333 0 -56.166 -4.33301 -80.499 -13s-48 -23.5 -71 -44.5s-41.167 -52.167 -54.5 -93.5s-20 -91.333 -20 -150c0 -107.333 18.667 -185.333 56 -234s92.666 -73 165.999 -73
c61.333 0 107.666 10.667 138.999 32v277h60v-302c-48.667 -42 -119 -63 -211 -63c-89.333 0 -157 30 -203 90s-69 149.667 -69 269c0 120.667 27.167 211.167 81.5 271.5s124.833 90.5 211.5 90.5zM337.001 815c-71.333 0 -124.333 30 -159 90l40 26
c25.333 -45.333 65 -68 119 -68s93.667 22.667 119 68l40 -26c-34.667 -60 -87.667 -90 -159 -90z" />
    <glyph glyph-name="gbreve" unicode="&#x11f;" horiz-adv-x="548" 
d="M461 516l-0.000976562 -528c0 -68.667 -19 -120.667 -57 -156s-90.667 -53 -158 -53c-70 0 -125.333 17.333 -166 52l34 50c36 -32 84 -48 144 -48c51.333 0 88.5 12.833 111.5 38.5s34.5 64.5 34.5 116.5v56h-4c-35.333 -30.667 -81.666 -46 -138.999 -46
c-59.333 0 -108 20.833 -146 62.5s-57 105.167 -57 190.5c0 91.333 22 162.833 66 214.5s109.333 77.5 196 77.5c59.333 0 106.333 -9 141 -27zM402.999 472c-26 11.333 -58 16.999 -96 16.999c-58 0 -104 -19.167 -138 -57.5s-51 -94.833 -51 -169.5
c0 -76.667 15.167 -131 45.5 -163s68.5 -48 114.5 -48c23.333 0 46.5 5.33301 69.5 16s41.5 25.334 55.5 44.001v361zM283.999 644.999c-70.667 0 -123.667 30 -159 90l40 26c25.333 -45.333 65 -68 119 -68s93.667 22.667 119 68l40 -26c-35.333 -60 -88.333 -90 -159 -90z
" />
    <glyph glyph-name="Gdotaccent" unicode="&#x120;" horiz-adv-x="630" 
d="M358 711c83.333 0 145.001 -18.333 185.001 -55l-39 -48c-34 30.667 -84.333 46 -151 46c-29.333 0 -56.166 -4.33301 -80.499 -13s-48 -23.5 -71 -44.5s-41.167 -52.167 -54.5 -93.5s-20 -91.333 -20 -150c0 -107.333 18.667 -185.333 56 -234s92.666 -73 165.999 -73
c61.333 0 107.666 10.667 138.999 32v277h60v-302c-48.667 -42 -119 -63 -211 -63c-89.333 0 -157 30 -203 90s-69 149.667 -69 269c0 120.667 27.167 211.167 81.5 271.5s124.833 90.5 211.5 90.5zM299.001 870c0 14 4.66699 25.667 14 35s20.666 14 33.999 14
c14 0 25.667 -4.66699 35 -14s14 -21 14 -35c0 -13.333 -4.66699 -24.666 -14 -33.999s-21 -14 -35 -14c-13.333 0 -24.666 4.66699 -33.999 14s-14 20.666 -14 33.999z" />
    <glyph glyph-name="gdotaccent" unicode="&#x121;" horiz-adv-x="548" 
d="M461 516l-0.000976562 -528c0 -68.667 -19 -120.667 -57 -156s-90.667 -53 -158 -53c-70 0 -125.333 17.333 -166 52l34 50c36 -32 84 -48 144 -48c51.333 0 88.5 12.833 111.5 38.5s34.5 64.5 34.5 116.5v56h-4c-35.333 -30.667 -81.666 -46 -138.999 -46
c-59.333 0 -108 20.833 -146 62.5s-57 105.167 -57 190.5c0 91.333 22 162.833 66 214.5s109.333 77.5 196 77.5c59.333 0 106.333 -9 141 -27zM402.999 472c-26 11.333 -58 16.999 -96 16.999c-58 0 -104 -19.167 -138 -57.5s-51 -94.833 -51 -169.5
c0 -76.667 15.167 -131 45.5 -163s68.5 -48 114.5 -48c23.333 0 46.5 5.33301 69.5 16s41.5 25.334 55.5 44.001v361zM254.999 695.999c0 14 4.66699 25.667 14 35s20.666 14 33.999 14c14 0 25.667 -4.66699 35 -14s14 -21 14 -35c0 -13.333 -4.66699 -24.666 -14 -33.999
s-21 -14 -35 -14c-13.333 0 -24.666 4.66699 -33.999 14s-14 20.666 -14 33.999z" />
    <glyph glyph-name="uni0122" unicode="&#x122;" horiz-adv-x="630" 
d="M334 -321l-20.001 26.999c28.667 16.667 43 37 43 61c0 22.667 -17.667 43.334 -53 62.001v5c0 14 4.66699 25.667 14 35s21 14 35 14c16.667 0 30.667 -6.33301 42 -19s17 -31 17 -55c0 -28 -7.66699 -53.5 -23 -76.5s-33.666 -40.833 -54.999 -53.5zM357.999 710.999
c83.333 0 145.001 -18.333 185.001 -55l-39 -48c-34 30.667 -84.333 46 -151 46c-29.333 0 -56.166 -4.33301 -80.499 -13s-48 -23.5 -71 -44.5s-41.167 -52.167 -54.5 -93.5s-20 -91.333 -20 -150c0 -107.333 18.667 -185.333 56 -234s92.666 -73 165.999 -73
c61.333 0 107.666 10.667 138.999 32v277h60v-302c-48.667 -42 -119 -63 -211 -63c-89.333 0 -157 30 -203 90s-69 149.667 -69 269c0 120.667 27.167 211.167 81.5 271.5s124.833 90.5 211.5 90.5z" />
    <glyph glyph-name="uni0123" unicode="&#x123;" horiz-adv-x="548" 
d="M360 866l19.999 -34c-44 -18.667 -66 -43 -66 -73c0 -26 18 -48.667 54 -68v-5c0 -15.333 -5.16699 -28.166 -15.5 -38.499s-23.166 -15.5 -38.499 -15.5c-18 0 -33.167 7 -45.5 21s-18.5 34 -18.5 60c0 37.333 11.5 69.666 34.5 96.999s48.167 46 75.5 56zM460.999 516
l-0.000976562 -528c0 -68.667 -19 -120.667 -57 -156s-90.667 -53 -158 -53c-70 0 -125.333 17.333 -166 52l34 50c36 -32 84 -48 144 -48c51.333 0 88.5 12.833 111.5 38.5s34.5 64.5 34.5 116.5v56h-4c-35.333 -30.667 -81.666 -46 -138.999 -46
c-59.333 0 -108 20.833 -146 62.5s-57 105.167 -57 190.5c0 91.333 22 162.833 66 214.5s109.333 77.5 196 77.5c59.333 0 106.333 -9 141 -27zM402.998 472c-26 11.333 -58 16.999 -96 16.999c-58 0 -104 -19.167 -138 -57.5s-51 -94.833 -51 -169.5
c0 -76.667 15.167 -131 45.5 -163s68.5 -48 114.5 -48c23.333 0 46.5 5.33301 69.5 16s41.5 25.334 55.5 44.001v361z" />
    <glyph glyph-name="Hcircumflex" unicode="&#x124;" horiz-adv-x="678" 
d="M528 830l-22 -35l-167 98l-166 -98l-23 35l189 124zM520 701h60v-701h-60v328h-362v-328h-60v701h60v-317h362v317z" />
    <glyph glyph-name="hcircumflex" unicode="&#x125;" horiz-adv-x="564" 
d="M304 814l-22 -35l-167 98l-166 -98l-23 35l189 124zM309 549c52 0 93.5 -15.667 124.5 -47s46.5 -73.666 46.5 -126.999v-375h-58v367c0 37.333 -10.167 68 -30.5 92s-49.833 36 -88.5 36c-39.333 0 -72.833 -10.333 -100.5 -31s-46.834 -45.334 -57.501 -74.001v-390
h-58v759h58v-282h4c6.66699 8.66699 14.834 17.5 24.501 26.5s27.167 18.833 52.5 29.5s53 16 83 16z" />
    <glyph glyph-name="Hbar" unicode="&#x126;" horiz-adv-x="690" 
d="M526 384v131h-362v-131h362zM656 563v-48h-70v-515h-60v328h-362v-328h-60v515h-70v48h70v138h60v-138h362v138h60v-138h70z" />
    <glyph glyph-name="hbar" unicode="&#x127;" horiz-adv-x="567" 
d="M148 477h4c6.66699 8.66699 14.834 17.5 24.501 26.5s27.167 18.833 52.5 29.5s53 16 83 16c52 0 93.5 -15.667 124.5 -47s46.5 -73.666 46.5 -126.999v-375h-58v367c0 37.333 -10.167 68 -30.5 92s-49.833 36 -88.5 36c-39.333 0 -72.833 -10.333 -100.5 -31
s-46.834 -45.334 -57.501 -74.001v-390h-58v623h-64v48h64v88h58v-88h184v-48h-184v-146z" />
    <glyph glyph-name="Itilde" unicode="&#x128;" horiz-adv-x="276" 
d="M108 0v701h60v-701h-60zM75 904c17.333 0 40.6689 -5.5 70.002 -16.5s50 -16.5 62 -16.5c27.333 0 47.666 9 60.999 27l24 -40c-1.33301 -3.33301 -4.83301 -7.5 -10.5 -12.5s-15.334 -10.333 -29.001 -16s-28.834 -8.5 -45.501 -8.5c-14.667 0 -37 5.66699 -67 17
s-52 17 -66 17c-26.667 0 -49 -8 -67 -24l-23 40l5 4l9 7c2.66699 2 6.83398 4.5 12.501 7.5s11.334 5.5 17.001 7.5s12.667 3.66699 21 5s17.166 2 26.499 2z" />
    <glyph glyph-name="itilde" unicode="&#x129;" horiz-adv-x="287" 
d="M119 0v539h58v-539h-58zM81 734c17.333 0 40.6689 -5.5 70.002 -16.5s50 -16.5 62 -16.5c27.333 0 47.666 9 60.999 27l24 -40c-1.33301 -3.33301 -4.83301 -7.5 -10.5 -12.5s-15.334 -10.333 -29.001 -16s-28.834 -8.5 -45.501 -8.5c-14.667 0 -37 5.66699 -67 17
s-52 17 -66 17c-26.667 0 -49 -8 -67 -24l-23 40l5 4l9 7c2.66699 2 6.83398 4.5 12.501 7.5s11.334 5.5 17.001 7.5s12.667 3.66699 21 5s17.166 2 26.499 2z" />
    <glyph glyph-name="Imacron" unicode="&#x12a;" horiz-adv-x="276" 
d="M108 0v701h60v-701h-60zM290 846h-303v46h303v-46z" />
    <glyph glyph-name="imacron" unicode="&#x12b;" horiz-adv-x="287" 
d="M119 0v539h58v-539h-58zM295 676h-303v46h303v-46z" />
    <glyph glyph-name="Ibreve" unicode="&#x12c;" horiz-adv-x="276" 
d="M108 0v701h60v-701h-60zM138 815c-70.667 0 -123.667 30 -159 90l40 26c25.333 -45.333 65 -68 119 -68s93.667 22.667 119 68l40 -26c-35.333 -60 -88.333 -90 -159 -90z" />
    <glyph glyph-name="ibreve" unicode="&#x12d;" horiz-adv-x="287" 
d="M119 0v539h58v-539h-58zM144 645c-70.667 0 -123.667 30 -159 90l40 26c25.333 -45.333 65 -68 119 -68s93.667 22.667 119 68l40 -26c-34.667 -60 -87.667 -90 -159 -90z" />
    <glyph glyph-name="Iogonek" unicode="&#x12e;" horiz-adv-x="276" 
d="M182 -180l8 -48c-16.667 -6 -40 -9 -70 -9c-39.333 0 -69 9.83301 -89 29.5s-30 45.167 -30 76.5c0 54 35.667 102 107 144v688h60v-701c-28.667 -14.667 -54.334 -33 -77.001 -55s-34 -45.667 -34 -71c0 -41.333 27 -62 81 -62c16.667 0 31.334 2.66699 44.001 8z" />
    <glyph glyph-name="iogonek" unicode="&#x12f;" horiz-adv-x="287" 
d="M143 652c-13.333 0 -24.666 4.66699 -33.999 14s-14 20.666 -14 33.999c0 14 4.66699 25.667 14 35s20.666 14 33.999 14c14 0 25.667 -4.66699 35 -14s14 -21 14 -35c0 -13.333 -4.66699 -24.666 -14 -33.999s-21 -14 -35 -14zM191 -180l8 -48c-16.667 -6 -40 -9 -70 -9
c-39.333 0 -69 9.83301 -89 29.5s-30 45.167 -30 76.5c0 54.667 36.333 103 109 145v525h58v-539c-28.667 -14.667 -54.334 -33 -77.001 -55s-34 -45.667 -34 -71c0 -41.333 27 -62 81 -62c16.667 0 31.334 2.66699 44.001 8z" />
    <glyph glyph-name="Idotaccent" unicode="&#x130;" horiz-adv-x="276" 
d="M108 0v701h60v-701h-60zM90 870c0 14 4.66699 25.667 14 35s20.666 14 33.999 14c14 0 25.667 -4.66699 35 -14s14 -21 14 -35c0 -13.333 -4.66699 -24.666 -14 -33.999s-21 -14 -35 -14c-13.333 0 -24.666 4.66699 -33.999 14s-14 20.666 -14 33.999z" />
    <glyph glyph-name="dotlessi" unicode="&#x131;" horiz-adv-x="287" 
d="M119 0v539h58v-539h-58z" />
    <glyph glyph-name="IJ" unicode="&#x132;" horiz-adv-x="649" 
d="M108 0v701h60v-701h-60zM285 7l21 56c25.333 -13.333 57 -20 95 -20c32 0 55 7.5 69 22.5s21 39.167 21 72.5v563h60v-563c0 -45.333 -13 -81.833 -39 -109.5s-65.667 -41.5 -119 -41.5c-45.333 0 -81.333 6.66699 -108 20z" />
    <glyph glyph-name="ij" unicode="&#x133;" horiz-adv-x="531" 
d="M119 0v539h58v-539h-58zM95 700c0 14 4.66699 25.667 14 35s20.666 14 33.999 14c14 0 25.667 -4.66699 35 -14s14 -21 14 -35c0 -13.333 -4.66699 -24.666 -14 -33.999s-21 -14 -35 -14c-13.333 0 -24.666 4.66699 -33.999 14s-14 20.666 -14 33.999zM283 -222
l-20.998 51.001c16.667 5.33301 31.167 11.666 43.5 18.999s24.666 18 36.999 32s21.666 33.167 27.999 57.5s9.5 53.166 9.5 86.499v515h58v-517c0 -129.333 -51.667 -210.666 -155 -243.999zM356.002 700.001c0 14 4.66699 25.667 14 35s20.666 14 33.999 14
c14 0 25.667 -4.66699 35 -14s14 -21 14 -35c0 -13.333 -4.66699 -24.666 -14 -33.999s-21 -14 -35 -14c-13.333 0 -24.666 4.66699 -33.999 14s-14 20.666 -14 33.999z" />
    <glyph glyph-name="Jcircumflex" unicode="&#x134;" horiz-adv-x="373" 
d="M432 830l-22 -35l-167 98l-166 -98l-23 35l189 124zM9 7l21 56c25.333 -13.333 57 -20 95 -20c32 0 55 7.5 69 22.5s21 39.167 21 72.5v563h60v-563c0 -45.333 -13 -81.833 -39 -109.5s-65.667 -41.5 -119 -41.5c-45.333 0 -81.333 6.66699 -108 20z" />
    <glyph glyph-name="jcircumflex" unicode="&#x135;" horiz-adv-x="264" 
d="M6 -222l-20.998 51.001c16.667 5.33301 31.167 11.666 43.5 18.999s24.666 18 36.999 32s21.666 33.167 27.999 57.5s9.5 53.166 9.5 86.499v515h58v-517c0 -129.333 -51.667 -210.666 -155 -243.999zM321.002 660.001l-22 -35l-167 98l-166 -98l-23 35l189 124z" />
    <glyph glyph-name="uni0136" unicode="&#x136;" horiz-adv-x="559" 
d="M277 -321l-20.001 26.999c28.667 16.667 43 37 43 61c0 22.667 -17.667 43.334 -53 62.001v5c0 14 4.66699 25.667 14 35s21 14 35 14c16.667 0 30.667 -6.33301 42 -19s17 -31 17 -55c0 -28 -7.66699 -53.5 -23 -76.5s-33.666 -40.833 -54.999 -53.5zM157.999 700.999
v-701h-60v701h60zM189.999 348.999l257 352h71l-257 -353l280 -348h-78l-273 345v4z" />
    <glyph glyph-name="uni0137" unicode="&#x137;" horiz-adv-x="482" 
d="M235 -321l-20.001 26.999c28.667 16.667 43 37 43 61c0 22.667 -17.667 43.334 -53 62.001v5c0 14 4.66699 25.667 14 35s21 14 35 14c16.667 0 30.667 -6.33301 42 -19s17 -31 17 -55c0 -28 -7.66699 -53.5 -23 -76.5s-33.666 -40.833 -54.999 -53.5zM144.999 758.999
v-759h-58v759h58zM162.999 273.999v4l206 261h77l-210 -259v-4l224 -276h-77z" />
    <glyph glyph-name="kgreenlandic" unicode="&#x138;" horiz-adv-x="482" 
d="M87 539h58v-539h-58v539zM169 254v4l200 281h73l-201 -277v-4l219 -258h-77z" />
    <glyph glyph-name="Lacute" unicode="&#x139;" horiz-adv-x="486" 
d="M319 913l-188 -117l-40 28l167 122zM98 701h60v-645h313v-56h-373v701z" />
    <glyph glyph-name="lacute" unicode="&#x13a;" horiz-adv-x="281" 
d="M314 918l-188 -117l-40 28l167 122zM94 759l58 -0.000976562v-643c0 -25.333 4.5 -43.666 13.5 -54.999s24.167 -17 45.5 -17c18.667 0 36 4.33301 52 13v-52c-18 -8 -40.333 -12 -67 -12c-68 0 -102 35.667 -102 107v659z" />
    <glyph glyph-name="uni013B" unicode="&#x13b;" horiz-adv-x="486" 
d="M253 -321l-20.001 26.999c28.667 16.667 43 37 43 61c0 22.667 -17.667 43.334 -53 62.001v5c0 14 4.66699 25.667 14 35s21 14 35 14c16.667 0 30.667 -6.33301 42 -19s17 -31 17 -55c0 -28 -7.66699 -53.5 -23 -76.5s-33.666 -40.833 -54.999 -53.5zM97.999 700.999h60
v-645h313v-56h-373v701z" />
    <glyph glyph-name="uni013C" unicode="&#x13c;" horiz-adv-x="281" 
d="M139 -321l-20.001 26.999c28.667 16.667 43 37 43 61c0 22.667 -17.667 43.334 -53 62.001v5c0 14 4.66699 25.667 14 35s21 14 35 14c16.667 0 30.667 -6.33301 42 -19s17 -31 17 -55c0 -28 -7.66699 -53.5 -23 -76.5s-33.666 -40.833 -54.999 -53.5zM93.999 758.999
l58 -0.000976562v-643c0 -25.333 4.5 -43.666 13.5 -54.999s24.167 -17 45.5 -17c18.667 0 36 4.33301 52 13v-52c-18 -8 -40.333 -12 -67 -12c-68 0 -102 35.667 -102 107v659z" />
    <glyph glyph-name="Lcaron" unicode="&#x13d;" horiz-adv-x="486" 
d="M255 470l-19.999 34c44 18.667 66 43 66 73c0 26 -18 48.667 -54 68v5c0 15.333 5.16699 28.166 15.5 38.499s23.166 15.5 38.499 15.5c18 0 33.167 -7 45.5 -21s18.5 -34 18.5 -60c0 -37.333 -11.5 -69.666 -34.5 -96.999s-48.167 -46 -75.5 -56zM98.001 701h60v-645
h313v-56h-373v701z" />
    <glyph glyph-name="lcaron" unicode="&#x13e;" horiz-adv-x="345" 
d="M261 522l-19.999 34c44 18.667 66 43 66 73c0 26 -18 48.667 -54 68v5c0 15.333 5.16699 28.166 15.5 38.499s23.166 15.5 38.499 15.5c18 0 33.167 -7 45.5 -21s18.5 -34 18.5 -60c0 -37.333 -11.5 -69.666 -34.5 -96.999s-48.167 -46 -75.5 -56zM94.001 759
l58 -0.000976562v-643c0 -25.333 4.5 -43.666 13.5 -54.999s24.167 -17 45.5 -17c18.667 0 36 4.33301 52 13v-52c-18 -8 -40.333 -12 -67 -12c-68 0 -102 35.667 -102 107v659z" />
    <glyph glyph-name="Ldot" unicode="&#x13f;" horiz-adv-x="486" 
d="M287 373c0 14.667 5 27.167 15 37.5s22 15.5 36 15.5c14.667 0 27.167 -5 37.5 -15s15.5 -22.667 15.5 -38c0 -14 -5.16699 -26 -15.5 -36s-22.833 -15 -37.5 -15c-14 0 -26 5 -36 15s-15 22 -15 36zM98 701h60v-645h313v-56h-373v701z" />
    <glyph glyph-name="ldot" unicode="&#x140;" horiz-adv-x="368" 
d="M264 403c0 14.667 5 27.167 15 37.5s22 15.5 36 15.5c15.333 0 28 -5 38 -15s15 -22.667 15 -38c0 -14 -5.16699 -26 -15.5 -36s-22.833 -15 -37.5 -15c-14 0 -26 5 -36 15s-15 22 -15 36zM94 759l58 -0.000976562v-643c0 -25.333 4.5 -43.666 13.5 -54.999
s24.167 -17 45.5 -17c18.667 0 36 4.33301 52 13v-52c-18 -8 -40.333 -12 -67 -12c-68 0 -102 35.667 -102 107v659z" />
    <glyph glyph-name="Lslash" unicode="&#x141;" horiz-adv-x="492" 
d="M164 56h313v-56h-373v314l-58 -46v56l58 46v331h60v-282l134 107v-56l-134 -107v-307z" />
    <glyph glyph-name="lslash" unicode="&#x142;" horiz-adv-x="293" 
d="M158 369v-253.001c0 -25.333 4.5 -43.666 13.5 -54.999s24.167 -17 45.5 -17c18.667 0 36 4.33301 52 13v-52c-18 -8 -40.333 -12 -67 -12c-68 0 -102 35.667 -102 107v222l-53 -43v56l53 43v381h58v-334l101 82v-56z" />
    <glyph glyph-name="Nacute" unicode="&#x143;" horiz-adv-x="690" 
d="M163 631h-8v-631h-57v701h93l261 -489l76 -142h8v631h56v-701h-92l-260 487zM546 913l-188 -117l-40 28l167 122z" />
    <glyph glyph-name="nacute" unicode="&#x144;" horiz-adv-x="564" 
d="M486 743l-188 -117l-40 28l167 122zM480 371l-0.000976562 -371.002h-58v357c0 44.667 -11 78.834 -33 102.501s-53.333 35.5 -94 35.5c-35.333 0 -66.5 -10.167 -93.5 -30.5s-45.833 -45.166 -56.5 -74.499v-390h-58v539h43l13 -59h4
c5.33301 7.33301 13.333 15.5 24 24.5s28.334 18.667 53.001 29s51 15.5 79 15.5c54.667 0 97.5 -15 128.5 -45s47.167 -74.333 48.5 -133z" />
    <glyph glyph-name="uni0145" unicode="&#x145;" horiz-adv-x="690" 
d="M163 631h-8v-631h-57v701h93l261 -489l76 -142h8v631h56v-701h-92l-260 487zM321 -321l-20.001 26.999c28.667 16.667 43 37 43 61c0 22.667 -17.667 43.334 -53 62.001v5c0 14 4.66699 25.667 14 35s21 14 35 14c16.667 0 30.667 -6.33301 42 -19s17 -31 17 -55
c0 -28 -7.66699 -53.5 -23 -76.5s-33.666 -40.833 -54.999 -53.5z" />
    <glyph glyph-name="uni0146" unicode="&#x146;" horiz-adv-x="564" 
d="M258 -321l-20.001 26.999c28.667 16.667 43 37 43 61c0 22.667 -17.667 43.334 -53 62.001v5c0 14 4.66699 25.667 14 35s21 14 35 14c16.667 0 30.667 -6.33301 42 -19s17 -31 17 -55c0 -28 -7.66699 -53.5 -23 -76.5s-33.666 -40.833 -54.999 -53.5zM479.999 370.999
l-0.000976562 -371.002h-58v357c0 44.667 -11 78.834 -33 102.501s-53.333 35.5 -94 35.5c-35.333 0 -66.5 -10.167 -93.5 -30.5s-45.833 -45.166 -56.5 -74.499v-390h-58v539h43l13 -59h4c5.33301 7.33301 13.333 15.5 24 24.5s28.334 18.667 53.001 29s51 15.5 79 15.5
c54.667 0 97.5 -15 128.5 -45s47.167 -74.333 48.5 -133z" />
    <glyph glyph-name="Ncaron" unicode="&#x147;" horiz-adv-x="690" 
d="M163 631h-8v-631h-57v701h93l261 -489l76 -142h8v631h56v-701h-92l-260 487zM534 922l-189 -124l-189 124l23 35l166 -98l167 98z" />
    <glyph glyph-name="ncaron" unicode="&#x148;" horiz-adv-x="564" 
d="M471 752l-189 -124l-189 124l23 35l166 -98l167 98zM480 371l-0.000976562 -371.002h-58v357c0 44.667 -11 78.834 -33 102.501s-53.333 35.5 -94 35.5c-35.333 0 -66.5 -10.167 -93.5 -30.5s-45.833 -45.166 -56.5 -74.499v-390h-58v539h43l13 -59h4
c5.33301 7.33301 13.333 15.5 24 24.5s28.334 18.667 53.001 29s51 15.5 79 15.5c54.667 0 97.5 -15 128.5 -45s47.167 -74.333 48.5 -133z" />
    <glyph glyph-name="napostrophe" unicode="&#x149;" horiz-adv-x="644" 
d="M13 489l-19.999 34c44 18.667 66 43 66 73c0 26 -18 48.667 -54 68v5c0 15.333 5.16699 28.166 15.5 38.499s23.166 15.5 38.499 15.5c18 0 33.167 -7 45.5 -21s18.5 -34 18.5 -60c0 -37.333 -11.5 -69.666 -34.5 -96.999s-48.167 -46 -75.5 -56zM560.001 371
l-0.000976562 -371.002h-58v357c0 44.667 -11 78.834 -33 102.501s-53.333 35.5 -94 35.5c-35.333 0 -66.5 -10.167 -93.5 -30.5s-45.833 -45.166 -56.5 -74.499v-390h-58v539h43l13 -59h4c5.33301 7.33301 13.333 15.5 24 24.5s28.334 18.667 53.001 29s51 15.5 79 15.5
c54.667 0 97.5 -15 128.5 -45s47.167 -74.333 48.5 -133z" />
    <glyph glyph-name="Eng" unicode="&#x14a;" horiz-adv-x="690" 
d="M163 631l-7.99805 -0.00195312v-631h-57v701h93l261 -489l76 -142h8v631h56v-679c0 -129.333 -51.667 -210.666 -155 -243.999l-21 51c33.333 10.667 60.666 28.334 81.999 53.001s33.666 64 36.999 118h-35l-260 487z" />
    <glyph glyph-name="eng" unicode="&#x14b;" horiz-adv-x="567" 
d="M143 480l4.00195 -0.000976562c5.33301 7.33301 13.333 15.5 24 24.5s28.334 18.667 53.001 29s51 15.5 79 15.5c54.667 0 97.5 -15 128.5 -45s47.167 -74.333 48.5 -133v-349c0 -129.333 -51.667 -210.666 -155 -243.999l-21 51
c16.667 5.33301 31.167 11.666 43.5 18.999s24.666 18 36.999 32s21.666 33.167 27.999 57.5s9.5 53.166 9.5 86.499v333c0 44.667 -10.833 78.834 -32.5 102.501s-52.834 35.5 -93.501 35.5c-35.333 0 -66.833 -10.167 -94.5 -30.5s-46.5 -45.166 -56.5 -74.499v-390h-58
v539h43z" />
    <glyph glyph-name="Omacron" unicode="&#x14c;" horiz-adv-x="664" 
d="M483 846h-303v46h303v-46zM127 354c0 -110 17.666 -188.665 52.999 -235.998s86.333 -71 153 -71s117.334 22.667 152.001 68s52 122.666 52 231.999c0 110 -17.667 188.667 -53 236s-86.333 71 -153 71c-66 0 -116.5 -22.833 -151.5 -68.5
s-52.5 -122.834 -52.5 -231.501zM598.999 354.002c0 -242.667 -90.333 -364 -271 -364c-175.333 0 -263 119 -263 357c0 242.667 90.333 364 271 364c175.333 0 263 -119 263 -357z" />
    <glyph glyph-name="omacron" unicode="&#x14d;" horiz-adv-x="550" 
d="M426 676h-303v46h303v-46zM118 274c0 -77.333 12.833 -134.667 38.5 -172s66.167 -56 121.5 -56c54.667 0 94 18 118 54s36 92 36 168c0 77.333 -12.833 134.5 -38.5 171.5s-66.167 55.5 -121.5 55.5c-54.667 0 -94 -17.833 -118 -53.5s-36 -91.5 -36 -167.5z
M272 -8.00098c-142.667 0 -214 92 -214 276c0 187.333 73.333 281 220 281c142.667 0 214 -91.667 214 -275c0 -188 -73.333 -282 -220 -282z" />
    <glyph glyph-name="Obreve" unicode="&#x14e;" horiz-adv-x="664" 
d="M127 354c0 -110 17.666 -188.665 52.999 -235.998s86.333 -71 153 -71s117.334 22.667 152.001 68s52 122.666 52 231.999c0 110 -17.667 188.667 -53 236s-86.333 71 -153 71c-66 0 -116.5 -22.833 -151.5 -68.5s-52.5 -122.834 -52.5 -231.501zM598.999 354.002
c0 -242.667 -90.333 -364 -271 -364c-175.333 0 -263 119 -263 357c0 242.667 90.333 364 271 364c175.333 0 263 -119 263 -357zM331.999 815.002c-70.667 0 -123.667 30 -159 90l40 26c25.333 -45.333 65 -68 119 -68s93.667 22.667 119 68l40 -26
c-35.333 -60 -88.333 -90 -159 -90z" />
    <glyph glyph-name="obreve" unicode="&#x14f;" horiz-adv-x="550" 
d="M118 274c0 -77.333 12.833 -134.667 38.5 -172s66.167 -56 121.5 -56c54.667 0 94 18 118 54s36 92 36 168c0 77.333 -12.833 134.5 -38.5 171.5s-66.167 55.5 -121.5 55.5c-54.667 0 -94 -17.833 -118 -53.5s-36 -91.5 -36 -167.5zM272 -8.00098
c-142.667 0 -214 92 -214 276c0 187.333 73.333 281 220 281c142.667 0 214 -91.667 214 -275c0 -188 -73.333 -282 -220 -282zM275 644.999c-71.333 0 -124.333 30 -159 90l40 26c25.333 -45.333 65 -68 119 -68s93.667 22.667 119 68l40 -26
c-34.667 -60 -87.667 -90 -159 -90z" />
    <glyph glyph-name="Ohungarumlaut" unicode="&#x150;" horiz-adv-x="664" 
d="M634 913l-188 -117l-40 28l167 122zM433 913l-188 -117l-40 28l167 122zM127 354c0 -110 17.666 -188.665 52.999 -235.998s86.333 -71 153 -71s117.334 22.667 152.001 68s52 122.666 52 231.999c0 110 -17.667 188.667 -53 236s-86.333 71 -153 71
c-66 0 -116.5 -22.833 -151.5 -68.5s-52.5 -122.834 -52.5 -231.501zM598.999 354.002c0 -242.667 -90.333 -364 -271 -364c-175.333 0 -263 119 -263 357c0 242.667 90.333 364 271 364c175.333 0 263 -119 263 -357z" />
    <glyph glyph-name="ohungarumlaut" unicode="&#x151;" horiz-adv-x="550" 
d="M559 743l-188 -117l-40 28l167 122zM358 743l-188 -117l-40 28l167 122zM118 274c0 -77.333 12.833 -134.667 38.5 -172s66.167 -56 121.5 -56c54.667 0 94 18 118 54s36 92 36 168c0 77.333 -12.833 134.5 -38.5 171.5s-66.167 55.5 -121.5 55.5
c-54.667 0 -94 -17.833 -118 -53.5s-36 -91.5 -36 -167.5zM272 -8.00098c-142.667 0 -214 92 -214 276c0 187.333 73.333 281 220 281c142.667 0 214 -91.667 214 -275c0 -188 -73.333 -282 -220 -282z" />
    <glyph glyph-name="OE" unicode="&#x152;" horiz-adv-x="956" 
d="M911 0h-371.999v95h-4c-41.333 -70 -110.333 -105 -207 -105c-175.333 0 -263 119 -263 357c0 242.667 90.333 364 271 364c93.333 0 159.666 -33.333 198.999 -100h4v90h357v-56h-300v-262h265v-56h-265v-271h315v-56zM127.001 354c0 -110 17.666 -188.667 52.999 -236
s86.333 -71 153 -71s117.834 22.833 153.501 68.5s53.5 122.834 53.5 231.501c0 110 -18 188.667 -54 236s-87.667 71 -155 71c-66 0 -116.5 -22.833 -151.5 -68.5s-52.5 -122.834 -52.5 -231.501z" />
    <glyph glyph-name="oe" unicode="&#x153;" horiz-adv-x="909" 
d="M464 105l-4 0.000976562c-34 -75.333 -96.667 -113 -188 -113c-142.667 0 -214 92 -214 276c0 187.333 73.333 281 220 281c94.667 0 156.334 -38.333 185.001 -115h4c17.333 37.333 42.666 65.5 75.999 84.5s70.333 28.5 111 28.5c60.667 0 107.5 -18.833 140.5 -56.5
s49.5 -88.834 49.5 -153.501c0 -32 -1.33301 -62.333 -4 -91h-350v-4c4.66699 -69.333 22.167 -119 52.5 -149s74.166 -45 131.499 -45c55.333 0 100.333 15.667 135 47l28 -50c-37.333 -34 -94.333 -51 -171 -51c-103.333 0 -170.666 37 -201.999 111zM118 274.001
c0 -77.333 12.834 -134.667 38.501 -172s66.167 -56 121.5 -56s95.166 18.167 119.499 54.5s36.5 94.833 36.5 175.5c0 146 -54 219 -162 219c-54.667 0 -94 -17.833 -118 -53.5s-36 -91.5 -36 -167.5zM645.001 493c-18.667 0 -36 -2.83301 -52 -8.5
s-31.667 -15.167 -47 -28.5s-28 -32.833 -38 -58.5s-16 -56.5 -18 -92.5v-5h294c0.666992 9.33301 1 21 1 35c0 105.333 -46.667 158 -140 158z" />
    <glyph glyph-name="Racute" unicode="&#x154;" horiz-adv-x="590" 
d="M470 913l-188 -117l-40 28l167 122zM98 701h161.999c154 0 231 -65 231 -195c0 -54 -15.667 -98.167 -47 -132.5s-69.333 -53.5 -114 -57.5v-4c28.667 -12 56.334 -40.667 83.001 -86l135 -226h-72l-130 223c-30 50.667 -70.333 76 -121 76h-67v-299h-60v701z
M157.999 645v-291h99c114.667 0 172 48.333 172 145c0 52 -14.833 89.333 -44.5 112s-74.5 34 -134.5 34h-92z" />
    <glyph glyph-name="racute" unicode="&#x155;" horiz-adv-x="345" 
d="M295 743l-188 -117l-40 28l167 122zM339 541l0.000976562 -62.001c-20 6 -40 9 -60 9c-66.667 0 -111.334 -25.667 -134.001 -77v-411h-58v539h43l13 -55h4c13.333 18.667 32 33.834 56 45.501s50.333 17.5 79 17.5c22 0 41 -2 57 -6z" />
    <glyph glyph-name="uni0156" unicode="&#x156;" horiz-adv-x="590" 
d="M291 -321l-20.001 26.999c28.667 16.667 43 37 43 61c0 22.667 -17.667 43.334 -53 62.001v5c0 14 4.66699 25.667 14 35s21 14 35 14c16.667 0 30.667 -6.33301 42 -19s17 -31 17 -55c0 -28 -7.66699 -53.5 -23 -76.5s-33.666 -40.833 -54.999 -53.5zM97.999 700.999
h161.999c154 0 231 -65 231 -195c0 -54 -15.667 -98.167 -47 -132.5s-69.333 -53.5 -114 -57.5v-4c28.667 -12 56.334 -40.667 83.001 -86l135 -226h-72l-130 223c-30 50.667 -70.333 76 -121 76h-67v-299h-60v701zM157.998 644.999v-291h99c114.667 0 172 48.333 172 145
c0 52 -14.833 89.333 -44.5 112s-74.5 34 -134.5 34h-92z" />
    <glyph glyph-name="uni0157" unicode="&#x157;" horiz-adv-x="345" 
d="M91 -321l-20.001 26.999c28.667 16.667 43 37 43 61c0 22.667 -17.667 43.334 -53 62.001v5c0 14 4.66699 25.667 14 35s21 14 35 14c16.667 0 30.667 -6.33301 42 -19s17 -31 17 -55c0 -28 -7.66699 -53.5 -23 -76.5s-33.666 -40.833 -54.999 -53.5zM338.999 540.999
l0.000976562 -62.001c-20 6 -40 9 -60 9c-66.667 0 -111.334 -25.667 -134.001 -77v-411h-58v539h43l13 -55h4c13.333 18.667 32 33.834 56 45.501s50.333 17.5 79 17.5c22 0 41 -2 57 -6z" />
    <glyph glyph-name="Rcaron" unicode="&#x158;" horiz-adv-x="590" 
d="M484 922l-189 -124l-189 124l23 35l166 -98l167 98zM98 701h161.999c154 0 231 -65 231 -195c0 -54 -15.667 -98.167 -47 -132.5s-69.333 -53.5 -114 -57.5v-4c28.667 -12 56.334 -40.667 83.001 -86l135 -226h-72l-130 223c-30 50.667 -70.333 76 -121 76h-67v-299h-60
v701zM157.999 645v-291h99c114.667 0 172 48.333 172 145c0 52 -14.833 89.333 -44.5 112s-74.5 34 -134.5 34h-92z" />
    <glyph glyph-name="rcaron" unicode="&#x159;" horiz-adv-x="345" 
d="M362 752l-189 -124l-189 124l23 35l166 -98l167 98zM339 541l0.000976562 -62.001c-20 6 -40 9 -60 9c-66.667 0 -111.334 -25.667 -134.001 -77v-411h-58v539h43l13 -55h4c13.333 18.667 32 33.834 56 45.501s50.333 17.5 79 17.5c22 0 41 -2 57 -6z" />
    <glyph glyph-name="Sacute" unicode="&#x15a;" horiz-adv-x="522" 
d="M471 913l-188 -117l-40 28l167 122zM249 47c50.667 0 90.167 12.1689 118.5 36.502s42.5 55.5 42.5 93.5c0 23.333 -6.16699 43.833 -18.5 61.5s-28.5 32.5 -48.5 44.5s-41.833 23.333 -65.5 34s-47.5 22 -71.5 34s-46 25.333 -66 40s-36.167 33.667 -48.5 57
s-18.5 50 -18.5 80c0 52 19.667 95.5 59 130.5s89.333 52.5 150 52.5c70 0 127.333 -17.333 172 -52l-37 -49c-39.333 29.333 -85.333 44 -138 44c-44.667 0 -80 -11.333 -106 -34s-39 -52.334 -39 -89.001c0 -32 11.5 -59.333 34.5 -82s51 -41.334 84 -56.001l99.5 -46
c33.333 -16 61.5 -38 84.5 -66s34.5 -61.667 34.5 -101c0 -54.667 -20.333 -100 -61 -136s-95.667 -54 -165 -54c-86.667 0 -157.667 23.333 -213 70l37 48c52 -40.667 112 -61 180 -61z" />
    <glyph glyph-name="sacute" unicode="&#x15b;" horiz-adv-x="468" 
d="M434 743l-188 -117l-40 28l167 122zM346 141c0 24.667 -9.50391 44.8369 -28.5039 60.5039s-42 28.167 -69 37.5s-54.167 19.333 -81.5 30s-50.5 27 -69.5 49s-28.5 50 -28.5 84c0 40 16 74.167 48 102.5s76 42.5 132 42.5c28 0 55.5 -4.66699 82.5 -14
s48.5 -22 64.5 -38l-38 -44c-26.667 28 -63.667 42 -111 42c-40 0 -70 -8.5 -90 -25.5s-30 -38.5 -30 -64.5c0 -20.667 6.83301 -38.334 20.5 -53.001s30.834 -25.667 51.501 -33s42.834 -16 66.501 -26s45.834 -20 66.501 -30s37.834 -25.333 51.501 -46
s20.5 -45.334 20.5 -74.001c0 -40.667 -16.5 -75.834 -49.5 -105.501s-78.5 -44.5 -136.5 -44.5c-77.333 0 -138.333 21.667 -183 65l38 46c38 -38 87.333 -57 148 -57c40 0 70.833 9.16699 92.5 27.5s32.5 41.166 32.5 68.499z" />
    <glyph glyph-name="Scircumflex" unicode="&#x15c;" horiz-adv-x="522" 
d="M450 830l-22 -35l-167 98l-166 -98l-23 35l189 124zM249 47c50.667 0 90.167 12.1689 118.5 36.502s42.5 55.5 42.5 93.5c0 23.333 -6.16699 43.833 -18.5 61.5s-28.5 32.5 -48.5 44.5s-41.833 23.333 -65.5 34s-47.5 22 -71.5 34s-46 25.333 -66 40
s-36.167 33.667 -48.5 57s-18.5 50 -18.5 80c0 52 19.667 95.5 59 130.5s89.333 52.5 150 52.5c70 0 127.333 -17.333 172 -52l-37 -49c-39.333 29.333 -85.333 44 -138 44c-44.667 0 -80 -11.333 -106 -34s-39 -52.334 -39 -89.001c0 -32 11.5 -59.333 34.5 -82
s51 -41.334 84 -56.001l99.5 -46c33.333 -16 61.5 -38 84.5 -66s34.5 -61.667 34.5 -101c0 -54.667 -20.333 -100 -61 -136s-95.667 -54 -165 -54c-86.667 0 -157.667 23.333 -213 70l37 48c52 -40.667 112 -61 180 -61z" />
    <glyph glyph-name="scircumflex" unicode="&#x15d;" horiz-adv-x="468" 
d="M423 660l-22 -35l-167 98l-166 -98l-23 35l189 124zM346 141c0 24.667 -9.50391 44.8369 -28.5039 60.5039s-42 28.167 -69 37.5s-54.167 19.333 -81.5 30s-50.5 27 -69.5 49s-28.5 50 -28.5 84c0 40 16 74.167 48 102.5s76 42.5 132 42.5c28 0 55.5 -4.66699 82.5 -14
s48.5 -22 64.5 -38l-38 -44c-26.667 28 -63.667 42 -111 42c-40 0 -70 -8.5 -90 -25.5s-30 -38.5 -30 -64.5c0 -20.667 6.83301 -38.334 20.5 -53.001s30.834 -25.667 51.501 -33s42.834 -16 66.501 -26s45.834 -20 66.501 -30s37.834 -25.333 51.501 -46
s20.5 -45.334 20.5 -74.001c0 -40.667 -16.5 -75.834 -49.5 -105.501s-78.5 -44.5 -136.5 -44.5c-77.333 0 -138.333 21.667 -183 65l38 46c38 -38 87.333 -57 148 -57c40 0 70.833 9.16699 92.5 27.5s32.5 41.166 32.5 68.499z" />
    <glyph glyph-name="uni015E" unicode="&#x15e;" horiz-adv-x="522" 
d="M249 47c50.667 0 90.167 12.1689 118.5 36.502s42.5 55.5 42.5 93.5c0 23.333 -6.16699 43.833 -18.5 61.5s-28.5 32.5 -48.5 44.5s-41.833 23.333 -65.5 34s-47.5 22 -71.5 34s-46 25.333 -66 40s-36.167 33.667 -48.5 57s-18.5 50 -18.5 80c0 52 19.667 95.5 59 130.5
s89.333 52.5 150 52.5c70 0 127.333 -17.333 172 -52l-37 -49c-39.333 29.333 -85.333 44 -138 44c-44.667 0 -80 -11.333 -106 -34s-39 -52.334 -39 -89.001c0 -32 11.5 -59.333 34.5 -82s51 -41.334 84 -56.001l99.5 -46c33.333 -16 61.5 -38 84.5 -66
s34.5 -61.667 34.5 -101c0 -54.667 -20.333 -100 -61 -136s-95.667 -54 -165 -54c-86.667 0 -157.667 23.333 -213 70l37 48c52 -40.667 112 -61 180 -61zM307 -113.998c0 -56 -29.333 -94.667 -88 -116l-23 34c36.667 18.667 55 44.334 55 77.001
c0 21.333 -7.66699 42.666 -23 63.999v4h61c12 -17.333 18 -38.333 18 -63z" />
    <glyph glyph-name="uni015F" unicode="&#x15f;" horiz-adv-x="468" 
d="M346 141c0 24.667 -9.50391 44.8369 -28.5039 60.5039s-42 28.167 -69 37.5s-54.167 19.333 -81.5 30s-50.5 27 -69.5 49s-28.5 50 -28.5 84c0 40 16 74.167 48 102.5s76 42.5 132 42.5c28 0 55.5 -4.66699 82.5 -14s48.5 -22 64.5 -38l-38 -44
c-26.667 28 -63.667 42 -111 42c-40 0 -70 -8.5 -90 -25.5s-30 -38.5 -30 -64.5c0 -20.667 6.83301 -38.334 20.5 -53.001s30.834 -25.667 51.501 -33s42.834 -16 66.501 -26s45.834 -20 66.501 -30s37.834 -25.333 51.501 -46s20.5 -45.334 20.5 -74.001
c0 -40.667 -16.5 -75.834 -49.5 -105.501s-78.5 -44.5 -136.5 -44.5c-77.333 0 -138.333 21.667 -183 65l38 46c38 -38 87.333 -57 148 -57c40 0 70.833 9.16699 92.5 27.5s32.5 41.166 32.5 68.499zM281.996 -113.997c0 -56 -29.333 -94.667 -88 -116l-23 34
c36.667 18.667 55 44.334 55 77.001c0 21.333 -7.66699 42.666 -23 63.999v4h61c12 -17.333 18 -38.333 18 -63z" />
    <glyph glyph-name="Scaron" unicode="&#x160;" horiz-adv-x="522" 
d="M462 922l-189 -124l-189 124l23 35l166 -98l167 98zM249 47c50.667 0 90.167 12.1689 118.5 36.502s42.5 55.5 42.5 93.5c0 23.333 -6.16699 43.833 -18.5 61.5s-28.5 32.5 -48.5 44.5s-41.833 23.333 -65.5 34s-47.5 22 -71.5 34s-46 25.333 -66 40
s-36.167 33.667 -48.5 57s-18.5 50 -18.5 80c0 52 19.667 95.5 59 130.5s89.333 52.5 150 52.5c70 0 127.333 -17.333 172 -52l-37 -49c-39.333 29.333 -85.333 44 -138 44c-44.667 0 -80 -11.333 -106 -34s-39 -52.334 -39 -89.001c0 -32 11.5 -59.333 34.5 -82
s51 -41.334 84 -56.001l99.5 -46c33.333 -16 61.5 -38 84.5 -66s34.5 -61.667 34.5 -101c0 -54.667 -20.333 -100 -61 -136s-95.667 -54 -165 -54c-86.667 0 -157.667 23.333 -213 70l37 48c52 -40.667 112 -61 180 -61z" />
    <glyph glyph-name="scaron" unicode="&#x161;" horiz-adv-x="468" 
d="M423 752l-189 -124l-189 124l23 35l166 -98l167 98zM346 141c0 24.667 -9.50391 44.8369 -28.5039 60.5039s-42 28.167 -69 37.5s-54.167 19.333 -81.5 30s-50.5 27 -69.5 49s-28.5 50 -28.5 84c0 40 16 74.167 48 102.5s76 42.5 132 42.5c28 0 55.5 -4.66699 82.5 -14
s48.5 -22 64.5 -38l-38 -44c-26.667 28 -63.667 42 -111 42c-40 0 -70 -8.5 -90 -25.5s-30 -38.5 -30 -64.5c0 -20.667 6.83301 -38.334 20.5 -53.001s30.834 -25.667 51.501 -33s42.834 -16 66.501 -26s45.834 -20 66.501 -30s37.834 -25.333 51.501 -46
s20.5 -45.334 20.5 -74.001c0 -40.667 -16.5 -75.834 -49.5 -105.501s-78.5 -44.5 -136.5 -44.5c-77.333 0 -138.333 21.667 -183 65l38 46c38 -38 87.333 -57 148 -57c40 0 70.833 9.16699 92.5 27.5s32.5 41.166 32.5 68.499z" />
    <glyph glyph-name="uni0162" unicode="&#x162;" horiz-adv-x="469" 
d="M210 -321l-20.001 26.999c28.667 16.667 43 37 43 61c0 22.667 -17.667 43.334 -53 62.001v5c0 14 4.66699 25.667 14 35s21 14 35 14c16.667 0 30.667 -6.33301 42 -19s17 -31 17 -55c0 -28 -7.66699 -53.5 -23 -76.5s-33.666 -40.833 -54.999 -53.5z
M204.999 -0.000976562v645h-191v56h441v-56h-190v-645h-60z" />
    <glyph glyph-name="uni0163" unicode="&#x163;" horiz-adv-x="375" 
d="M163 -321l-20.001 26.999c28.667 16.667 43 37 43 61c0 22.667 -17.667 43.334 -53 62.001v5c0 14 4.66699 25.667 14 35s21 14 35 14c16.667 0 30.667 -6.33301 42 -19s17 -31 17 -55c0 -28 -7.66699 -53.5 -23 -76.5s-33.666 -40.833 -54.999 -53.5zM236.999 -5.00098
c-88 0 -132 46.667 -132 140v354h-83v38l83 12l16 143h42v-143h152v-50h-152v-347c0 -62.667 28 -94 84 -94c36 0 64.333 6 85 18l17 -49c-28 -14.667 -65.333 -22 -112 -22z" />
    <glyph glyph-name="Tcaron" unicode="&#x164;" horiz-adv-x="469" 
d="M424 922l-189 -124l-189 124l23 35l166 -98l167 98zM205 0v645h-191v56h441v-56h-190v-645h-60z" />
    <glyph glyph-name="tcaron" unicode="&#x165;" horiz-adv-x="375" 
d="M254 601l-19.999 34c44 18.667 66 43 66 73c0 26 -18 48.667 -54 68v5c0 15.333 5.16699 28.166 15.5 38.499s23.166 15.5 38.499 15.5c18 0 33.167 -7 45.5 -21s18.5 -34 18.5 -60c0 -37.333 -11.5 -69.666 -34.5 -96.999s-48.167 -46 -75.5 -56zM237.001 -5
c-88 0 -132 46.667 -132 140v354h-83v38l83 12l16 143h42v-143h152v-50h-152v-347c0 -62.667 28 -94 84 -94c36 0 64.333 6 85 18l17 -49c-28 -14.667 -65.333 -22 -112 -22z" />
    <glyph glyph-name="Tbar" unicode="&#x166;" horiz-adv-x="473" 
d="M457 645h-190v-267h121v-46h-121v-332h-60v332h-122v46h122v267h-191v56h441v-56z" />
    <glyph glyph-name="tbar" unicode="&#x167;" horiz-adv-x="375" 
d="M332 66l17 -49c-28 -14.667 -65.333 -22 -112 -22c-88 0 -132 46.667 -132 140v174h-83v38l83 12v130h-83v38l83 12l16 143h42v-143h152v-50h-152v-130h152v-50h-152v-167c0 -62.667 28 -94 84 -94c36 0 64.333 6 85 18z" />
    <glyph glyph-name="Utilde" unicode="&#x168;" horiz-adv-x="675" 
d="M340 47c120 0 180.001 60.667 180.001 182v472h60v-466c0 -78 -21.333 -138.333 -64 -181s-103.334 -64 -182.001 -64c-76 0 -134.833 20.667 -176.5 62s-62.5 100.333 -62.5 177v472h60v-465c0 -64 16.5 -111.5 49.5 -142.5s78.167 -46.5 135.5 -46.5zM274.001 904
c17.333 0 40.6689 -5.5 70.002 -16.5s50 -16.5 62 -16.5c27.333 0 47.666 9 60.999 27l24 -40c-1.33301 -3.33301 -4.83301 -7.5 -10.5 -12.5s-15.334 -10.333 -29.001 -16s-28.834 -8.5 -45.501 -8.5c-14.667 0 -37 5.66699 -67 17s-52 17 -66 17c-26.667 0 -49 -8 -67 -24
l-23 40l5 4l9 7c2.66699 2 6.83398 4.5 12.501 7.5s11.334 5.5 17.001 7.5s12.667 3.66699 21 5s17.166 2 26.499 2z" />
    <glyph glyph-name="utilde" unicode="&#x169;" horiz-adv-x="564" 
d="M84 168l-0.00195312 371h58v-354c0 -48 10.5 -83.667 31.5 -107s53.833 -35 98.5 -35c43.333 0 78.666 12.167 105.999 36.5s41 61.5 41 111.5v348h58v-539h-43l-13 58h-4c-5.33301 -8 -13.166 -16.5 -23.499 -25.5s-27.833 -18.5 -52.5 -28.5s-51.667 -15 -81 -15
c-55.333 0 -98.166 15 -128.499 45s-46.166 74.667 -47.499 134zM218.998 734c17.333 0 40.6689 -5.5 70.002 -16.5s50 -16.5 62 -16.5c27.333 0 47.666 9 60.999 27l24 -40c-1.33301 -3.33301 -4.83301 -7.5 -10.5 -12.5s-15.334 -10.333 -29.001 -16
s-28.834 -8.5 -45.501 -8.5c-14.667 0 -37 5.66699 -67 17s-52 17 -66 17c-26.667 0 -49 -8 -67 -24l-23 40l5 4l9 7c2.66699 2 6.83398 4.5 12.501 7.5s11.334 5.5 17.001 7.5s12.667 3.66699 21 5s17.166 2 26.499 2z" />
    <glyph glyph-name="Umacron" unicode="&#x16a;" horiz-adv-x="675" 
d="M340 47c120 0 180.001 60.667 180.001 182v472h60v-466c0 -78 -21.333 -138.333 -64 -181s-103.334 -64 -182.001 -64c-76 0 -134.833 20.667 -176.5 62s-62.5 100.333 -62.5 177v472h60v-465c0 -64 16.5 -111.5 49.5 -142.5s78.167 -46.5 135.5 -46.5zM489.001 846h-303
v46h303v-46z" />
    <glyph glyph-name="umacron" unicode="&#x16b;" horiz-adv-x="564" 
d="M84 168l-0.00195312 371h58v-354c0 -48 10.5 -83.667 31.5 -107s53.833 -35 98.5 -35c43.333 0 78.666 12.167 105.999 36.5s41 61.5 41 111.5v348h58v-539h-43l-13 58h-4c-5.33301 -8 -13.166 -16.5 -23.499 -25.5s-27.833 -18.5 -52.5 -28.5s-51.667 -15 -81 -15
c-55.333 0 -98.166 15 -128.499 45s-46.166 74.667 -47.499 134zM432.998 676h-303v46h303v-46z" />
    <glyph glyph-name="Ubreve" unicode="&#x16c;" horiz-adv-x="675" 
d="M340 47c120 0 180.001 60.667 180.001 182v472h60v-466c0 -78 -21.333 -138.333 -64 -181s-103.334 -64 -182.001 -64c-76 0 -134.833 20.667 -176.5 62s-62.5 100.333 -62.5 177v472h60v-465c0 -64 16.5 -111.5 49.5 -142.5s78.167 -46.5 135.5 -46.5zM337.001 815
c-71.333 0 -124.333 30 -159 90l40 26c25.333 -45.333 65 -68 119 -68s93.667 22.667 119 68l40 -26c-34.667 -60 -87.667 -90 -159 -90z" />
    <glyph glyph-name="ubreve" unicode="&#x16d;" horiz-adv-x="564" 
d="M84 168l-0.00195312 371h58v-354c0 -48 10.5 -83.667 31.5 -107s53.833 -35 98.5 -35c43.333 0 78.666 12.167 105.999 36.5s41 61.5 41 111.5v348h58v-539h-43l-13 58h-4c-5.33301 -8 -13.166 -16.5 -23.499 -25.5s-27.833 -18.5 -52.5 -28.5s-51.667 -15 -81 -15
c-55.333 0 -98.166 15 -128.499 45s-46.166 74.667 -47.499 134zM281.998 645c-70.667 0 -123.667 30 -159 90l40 26c25.333 -45.333 65 -68 119 -68s93.667 22.667 119 68l40 -26c-35.333 -60 -88.333 -90 -159 -90z" />
    <glyph glyph-name="Uring" unicode="&#x16e;" horiz-adv-x="675" 
d="M234 883c0 30.667 9.83301 55.667 29.5 75s44.834 29 75.501 29s55.167 -8.83301 73.5 -26.5s27.5 -41.5 27.5 -71.5c0 -30.667 -9.83301 -55.667 -29.5 -75s-44.834 -29 -75.501 -29s-55.167 8.83301 -73.5 26.5s-27.5 41.5 -27.5 71.5zM397 885
c0 19.333 -5.66602 34.666 -16.999 45.999s-26.333 17 -45 17s-33.167 -5.5 -43.5 -16.5s-15.5 -25.833 -15.5 -44.5c0 -19.333 5.66699 -34.666 17 -45.999s26.666 -17 45.999 -17c18 0 32.167 5.5 42.5 16.5s15.5 25.833 15.5 44.5zM340.001 47
c120 0 180.001 60.667 180.001 182v472h60v-466c0 -78 -21.333 -138.333 -64 -181s-103.334 -64 -182.001 -64c-76 0 -134.833 20.667 -176.5 62s-62.5 100.333 -62.5 177v472h60v-465c0 -64 16.5 -111.5 49.5 -142.5s78.167 -46.5 135.5 -46.5z" />
    <glyph glyph-name="uring" unicode="&#x16f;" horiz-adv-x="564" 
d="M179 713c0 30.667 9.83301 55.667 29.5 75s44.834 29 75.501 29s55.167 -8.83301 73.5 -26.5s27.5 -41.5 27.5 -71.5c0 -30.667 -9.83301 -55.667 -29.5 -75s-44.834 -29 -75.501 -29s-55.167 8.83301 -73.5 26.5s-27.5 41.5 -27.5 71.5zM342 715
c0 19.333 -5.66797 34.666 -17.001 45.999s-26.333 17 -45 17s-33.167 -5.5 -43.5 -16.5s-15.5 -25.833 -15.5 -44.5c0 -19.333 5.83301 -34.666 17.5 -45.999s26.834 -17 45.501 -17c18 0 32.167 5.5 42.5 16.5s15.5 25.833 15.5 44.5zM83.999 168l-0.00195312 371h58v-354
c0 -48 10.5 -83.667 31.5 -107s53.833 -35 98.5 -35c43.333 0 78.666 12.167 105.999 36.5s41 61.5 41 111.5v348h58v-539h-43l-13 58h-4c-5.33301 -8 -13.166 -16.5 -23.499 -25.5s-27.833 -18.5 -52.5 -28.5s-51.667 -15 -81 -15c-55.333 0 -98.166 15 -128.499 45
s-46.166 74.667 -47.499 134z" />
    <glyph glyph-name="Uhungarumlaut" unicode="&#x170;" horiz-adv-x="675" 
d="M340 47c120 0 180.001 60.667 180.001 182v472h60v-466c0 -78 -21.333 -138.333 -64 -181s-103.334 -64 -182.001 -64c-76 0 -134.833 20.667 -176.5 62s-62.5 100.333 -62.5 177v472h60v-465c0 -64 16.5 -111.5 49.5 -142.5s78.167 -46.5 135.5 -46.5zM621.001 913
l-188 -117l-40 28l167 122zM420.001 913l-188 -117l-40 28l167 122z" />
    <glyph glyph-name="uhungarumlaut" unicode="&#x171;" horiz-adv-x="564" 
d="M84 168l-0.00195312 371h58v-354c0 -48 10.5 -83.667 31.5 -107s53.833 -35 98.5 -35c43.333 0 78.666 12.167 105.999 36.5s41 61.5 41 111.5v348h58v-539h-43l-13 58h-4c-5.33301 -8 -13.166 -16.5 -23.499 -25.5s-27.833 -18.5 -52.5 -28.5s-51.667 -15 -81 -15
c-55.333 0 -98.166 15 -128.499 45s-46.166 74.667 -47.499 134zM574.998 743l-188 -117l-40 28l167 122zM373.998 743l-188 -117l-40 28l167 122z" />
    <glyph glyph-name="Uogonek" unicode="&#x172;" horiz-adv-x="675" 
d="M520 701l59.999 -0.000976562v-466c0 -115.333 -44.333 -190.666 -133 -225.999c-28.667 -14 -54.167 -32.167 -76.5 -54.5s-33.5 -45.833 -33.5 -70.5c0 -41.333 27 -62 81 -62c16.667 0 31.334 2.66699 44.001 8l8 -48c-16.667 -6 -40 -9 -70 -9
c-39.333 0 -69 9.83301 -89 29.5s-30 45.167 -30 76.5c0 40 20 77 60 111h-7c-76 0 -134.833 20.667 -176.5 62s-62.5 100.333 -62.5 177v472h60v-465c0 -64 16.5 -111.5 49.5 -142.5s78.167 -46.5 135.5 -46.5c120 0 180 60.667 180 182v472z" />
    <glyph glyph-name="uogonek" unicode="&#x173;" horiz-adv-x="564" 
d="M491 -180l7.99805 -47.999c-16.667 -6 -40 -9 -70 -9c-39.333 0 -69 9.83301 -89 29.5s-30 45.167 -30 76.5c0 57.333 40 107.666 120 150.999l-9 38h-4c-5.33301 -8 -13.166 -16.5 -23.499 -25.5s-27.833 -18.5 -52.5 -28.5s-51.667 -15 -81 -15
c-55.333 0 -98.166 15 -128.499 45s-46.166 74.667 -47.499 134v371h58v-354c0 -48 10.5 -83.667 31.5 -107s53.833 -35 98.5 -35c43.333 0 78.666 12.167 105.999 36.5s41 61.5 41 111.5v348h58v-539c-28.667 -14.667 -54.334 -33 -77.001 -55s-34 -45.667 -34 -71
c0 -41.333 27 -62 81 -62c16.667 0 31.334 2.66699 44.001 8z" />
    <glyph glyph-name="Wcircumflex" unicode="&#x174;" horiz-adv-x="916" 
d="M647 830l-22 -35l-167 98l-166 -98l-23 35l189 124zM240 51h4l45 176l120 474h98l123 -480l44 -170h4l44 169l124 481h60l-181 -701h-98l-124 485l-44 170h-4l-43 -171l-123 -484h-98l-181 701h61l123 -474z" />
    <glyph glyph-name="wcircumflex" unicode="&#x175;" horiz-adv-x="737" 
d="M557 660l-22 -35l-167 98l-166 -98l-23 35l189 124zM371 487h-4l-123 -487h-86l-144 539h61l81 -311l44 -175h4l36 149l85 337h89l84 -338l36 -148h4l45 175l81 311h59l-145 -539h-86z" />
    <glyph glyph-name="Ycircumflex" unicode="&#x176;" horiz-adv-x="518" 
d="M520 701l-231 -441v-260h-60v260l-231 441h70l191 -377h4l191 377h66zM448 830l-22 -35l-167 98l-166 -98l-23 35l189 124z" />
    <glyph glyph-name="ycircumflex" unicode="&#x177;" horiz-adv-x="486" 
d="M23 -200l9 55c14.667 -5.33301 31 -8 49 -8c35.333 0 63.5 10 84.5 30s38.833 53 53.5 99l-193 563h62l95 -288l64 -198h4c10 40.667 29.667 106.667 59 198l93 288h60l-192 -580c-18 -54.667 -42.167 -96.167 -72.5 -124.5s-70.833 -42.5 -121.5 -42.5
c-18.667 0 -36.667 2.66699 -54 8zM432 660l-22 -35l-167 98l-166 -98l-23 35l189 124z" />
    <glyph glyph-name="Ydieresis" unicode="&#x178;" horiz-adv-x="518" 
d="M520 701l-231 -441v-260h-60v260l-231 441h70l191 -377h4l191 377h66zM130 878c0 12 3.83301 21.833 11.5 29.5s17.5 11.5 29.5 11.5c11.333 0 21 -3.83301 29 -11.5s12 -17.5 12 -29.5c0 -11.333 -4 -21 -12 -29s-17.667 -12 -29 -12c-12 0 -21.833 4 -29.5 12
s-11.5 17.667 -11.5 29zM306 878c0 12 4 21.833 12 29.5s17.667 11.5 29 11.5c12 0 21.833 -3.83301 29.5 -11.5s11.5 -17.5 11.5 -29.5c0 -11.333 -3.83301 -21 -11.5 -29s-17.5 -12 -29.5 -12c-11.333 0 -21 4 -29 12s-12 17.667 -12 29z" />
    <glyph glyph-name="Zacute" unicode="&#x179;" horiz-adv-x="505" 
d="M437 913l-188 -117l-40 28l167 122zM101 61v-4h367v-57h-428l-11 59l366 581v4h-334v57h393l11 -59z" />
    <glyph glyph-name="zacute" unicode="&#x17a;" horiz-adv-x="434" 
d="M401 743l-188 -117l-40 28l167 122zM96 58v-4h289v-54h-340l-10 68l281 413v4h-258v54h305l15 -68z" />
    <glyph glyph-name="Zdotaccent" unicode="&#x17b;" horiz-adv-x="505" 
d="M101 61v-4h367v-57h-428l-11 59l366 581v4h-334v57h393l11 -59zM204 870c0 14 4.66699 25.667 14 35s20.666 14 33.999 14c14 0 25.667 -4.66699 35 -14s14 -21 14 -35c0 -13.333 -4.66699 -24.666 -14 -33.999s-21 -14 -35 -14c-13.333 0 -24.666 4.66699 -33.999 14
s-14 20.666 -14 33.999z" />
    <glyph glyph-name="zdotaccent" unicode="&#x17c;" horiz-adv-x="434" 
d="M96 58v-4h289v-54h-340l-10 68l281 413v4h-258v54h305l15 -68zM169 700c0 14 4.66699 25.667 14 35s20.666 14 33.999 14c14 0 25.667 -4.66699 35 -14s14 -21 14 -35c0 -13.333 -4.66699 -24.666 -14 -33.999s-21 -14 -35 -14c-13.333 0 -24.666 4.66699 -33.999 14
s-14 20.666 -14 33.999z" />
    <glyph glyph-name="Zcaron" unicode="&#x17d;" horiz-adv-x="505" 
d="M441 922l-189 -124l-189 124l23 35l166 -98l167 98zM101 61v-4h367v-57h-428l-11 59l366 581v4h-334v57h393l11 -59z" />
    <glyph glyph-name="zcaron" unicode="&#x17e;" horiz-adv-x="434" 
d="M406 752l-189 -124l-189 124l23 35l166 -98l167 98zM96 58v-4h289v-54h-340l-10 68l281 413v4h-258v54h305l15 -68z" />
    <glyph glyph-name="longs" unicode="&#x17f;" horiz-adv-x="350" 
d="M181 634l0.00195312 -633.999h-58v632c0 41.333 12.167 73.666 36.5 96.999s60.166 35 107.499 35c51.333 0 89.666 -7.33301 114.999 -22l-21 -52c-26.667 14 -61 21 -103 21c-51.333 0 -77 -25.667 -77 -77z" />
    <glyph glyph-name="florin" unicode="&#x192;" horiz-adv-x="492" 
d="M146 -31l47 372h-98v53h105l17 142c5.33301 46.667 21.833 84.834 49.5 114.501s66.167 44.5 115.5 44.5c33.333 0 57 -4 71 -12l-20 -53c-12.667 7.33301 -33 11 -61 11c-30 0 -52.833 -10 -68.5 -30s-25.167 -45 -28.5 -75l-17 -142h133v-53h-140l-47 -372
c-6 -46.667 -22.667 -84.834 -50 -114.501s-65.666 -44.5 -114.999 -44.5c-33.333 0 -57 4 -71 12l20 53c12.667 -7.33301 33 -11 61 -11c55.333 0 87.666 35 96.999 105z" />
    <glyph glyph-name="uni0218" unicode="&#x218;" horiz-adv-x="522" 
d="M250 -321l-20.001 26.999c28.667 16.667 43 37 43 61c0 22.667 -17.667 43.334 -53 62.001v5c0 14 4.66699 25.667 14 35s21 14 35 14c16.667 0 30.667 -6.33301 42 -19s17 -31 17 -55c0 -28 -7.66699 -53.5 -23 -76.5s-33.666 -40.833 -54.999 -53.5zM248.999 46.999
c50.667 0 90.167 12.1689 118.5 36.502s42.5 55.5 42.5 93.5c0 23.333 -6.16699 43.833 -18.5 61.5s-28.5 32.5 -48.5 44.5s-41.833 23.333 -65.5 34s-47.5 22 -71.5 34s-46 25.333 -66 40s-36.167 33.667 -48.5 57s-18.5 50 -18.5 80c0 52 19.667 95.5 59 130.5
s89.333 52.5 150 52.5c70 0 127.333 -17.333 172 -52l-37 -49c-39.333 29.333 -85.333 44 -138 44c-44.667 0 -80 -11.333 -106 -34s-39 -52.334 -39 -89.001c0 -32 11.5 -59.333 34.5 -82s51 -41.334 84 -56.001l99.5 -46c33.333 -16 61.5 -38 84.5 -66
s34.5 -61.667 34.5 -101c0 -54.667 -20.333 -100 -61 -136s-95.667 -54 -165 -54c-86.667 0 -157.667 23.333 -213 70l37 48c52 -40.667 112 -61 180 -61z" />
    <glyph glyph-name="uni0219" unicode="&#x219;" horiz-adv-x="468" 
d="M210 -321l-20.001 26.999c28.667 16.667 43 37 43 61c0 22.667 -17.667 43.334 -53 62.001v5c0 14 4.66699 25.667 14 35s21 14 35 14c16.667 0 30.667 -6.33301 42 -19s17 -31 17 -55c0 -28 -7.66699 -53.5 -23 -76.5s-33.666 -40.833 -54.999 -53.5zM345.999 140.999
c0 24.667 -9.50391 44.8369 -28.5039 60.5039s-42 28.167 -69 37.5s-54.167 19.333 -81.5 30s-50.5 27 -69.5 49s-28.5 50 -28.5 84c0 40 16 74.167 48 102.5s76 42.5 132 42.5c28 0 55.5 -4.66699 82.5 -14s48.5 -22 64.5 -38l-38 -44c-26.667 28 -63.667 42 -111 42
c-40 0 -70 -8.5 -90 -25.5s-30 -38.5 -30 -64.5c0 -20.667 6.83301 -38.334 20.5 -53.001s30.834 -25.667 51.501 -33s42.834 -16 66.501 -26s45.834 -20 66.501 -30s37.834 -25.333 51.501 -46s20.5 -45.334 20.5 -74.001c0 -40.667 -16.5 -75.834 -49.5 -105.501
s-78.5 -44.5 -136.5 -44.5c-77.333 0 -138.333 21.667 -183 65l38 46c38 -38 87.333 -57 148 -57c40 0 70.833 9.16699 92.5 27.5s32.5 41.166 32.5 68.499z" />
    <glyph glyph-name="uni021A" unicode="&#x21a;" horiz-adv-x="469" 
d="M212 -321l-20.001 26.999c28.667 16.667 43 37 43 61c0 22.667 -17.667 43.334 -53 62.001v5c0 14 4.66699 25.667 14 35s21 14 35 14c16.667 0 30.667 -6.33301 42 -19s17 -31 17 -55c0 -28 -7.66699 -53.5 -23 -76.5s-33.666 -40.833 -54.999 -53.5z
M204.999 -0.000976562v645h-191v56h441v-56h-190v-645h-60z" />
    <glyph glyph-name="uni021B" unicode="&#x21b;" horiz-adv-x="375" 
d="M162 -321l-20.001 26.999c28.667 16.667 43 37 43 61c0 22.667 -17.667 43.334 -53 62.001v5c0 14 4.66699 25.667 14 35s21 14 35 14c16.667 0 30.667 -6.33301 42 -19s17 -31 17 -55c0 -28 -7.66699 -53.5 -23 -76.5s-33.666 -40.833 -54.999 -53.5zM236.999 -5.00098
c-88 0 -132 46.667 -132 140v354h-83v38l83 12l16 143h42v-143h152v-50h-152v-347c0 -62.667 28 -94 84 -94c36 0 64.333 6 85 18l17 -49c-28 -14.667 -65.333 -22 -112 -22z" />
    <glyph glyph-name="uni0237" unicode="&#x237;" horiz-adv-x="244" 
d="M-4 -222l-20.998 51.001c16.667 5.33301 31.167 11.666 43.5 18.999s24.666 18 36.999 32s21.666 33.167 27.999 57.5s9.5 53.166 9.5 86.499v515h58v-517c0 -129.333 -51.667 -210.666 -155 -243.999z" />
    <glyph glyph-name="uni02BC" unicode="&#x2bc;" horiz-adv-x="217" 
d="M62 489l-19.999 34c44 18.667 66 43 66 73c0 26 -18 48.667 -54 68v5c0 15.333 5.16699 28.166 15.5 38.499s23.166 15.5 38.499 15.5c18 0 33.167 -7 45.5 -21s18.5 -34 18.5 -60c0 -37.333 -11.5 -69.666 -34.5 -96.999s-48.167 -46 -75.5 -56z" />
    <glyph glyph-name="circumflex" unicode="&#x2c6;" horiz-adv-x="500" 
d="M439 660l-22 -35l-167 98l-166 -98l-23 35l189 124z" />
    <glyph glyph-name="caron" unicode="&#x2c7;" horiz-adv-x="500" 
d="M439 752l-189 -124l-189 124l23 35l166 -98l167 98z" />
    <glyph glyph-name="breve" unicode="&#x2d8;" horiz-adv-x="500" 
d="M250 645c-70.667 0 -123.667 30 -159 90l40 26c25.333 -45.333 65 -68 119 -68s93.667 22.667 119 68l40 -26c-35.333 -60 -88.333 -90 -159 -90z" />
    <glyph glyph-name="dotaccent" unicode="&#x2d9;" horiz-adv-x="500" 
d="M201 700c0 14 4.66699 25.667 14 35s20.666 14 33.999 14c14 0 25.667 -4.66699 35 -14s14 -21 14 -35c0 -13.333 -4.66699 -24.666 -14 -33.999s-21 -14 -35 -14c-13.333 0 -24.666 4.66699 -33.999 14s-14 20.666 -14 33.999z" />
    <glyph glyph-name="ring" unicode="&#x2da;" horiz-adv-x="500" 
d="M147 713c0 30.667 9.83301 55.667 29.5 75s44.834 29 75.501 29s55.167 -8.83301 73.5 -26.5s27.5 -41.5 27.5 -71.5c0 -30.667 -9.83301 -55.667 -29.5 -75s-44.834 -29 -75.501 -29s-55.167 8.83301 -73.5 26.5s-27.5 41.5 -27.5 71.5zM310 715
c0 19.333 -5.66797 34.666 -17.001 45.999s-26.333 17 -45 17s-33.167 -5.5 -43.5 -16.5s-15.5 -25.833 -15.5 -44.5c0 -19.333 5.83301 -34.666 17.5 -45.999s26.834 -17 45.501 -17c18 0 32.167 5.5 42.5 16.5s15.5 25.833 15.5 44.5z" />
    <glyph glyph-name="ogonek" unicode="&#x2db;" horiz-adv-x="500" 
d="M344 -218c-16.667 -6 -40 -9 -70 -9c-39.333 0 -69 9.83301 -89 29.5s-30 45.167 -30 76.5c0 62 47 116 141 162l26 -31c-28.667 -14.667 -54.334 -33 -77.001 -55s-34 -45.667 -34 -71c0 -41.333 27 -62 81 -62c16.667 0 31.334 2.66699 44.001 8z" />
    <glyph glyph-name="tilde" unicode="&#x2dc;" horiz-adv-x="500" 
d="M187 734c17.333 0 40.6689 -5.5 70.002 -16.5s50 -16.5 62 -16.5c27.333 0 47.666 9 60.999 27l24 -40c-1.33301 -3.33301 -4.83301 -7.5 -10.5 -12.5s-15.334 -10.333 -29.001 -16s-28.834 -8.5 -45.501 -8.5c-14.667 0 -37 5.66699 -67 17s-52 17 -66 17
c-26.667 0 -49 -8 -67 -24l-23 40l5 4l9 7c2.66699 2 6.83398 4.5 12.501 7.5s11.334 5.5 17.001 7.5s12.667 3.66699 21 5s17.166 2 26.499 2z" />
    <glyph glyph-name="hungarumlaut" unicode="&#x2dd;" horiz-adv-x="500" 
d="M464 743l-188 -117l-40 28l167 122zM263 743l-188 -117l-40 28l167 122z" />
    <glyph glyph-name="pi" unicode="&#x3c0;" horiz-adv-x="609" 
d="M101 23c18 26.667 30 51.667 36 75s9 61 9 113v281h-71v53h473v-53h-71v-492h-58v492h-215v-284c0 -97.333 -18.667 -168.333 -56 -213z" />
    <glyph glyph-name="uni0900" unicode="&#x900;" 
d="M-178 798c0 12 4.16699 22 12.5 30s18.833 12 31.5 12s23.167 -4 31.5 -12s12.5 -18 12.5 -30c0 -13.333 -4.16699 -24.333 -12.5 -33s-18.833 -13 -31.5 -13s-23.167 4.33301 -31.5 13s-12.5 19.667 -12.5 33zM-283 877l-45.998 26c40 75.333 105 113 195 113
c89.333 0 154 -37.667 194 -113l-45 -26c-32.667 56 -82.334 84 -149.001 84s-116.334 -28 -149.001 -84z" />
    <glyph glyph-name="uni0901" unicode="&#x901;" 
d="M-178 962c0 13.333 4.16699 24.333 12.5 33s18.833 13 31.5 13s23.167 -4.33301 31.5 -13s12.5 -19.667 12.5 -33c0 -12 -4.16699 -22 -12.5 -30s-18.833 -12 -31.5 -12s-23.167 4 -31.5 12s-12.5 18 -12.5 30zM-134 754c-90 0 -155.002 37.667 -195.002 113l46 26
c32.667 -56 82.334 -84 149.001 -84s116.334 28 149.001 84l45 -26c-40 -75.333 -104.667 -113 -194 -113z" />
    <glyph glyph-name="uni0902" unicode="&#x902;" 
d="M-182 801c0 14.667 4.66699 26.667 14 36s20.666 14 33.999 14c14 0 25.5 -4.66699 34.5 -14s13.5 -21.333 13.5 -36c0 -13.333 -4.5 -24.333 -13.5 -33s-20.5 -13 -34.5 -13c-13.333 0 -24.666 4.5 -33.999 13.5s-14 19.833 -14 32.5z" />
    <glyph glyph-name="uni0903" unicode="&#x903;" horiz-adv-x="262" 
d="M114 442c0 14.667 4.66699 26.667 14 36s20.666 14 33.999 14c14 0 25.5 -4.66699 34.5 -14s13.5 -21.333 13.5 -36c0 -13.333 -4.5 -24.333 -13.5 -33s-20.5 -13 -34.5 -13c-13.333 0 -24.666 4.5 -33.999 13.5s-14 19.833 -14 32.5zM114 132
c0 14.667 4.66699 26.667 14 36s20.666 14 33.999 14c14 0 25.5 -4.66699 34.5 -14s13.5 -21.333 13.5 -36c0 -13.333 -4.5 -24.333 -13.5 -33s-20.5 -13 -34.5 -13c-13.333 0 -24.666 4.5 -33.999 13.5s-14 19.833 -14 32.5z" />
    <glyph glyph-name="uni0904" unicode="&#x904;" horiz-adv-x="714" 
d="M609 634h125.002v-52h-125v-582h-58v266c-22.667 -10.667 -47 -16 -73 -16c-30 0 -57.667 6 -83 18c2 -9.33301 3 -19.333 3 -30c0 -46.667 -16.333 -85.5 -49 -116.5s-76 -46.5 -130 -46.5c-64.667 0 -120.667 22.333 -168 67l40 43
c34.667 -37.333 77.334 -56 128.001 -56c38 0 67.333 10.333 88 31s31 46.667 31 78c0 29.333 -10 52.333 -30 69s-48 25 -84 25h-54v54h30c32 0 58.167 9.16699 78.5 27.5s30.5 43.166 30.5 74.499c0 28 -8.16699 50.167 -24.5 66.5s-38.833 24.5 -67.5 24.5
c-37.333 0 -66.333 -14 -87 -42l-44 39c31.333 38.667 75.666 58 132.999 58c46.667 0 83.5 -13.667 110.5 -41s40.5 -61.666 40.5 -102.999c0 -28.667 -7.33301 -53.667 -22 -75s-30.667 -36.333 -48 -45v-4c23.333 -6 43 -17.333 59 -34
c28.667 -18.667 63.334 -28 104.001 -28c33.333 0 62.666 7.33301 87.999 22v256h-115v52h115c0 22 -5.33301 38.333 -16 49s-28.334 20.667 -53.001 30l-156 60c-61.333 23.333 -92 65 -92 125h58c0 -21.333 5.16699 -37.333 15.5 -48s28.166 -21 53.499 -31l156 -60
c61.333 -23.333 92 -65 92 -125z" />
    <glyph glyph-name="uni0905" unicode="&#x905;" horiz-adv-x="714" 
d="M436 634h298v-52h-125v-582h-58v266c-22.667 -10.667 -47 -16 -73 -16c-30 0 -57.667 6 -83 18c2 -9.33301 3 -19.333 3 -30c0 -46.667 -16.333 -85.5 -49 -116.5s-76 -46.5 -130 -46.5c-64.667 0 -120.667 22.333 -168 67l40 43c34.667 -37.333 77.334 -56 128.001 -56
c38 0 67.333 10.333 88 31s31 46.667 31 78c0 29.333 -10 52.333 -30 69s-48 25 -84 25h-54v54h30c32 0 58.167 9.16699 78.5 27.5s30.5 43.166 30.5 74.499c0 28 -8.16699 50.167 -24.5 66.5s-38.833 24.5 -67.5 24.5c-37.333 0 -66.333 -14 -87 -42l-44 39
c31.333 38.667 75.666 58 132.999 58c46.667 0 83.5 -13.667 110.5 -41s40.5 -61.666 40.5 -102.999c0 -28.667 -7.33301 -53.667 -22 -75s-30.667 -36.333 -48 -45v-4c23.333 -6 43 -17.333 59 -34c28.667 -18.667 63.334 -28 104.001 -28
c33.333 0 62.666 7.33301 87.999 22v256h-115v52z" />
    <glyph glyph-name="uni0906" unicode="&#x906;" horiz-adv-x="982" 
d="M1002 634v-52h-125v-582h-58v582h-210v-582h-58v266c-22.667 -10.667 -47 -16 -73 -16c-30 0 -57.667 6 -83 18c2 -9.33301 3 -19.333 3 -30c0 -46.667 -16.333 -85.5 -49 -116.5s-76 -46.5 -130 -46.5c-64.667 0 -120.667 22.333 -168 67l40 43
c34.667 -37.333 77.334 -56 128.001 -56c38 0 67.333 10.333 88 31s31 46.667 31 78c0 29.333 -10 52.333 -30 69s-48 25 -84 25h-54v54h30c32 0 58.167 9.16699 78.5 27.5s30.5 43.166 30.5 74.499c0 28 -8.16699 50.167 -24.5 66.5s-38.833 24.5 -67.5 24.5
c-37.333 0 -66.333 -14 -87 -42l-44 39c31.333 38.667 75.666 58 132.999 58c46.667 0 83.5 -13.667 110.5 -41s40.5 -61.666 40.5 -102.999c0 -28.667 -7.33301 -53.667 -22 -75s-30.667 -36.333 -48 -45v-4c23.333 -6 43 -17.333 59 -34
c28.667 -18.667 63.334 -28 104.001 -28c33.333 0 62.666 7.33301 87.999 22v256h-115v52h566z" />
    <glyph glyph-name="uni0907" unicode="&#x907;" horiz-adv-x="526" 
d="M268 32l0.000976562 -4.00488l154 -105l-65 -34l-152 138c-46.667 1.33301 -82.334 11.166 -107.001 29.499s-37 39.833 -37 64.5c0 18.667 7.33301 33 22 43l123 -87h39c38.667 0 71.667 8.66699 99 26s41 42.333 41 75c0 30.667 -10.333 53 -31 67l-161 -32
c-32.667 10 -60.667 29 -84 57s-35 60.333 -35 97c0 30 9.83301 54.5 29.5 73.5s46.167 28.5 79.5 28.5h158v113h-361v52h566v-52h-148v-166h-188c-28 0 -47.5 -5.16699 -58.5 -15.5s-16.5 -25.166 -16.5 -44.499s6.83301 -37.166 20.5 -53.499s30.167 -27.166 49.5 -32.499
l171 34c16 -9.33301 31.5 -24.666 46.5 -45.999s22.5 -47.666 22.5 -78.999c0 -49.333 -18 -86.666 -54 -111.999s-77 -37 -123 -35z" />
    <glyph glyph-name="uni0908" unicode="&#x908;" horiz-adv-x="526" 
d="M398 416l-187.998 -0.00585938c-28 0 -47.5 -5.16699 -58.5 -15.5s-16.5 -25.166 -16.5 -44.499s6.83301 -37.166 20.5 -53.499s30.167 -27.166 49.5 -32.499l171 34c16 -9.33301 31.5 -24.666 46.5 -45.999s22.5 -47.666 22.5 -78.999
c0 -49.333 -18 -86.666 -54 -111.999s-77 -37 -123 -35v-4l154 -105l-65 -34l-152 138c-46.667 1.33301 -82.334 11.166 -107.001 29.499s-37 39.833 -37 64.5c0 18.667 7.33301 33 22 43l123 -87h39c38.667 0 71.667 8.66699 99 26s41 42.333 41 75
c0 30.667 -10.333 53 -31 67l-161 -32c-32.667 10 -60.667 29 -84 57s-35 60.333 -35 97c0 30 9.83301 54.5 29.5 73.5s46.167 28.5 79.5 28.5h158v113h-361v52h333v4c-16.667 10.667 -31 25.834 -43 45.501s-18 42.167 -18 67.5c0 38.667 13.833 69.834 41.5 93.501
s60.5 35.5 98.5 35.5c40 0 71.333 -8 94 -24l-24 -50c-18.667 13.333 -41.334 20 -68.001 20c-24.667 0 -44.5 -7.33301 -59.5 -22s-22.5 -33.334 -22.5 -56.001c0 -25.333 8 -48.333 24 -69s36.667 -35.667 62 -45h148v-52h-148v-166z" />
    <glyph glyph-name="uni0909" unicode="&#x909;" horiz-adv-x="466" 
d="M-3 147l49.999 34.002c15.333 -28.667 36.333 -52 63 -70s57 -27 91 -27c41.333 0 73.666 11 96.999 33s35 50.333 35 85c0 33.333 -11.167 59.833 -33.5 79.5s-54.166 29.5 -95.499 29.5h-64v54h55c30 0 56 8.83301 78 26.5s33 43.834 33 78.501
c0 38.667 -11.5 67 -34.5 85s-57.833 27 -104.5 27h-187v52h506v-52h-173v-6c12.667 -7.33301 25 -19.833 37 -37.5s18 -40.5 18 -68.5c0 -28.667 -8 -54.334 -24 -77.001s-35.667 -38.334 -59 -47.001v-4c30 -7.33301 55.833 -23.5 77.5 -48.5s32.5 -56.167 32.5 -93.5
c0 -48.667 -17.5 -89.334 -52.5 -122.001s-82.167 -49 -141.5 -49c-49.333 0 -91.666 12.167 -126.999 36.5s-61 51.5 -77 81.5z" />
    <glyph glyph-name="uni090A" unicode="&#x90a;" horiz-adv-x="658" 
d="M678 582l-364.999 0.000976562v-6c12.667 -7.33301 25 -19.833 37 -37.5s18 -40.5 18 -68.5c0 -28.667 -8 -54.334 -24 -77.001s-35.667 -38.334 -59 -47.001v-4c33.333 -8 60 -25.667 80 -53c9.33301 22.667 25.166 42.167 47.499 58.5s49.833 24.5 82.5 24.5
c41.333 0 76.166 -13.667 104.499 -41s42.5 -62.666 42.5 -105.999c0 -49.333 -16.5 -88.5 -49.5 -117.5s-68.5 -45.5 -106.5 -49.5l-19 56c30.667 1.33301 57.5 11.666 80.5 30.999s34.5 46 34.5 80c0 28.667 -8.66699 51.334 -26 68.001s-38 25 -62 25
c-30 0 -54.333 -10.167 -73 -30.5s-27.667 -47.5 -27 -81.5v-6c0 -48.667 -17.167 -89.334 -51.5 -122.001s-81.5 -49 -141.5 -49c-49.333 0 -91.666 12.167 -126.999 36.5s-61 51.5 -77 81.5l50 34c15.333 -28.667 36.333 -52 63 -70s57 -27 91 -27c42 0 74.667 11 98 33
s35 50.333 35 85c0 33.333 -11.333 59.833 -34 79.5s-54.667 29.5 -96 29.5h-64v54h55c30 0 56 8.83301 78 26.5s33 43.834 33 78.501c0 38.667 -11.5 67 -34.5 85s-57.833 27 -104.5 27h-187v52h698v-52z" />
    <glyph glyph-name="uni090B" unicode="&#x90b;" horiz-adv-x="802" 
d="M822 582l-397.001 0.00292969v-245l67 41c34.667 21.333 57.834 40.666 69.501 57.999s17.5 36.666 17.5 57.999v10h55v-9c0 -33.333 -10.667 -63.666 -32 -90.999c16 -21.333 40.667 -32 74 -32h33l21 -47c-60 -50.667 -99.167 -86.334 -117.5 -107.001
s-27.5 -41.334 -27.5 -62.001c0 -18.667 8.16699 -34.167 24.5 -46.5s38.166 -18.5 65.499 -18.5c38.667 0 70.334 14.667 95.001 44l29 -47c-36 -32.667 -77.333 -49 -124 -49c-42.667 0 -78.167 11.5 -106.5 34.5s-42.5 51.167 -42.5 84.5c0 27.333 7.83301 51 23.5 71
s48.167 51.333 97.5 94v4c-34.667 2 -62.667 14.667 -84 38c-9.33301 -8 -24.333 -18.667 -45 -32l-93 -57v-276h-54v249l-266 -177l-42 41l264 163c-14 39.333 -34.5 68.833 -61.5 88.5s-56.5 29.5 -88.5 29.5c-41.333 0 -78 -15 -110 -45l-43 44c42.667 38 93 57 151 57
c89.333 0 153 -44.333 191 -133h4v265h-390v52h842v-52z" />
    <glyph glyph-name="uni090C" unicode="&#x90c;" horiz-adv-x="711" 
d="M544 413l4.00098 0.000976562v169h-568v52h751v-52h-125v-432l-68 -41c-35.333 -21.333 -58.5 -38.666 -69.5 -51.999s-16.5 -30 -16.5 -50s9.5 -38.833 28.5 -56.5s44.5 -26.5 76.5 -26.5c41.333 0 74.333 10.667 99 32l28 -49c-33.333 -24 -73 -36 -119 -36
c-50 0 -91.333 14.167 -124 42.5s-49 62.166 -49 101.499c0 45.333 24.333 82.666 73 111.999l85 51v178c-24 25.333 -54 38 -90 38c-27.333 0 -49.166 -9.16699 -65.499 -27.5s-24.5 -44.833 -24.5 -79.5v-95h-58v94c0 34 -8 59.833 -24 77.5s-38 26.5 -66 26.5
s-51.167 -10.333 -69.5 -31s-27.5 -50.667 -27.5 -90c0 -102 50.333 -178.333 151 -229l-39 -44c-49.333 26 -90.5 63.167 -123.5 111.5s-49.5 102.5 -49.5 162.5c0 53.333 15.167 95.833 45.5 127.5s66.5 47.5 108.5 47.5c63.333 0 104 -27 122 -81h4
c7.33301 26.667 21.166 47.5 41.499 62.5s43.833 22.5 70.5 22.5c37.333 0 66.666 -12 87.999 -36z" />
    <glyph glyph-name="uni090D" unicode="&#x90d;" horiz-adv-x="540" 
d="M368 103c26.667 -24 45.833 -44.6689 57.5 -62.002s17.5 -37 17.5 -59c0 -27.333 -10 -53.666 -30 -78.999h-66v4c24 26.667 36 51.667 36 75c0 22 -13 44.333 -39 67l-254 219v314h-110v52h580v-52h-115v-176c0 -63.333 -28 -108.666 -84 -135.999l-45 39
c23.333 9.33301 41 21.333 53 36s18 35 18 61v176h-239v-289zM275.999 753.998c-90 0 -155.002 37.667 -195.002 113l46 26c32.667 -56 82.334 -84 149.001 -84s116.334 28 149.001 84l45 -26c-40 -75.333 -104.667 -113 -194 -113z" />
    <glyph glyph-name="uni090E" unicode="&#x90e;" horiz-adv-x="540" 
d="M446 634l114.001 -0.00195312v-52h-115v-176c0 -63.333 -28 -108.666 -84 -135.999l-45 39c23.333 9.33301 41 21.333 53 36s18 35 18 61v176h-239v-289l220 -190c26.667 -24 45.834 -44.667 57.501 -62s17.5 -37 17.5 -59c0 -27.333 -10 -53.666 -30 -78.999h-66v4
c24 26.667 36 51.667 36 75c0 22 -13 44.333 -39 67l-254 219v314h-110v52h408c0 22 -5.33301 38.333 -16 49s-28.334 20.667 -53.001 30l-156 60c-61.333 23.333 -92 65 -92 125h58c0 -21.333 5.16699 -37.333 15.5 -48s28.166 -21 53.499 -31l156 -60
c61.333 -23.333 92 -65 92 -125z" />
    <glyph glyph-name="uni090F" unicode="&#x90f;" horiz-adv-x="540" 
d="M368 103c26.667 -24 45.833 -44.6689 57.5 -62.002s17.5 -37 17.5 -59c0 -27.333 -10 -53.666 -30 -78.999h-66v4c24 26.667 36 51.667 36 75c0 22 -13 44.333 -39 67l-254 219v314h-110v52h580v-52h-115v-176c0 -63.333 -28 -108.666 -84 -135.999l-45 39
c23.333 9.33301 41 21.333 53 36s18 35 18 61v176h-239v-289z" />
    <glyph glyph-name="uni0910" unicode="&#x910;" horiz-adv-x="540" 
d="M443 634l116.999 -0.00195312v-52h-115v-176c0 -63.333 -28 -108.666 -84 -135.999l-45 39c23.333 9.33301 41 21.333 53 36s18 35 18 61v176h-239v-289l220 -190c26.667 -24 45.834 -44.667 57.501 -62s17.5 -37 17.5 -59c0 -27.333 -10 -53.666 -30 -78.999h-66v4
c24 26.667 36 51.667 36 75c0 22 -13 44.333 -39 67l-254 219v314h-110v52h410c-50 48 -98.333 99 -145 153l-81 94l67 17z" />
    <glyph glyph-name="uni0911" unicode="&#x911;" horiz-adv-x="982" 
d="M864 893l44.998 -26c-40 -75.333 -104.667 -113 -194 -113c-90 0 -155 37.667 -195 113l46 26c32.667 -56 82.334 -84 149.001 -84s116.334 28 149.001 84zM1002 634v-52h-125v-582h-58v582h-210v-582h-58v266c-22.667 -10.667 -47 -16 -73 -16c-30 0 -57.667 6 -83 18
c2 -9.33301 3 -19.333 3 -30c0 -46.667 -16.333 -85.5 -49 -116.5s-76 -46.5 -130 -46.5c-64.667 0 -120.667 22.333 -168 67l40 43c34.667 -37.333 77.334 -56 128.001 -56c38 0 67.333 10.333 88 31s31 46.667 31 78c0 29.333 -10 52.333 -30 69s-48 25 -84 25h-54v54h30
c32 0 58.167 9.16699 78.5 27.5s30.5 43.166 30.5 74.499c0 28 -8.16699 50.167 -24.5 66.5s-38.833 24.5 -67.5 24.5c-37.333 0 -66.333 -14 -87 -42l-44 39c31.333 38.667 75.666 58 132.999 58c46.667 0 83.5 -13.667 110.5 -41s40.5 -61.666 40.5 -102.999
c0 -28.667 -7.33301 -53.667 -22 -75s-30.667 -36.333 -48 -45v-4c23.333 -6 43 -17.333 59 -34c28.667 -18.667 63.334 -28 104.001 -28c33.333 0 62.666 7.33301 87.999 22v256h-115v52h566z" />
    <glyph glyph-name="uni0912" unicode="&#x912;" horiz-adv-x="982" 
d="M876 634h126.002v-52h-125v-582h-58v582h-210v-582h-58v266c-22.667 -10.667 -47 -16 -73 -16c-30 0 -57.667 6 -83 18c2 -9.33301 3 -19.333 3 -30c0 -46.667 -16.333 -85.5 -49 -116.5s-76 -46.5 -130 -46.5c-64.667 0 -120.667 22.333 -168 67l40 43
c34.667 -37.333 77.334 -56 128.001 -56c38 0 67.333 10.333 88 31s31 46.667 31 78c0 29.333 -10 52.333 -30 69s-48 25 -84 25h-54v54h30c32 0 58.167 9.16699 78.5 27.5s30.5 43.166 30.5 74.499c0 28 -8.16699 50.167 -24.5 66.5s-38.833 24.5 -67.5 24.5
c-37.333 0 -66.333 -14 -87 -42l-44 39c31.333 38.667 75.666 58 132.999 58c46.667 0 83.5 -13.667 110.5 -41s40.5 -61.666 40.5 -102.999c0 -28.667 -7.33301 -53.667 -22 -75s-30.667 -36.333 -48 -45v-4c23.333 -6 43 -17.333 59 -34
c28.667 -18.667 63.334 -28 104.001 -28c33.333 0 62.666 7.33301 87.999 22v256h-115v52h382c0 22 -5.33301 38.333 -16 49s-28.334 20.667 -53.001 30l-156 60c-61.333 23.333 -92 65 -92 125h58c0 -21.333 5.16699 -37.333 15.5 -48s28.166 -21 53.499 -31l156 -60
c61.333 -23.333 92 -65 92 -125z" />
    <glyph glyph-name="uni0913" unicode="&#x913;" horiz-adv-x="982" 
d="M870 634h132v-52h-125v-582h-58v582h-210v-582h-58v266c-22.667 -10.667 -47 -16 -73 -16c-30 0 -57.667 6 -83 18c2 -9.33301 3 -19.333 3 -30c0 -46.667 -16.333 -85.5 -49 -116.5s-76 -46.5 -130 -46.5c-64.667 0 -120.667 22.333 -168 67l40 43
c34.667 -37.333 77.334 -56 128.001 -56c38 0 67.333 10.333 88 31s31 46.667 31 78c0 29.333 -10 52.333 -30 69s-48 25 -84 25h-54v54h30c32 0 58.167 9.16699 78.5 27.5s30.5 43.166 30.5 74.499c0 28 -8.16699 50.167 -24.5 66.5s-38.833 24.5 -67.5 24.5
c-37.333 0 -66.333 -14 -87 -42l-44 39c31.333 38.667 75.666 58 132.999 58c46.667 0 83.5 -13.667 110.5 -41s40.5 -61.666 40.5 -102.999c0 -28.667 -7.33301 -53.667 -22 -75s-30.667 -36.333 -48 -45v-4c23.333 -6 43 -17.333 59 -34
c28.667 -18.667 63.334 -28 104.001 -28c33.333 0 62.666 7.33301 87.999 22v256h-115v52h381c-50 48 -98.333 99 -145 153l-81 94l67 17z" />
    <glyph glyph-name="uni0914" unicode="&#x914;" horiz-adv-x="982" 
d="M882 634l119.999 0.000976562v-52h-125v-582h-58v582h-210v-582h-58v266c-22.667 -10.667 -47 -16 -73 -16c-30 0 -57.667 6 -83 18c2 -9.33301 3 -19.333 3 -30c0 -46.667 -16.333 -85.5 -49 -116.5s-76 -46.5 -130 -46.5c-64.667 0 -120.667 22.333 -168 67l40 43
c34.667 -37.333 77.334 -56 128.001 -56c38 0 67.333 10.333 88 31s31 46.667 31 78c0 29.333 -10 52.333 -30 69s-48 25 -84 25h-54v54h30c32 0 58.167 9.16699 78.5 27.5s30.5 43.166 30.5 74.499c0 28 -8.16699 50.167 -24.5 66.5s-38.833 24.5 -67.5 24.5
c-37.333 0 -66.333 -14 -87 -42l-44 39c31.333 38.667 75.666 58 132.999 58c46.667 0 83.5 -13.667 110.5 -41s40.5 -61.666 40.5 -102.999c0 -28.667 -7.33301 -53.667 -22 -75s-30.667 -36.333 -48 -45v-4c23.333 -6 43 -17.333 59 -34
c28.667 -18.667 63.334 -28 104.001 -28c33.333 0 62.666 7.33301 87.999 22v256h-115v52h361c-89.333 67.333 -184.666 143.666 -285.999 228.999l58 35l277 -264l3 1l-129 247l66 17z" />
    <glyph glyph-name="uni0915" unicode="&#x915;" horiz-adv-x="763" 
d="M651 297c0 33.333 -10.499 60.334 -31.499 81.001s-48.167 31 -81.5 31c-38 0 -68.833 -12.333 -92.5 -37s-35.5 -57.334 -35.5 -98.001v-274h-57v195h-4c-29.333 -41.333 -74.333 -62 -135 -62c-44.667 0 -83.167 15.5 -115.5 46.5s-48.5 70.5 -48.5 118.5
c0 56 20.5 99.667 61.5 131s88.833 43 143.5 35l9 -55c-40 6.66699 -75.333 0.666992 -106 -18s-46 -49 -46 -91c0 -32.667 10.333 -59.5 31 -80.5s48 -31.5 82 -31.5c38 0 68.833 12.333 92.5 37s35.5 57.334 35.5 98.001v259h-373v52h803v-52h-373v-180h4
c29.333 41.333 74.666 62 135.999 62c44.667 0 83 -15.333 115 -46s48 -70.334 48 -119.001c0 -56 -20.5 -99.667 -61.5 -131s-88.833 -43 -143.5 -35l-9 55c40 -6.66699 75.333 -0.666992 106 18s46 49 46 91z" />
    <glyph glyph-name="uni0916" unicode="&#x916;" horiz-adv-x="779" 
d="M617 143h-4.00195c-24.667 -32 -57.167 -57.833 -97.5 -77.5s-85.166 -29.5 -134.499 -29.5c-91.333 0 -165.166 31.167 -221.499 93.5s-88.833 143.833 -97.5 244.5l52 18c16.667 -29.333 41 -44 73 -44c36 0 54 21.333 54 64v170h-261v52h819v-52h-125v-582h-57v143z
M611.998 453l4 0.000976562v129h-317v-169c0 -35.333 -10 -63.333 -30 -84s-45 -31 -75 -31c-25.333 0 -46 4.33301 -62 13c13.333 -70 42.5 -124.167 87.5 -162.5s98.5 -57.5 160.5 -57.5c66.667 0 123.167 20.333 169.5 61s69.5 96 69.5 166c0 36 -10.167 64.667 -30.5 86
s-44.5 32 -72.5 32c-29.333 0 -53 -8.83301 -71 -26.5s-27 -40.834 -27 -69.501s10.167 -52.5 30.5 -71.5s48.833 -29.167 85.5 -30.5l-31 -47c-38 1.33301 -71.333 15.5 -100 42.5s-43 62.5 -43 106.5s14.667 80.167 44 108.5s65 42.5 107 42.5
c43.333 0 77 -12.667 101 -38z" />
    <glyph glyph-name="uni0917" unicode="&#x917;" horiz-adv-x="546" 
d="M-20 634h586v-52h-125v-582h-58v582h-196v-365h-67c-30.667 26.667 -46.667 64 -48 112l57 40v213h-149v52z" />
    <glyph glyph-name="uni0918" unicode="&#x918;" horiz-adv-x="627" 
d="M465 357v224.999h-214c-34.667 0 -61 -8.16699 -79 -24.5s-27 -37.166 -27 -62.499c0 -24.667 9.5 -44.667 28.5 -60s47.833 -23 86.5 -23h62v-54h-61c-36 0 -63.167 -7.5 -81.5 -22.5s-27.5 -35.833 -27.5 -62.5c0 -26 10 -48.333 30 -67s50.667 -28 92 -28
c59.333 0 106 16.833 140 50.5s51 76.5 51 128.5zM647 633.999v-52.001h-125v-582h-58v208h-4c-14 -20.667 -36.667 -40 -68 -58s-71 -27 -119 -27c-58.667 0 -103.834 14.667 -135.501 44s-47.5 64.333 -47.5 105c0 28.667 8.33301 52.834 25 72.501
s36.334 32.5 59.001 38.5v4c-25.333 4 -46.833 15.167 -64.5 33.5s-26.5 42.5 -26.5 72.5c0 22 5.16699 40.333 15.5 55s21.5 24.667 33.5 30v4h-152v52h667z" />
    <glyph glyph-name="uni0919" unicode="&#x919;" horiz-adv-x="613" 
d="M531 402c12 0 22 -4 30 -12s12 -18.333 12 -31c0 -11.333 -4 -21 -12 -29s-18 -12 -30 -12s-22 4 -30 12s-12 17.667 -12 29c0 12.667 4 23 12 31s18 12 30 12zM-20 634l653.001 -0.000976562v-52h-208v-163h-180c-50 0 -75 -20.667 -75 -62
c0 -19.333 6.83301 -37.166 20.5 -53.499s30.167 -27.166 49.5 -32.499l171 34c19.333 -11.333 35.666 -28.5 48.999 -51.5s20 -48.5 20 -76.5c0 -45.333 -17.667 -83.333 -53 -114s-81 -46 -137 -46c-52.667 0 -100.5 14.167 -143.5 42.5s-78.833 68.166 -107.5 119.499
l48 34c22 -44 50.333 -78.833 85 -104.5s74 -38.5 118 -38.5c38 0 69.167 9.66699 93.5 29s36.5 45.333 36.5 78c0 30 -10.333 53 -31 69l-161 -32c-32.667 10 -60.667 29 -84 57s-35 60.333 -35 97c0 30.667 9.83301 55.667 29.5 75s46.167 29 79.5 29h150v110h-388v52z
" />
    <glyph glyph-name="uni091A" unicode="&#x91a;" horiz-adv-x="634" 
d="M471 203l-4.00195 0.000976562c-14 -20.667 -36 -39.167 -66 -55.5s-67 -24.5 -111 -24.5c-53.333 0 -97.333 15.833 -132 47.5s-52 70.167 -52 115.5c0 48 17.333 83.667 52 107v4h-140v54h355v-53h-83c-38 0 -67.833 -10.167 -89.5 -30.5s-32.5 -46.833 -32.5 -79.5
c0 -32 11.833 -58.333 35.5 -79s54.834 -31 93.501 -31c50.667 0 92.334 16.667 125.001 50s49 77.666 49 132.999v221h-491v52h674v-52h-125v-582h-58v203z" />
    <glyph glyph-name="uni091B" unicode="&#x91b;" horiz-adv-x="672" 
d="M463 481v101.001h-197c-35.333 0 -64.333 -9.83301 -87 -29.5s-34 -46.167 -34 -79.5c0 -30 10 -54 30 -72s47.667 -27 83 -27h37v-54h-24c-34.667 0 -62.167 -8.83301 -82.5 -26.5s-30.5 -41.834 -30.5 -72.501c0 -34 12.833 -62.333 38.5 -85s61.834 -34 108.501 -34
c67.333 0 125.666 22.333 174.999 67s74 98.667 74 162c0 30 -7.5 53.667 -22.5 71s-33.833 26 -56.5 26c-18.667 0 -34.5 -5.83301 -47.5 -17.5s-19.5 -27.167 -19.5 -46.5s6.16699 -35.166 18.5 -47.499s29.5 -19.833 51.5 -22.5l-36 -41
c-28.667 6 -51.167 19.167 -67.5 39.5s-24.5 44.166 -24.5 71.499c0 30.667 10.5 57.167 31.5 79.5s48.167 34.833 81.5 37.5zM692 582.001l-173.001 0.00195312v-108c28.667 -9.33301 51.5 -27 68.5 -53s25.5 -56 25.5 -90c0 -72.667 -29.5 -138.167 -88.5 -196.5
s-132.167 -87.5 -219.5 -87.5c-64.667 0 -115.667 16.833 -153 50.5s-56 74.167 -56 121.5c0 31.333 8 57.666 24 78.999s35.667 36.333 59 45v4c-29.333 8 -52.666 23.167 -69.999 45.5s-26 48.166 -26 77.499c0 45.333 18 81.333 54 108v4h-157v52h712v-52z" />
    <glyph glyph-name="uni091C" unicode="&#x91c;" horiz-adv-x="733" 
d="M276 381l0.000976562 4l27 48h267v149h-590v52h773v-52h-125v-582h-58v380h-188v-4c32.667 -30.667 49 -67.334 49 -110.001c0 -39.333 -13.833 -72.666 -41.5 -99.999s-64.167 -41 -109.5 -41c-37.333 0 -71.5 8.66699 -102.5 26s-56.333 40 -76 68
s-35.334 57.5 -47.001 88.5s-19.5 62.5 -23.5 94.5l61 22c2 -63.333 20.167 -119.833 54.5 -169.5s77.5 -74.5 129.5 -74.5c29.333 0 52.5 8.33301 69.5 25s25.5 38 25.5 64c0 31.333 -10.167 56.333 -30.5 75s-41.833 31 -64.5 37z" />
    <glyph glyph-name="uni091D" unicode="&#x91d;" horiz-adv-x="766" 
d="M207 270l170 33.9971c37.333 -20 82 -30 134 -30c36 0 66.667 6.66699 92 20v288h-203v-166h-188c-28 0 -47.5 -5.16699 -58.5 -15.5s-16.5 -25.166 -16.5 -44.499s6.83301 -37.166 20.5 -53.499s30.167 -27.166 49.5 -32.499zM786 633.997l0.000976562 -51.998h-125
v-582h-58v233c-22.667 -9.33301 -51.667 -14 -87 -14c-26 0 -53 5 -81 15c6.66699 -18 10 -36.333 10 -55c0 -48 -17.833 -84.833 -53.5 -110.5s-76.167 -37.834 -121.5 -36.501v-4l154 -105l-65 -34l-152 138c-46.667 1.33301 -82.334 11.166 -107.001 29.499
s-37 39.833 -37 64.5c0 18.667 7.33301 33 22 43l123 -87h39c38.667 0 71.667 8.66699 99 26s41 42.333 41 75c0 30.667 -10.333 53 -31 67l-161 -32c-32.667 10 -60.667 29 -84 57s-35 60.333 -35 97c0 30 9.83301 54.5 29.5 73.5s46.167 28.5 79.5 28.5h158v113h-363v52
h806z" />
    <glyph glyph-name="uni091E" unicode="&#x91e;" horiz-adv-x="685" 
d="M-20 634l725.002 0.000976562v-52h-125v-582h-58v277c-7.33301 -1.33301 -19.333 -2 -36 -2c-31.333 0 -59.333 3.33301 -84 10c-3.33301 -50.667 -22.833 -91.834 -58.5 -123.501s-79.834 -47.5 -132.501 -47.5c-46.667 0 -87 11 -121 33s-60 48 -78 78l43 38
c41.333 -62.667 93.666 -94 156.999 -94c36 0 66.667 11.833 92 35.5s38 55.5 38 95.5c0 38 -11 67.667 -33 89s-51 32 -87 32c-28 0 -53.667 -6.66699 -77 -20l-21 49c31.333 17.333 65 26 101 26c46 0 84.667 -12.5 116 -37.5s51 -58.167 59 -99.5
c23.333 -5.33301 47 -8 71 -8c18.667 0 35.667 1.33301 51 4v247h-542v52z" />
    <glyph glyph-name="uni091F" unicode="&#x91f;" horiz-adv-x="494" 
d="M-20 582l0.00195312 52.001h534v-52h-141v-165l-144 -44c-45.333 -14 -75.833 -30 -91.5 -48s-23.5 -42.667 -23.5 -74c0 -40 15.667 -75.167 47 -105.5s71.666 -45.5 120.999 -45.5c66 0 117.667 20 155 60l35 -47c-44.667 -45.333 -105.667 -68 -183 -68
c-66.667 0 -122.834 21.667 -168.501 65s-68.5 93.666 -68.5 150.999c0 76.667 44.667 129 134 157l129 40v124h-335z" />
    <glyph glyph-name="uni0920" unicode="&#x920;" horiz-adv-x="564" 
d="M307 399l-80 -24.999c-45.333 -14 -76 -30.333 -92 -49s-24 -43.667 -24 -75c0 -40 15 -75 45 -105s70 -45 120 -45c58 0 102 14.5 132 43.5s45 64.833 45 107.5s-16 76.667 -48 102s-64.667 40.666 -98 45.999zM584 582.001h-212.999v-146
c36.667 -14.667 69.667 -37.834 99 -69.501s44 -72.167 44 -121.5c0 -57.333 -21.833 -105 -65.5 -143s-98.834 -57 -165.501 -57s-122.167 20.667 -166.5 62s-66.5 92 -66.5 152c0 76.667 45.333 129.334 136 158.001l127 40v125h-333v52h604v-52z" />
    <glyph glyph-name="uni0921" unicode="&#x921;" horiz-adv-x="536" 
d="M425 419l-179.999 -0.000976562c-50 0 -75 -20.667 -75 -62c0 -19.333 6.83301 -37.166 20.5 -53.499s30.167 -27.166 49.5 -32.499l171 34c19.333 -11.333 35.666 -28.5 48.999 -51.5s20 -48.5 20 -76.5c0 -45.333 -17.667 -83.333 -53 -114s-81 -46 -137 -46
c-52.667 0 -100.5 14.167 -143.5 42.5s-78.833 68.166 -107.5 119.499l48 34c22 -44 50.333 -78.833 85 -104.5s74 -38.5 118 -38.5c38 0 69.167 9.66699 93.5 29s36.5 45.333 36.5 78c0 30 -10.333 53 -31 69l-161 -32c-32.667 10 -60.667 29 -84 57s-35 60.333 -35 97
c0 30.667 9.83301 55.667 29.5 75s46.167 29 79.5 29h150v110h-388v52h576v-52h-131v-163z" />
    <glyph glyph-name="uni0922" unicode="&#x922;" horiz-adv-x="515" 
d="M290 99c34.667 0 61.832 8.5 81.499 25.5s29.5 38.5 29.5 64.5c0 16.667 -5.83301 31 -17.5 43s-26.167 18 -43.5 18c-22.667 0 -39.5 -8.5 -50.5 -25.5s-14.167 -36.5 -9.5 -58.5l-56 22c-2.66699 30 6.33301 57.167 27 81.5s50 36.5 88 36.5
c34.667 0 63.667 -11.333 87 -34s35 -50.334 35 -83.001c0 -39.333 -15.833 -73.166 -47.5 -101.499s-71.5 -42.5 -119.5 -42.5c-68.667 0 -126.5 22.167 -173.5 66.5s-70.5 96.5 -70.5 156.5c0 41.333 12.667 77.333 38 108s59.333 52 102 64l145 42v100h-355v52h555v-52
h-142v-141l-165 -45c-43.333 -12 -73.666 -29 -90.999 -51s-26 -49.333 -26 -82c0 -43.333 16.833 -81.5 50.5 -114.5s76.5 -49.5 128.5 -49.5z" />
    <glyph glyph-name="uni0923" unicode="&#x923;" horiz-adv-x="746" 
d="M342 349v233h-194v-233c0 -34.667 8.33301 -61.5 25 -80.5s40.667 -28.5 72 -28.5s55.333 9.5 72 28.5s25 45.833 25 80.5zM766 634v-52h-125v-582h-58v582h-183v-239c0 -49.333 -14.333 -88 -43 -116s-66 -42 -112 -42s-83.333 14 -112 42s-43 66.667 -43 116v239h-110
v52h786z" />
    <glyph glyph-name="uni0924" unicode="&#x924;" horiz-adv-x="547" 
d="M229 28l-50 -33.999c-84 67.333 -126 153.333 -126 258c0 52 15.833 94.5 47.5 127.5s72.167 49.5 121.5 49.5h162v153h-404v52h587v-52h-125v-582h-58v375h-150c-36.667 0 -66 -10.833 -88 -32.5s-33 -51.834 -33 -90.501c0 -91.333 38.667 -166 116 -224z" />
    <glyph glyph-name="uni0925" unicode="&#x925;" horiz-adv-x="628" 
d="M162 327l-59.001 -16.999c1.33301 -12.667 5.33301 -26.334 12 -41.001s16.167 -30.167 28.5 -46.5s29.833 -29.833 52.5 -40.5s48 -16 76 -16c61.333 0 109 19.167 143 57.5s51 85.5 51 141.5v269h182v-52h-125v-582h-58v203h-4c-15.333 -24 -39.333 -45.333 -72 -64
s-72 -28 -118 -28c-70 0 -126.167 22.5 -168.5 67.5s-65.5 100.833 -69.5 167.5l92 27c70.667 20 117.5 40.5 140.5 61.5s34.5 47.5 34.5 79.5c0 22.667 -6.83301 40.834 -20.5 54.501s-32.167 20.5 -55.5 20.5c-22 0 -40 -6.33301 -54 -19s-21 -30 -21 -52
c0 -10.667 3 -22 9 -34s13 -21.333 21 -28l-57 -17c-21.333 20 -32 47.333 -32 82c0 34 12.667 63 38 87s57.333 36 96 36c40.667 0 73.334 -12.333 98.001 -37s37 -56.334 37 -95.001c0 -86 -65.667 -147.667 -197 -185z" />
    <glyph glyph-name="uni0926" unicode="&#x926;" horiz-adv-x="513" 
d="M385 431l-161.999 -39.999c-40.667 -10 -69.334 -24.167 -86.001 -42.5s-25 -42.166 -25 -71.499c0 -39.333 14 -72.833 42 -100.5s64 -41.5 108 -41.5c44.667 0 76.667 8.66699 96 26v103l46 17c10.667 -4.66699 20.5 -13.834 29.5 -27.501s13.5 -29.167 13.5 -46.5
c0 -34.667 -11 -61.667 -33 -81l106 -138l-71 -18l-75 132c-28 -14.667 -62.333 -22 -103 -22c-67.333 0 -121 20.667 -161 62s-60 87.666 -60 138.999c0 81.333 49.333 134.333 148 159l129 32v110h-347v52h553v-52h-148v-151z" />
    <glyph glyph-name="uni0927" unicode="&#x927;" horiz-adv-x="627" 
d="M647 634l0.000976562 -52.002h-125v-582h-58v208h-4c-14 -20.667 -36.667 -40 -68 -58s-71 -27 -119 -27c-58.667 0 -103.834 14.667 -135.501 44s-47.5 64.333 -47.5 105c0 28.667 8.33301 52.834 25 72.501s36.334 32.5 59.001 38.5v4
c-25.333 4 -46.833 15.167 -64.5 33.5s-26.5 42.5 -26.5 72.5c0 21.333 5.16699 39.5 15.5 54.5s21.833 25.167 34.5 30.5v4h-153v52h255l9 -51c-28.667 -2.66699 -52.334 -11.667 -71.001 -27s-28 -35.666 -28 -60.999c0 -24.667 9.5 -44.667 28.5 -60s47.833 -23 86.5 -23
h62v-54h-61c-36 0 -63.167 -7.5 -81.5 -22.5s-27.5 -35.833 -27.5 -62.5c0 -26 10 -48.333 30 -67s50.667 -28 92 -28c60.667 0 107.667 17.167 141 51.5s50 76.5 50 126.5v226h-123v52h305z" />
    <glyph glyph-name="uni0928" unicode="&#x928;" horiz-adv-x="502" 
d="M126 242l-41 -12c-15.333 11.333 -28 27.833 -38 49.5s-15.333 43.5 -16 65.5l45 38h263v199h-359v52h542v-52h-125v-582h-58v329h-213v-87z" />
    <glyph glyph-name="uni0928093C" unicode="&#x929;" horiz-adv-x="502" 
d="M126 242l-41 -12c-15.333 11.333 -28 27.833 -38 49.5s-15.333 43.5 -16 65.5l45 38h263v199h-359v52h542v-52h-125v-582h-58v329h-213v-87zM56 60c0 12 3.83301 21.833 11.5 29.5s17.5 11.5 29.5 11.5s21.833 -3.83301 29.5 -11.5s11.5 -17.5 11.5 -29.5
s-3.83301 -21.833 -11.5 -29.5s-17.5 -11.5 -29.5 -11.5s-21.833 3.83301 -29.5 11.5s-11.5 17.5 -11.5 29.5z" />
    <glyph glyph-name="uni092A" unicode="&#x92a;" horiz-adv-x="554" 
d="M391 268l-4 0.000976562c-26 -44 -71.667 -66 -137 -66c-46 0 -84.167 13.667 -114.5 41s-45.5 66.666 -45.5 117.999v221h-110v52h594v-52h-125v-582h-58v268zM391 409.001l0.000976562 173h-243v-211c0 -76 36 -114 108 -114c43.333 0 76.666 13.833 99.999 41.5
s35 64.5 35 110.5z" />
    <glyph glyph-name="uni092B" unicode="&#x92b;" horiz-adv-x="785" 
d="M375 264l-4.00098 0.00195312c-24.667 -43.333 -67.667 -65 -129 -65c-45.333 0 -82 13.5 -110 40.5s-42 66.167 -42 117.5v225h-110v52h825v-52h-372v-184h4c10.667 16 28 30.833 52 44.5s52.667 20.5 86 20.5c46.667 0 86 -15.5 118 -46.5s48 -70.833 48 -119.5
c0 -57.333 -20 -102.833 -60 -136.5s-88.667 -46.834 -146 -39.501l-9 57c46.667 -8 83.834 -0.333008 111.501 23s41.5 55 41.5 95c0 33.333 -10.333 60.166 -31 80.499s-48 30.5 -82 30.5c-38 0 -69.667 -13.667 -95 -41s-38 -63.333 -38 -108v-258h-58v264z
M375.999 406.002v176h-228v-216c0 -74.667 32.333 -112 97 -112c39.333 0 71 13.667 95 41s36 64.333 36 111z" />
    <glyph glyph-name="uni092C" unicode="&#x92c;" horiz-adv-x="561" 
d="M345 194l-214.001 178c-14 -21.333 -21 -46 -21 -74c0 -39.333 12.5 -71.833 37.5 -97.5s58.167 -38.5 99.5 -38.5c38.667 0 71.334 10.667 98.001 32zM-20.001 634l601 0.000976562v-52h-125v-582h-58v176h-4c-34.667 -46 -86 -69 -154 -69
c-53.333 0 -98.333 17.667 -135 53s-55 80.666 -55 135.999c0 56 20.167 102.167 60.5 138.5s88.833 54.5 145.5 54.5c27.333 0 49.333 -2.66699 66 -8l2 -57c-19.333 7.33301 -41.333 11 -66 11c-34 0 -64.667 -9 -92 -27l212 -177c13.333 22.667 20 48 20 76v275h-418v52z
" />
    <glyph glyph-name="uni092D" unicode="&#x92d;" horiz-adv-x="571" 
d="M296 634h295v-52h-125v-582h-58v289h-231v-103h-67c-32 27.333 -48.667 65.666 -50 114.999l59 41v165c0 26.667 -6.33301 45.834 -19 57.501s-32.667 17.5 -60 17.5h-60v52h63c42 0 74.833 -10.667 98.5 -32s35.5 -51.333 35.5 -90v-169h231v239h-112v52z" />
    <glyph glyph-name="uni092E" unicode="&#x92e;" horiz-adv-x="571" 
d="M408 343v239h-231v-239h231zM-20 634l611 0.000976562v-52h-125v-582h-58v289h-231v-103h-67c-32 27.333 -48.667 65.666 -50 114.999l59 41v240h-139v52z" />
    <glyph glyph-name="uni092F" unicode="&#x92f;" horiz-adv-x="605" 
d="M442 222l-3.99805 0.000976562c-36 -52 -90.667 -78 -164 -78c-58.667 0 -108.334 19.667 -149.001 59s-65.667 93.666 -75 162.999c49.333 11.333 86.166 26.333 110.499 45s36.5 43 36.5 73c0 39.333 -15.667 72 -47 98h-170v52h645v-52h-125v-582h-58v222z
M120.002 335.001c5.33301 -33.333 21.499 -64.333 48.499 -93s64.833 -43 113.5 -43c47.333 0 86 15.667 116 47s45 75 45 131v205h-225v-4c26.667 -30 40 -64.333 40 -103c0 -33.333 -12.667 -62.5 -38 -87.5s-58.666 -42.5 -99.999 -52.5z" />
    <glyph glyph-name="uni0930" unicode="&#x930;" horiz-adv-x="392" 
d="M133 280l-2.00195 -3c30.667 -36.667 52.667 -63.667 66 -81l123 -163l-47 -32l-251 335l44 35c26.667 -28.667 58.334 -43 95.001 -43c48.667 0 73 23.333 73 70v184h-254v52h432v-52h-120v-192c0 -37.333 -11.333 -65.833 -34 -85.5s-51 -29.5 -85 -29.5
c-17.333 0 -30.666 1.66699 -39.999 5z" />
    <glyph glyph-name="uni0930093C" unicode="&#x931;" horiz-adv-x="392" 
d="M133 280l-2.00195 -3c30.667 -36.667 52.667 -63.667 66 -81l123 -163l-47 -32l-251 335l44 35c26.667 -28.667 58.334 -43 95.001 -43c48.667 0 73 23.333 73 70v184h-254v52h432v-52h-120v-192c0 -37.333 -11.333 -65.833 -34 -85.5s-51 -29.5 -85 -29.5
c-17.333 0 -30.666 1.66699 -39.999 5zM-33.002 62c0 12 3.83301 21.833 11.5 29.5s17.5 11.5 29.5 11.5s21.833 -3.83301 29.5 -11.5s11.5 -17.5 11.5 -29.5s-3.83301 -21.833 -11.5 -29.5s-17.5 -11.5 -29.5 -11.5s-21.833 3.83301 -29.5 11.5s-11.5 17.5 -11.5 29.5z" />
    <glyph glyph-name="uni0932" unicode="&#x932;" horiz-adv-x="707" 
d="M540 414l4.00098 0.000976562v168h-564v52h747v-52h-125v-582h-58v356c-24 25.333 -53.333 38 -88 38c-27.333 0 -49.166 -9.16699 -65.499 -27.5s-24.5 -44.833 -24.5 -79.5v-95h-58v94c0 34 -8 59.833 -24 77.5s-38 26.5 -66 26.5s-51.167 -10.333 -69.5 -31
s-27.5 -50.667 -27.5 -90c0 -98 50.667 -174.333 152 -229l-42 -43c-48.667 26 -89.334 63 -122.001 111s-49 102 -49 162c0 53.333 15.167 95.833 45.5 127.5s66.5 47.5 108.5 47.5c32 0 58.5 -7.33301 79.5 -22s35.167 -34.334 42.5 -59.001h4
c7.33301 26.667 21.166 47.5 41.499 62.5s43.833 22.5 70.5 22.5c38 0 67.333 -11.667 88 -35z" />
    <glyph glyph-name="uni0933" unicode="&#x933;" horiz-adv-x="734" 
d="M390 244l-5.00098 -14c15.333 -30 32.666 -53.167 51.999 -69.5s45 -24.5 77 -24.5c32.667 0 58.834 12 78.501 36s29.5 57 29.5 99c0 38.667 -9.16699 71 -27.5 97s-43.833 39 -76.5 39c-10 0 -19.333 -1.33301 -28 -4s-16.167 -5.66699 -22.5 -9
s-12.666 -9.16602 -18.999 -17.499l-15 -20c-3.66699 -5 -8 -13.5 -13 -25.5s-8.5 -20.833 -10.5 -26.5s-5.33301 -15.834 -10 -30.501s-8 -24.667 -10 -30zM347.999 298l4.99902 15.001c-31.333 61.333 -73.333 92 -126 92c-32.667 0 -59.167 -12.167 -79.5 -36.5
s-30.5 -56.833 -30.5 -97.5c0 -39.333 8.66699 -72 26 -98s42 -39 74 -39c16 0 30.5 3.5 43.5 10.5s23.333 14.5 31 22.5s15.5 20.833 23.5 38.5s13.833 31.667 17.5 42s8.83398 27.166 15.501 50.499zM753.998 582.001l-210 -0.00292969v-122
c42 -5.33301 75.5 -24.666 100.5 -57.999s37.5 -75.666 37.5 -126.999c0 -58.667 -16 -105.5 -48 -140.5s-73.667 -52.5 -125 -52.5c-64.667 0 -114.334 29.667 -149.001 89c-33.333 -60.667 -82.666 -91 -147.999 -91c-46.667 0 -84.167 17.167 -112.5 51.5
s-42.5 79.5 -42.5 135.5c0 56.667 15.833 102.834 47.5 138.501s74.167 53.5 127.5 53.5c62 0 110.333 -29 145 -87c24.667 47.333 61 76 109 86v124h-506v52h774v-52z" />
    <glyph glyph-name="uni0933093C" unicode="&#x934;" horiz-adv-x="734" 
d="M361 36c12 0 21.833 -3.83301 29.5 -11.5s11.5 -17.5 11.5 -29.5s-3.83301 -21.833 -11.5 -29.5s-17.5 -11.5 -29.5 -11.5s-21.833 3.83301 -29.5 11.5s-11.5 17.5 -11.5 29.5s3.83301 21.833 11.5 29.5s17.5 11.5 29.5 11.5zM390 244l-5.00098 -14
c15.333 -30 32.666 -53.167 51.999 -69.5s45 -24.5 77 -24.5c32.667 0 58.834 12 78.501 36s29.5 57 29.5 99c0 38.667 -9.16699 71 -27.5 97s-43.833 39 -76.5 39c-10 0 -19.333 -1.33301 -28 -4s-16.167 -5.66699 -22.5 -9s-12.666 -9.16602 -18.999 -17.499l-15 -20
c-3.66699 -5 -8 -13.5 -13 -25.5s-8.5 -20.833 -10.5 -26.5s-5.33301 -15.834 -10 -30.501s-8 -24.667 -10 -30zM347.999 298l4.99902 15.001c-31.333 61.333 -73.333 92 -126 92c-32.667 0 -59.167 -12.167 -79.5 -36.5s-30.5 -56.833 -30.5 -97.5
c0 -39.333 8.66699 -72 26 -98s42 -39 74 -39c16 0 30.5 3.5 43.5 10.5s23.333 14.5 31 22.5s15.5 20.833 23.5 38.5s13.833 31.667 17.5 42s8.83398 27.166 15.501 50.499zM753.998 582.001l-210 -0.00292969v-122c42 -5.33301 75.5 -24.666 100.5 -57.999
s37.5 -75.666 37.5 -126.999c0 -58.667 -16 -105.5 -48 -140.5s-73.667 -52.5 -125 -52.5c-64.667 0 -114.334 29.667 -149.001 89c-33.333 -60.667 -82.666 -91 -147.999 -91c-46.667 0 -84.167 17.167 -112.5 51.5s-42.5 79.5 -42.5 135.5
c0 56.667 15.833 102.834 47.5 138.501s74.167 53.5 127.5 53.5c62 0 110.333 -29 145 -87c24.667 47.333 61 76 109 86v124h-506v52h774v-52z" />
    <glyph glyph-name="uni0935" unicode="&#x935;" horiz-adv-x="541" 
d="M436 582l0.000976562 -582.002h-58v186h-4c-32.667 -43.333 -81.334 -65 -146.001 -65c-48.667 0 -90.5 16.667 -125.5 50s-52.5 76.333 -52.5 129c0 44.667 12.333 81.834 37 111.501s54.5 49.334 89.5 59.001s70.833 11.167 107.5 4.5l6 -57
c-47.333 12 -88.833 7.16699 -124.5 -14.5s-53.5 -55.5 -53.5 -101.5c0 -36 11.5 -66 34.5 -90s53.5 -36 91.5 -36c42 0 75.833 14.333 101.5 43s38.5 65 38.5 109v254h-398v52h581v-52h-125z" />
    <glyph glyph-name="uni0936" unicode="&#x936;" horiz-adv-x="703" 
d="M219 441l-36 -44c-26 7.33301 -46.333 21.5 -61 42.5s-22 45.167 -22 72.5c0 37.333 13.5 68.666 40.5 93.999s61.833 38 104.5 38c50 0 89.5 -17.167 118.5 -51.5s43.5 -75.5 43.5 -123.5c0 -71.333 -27.167 -126.333 -81.5 -165s-121.833 -54.667 -202.5 -48l-2 -4
l38 -34c18.667 -16.667 37 -34 55 -52l143 -140l-48 -33l-227 224l-66 58l37 49c32 -10 66 -15 102 -15c55.333 0 101.166 14.333 137.499 43s54.5 67.667 54.5 117c0 38 -10.167 67.667 -30.5 89s-44.166 32 -71.499 32c-26 0 -46.667 -7.16699 -62 -21.5
s-23 -33.166 -23 -56.499c0 -16.667 5 -31.667 15 -45s24.667 -22 44 -26zM540 0v634h183v-52h-125v-582h-58z" />
    <glyph glyph-name="uni0937" unicode="&#x937;" horiz-adv-x="565" 
d="M402 268l-4 0.000976562c-26.667 -47.333 -74 -71 -142 -71c-46.667 0 -86 13.667 -118 41s-48 66.666 -48 117.999v226h-110v52h605v-52h-125v-582h-58v268zM262 250.001c48.667 0 85.667 16.333 111 49l-160 153l-70 66l3 -91v-63c0 -76 38.667 -114 116 -114z
M404 399.001v183h-261l252 -241c6 16.667 9 36 9 58z" />
    <glyph glyph-name="uni0938" unicode="&#x938;" horiz-adv-x="669" 
d="M292 582l-0.000976562 -202c0 -13.333 -1.33301 -24 -4 -32c37.333 -11.333 77.333 -17 120 -17c34.667 0 67.334 3.66699 98.001 11v240h-214zM-20.001 634h708.998v-52h-125v-582h-58v287c-22.667 -5.33301 -55.667 -8 -99 -8c-52.667 0 -100.334 7.33301 -143.001 22
c-21.333 -24 -51.666 -36 -90.999 -36c-17.333 0 -30.666 1.66699 -39.999 5l-2 -3c30.667 -36.667 52.667 -63.667 66 -81l123 -163l-47 -32l-251 335l44 35c26.667 -28.667 58.334 -43 95.001 -43c48.667 0 73 23.333 73 70v194h-254v52z" />
    <glyph glyph-name="uni0939" unicode="&#x939;" horiz-adv-x="500" 
d="M415 419h-210.999c-43.333 0 -65 -16.667 -65 -50c0 -17.333 5.66699 -34.333 17 -51s25.666 -30 42.999 -40c28 10.667 57.333 16 88 16c52 0 92 -12.667 120 -38s42 -56.666 42 -93.999c0 -40.667 -15.667 -74 -47 -100l-53 31c26 20 39 43.333 39 70
c0 21.333 -8.5 39.166 -25.5 53.499s-41.167 21.5 -72.5 21.5c-42.667 0 -77 -10.333 -103 -31s-39 -46.667 -39 -78c0 -42 21.667 -76.667 65 -104s112 -43 206 -47l-24 -53c-98.667 6.66699 -174.667 27.834 -228 63.501s-80 83.167 -80 142.5
c0 47.333 20.667 87.333 62 120c-19.333 12.667 -36 30 -50 52s-21 45.667 -21 71c0 29.333 10 53.166 30 71.499s48 27.5 84 27.5h166v109h-378v52h540v-52h-105v-163z" />
    <glyph glyph-name="uni093A" unicode="&#x93a;" 
d="M-105 615h-58v183h58v-183z" />
    <glyph glyph-name="uni093B" unicode="&#x93b;" horiz-adv-x="268" 
d="M163 634h125v-52h-125v-582h-58v582h-125v52h125v164h58v-164z" />
    <glyph glyph-name="uni093C" unicode="&#x93c;" 
d="M-311 -116c0 12 3.83301 21.833 11.5 29.5s17.5 11.5 29.5 11.5s21.833 -3.83301 29.5 -11.5s11.5 -17.5 11.5 -29.5s-3.83301 -21.833 -11.5 -29.5s-17.5 -11.5 -29.5 -11.5s-21.833 3.83301 -29.5 11.5s-11.5 17.5 -11.5 29.5z" />
    <glyph glyph-name="uni093D" unicode="&#x93d;" horiz-adv-x="477" 
d="M229 105c42.667 0 75.1689 9.50195 97.502 28.502s33.5 43.5 33.5 73.5c0 16.667 -2.66699 31.167 -8 43.5s-15.5 24 -30.5 35s-28.333 19.667 -40 26s-31.5 16.166 -59.5 29.499l-41.5 20.5c-9.66699 5 -21.834 12.667 -36.501 23s-25.834 20.333 -33.501 30
s-14.5 22 -20.5 37s-9 31.5 -9 49.5c0 40.667 14.667 73 44 97s67.666 36 114.999 36h157v-55h-154c-32.667 0 -57.834 -7 -75.501 -21s-26.5 -33 -26.5 -57c0 -24.667 9.5 -45 28.5 -61s50.833 -35 95.5 -57c26.667 -13.333 47 -24 61 -32s29.5 -19.167 46.5 -33.5
s29.167 -30.333 36.5 -48s11 -38.5 11 -62.5c0 -46.667 -17 -84.834 -51 -114.501s-81.333 -44.5 -142 -44.5c-41.333 0 -79.166 6.83301 -113.499 20.5s-62.166 29.167 -83.499 46.5l37 50c44.667 -40 98.667 -60 162 -60z" />
    <glyph glyph-name="uni093E" unicode="&#x93e;" horiz-adv-x="268" 
d="M288 582h-125v-582h-58v582h-125v52h308v-52z" />
    <glyph glyph-name="uni093F" unicode="&#x93f;" horiz-adv-x="268" 
d="M105 634l0.000976562 97.001c0 54.667 19 99 57 133s86 51 144 51c74.667 0 142.667 -18.833 204 -56.5s111.333 -79.834 150 -126.501l-43 -36c-32.667 42 -76.334 80 -131.001 114s-114.667 51 -180 51c-44.667 0 -79.667 -12 -105 -36s-38 -56.333 -38 -97v-94h125
v-52h-125v-582h-58v582h-125v52h125z" />
    <glyph glyph-name="uni0940" unicode="&#x940;" horiz-adv-x="268" 
d="M288 582h-125v-582h-58v582h-125v52h125c-3.33301 63.333 -20.5 116.666 -51.5 159.999s-71.167 65 -120.5 65c-26 0 -46.5 -7 -61.5 -21s-22.5 -32.667 -22.5 -56c0 -27.333 9.66699 -50.666 29 -69.999l-62 -13c-19.333 22 -29 50.333 -29 85
c0 36.667 13.5 67.5 40.5 92.5s62.167 37.5 105.5 37.5c62 0 114.333 -25.167 157 -75.5s67 -118.5 73 -204.5h125v-52z" />
    <glyph glyph-name="uni0941" unicode="&#x941;" 
d="M-428 -73c30 -45.333 66.502 -82.834 109.502 -112.501s90.5 -44.5 142.5 -44.5c34.667 0 63.667 8.83301 87 26.5s35 42.834 35 75.501c0 24 -8 44.167 -24 60.5s-36.333 24.5 -61 24.5c-38 0 -67.333 -15.333 -88 -46l-45 37c33.333 42.667 77.666 64 132.999 64
c42 0 77 -12.833 105 -38.5s42 -59.5 42 -101.5s-15.5 -78.667 -46.5 -110s-77.167 -47 -138.5 -47c-114.667 0 -214.334 57 -299.001 171z" />
    <glyph glyph-name="uni0942" unicode="&#x942;" 
d="M136 -254l-57 -15.998c-14 66 -40.333 120 -79 162s-82.667 63 -132 63c-28 0 -51 -8 -69 -24s-27 -36.667 -27 -62c0 -22.667 7.16699 -41.834 21.5 -57.501s33.833 -23.5 58.5 -23.5c16.667 0 33 3 49 9v-56c-12.667 -5.33301 -29.667 -8 -51 -8
c-41.333 0 -75 13.167 -101 39.5s-39 58.5 -39 96.5c0 40.667 15.167 74.334 45.5 101.001s68.166 40 113.499 40c36 0 69.833 -8.16699 101.5 -24.5s58.334 -37.833 80.001 -64.5s39.667 -54.834 54 -84.501s24.833 -59.834 31.5 -90.501z" />
    <glyph glyph-name="uni0943" unicode="&#x943;" 
d="M-36 -151l24 -48.999c-37.333 -20.667 -80 -31 -128 -31c-45.333 0 -81.833 11.667 -109.5 35s-41.5 54.333 -41.5 93c0 40.667 16.667 73.5 50 98.5s75.333 39.833 126 44.5l10 -40v-9c-84.667 -10.667 -127 -42 -127 -94c0 -22.667 8 -40.834 24 -54.501
s39.333 -20.5 70 -20.5c38.667 0 72.667 9 102 27z" />
    <glyph glyph-name="uni0944" unicode="&#x944;" 
d="M-97 -125l8 -46c-91.333 -4.66699 -137 -27.667 -137 -69c0 -16.667 7.33301 -29.834 22 -39.501s35.334 -14.5 62.001 -14.5c52 0 91.333 11 118 33l23 -46c-38 -24.667 -84 -37 -138 -37c-42 0 -76.167 8.83301 -102.5 26.5s-39.5 43.167 -39.5 76.5
c0 24 7.16699 43 21.5 57s31.833 23.333 52.5 28c-20 0.666992 -39 8.5 -57 23.5s-27 35.833 -27 62.5c0 32.667 15.667 59.334 47 80.001s74.333 31 129 31l10 -41v-10c-85.333 0 -128 -21 -128 -63c0 -37.333 28 -56 84 -56c21.333 0 38.666 1.33301 51.999 4z" />
    <glyph glyph-name="uni0945" unicode="&#x945;" 
d="M-134 754c-90 0 -155.002 37.667 -195.002 113l46 26c32.667 -56 82.334 -84 149.001 -84s116.334 28 149.001 84l45 -26c-40 -75.333 -104.667 -113 -194 -113z" />
    <glyph glyph-name="uni0946" unicode="&#x946;" 
d="M-232 713l-155.998 60c-61.333 23.333 -92 65 -92 125h58c0 -21.333 5.16699 -37.333 15.5 -48s28.166 -21 53.499 -31l156 -60c61.333 -23.333 92 -65 92 -125h-58c0 22 -5.33301 38.333 -16 49s-28.334 20.667 -53.001 30z" />
    <glyph glyph-name="uni0947" unicode="&#x947;" 
d="M-111 631l-38.001 -12l-5 4c-45.333 41.333 -97.666 96 -156.999 164l-81 94l67 17z" />
    <glyph glyph-name="uni0948" unicode="&#x948;" 
d="M-140 634l3 0.999023l-129 247l66 17l99 -272l-46 -24c-104 76.667 -213.333 163.334 -328 260.001l58 35z" />
    <glyph glyph-name="uni0949" unicode="&#x949;" horiz-adv-x="268" 
d="M288 582h-125v-582h-58v582h-125v52h308v-52zM137 754c-90 0 -155.002 37.667 -195.002 113l46 26c32.667 -56 82.334 -84 149.001 -84s116.334 28 149.001 84l45 -26c-40 -75.333 -104.667 -113 -194 -113z" />
    <glyph glyph-name="uni094A" unicode="&#x94a;" horiz-adv-x="268" 
d="M163 634h125.002v-52h-125v-582h-58v582h-125v52h125c0 22 -5.33301 38.333 -16 49s-28.334 20.667 -53.001 30l-156 60c-61.333 23.333 -92 65 -92 125h58c0 -21.333 5.16699 -37.333 15.5 -48s28.166 -21 53.499 -31l156 -60c61.333 -23.333 92 -65 92 -125z" />
    <glyph glyph-name="uni094B" unicode="&#x94b;" horiz-adv-x="268" 
d="M158 634h130v-52h-125v-582h-58v582h-125v52h125c-50 48 -98.333 99 -145 153l-81 94l67 17z" />
    <glyph glyph-name="uni094C" unicode="&#x94c;" horiz-adv-x="268" 
d="M164 634l123.999 0.000976562v-52h-125v-582h-58v582h-125v52h99c-89.333 67.333 -184.666 143.666 -285.999 228.999l58 35l277 -264l3 1l-129 247l66 17z" />
    <glyph glyph-name="uni094D" unicode="&#x94d;" 
d="M20 -227v-4h-74l-110 144l49 18z" />
    <glyph glyph-name="uni094E" unicode="&#x94e;" horiz-adv-x="268" 
d="M288 582h-125v-582h-58v634h183v-52z" />
    <glyph glyph-name="uni094F" unicode="&#x94f;" horiz-adv-x="268" 
d="M163 634l125.001 -0.00195312v-52h-125v-582h-58v582h-125v52h125c-7.33301 16 -20.5 29.333 -39.5 40s-47 22 -84 34s-62.5 21 -76.5 27c-63.333 26.667 -94 68 -92 124h58c0.666992 -21.333 6.33398 -38.166 17.001 -50.499s28 -23.833 52 -34.5l52 -21.5
c22 -9 38.667 -16 50 -21s24 -11.833 38 -20.5s24.833 -18.667 32.5 -30s13.5 -24.666 17.5 -39.999h5c0 16 -5 31.833 -15 47.5s-22.167 30.167 -36.5 43.5s-28.5 27.333 -42.5 42s-26 32 -36 52s-15 41.333 -15 64l4 33h56c-2.66699 -12 -4 -23.333 -4 -34
c0 -23.333 6.16699 -46 18.5 -68s25.666 -40.333 39.999 -55s27.666 -32.667 39.999 -54s18.5 -43 18.5 -65v-13z" />
    <glyph glyph-name="uni0950" unicode="&#x950;" horiz-adv-x="1223" 
d="M694 719c-13.333 0 -24.666 4.5 -33.999 13.5s-14 19.833 -14 32.5c0 14.667 4.66699 26.667 14 36s20.666 14 33.999 14c14 0 25.5 -4.66699 34.5 -14s13.5 -21.333 13.5 -36c0 -13.333 -4.5 -24.333 -13.5 -33s-20.5 -13 -34.5 -13zM847 692l45 -26
c-18 -33.333 -43.667 -60.5 -77 -81.5s-74.333 -31.5 -123 -31.5s-89.667 10.5 -123 31.5s-59 48.167 -77 81.5l46 26c14 -24 34.333 -44 61 -60s57.667 -24 93 -24s66.5 8 93.5 24s47.5 36 61.5 60zM798 236l-10 -17c11.333 -34 28.833 -62.167 52.5 -84.5
s51.834 -33.5 84.501 -33.5c34 0 62.833 16.833 86.5 50.5s35.5 77.167 35.5 130.5c0 38 -9.66699 68.833 -29 92.5s-43.333 35.5 -72 35.5c-8.66699 0 -17 -1.5 -25 -4.5s-15.833 -8.16699 -23.5 -15.5s-14.334 -14 -20.001 -20s-12.667 -15.833 -21 -29.5
s-14.5 -24.167 -18.5 -31.5l-20 -37c-9.33301 -17.333 -16 -29.333 -20 -36zM371 331l-0.00195312 -4.00195c38.667 -10 70.334 -39.333 95.001 -88c2 -3.33301 6.66699 -12.666 14 -27.999s12.5 -25.333 15.5 -30s8.33301 -12.5 16 -23.5s14.834 -18.5 21.501 -22.5
s15.334 -8 26.001 -12s22.334 -6 35.001 -6c32.667 0 60.334 12.333 83.001 37s46.667 61 72 109c36 69.333 61.667 114.333 77 135c35.333 46 74.666 69 117.999 69c47.333 0 86.666 -17 117.999 -51s47 -81.667 47 -143c0 -57.333 -16.333 -109.5 -49 -156.5
s-76 -70.5 -130 -70.5c-81.333 0 -140.666 38.333 -177.999 115c-46 -66 -98.667 -99 -158 -99c-33.333 0 -61.333 8.5 -84 25.5s-39.667 36.5 -51 58.5c-5.33301 -33.333 -22.833 -62.333 -52.5 -87s-69.834 -37 -120.501 -37c-78.667 0 -140 32.333 -184 97l49 41
c34 -53.333 80 -80 138 -80c40 0 70.333 11 91 33s31 48.333 31 79c0 28.667 -9.83301 52.334 -29.5 71.001s-46.834 28 -81.501 28c-8 0 -16 -0.666992 -24 -2l-36 -4l-9 57c50 4 87.5 14.833 112.5 32.5s37.5 45.834 37.5 84.501c0 27.333 -8.66699 49.666 -26 66.999
s-41 26 -71 26c-36 0 -68 -15.333 -96 -46l-42 40c34.667 40.667 82 61 142 61c44.667 0 81.667 -13.833 111 -41.5s44 -63.167 44 -106.5c0 -58 -24 -100.667 -72 -128z" />
    <glyph glyph-name="uni0951" unicode="&#x951;" 
d="M-163 908h58v-196h-58v196z" />
    <glyph glyph-name="uni0952" unicode="&#x952;" 
d="M-102 -214h-505v47h505v-47z" />
    <glyph glyph-name="uni0953" unicode="&#x953;" 
d="M-282 879l44 37l144 -169l-44 -37z" />
    <glyph glyph-name="uni0954" unicode="&#x954;" 
d="M-34 916l44 -37l-144 -169l-44 37z" />
    <glyph glyph-name="uni0955" unicode="&#x955;" 
d="M-133 798c-82 0 -141.331 34.333 -177.998 103l42 23c29.333 -50.667 74.666 -76 135.999 -76s106.666 25.333 135.999 76l41 -23c-36.667 -68.667 -95.667 -103 -177 -103zM31.002 702h-328v47h328v-47z" />
    <glyph glyph-name="uni0956" unicode="&#x956;" 
d="M-276 -177c-40.667 0 -77.334 2.83398 -110.001 8.50098s-55.334 11.167 -68.001 16.5l-18 8l11 43c63.333 -14 125 -21 185 -21s121.667 7 185 21l11 -43c-3.33301 -2.66699 -9.16602 -5.83398 -17.499 -9.50098s-29.166 -8.5 -62.499 -14.5s-72 -9 -116 -9z" />
    <glyph glyph-name="uni0957" unicode="&#x957;" 
d="M-276 -170c-40.667 0 -77.334 2.66895 -110.001 8.00195s-55.334 10.666 -68.001 15.999l-18 9l11 43c63.333 -14 125 -21 185 -21s121.667 7 185 21l11 -43c-3.33301 -2.66699 -9.16602 -5.83398 -17.499 -9.50098s-29.166 -8.5 -62.499 -14.5s-72 -9 -116 -9z
M-276 -310.998c-40.667 0 -77.335 2.83398 -110.002 8.50098s-55.334 11.167 -68.001 16.5l-18 8l11 43c62.667 -14 124.334 -21 185.001 -21c60 0 121.667 7 185 21l11 -43c-3.33301 -2.66699 -9.16602 -5.83398 -17.499 -9.50098s-29.166 -8.5 -62.499 -14.5
s-72 -9 -116 -9z" />
    <glyph glyph-name="uni0915093C" unicode="&#x958;" horiz-adv-x="763" 
d="M651 297c0 33.333 -10.499 60.334 -31.499 81.001s-48.167 31 -81.5 31c-38 0 -68.833 -12.333 -92.5 -37s-35.5 -57.334 -35.5 -98.001v-274h-57v195h-4c-29.333 -41.333 -74.333 -62 -135 -62c-44.667 0 -83.167 15.5 -115.5 46.5s-48.5 70.5 -48.5 118.5
c0 56 20.5 99.667 61.5 131s88.833 43 143.5 35l9 -55c-40 6.66699 -75.333 0.666992 -106 -18s-46 -49 -46 -91c0 -32.667 10.333 -59.5 31 -80.5s48 -31.5 82 -31.5c38 0 68.833 12.333 92.5 37s35.5 57.334 35.5 98.001v259h-373v52h803v-52h-373v-180h4
c29.333 41.333 74.666 62 135.999 62c44.667 0 83 -15.333 115 -46s48 -70.334 48 -119.001c0 -56 -20.5 -99.667 -61.5 -131s-88.833 -43 -143.5 -35l-9 55c40 -6.66699 75.333 -0.666992 106 18s46 49 46 91zM101.001 19.001c0 12 3.83301 21.833 11.5 29.5
s17.5 11.5 29.5 11.5s21.833 -3.83301 29.5 -11.5s11.5 -17.5 11.5 -29.5s-3.83301 -21.833 -11.5 -29.5s-17.5 -11.5 -29.5 -11.5s-21.833 3.83301 -29.5 11.5s-11.5 17.5 -11.5 29.5z" />
    <glyph glyph-name="uni0916093C" unicode="&#x959;" horiz-adv-x="779" 
d="M617 143h-4.00195c-24.667 -32 -57.167 -57.833 -97.5 -77.5s-85.166 -29.5 -134.499 -29.5c-91.333 0 -165.166 31.167 -221.499 93.5s-88.833 143.833 -97.5 244.5l52 18c16.667 -29.333 41 -44 73 -44c36 0 54 21.333 54 64v170h-261v52h819v-52h-125v-582h-57v143z
M611.998 453l4 0.000976562v129h-317v-169c0 -35.333 -10 -63.333 -30 -84s-45 -31 -75 -31c-25.333 0 -46 4.33301 -62 13c13.333 -70 42.5 -124.167 87.5 -162.5s98.5 -57.5 160.5 -57.5c66.667 0 123.167 20.333 169.5 61s69.5 96 69.5 166c0 36 -10.167 64.667 -30.5 86
s-44.5 32 -72.5 32c-29.333 0 -53 -8.83301 -71 -26.5s-27 -40.834 -27 -69.501s10.167 -52.5 30.5 -71.5s48.833 -29.167 85.5 -30.5l-31 -47c-38 1.33301 -71.333 15.5 -100 42.5s-43 62.5 -43 106.5s14.667 80.167 44 108.5s65 42.5 107 42.5
c43.333 0 77 -12.667 101 -38zM78.998 0.000976562c0 12 3.83301 21.833 11.5 29.5s17.5 11.5 29.5 11.5s21.833 -3.83301 29.5 -11.5s11.5 -17.5 11.5 -29.5s-3.83301 -21.833 -11.5 -29.5s-17.5 -11.5 -29.5 -11.5s-21.833 3.83301 -29.5 11.5s-11.5 17.5 -11.5 29.5z" />
    <glyph glyph-name="uni0917093C" unicode="&#x95a;" horiz-adv-x="546" 
d="M155 93c12 0 21.833 -3.83301 29.5 -11.5s11.5 -17.5 11.5 -29.5s-3.83301 -21.833 -11.5 -29.5s-17.5 -11.5 -29.5 -11.5s-21.833 3.83301 -29.5 11.5s-11.5 17.5 -11.5 29.5s3.83301 21.833 11.5 29.5s17.5 11.5 29.5 11.5zM-20 634h586v-52h-125v-582h-58v582h-196
v-365h-67c-30.667 26.667 -46.667 64 -48 112l57 40v213h-149v52z" />
    <glyph glyph-name="uni091C093C" unicode="&#x95b;" horiz-adv-x="733" 
d="M276 381l0.000976562 4l27 48h267v149h-590v52h773v-52h-125v-582h-58v380h-188v-4c32.667 -30.667 49 -67.334 49 -110.001c0 -39.333 -13.833 -72.666 -41.5 -99.999s-64.167 -41 -109.5 -41c-37.333 0 -71.5 8.66699 -102.5 26s-56.333 40 -76 68
s-35.334 57.5 -47.001 88.5s-19.5 62.5 -23.5 94.5l61 22c2 -63.333 20.167 -119.833 54.5 -169.5s77.5 -74.5 129.5 -74.5c29.333 0 52.5 8.33301 69.5 25s25.5 38 25.5 64c0 31.333 -10.167 56.333 -30.5 75s-41.833 31 -64.5 37zM78.001 29
c0 12 3.83301 21.833 11.5 29.5s17.5 11.5 29.5 11.5s21.833 -3.83301 29.5 -11.5s11.5 -17.5 11.5 -29.5s-3.83301 -21.833 -11.5 -29.5s-17.5 -11.5 -29.5 -11.5s-21.833 3.83301 -29.5 11.5s-11.5 17.5 -11.5 29.5z" />
    <glyph glyph-name="uni0921093C" unicode="&#x95c;" horiz-adv-x="536" 
d="M292 -54c12 0 21.833 -3.83301 29.5 -11.5s11.5 -17.5 11.5 -29.5s-3.83301 -21.833 -11.5 -29.5s-17.5 -11.5 -29.5 -11.5s-21.833 3.83301 -29.5 11.5s-11.5 17.5 -11.5 29.5s3.83301 21.833 11.5 29.5s17.5 11.5 29.5 11.5zM425 419l-179.999 -0.000976562
c-50 0 -75 -20.667 -75 -62c0 -19.333 6.83301 -37.166 20.5 -53.499s30.167 -27.166 49.5 -32.499l171 34c19.333 -11.333 35.666 -28.5 48.999 -51.5s20 -48.5 20 -76.5c0 -45.333 -17.667 -83.333 -53 -114s-81 -46 -137 -46c-52.667 0 -100.5 14.167 -143.5 42.5
s-78.833 68.166 -107.5 119.499l48 34c22 -44 50.333 -78.833 85 -104.5s74 -38.5 118 -38.5c38 0 69.167 9.66699 93.5 29s36.5 45.333 36.5 78c0 30 -10.333 53 -31 69l-161 -32c-32.667 10 -60.667 29 -84 57s-35 60.333 -35 97c0 30.667 9.83301 55.667 29.5 75
s46.167 29 79.5 29h150v110h-388v52h576v-52h-131v-163z" />
    <glyph glyph-name="uni0922093C" unicode="&#x95d;" horiz-adv-x="515" 
d="M290 99c34.667 0 61.832 8.5 81.499 25.5s29.5 38.5 29.5 64.5c0 16.667 -5.83301 31 -17.5 43s-26.167 18 -43.5 18c-22.667 0 -39.5 -8.5 -50.5 -25.5s-14.167 -36.5 -9.5 -58.5l-56 22c-2.66699 30 6.33301 57.167 27 81.5s50 36.5 88 36.5
c34.667 0 63.667 -11.333 87 -34s35 -50.334 35 -83.001c0 -39.333 -15.833 -73.166 -47.5 -101.499s-71.5 -42.5 -119.5 -42.5c-68.667 0 -126.5 22.167 -173.5 66.5s-70.5 96.5 -70.5 156.5c0 41.333 12.667 77.333 38 108s59.333 52 102 64l145 42v100h-355v52h555v-52
h-142v-141l-165 -45c-43.333 -12 -73.666 -29 -90.999 -51s-26 -49.333 -26 -82c0 -43.333 16.833 -81.5 50.5 -114.5s76.5 -49.5 128.5 -49.5zM241.998 -71c0 12 3.83301 21.833 11.5 29.5s17.5 11.5 29.5 11.5s21.833 -3.83301 29.5 -11.5s11.5 -17.5 11.5 -29.5
s-3.83301 -21.833 -11.5 -29.5s-17.5 -11.5 -29.5 -11.5s-21.833 3.83301 -29.5 11.5s-11.5 17.5 -11.5 29.5z" />
    <glyph glyph-name="uni092B093C" unicode="&#x95e;" horiz-adv-x="785" 
d="M375 264l-4.00098 0.00195312c-24.667 -43.333 -67.667 -65 -129 -65c-45.333 0 -82 13.5 -110 40.5s-42 66.167 -42 117.5v225h-110v52h825v-52h-372v-184h4c10.667 16 28 30.833 52 44.5s52.667 20.5 86 20.5c46.667 0 86 -15.5 118 -46.5s48 -70.833 48 -119.5
c0 -57.333 -20 -102.833 -60 -136.5s-88.667 -46.834 -146 -39.501l-9 57c46.667 -8 83.834 -0.333008 111.501 23s41.5 55 41.5 95c0 33.333 -10.333 60.166 -31 80.499s-48 30.5 -82 30.5c-38 0 -69.667 -13.667 -95 -41s-38 -63.333 -38 -108v-258h-58v264z
M375.999 406.002v176h-228v-216c0 -74.667 32.333 -112 97 -112c39.333 0 71 13.667 95 41s36 64.333 36 111zM107.999 41.002c0 12 3.83301 21.833 11.5 29.5s17.5 11.5 29.5 11.5s21.833 -3.83301 29.5 -11.5s11.5 -17.5 11.5 -29.5s-3.83301 -21.833 -11.5 -29.5
s-17.5 -11.5 -29.5 -11.5s-21.833 3.83301 -29.5 11.5s-11.5 17.5 -11.5 29.5z" />
    <glyph glyph-name="uni092F093C" unicode="&#x95f;" horiz-adv-x="605" 
d="M442 222l-3.99805 0.000976562c-36 -52 -90.667 -78 -164 -78c-58.667 0 -108.334 19.667 -149.001 59s-65.667 93.666 -75 162.999c49.333 11.333 86.166 26.333 110.499 45s36.5 43 36.5 73c0 39.333 -15.667 72 -47 98h-170v52h645v-52h-125v-582h-58v222z
M120.002 335.001c5.33301 -33.333 21.499 -64.333 48.499 -93s64.833 -43 113.5 -43c47.333 0 86 15.667 116 47s45 75 45 131v205h-225v-4c26.667 -30 40 -64.333 40 -103c0 -33.333 -12.667 -62.5 -38 -87.5s-58.666 -42.5 -99.999 -52.5zM86.001 31.001
c0 12 3.83301 21.833 11.5 29.5s17.5 11.5 29.5 11.5s21.833 -3.83301 29.5 -11.5s11.5 -17.5 11.5 -29.5s-3.83301 -21.833 -11.5 -29.5s-17.5 -11.5 -29.5 -11.5s-21.833 3.83301 -29.5 11.5s-11.5 17.5 -11.5 29.5z" />
    </font>
</defs>
</svg>
