<?xml version="1.0" standalone="no"?>
<!DOCTYPE svg PUBLIC "-//W3C//DTD SVG 1.1//EN" "http://www.w3.org/Graphics/SVG/1.1/DTD/svg11.dtd" >
<svg>
<metadata>
Created by FontForge 20090914 at Fri Sep  9 20:09:22 2016
 By www-data
Copyright 2010, 2014 Indian Type Foundry. All rights reserved.
</metadata>
<defs>
<font id="KohinoorDevanagari-Book" horiz-adv-x="0" >
  <font-face 
    font-family="Kohinoor Devanagari"
    font-weight="400"
    font-stretch="normal"
    units-per-em="1000"
    panose-1="2 0 0 0 0 0 0 0 0 0"
    ascent="800"
    descent="-200"
    x-height="543.999"
    cap-height="701"
    bbox="-585 -513.003 2048 1044"
    underline-thickness="50"
    underline-position="-50"
    unicode-range="U+000D-U+FB02"
  />
<missing-glyph horiz-adv-x="751" 
d="M176 0v701h399v-701h-399zM235 646v-591h281v591h-281z" />
    <glyph glyph-name="fi" unicode="fi" horiz-adv-x="596" 
d="M513 544v-544.001h-78v483h-239v-483h-78v483h-90v61h91v61c0 108 68.667 162 206 162c34.667 0 68.167 -3.16699 100.5 -9.5s56.166 -13.5 71.499 -21.5l-21 -62c-43.333 18 -96.333 27 -159 27c-43.333 0 -74.166 -7.66699 -92.499 -23s-27.5 -39.666 -27.5 -72.999
v-61h316z" />
    <glyph glyph-name="fl" unicode="fl" horiz-adv-x="635" 
d="M513 726l-0.00195312 -597.001c0 -24 4.33301 -41.5 13 -52.5s23 -16.5 43 -16.5c16 0 31.333 3.66699 46 11v-66c-18 -8 -40.667 -12 -68 -12c-36.667 0 -64.5 10.167 -83.5 30.5s-28.5 48.5 -28.5 84.5v578c-31.333 10 -70.666 15 -117.999 15
c-43.333 0 -74.166 -7.66699 -92.499 -23s-27.5 -39.666 -27.5 -72.999v-61h126v-61h-127v-483h-78v483h-90v61h91v61c0 108 68.667 162 206 162c82 0 144.667 -13.667 188 -41z" />
    <glyph glyph-name="f_f" unicode="ff" horiz-adv-x="676" 
d="M436 544v81.999c0 20 3 38.667 9 56c-40.667 12.667 -83.334 19 -128.001 19c-43.333 0 -74.166 -7.66699 -92.499 -23s-27.5 -39.666 -27.5 -72.999v-61h239zM675 755.999l-16.001 -66c-19.333 6.66699 -43.666 10 -72.999 10c-25.333 0 -43.666 -6 -54.999 -18
s-17 -30.333 -17 -55v-83h141v-61h-142v-483h-78v483h-239v-483h-78v483h-90v61h91v61c0 108 68.667 162 206 162c65.333 0 118.666 -9.66699 159.999 -29c26 20 61.667 30 107 30c31.333 0 59 -4 83 -12z" />
    <glyph glyph-name="f_f_i" unicode="ffi" horiz-adv-x="913" 
d="M436 544v60.999c0 27.333 5 52 15 74c-38.667 14.667 -83.334 22 -134.001 22c-43.333 0 -74.166 -7.66699 -92.499 -23s-27.5 -39.666 -27.5 -72.999v-61h239zM830 543.999v-544.001h-77v483h-240v-483h-78v483h-239v-483h-78v483h-90v61h91v61
c0 108 68.667 162 206 162c71.333 0 128 -12 170 -36c35.333 24 84.333 36 147 36c34.667 0 68.167 -3.16699 100.5 -9.5s56.166 -13.5 71.499 -21.5l-21 -62c-41.333 18 -94.333 27 -159 27c-43.333 0 -74.166 -7.66699 -92.499 -23s-27.5 -39.666 -27.5 -72.999v-61h316z
" />
    <glyph glyph-name="f_f_l" unicode="ffl" horiz-adv-x="952" 
d="M436 544v60.999c0 27.333 5 52 15 74c-38.667 14.667 -83.334 22 -134.001 22c-43.333 0 -74.166 -7.66699 -92.499 -23s-27.5 -39.666 -27.5 -72.999v-61h239zM830 725.999l0.000976562 -597.001c0 -24 4.5 -41.5 13.5 -52.5s23.5 -16.5 43.5 -16.5
c15.333 0 30.333 3.66699 45 11v-66c-16.667 -8 -39.334 -12 -68.001 -12c-36.667 0 -64.334 10 -83.001 30s-28 48.333 -28 85v578c-31.333 10 -71 15 -119 15c-43.333 0 -74.166 -7.66699 -92.499 -23s-27.5 -39.666 -27.5 -72.999v-61h126v-61h-127v-483h-78v483h-239
v-483h-78v483h-90v61h91v61c0 108 68.667 162 206 162c71.333 0 128 -12 170 -36c35.333 24 84.333 36 147 36c82 0 144.667 -13.667 188 -41z" />
    <glyph glyph-name=".notdef" horiz-adv-x="751" 
d="M176 0v701h399v-701h-399zM235 646v-591h281v591h-281z" />
    <glyph glyph-name="NULL" 
 />
    <glyph glyph-name="NULL" 
 />
    <glyph glyph-name="CR" unicode="&#xd;" horiz-adv-x="288" 
 />
    <glyph glyph-name="space" unicode=" " horiz-adv-x="288" 
 />
    <glyph glyph-name="exclam" unicode="!" horiz-adv-x="291" 
d="M178 246h-62c0 6 -6.66699 160 -20 462h101c-10.667 -250 -17 -404 -19 -462zM89 59c0 17.333 5.66699 32 17 44s25.333 18 42 18c17.333 0 31.833 -6 43.5 -18s17.5 -26.667 17.5 -44c0 -16 -5.83301 -29.833 -17.5 -41.5s-26.167 -17.5 -43.5 -17.5
c-16.667 -0 -30.667 5.83301 -42 17.5s-17 25.5 -17 41.5z" />
    <glyph glyph-name="quotedbl" unicode="&#x22;" horiz-adv-x="324" 
d="M116 496h-57l-16 221h89zM265 496h-57l-16 221h89z" />
    <glyph glyph-name="numbersign" unicode="#" horiz-adv-x="669" 
d="M42 265h118l30 170h-114l3 64h121l33 192h70l-33 -192h195l33 192h71l-34 -192h96l-4 -64h-102l-29 -170h97l-3 -64h-104l-34 -201h-71l34 201h-195l-34 -201h-70l34 201h-111zM260 435l-30 -170h196l29 170h-195z" />
    <glyph glyph-name="dollar" unicode="$" horiz-adv-x="528" 
d="M266 393l57 -26.0029c26 -12 46.667 -22.667 62 -32s31.166 -21.166 47.499 -35.499s28.333 -30.666 36 -48.999s11.5 -39.166 11.5 -62.499c0 -45.333 -15.833 -85.333 -47.5 -120s-77.5 -55.667 -137.5 -63l2 -143h-73l2 141c-77.333 4 -142.666 27.333 -195.999 70
l48 65c49.333 -43.333 108.333 -65 177 -65c49.333 0 85.666 10 108.999 30s35 46 35 78c0 29.333 -10.167 53 -30.5 71s-51.833 36.667 -94.5 56l-61 27c-46 20.667 -81.667 44.667 -107 72s-38 63 -38 107c0 48 16.333 87.333 49 118s74 49.667 124 57l-2 138h72l-2 -136
c63.333 -4.66699 115.333 -23 156 -55l-52 -62c-14 14 -33.667 25.333 -59 34s-50.666 13 -75.999 13c-40.667 0 -72.5 -9.16699 -95.5 -27.5s-34.5 -43.5 -34.5 -75.5c0 -28.667 9.66699 -52 29 -70s49 -36.333 89 -55z" />
    <glyph glyph-name="percent" unicode="%" horiz-adv-x="827" 
d="M349 513c0 -63.333 -13.999 -111.333 -41.999 -144s-64.667 -49 -110 -49c-46.667 0 -83.334 15.667 -110.001 47s-40 79 -40 143c0 61.333 14.167 108.5 42.5 141.5s65.5 49.5 111.5 49.5c45.333 0 81.333 -15.833 108 -47.5s40 -78.5 40 -140.5zM200.001 376
c27.333 0 47.833 10.5 61.5 31.5s20.5 55.167 20.5 102.5c0 89.333 -28.667 134 -86 134c-54 0 -81 -44.333 -81 -133c0 -90 28.333 -135 85 -135zM630.001 47c27.333 0 47.833 10.5 61.5 31.5s20.5 54.833 20.5 101.5c0 90 -28.667 135 -86 135c-54 0 -81 -44.333 -81 -133
c0 -90 28.333 -135 85 -135zM779.001 184c0 -63.333 -14 -111.5 -42 -144.5s-65 -49.5 -111 -49.5s-82.333 15.833 -109 47.5s-40 79.5 -40 143.5c0 61.333 14.167 108.333 42.5 141s65.5 49 111.5 49c45.333 0 81.333 -15.667 108 -47s40 -78 40 -140zM693.001 639
l-496 -618l-48 39l496 618z" />
    <glyph glyph-name="ampersand" unicode="&#x26;" horiz-adv-x="679" 
d="M40 179c0 92 55.998 156.331 167.998 192.998c-45.333 50 -68 101.667 -68 155c0 46.667 16.5 85.834 49.5 117.501s75.833 47.5 128.5 47.5c51.333 0 92.5 -15.667 123.5 -47s46.5 -70 46.5 -116c0 -92.667 -54.667 -154.667 -164 -186
c44.667 -48.667 104.334 -106.334 179.001 -173.001c34 52.667 51 116.334 51 191.001h71c-2.66699 -92.667 -26.334 -171 -71.001 -235c26 -23.333 72.333 -61.666 139 -114.999v-11h-98c-33.333 26 -62.666 50 -87.999 72c-57.333 -57.333 -134.666 -86 -231.999 -86
c-76.667 0 -135 19.5 -175 58.5s-60 83.833 -60 134.5zM279.998 49.998c72.667 0 131.667 22 177 66c-92.667 85.333 -161 153 -205 203c-92 -23.333 -138 -68.333 -138 -135c0 -36 14.333 -67.333 43 -94s69.667 -40 123 -40zM212.998 526.998
c0 -47.333 22 -91.999 66 -133.999c52.667 14 88.667 32 108 54s29 49 29 81c0 28 -9 51.333 -27 70s-42 28 -72 28c-31.333 0 -56.5 -8.83301 -75.5 -26.5s-28.5 -41.834 -28.5 -72.501z" />
    <glyph glyph-name="quotesingle" unicode="'" horiz-adv-x="175" 
d="M116 496h-57l-16 221h89z" />
    <glyph glyph-name="parenleft" unicode="(" horiz-adv-x="318" 
d="M81 296c0 66.667 8.16699 131.169 24.5 193.502s36.5 114.666 60.5 156.999s46 76.666 66 102.999s37.333 45.5 52 57.5h83v-7c-61.333 -57.333 -112.333 -129.5 -153 -216.5s-61 -182.833 -61 -287.5c0 -104 20.333 -199.5 61 -286.5s91.667 -159.167 153 -216.5v-7h-82
c-14.667 12 -32.167 31.333 -52.5 58s-42.5 61.167 -66.5 103.5s-44.167 94.5 -60.5 156.5s-24.5 126 -24.5 192z" />
    <glyph glyph-name="parenright" unicode=")" horiz-adv-x="318" 
d="M237 296c0 -66 -8.16699 -130.002 -24.5 -192.002s-36.5 -114.333 -60.5 -157s-46 -77.167 -66 -103.5s-37.333 -45.5 -52 -57.5h-83v7c61.333 57.333 112.333 129.5 153 216.5s61 182.5 61 286.5c0 104.667 -20.333 200.5 -61 287.5s-91.667 159.167 -153 216.5v7h83
c14.667 -12 32 -31.167 52 -57.5s42 -60.666 66 -102.999s44.167 -94.666 60.5 -156.999s24.5 -126.833 24.5 -193.5z" />
    <glyph glyph-name="asterisk" unicode="*" horiz-adv-x="401" 
d="M234 641l-7 -82l77 32l53 18l22 -64l-55 -19l-80 -18l55 -63l33 -46l-55 -39l-35 46l-42 69l-42 -70l-34 -46l-54 40l33 47l53 61l-80 19l-54 18l21 64l55 -17l74 -31l-6 81v57h68v-57z" />
    <glyph glyph-name="plus" unicode="+" horiz-adv-x="526" 
d="M496 374v-69h-198v-198h-71v198h-197v69h197v199h71v-199h198z" />
    <glyph glyph-name="comma" unicode="," horiz-adv-x="240" 
d="M70 -142l-20 36.999c23.333 9.33301 41.833 21.833 55.5 37.5s20.5 31.834 20.5 48.501c0 12 -3.66699 22.833 -11 32.5s-14.833 17 -22.5 22s-18.834 11.5 -33.501 19.5v5c0 18 5.83301 33 17.5 45s26.834 18 45.501 18c22 0 40 -8.16699 54 -24.5s21 -38.833 21 -67.5
c0 -42 -13.167 -78.5 -39.5 -109.5s-55.5 -52.167 -87.5 -63.5z" />
    <glyph glyph-name="hyphen" unicode="-" horiz-adv-x="337" 
d="M313 263h-289v70h289v-70z" />
    <glyph glyph-name="period" unicode="." horiz-adv-x="221" 
d="M49 60c0 18 5.83301 33 17.5 45s26.167 18 43.5 18s32 -6 44 -18s18 -27 18 -45c0 -16.667 -6 -30.834 -18 -42.501s-26.667 -17.5 -44 -17.5c-16.667 0 -31 5.83301 -43 17.5s-18 25.834 -18 42.501z" />
    <glyph glyph-name="slash" unicode="/" horiz-adv-x="338" 
d="M269 730h71l-272 -865h-70z" />
    <glyph glyph-name="zero" unicode="0" horiz-adv-x="542" 
d="M267 -9c-74 0 -127.833 26.667 -161.5 80s-50.5 137 -50.5 251c0 226 73 339 219 339c74 0 128 -26.833 162 -80.5s51 -137.5 51 -251.5c0 -225.333 -73.333 -338 -220 -338zM135 329c0 -90.667 10.834 -158.001 32.501 -202.001s56.5 -66 104.5 -66
c49.333 0 84.166 20.833 104.499 62.5s30.5 107.834 30.5 198.501s-11 158.167 -33 202.5s-57.333 66.5 -106 66.5s-83 -20.833 -103 -62.5s-30 -108.167 -30 -199.5z" />
    <glyph glyph-name="one" unicode="1" horiz-adv-x="407" 
d="M205 652h83v-652h-77v395l3 176h-4l-73 -55l-77 -53l-46 63z" />
    <glyph glyph-name="two" unicode="2" horiz-adv-x="472" 
d="M125 72l0.000976562 -4.00098l102 2h195v-70h-378l-13 70c12.667 11.333 52.667 54.833 120 130.5s104 117.834 110 126.501c45.333 52 68 104.333 68 157c0 32 -9.5 57.5 -28.5 76.5s-44.5 28.5 -76.5 28.5c-54.667 0 -88.667 -31.333 -102 -94l-79 18
c9.33301 42 30 76.5 62 103.5s73.667 40.5 125 40.5c55.333 0 99.166 -15 131.499 -45s48.5 -70 48.5 -120c0 -68.667 -31 -139.667 -93 -213c-48 -56 -79.333 -91.333 -94 -106l-25 -26l-46.5 -48.5c-15 -15.667 -23.833 -24.5 -26.5 -26.5z" />
    <glyph glyph-name="three" unicode="3" horiz-adv-x="482" 
d="M308 335l0.000976562 -3c34 -4.66699 61.833 -18.5 83.5 -41.5s32.5 -57.833 32.5 -104.5c0 -62 -18.167 -109.833 -54.5 -143.5s-87.833 -50.5 -154.5 -50.5c-44 0 -82.167 9.66699 -114.5 29s-55.833 43 -70.5 71l68 43c28 -49.333 70 -74 126 -74
c83.333 0 125 40.333 125 121c0 40.667 -11.833 69.334 -35.5 86.001s-60.834 25 -111.501 25h-42v67h42c44 0 76 10.167 96 30.5s30 51.166 30 92.499c0 32 -9 58 -27 78s-44.333 30 -79 30c-58.667 0 -93.667 -28.667 -105 -86l-77 14c8 40.667 28.333 74.334 61 101.001
s73.667 40 123 40c56.667 0 101.5 -14.833 134.5 -44.5s49.5 -71.5 49.5 -125.5c0 -42.667 -9.33301 -77.334 -28 -104.001s-42.667 -43.667 -72 -51z" />
    <glyph glyph-name="four" unicode="4" horiz-adv-x="496" 
d="M310 157h-268l-18 67l262 428h99v-428h93v-67h-93v-157h-75v157zM315 571h-4l-68 -120l-137 -227h204v205z" />
    <glyph glyph-name="five" unicode="5" horiz-adv-x="502" 
d="M245 -8c-88.667 0 -152.667 37.332 -192 111.999l77 37c23.333 -53.333 64.333 -80 123 -80c40 0 70.167 12.333 90.5 37s30.5 59.334 30.5 104.001c0 87.333 -40.333 131 -121 131c-37.333 0 -68 -12.667 -92 -38l-81 28l28 329h316v-69h-248l-19 -217h5
c28.667 21.333 64 32 106 32c60 0 106 -15.833 138 -47.5s48 -78.5 48 -140.5c0 -67.333 -18.833 -120.5 -56.5 -159.5s-88.5 -58.5 -152.5 -58.5z" />
    <glyph glyph-name="six" unicode="6" horiz-adv-x="506" 
d="M166 398l3.00098 -2.99902c25.333 16.667 61 25 107 25c56.667 0 101.5 -17.333 134.5 -52s49.5 -85 49.5 -151c0 -69.333 -18.833 -124.333 -56.5 -165s-87.167 -61 -148.5 -61c-131.333 0 -197 81 -197 243c0 92 22.167 175 66.5 249s97.166 130.333 158.499 169h109
v-9c-55.333 -32.667 -101.333 -68.334 -138 -107.001s-66 -84.667 -88 -138zM257.001 351.001c-43.333 0 -81.333 -10 -114 -30c-5.33301 -22 -8 -50.333 -8 -85c0 -62 11.5 -107.167 34.5 -135.5s53.5 -42.5 91.5 -42.5c80 0 120 49 120 147c0 97.333 -41.333 146 -124 146
z" />
    <glyph glyph-name="seven" unicode="7" horiz-adv-x="427" 
d="M316 577v4c-30.667 -2 -69 -3 -115 -3h-196v74h377l16 -76l-118 -239c-55.333 -112.667 -83 -216 -83 -310v-27h-77v27c0 100 29.333 212 88 336l52 112z" />
    <glyph glyph-name="eight" unicode="8" horiz-adv-x="538" 
d="M268 363c36.667 0 65.332 10.5 85.999 31.5s31 51.167 31 90.5c0 33.333 -10.167 59.833 -30.5 79.5s-48.833 29.5 -85.5 29.5c-37.333 0 -66.166 -9.33301 -86.499 -28s-30.5 -45 -30.5 -79c0 -39.333 10.167 -69.833 30.5 -91.5s48.833 -32.5 85.5 -32.5zM266.998 -9
c-140 0 -209.999 60.666 -209.999 181.999c0 44 10.833 79 32.5 105s49.167 44 82.5 54v4c-27.333 6 -50 21.333 -68 46s-27 58.334 -27 101.001c0 57.333 18 101.333 54 132s83 46 141 46s104 -14.5 138 -43.5s51 -71.167 51 -126.5c0 -79.333 -32.333 -130 -97 -152v-4
c33.333 -6 61 -21.5 83 -46.5s33 -60.833 33 -107.5c0 -61.333 -18.833 -108.333 -56.5 -141s-89.834 -49 -156.501 -49zM264.999 297.999c-86 0 -129 -40 -129 -120c0 -38.667 11.333 -68.667 34 -90s55.667 -32 99 -32c88.667 0 133 40.333 133 121s-45.667 121 -137 121z
" />
    <glyph glyph-name="nine" unicode="9" horiz-adv-x="497" 
d="M337 262l-2.99902 1.99902c-29.333 -16 -65.333 -24 -108 -24c-56.667 0 -101.834 16.833 -135.501 50.5s-50.5 83.167 -50.5 148.5c0 68 19.167 122 57.5 162s87.833 60 148.5 60c130.667 0 196 -80.333 196 -241c0 -91.333 -22 -174.666 -66 -249.999
s-95.667 -132 -155 -170h-111v9c113.333 66.667 189 151 227 253zM245.001 307.999c40.667 0 78 11.001 112 33.001c4 23.333 6 48.666 6 75.999c0 116.667 -41.333 175 -124 175c-80 0 -120 -47 -120 -141c0 -95.333 42 -143 126 -143z" />
    <glyph glyph-name="colon" unicode=":" horiz-adv-x="221" 
d="M49 467c0 17.333 6 32.166 18 44.499s26.333 18.5 43 18.5c17.333 0 32 -6.16699 44 -18.5s18 -27.166 18 -44.499s-6 -31.833 -18 -43.5s-26.667 -17.5 -44 -17.5s-31.833 6 -43.5 18s-17.5 26.333 -17.5 43zM49 67c0 18 5.83301 33 17.5 45s26.167 18 43.5 18
s32 -6 44 -18s18 -27 18 -45c0 -16.667 -6 -30.834 -18 -42.501s-26.667 -17.5 -44 -17.5c-16.667 0 -31 5.83301 -43 17.5s-18 25.834 -18 42.501z" />
    <glyph glyph-name="semicolon" unicode=";" horiz-adv-x="240" 
d="M59 467c0 18 5.83301 33 17.5 45s25.834 18 42.501 18c18 0 33 -6 45 -18s18 -27 18 -45c0 -16.667 -6 -30.834 -18 -42.501s-27 -17.5 -45 -17.5c-16.667 0 -30.834 5.83301 -42.501 17.5s-17.5 25.834 -17.5 42.501zM66 -143l-20 37.002
c24 9.33301 42.667 21.666 56 36.999s20 31.666 20 48.999c0 9.33301 -1.5 17.5 -4.5 24.5s-8.66699 13.833 -17 20.5s-15 11.5 -20 14.5s-13.5 7.83301 -25.5 14.5v5c0 18 6 33 18 45s27 18 45 18c22 0 40 -8.16699 54 -24.5s21 -38.833 21 -67.5
c0 -42 -13.167 -78.5 -39.5 -109.5s-55.5 -52.167 -87.5 -63.5z" />
    <glyph glyph-name="less" unicode="&#x3c;" horiz-adv-x="526" 
d="M111 344l144 -59l241 -108v-81l-466 214v72l466 214v-81l-241 -108l-144 -59v-4z" />
    <glyph glyph-name="equal" unicode="=" horiz-adv-x="526" 
d="M30 417v69h466v-69h-466zM30 193v69h466v-69h-466z" />
    <glyph glyph-name="greater" unicode="&#x3e;" horiz-adv-x="526" 
d="M414 347l-143 60l-241 108v81l466 -213v-73l-466 -214v81l240 107l144 59v4z" />
    <glyph glyph-name="question" unicode="?" horiz-adv-x="490" 
d="M253 647c-48 0 -88.666 -16.668 -121.999 -50.001l-52 62c42.667 39.333 101.667 59 177 59c56 0 100.167 -13.667 132.5 -41s48.5 -66 48.5 -116c0 -42 -8.66699 -77.333 -26 -106s-44 -59.667 -80 -93l-118 -108c-24 8.66699 -36 24 -36 46
c0 13.333 6.16699 27.5 18.5 42.5s27.166 29.667 44.499 44l52.5 45c17.667 15.667 32.667 33.834 45 54.501s18.5 42 18.5 64c0 30.667 -9 54.5 -27 71.5s-43.333 25.5 -76 25.5zM194.001 58.999c0 17.333 5.83301 32 17.5 44s25.834 18 42.501 18
c17.333 0 31.833 -5.83301 43.5 -17.5s17.5 -26.5 17.5 -44.5c0 -16.667 -5.83301 -30.667 -17.5 -42s-26.167 -17 -43.5 -17c-16.667 0 -30.834 5.66699 -42.501 17s-17.5 25.333 -17.5 42z" />
    <glyph glyph-name="at" unicode="@" horiz-adv-x="916" 
d="M628 -76c-56.667 -37.333 -128.668 -56 -216.001 -56c-110.667 0 -196.5 30.333 -257.5 91s-91.5 143.667 -91.5 249c0 123.333 42.833 228.833 128.5 316.5s190.167 131.5 313.5 131.5c104.667 0 188.834 -28.5 252.501 -85.5s95.5 -132.5 95.5 -226.5
c0 -81.333 -20.167 -149.333 -60.5 -204s-92.833 -82 -157.5 -82c-49.333 0 -80.333 17.333 -93 52h-4c-29.333 -36 -69 -54 -119 -54c-47.333 0 -82.833 14.333 -106.5 43s-35.5 65.667 -35.5 111c0 78.667 22.833 141 68.5 187s100.834 69 165.501 69
c51.333 0 92.666 -9.66699 123.999 -29l-29 -189c-5.33301 -37.333 -8 -63.666 -8 -78.999c0 -31.333 15.333 -47 46 -47c41.333 0 74.333 20.667 99 62s37 92 37 152c0 81.333 -25.333 144 -76 188s-120.667 66 -210 66c-98 0 -182.167 -37.333 -252.5 -112
s-105.5 -162.334 -105.5 -263.001c0 -91.333 24.5 -161 73.5 -209s120.5 -72 214.5 -72c69.333 0 127.333 16 174 48zM431.999 119c22 0 42.167 5.83301 60.5 17.5s31.166 26.167 38.499 43.5c2 28 3.66699 45.333 5 52l23 162c-14 5.33301 -32 8 -54 8
c-45.333 0 -82.666 -16.833 -111.999 -50.5s-44 -76.167 -44 -127.5c0 -70 27.667 -105 83 -105z" />
    <glyph glyph-name="A" unicode="A" horiz-adv-x="594" 
d="M178 275l235.999 0.00195312l-75 236l-21.5 69.5c-12.333 39.667 -18.833 61.5 -19.5 65.5h-4c-0.666992 -4.66699 -7.16699 -26.834 -19.5 -66.501s-19.166 -61.834 -20.499 -66.501zM501.999 0.00195312l-65 204h-282l-65 -204h-82l227 701h124l227 -701h-84z" />
    <glyph glyph-name="B" unicode="B" horiz-adv-x="604" 
d="M412 360c38.667 -4.66699 70 -20.832 94 -48.499s36 -65.5 36 -113.5c0 -60.667 -19.167 -108.834 -57.5 -144.501s-97.5 -53.5 -177.5 -53.5h-213v701h214c59.333 0 107.333 -14.333 144 -43s55 -74 55 -136c0 -42 -8.66699 -77 -26 -105s-40.333 -45.667 -69 -53v-4z
M428 514.002c0 78 -45 117 -135 117h-121v-243h125c44.667 0 77.667 10 99 30s32 52 32 96zM313 70.002c51.333 0 88.833 9.83203 112.5 29.499s35.5 50.834 35.5 93.501c0 83.333 -50.667 125 -152 125h-137v-248h141z" />
    <glyph glyph-name="C" unicode="C" horiz-adv-x="569" 
d="M61 345c0 116 24.666 206 73.999 270s120.333 96 213 96c79.333 0 141.333 -19.333 186 -58l-50 -61c-37.333 31.333 -85.333 47 -144 47c-62.667 0 -111.167 -23.667 -145.5 -71s-51.5 -119.333 -51.5 -216c0 -94.667 17.333 -166.5 52 -215.5s85.667 -73.5 153 -73.5
c61.333 0 107 14.333 137 43l44 -57c-40.667 -39.333 -104.667 -59 -192 -59c-93.333 0 -162.666 31.167 -207.999 93.5s-68 149.5 -68 261.5z" />
    <glyph glyph-name="D" unicode="D" horiz-adv-x="645" 
d="M94 0l0.000976562 701h184c105.333 0 182.666 -27.833 231.999 -83.5s74 -142.5 74 -260.5c0 -238 -102.333 -357 -307 -357h-183zM174.001 630l-0.000976562 -558.999h102c78 0 135.167 21.5 171.5 64.5s54.5 113.833 54.5 212.5
c0 101.333 -19.167 173.666 -57.5 216.999s-96.166 65 -173.499 65h-97z" />
    <glyph glyph-name="E" unicode="E" horiz-adv-x="527" 
d="M480 0h-386v701h372v-71h-292v-239h257v-71h-257v-249h306v-71z" />
    <glyph glyph-name="F" unicode="F" horiz-adv-x="493" 
d="M175 0h-81v701h370v-71h-289v-258h254v-71h-254v-301z" />
    <glyph glyph-name="G" unicode="G" horiz-adv-x="636" 
d="M362 711c86.667 0 150.999 -20 192.999 -60l-52 -61c-33.333 32 -82 48 -146 48c-28 0 -53.667 -4.16699 -77 -12.5s-45.833 -22.5 -67.5 -42.5s-38.667 -49.333 -51 -88s-18.5 -85.334 -18.5 -140.001c0 -102.667 17.667 -177.5 53 -224.5s88.333 -70.5 159 -70.5
c54.667 0 95.667 9.33301 123 28v268h80v-303c-51.333 -42 -124.666 -63 -219.999 -63c-90.667 0 -159.5 30 -206.5 90s-70.5 149.333 -70.5 268c0 120.667 28 211.334 84 272.001s128.333 91 217 91z" />
    <glyph glyph-name="H" unicode="H" horiz-adv-x="687" 
d="M513 701h80v-701h-80v319h-339v-319h-80v701h80v-311h339v311z" />
    <glyph glyph-name="I" unicode="I" horiz-adv-x="288" 
d="M104 0v701h80v-701h-80z" />
    <glyph glyph-name="J" unicode="J" horiz-adv-x="388" 
d="M9 9l26 73c26 -15.333 57.667 -23 95 -23c30 0 51.5 7 64.5 21s19.5 36.333 19.5 67v554h79v-556c0 -47.333 -13.667 -85.5 -41 -114.5s-69.666 -43.5 -126.999 -43.5c-46.667 0 -85.334 7.33301 -116.001 22z" />
    <glyph glyph-name="K" unicode="K" horiz-adv-x="578" 
d="M174 701v-701h-80v701h80zM200 351l247 350h93l-249 -350l272 -351h-102l-261 347v4z" />
    <glyph glyph-name="L" unicode="L" horiz-adv-x="491" 
d="M94 701h80v-630h301v-71h-381v701z" />
    <glyph glyph-name="M" unicode="M" horiz-adv-x="853" 
d="M424 201h6l201 500h127v-701h-77v607h-6l-103 -253l-104 -253h-85l-206 506h-6v-607h-76v701h128z" />
    <glyph glyph-name="N" unicode="N" horiz-adv-x="699" 
d="M176 606l-7.99902 0.000976562c2 -14.667 3 -76.667 3 -186v-420h-76v701h112l236 -444l22 -42l38 -73.5c12 -23.667 19 -37.834 21 -42.501h7c-1.33301 14 -2 76.667 -2 188v414h75v-701h-110l-238 447c-0.666992 0.666992 -7.83398 14.334 -21.501 41.001l-38 75
c-11.667 23.333 -18.5 37.666 -20.5 42.999z" />
    <glyph glyph-name="O" unicode="O" horiz-adv-x="666" 
d="M143 354c0 -104.667 16.5 -179.5 49.5 -224.5s80.167 -67.5 141.5 -67.5c62 0 109 21.667 141 65s48 116.666 48 219.999c0 104.667 -16.5 179.5 -49.5 224.5s-80.5 67.5 -142.5 67.5c-61.333 0 -108 -21.667 -140 -65s-48 -116.666 -48 -219.999zM605 354
c0 -242.667 -92 -364.001 -276 -364.001c-86.667 0 -153 28.333 -199 85s-69 147.334 -69 272.001c0 242.667 92 364 276 364c178.667 0 268 -119 268 -357z" />
    <glyph glyph-name="P" unicode="P" horiz-adv-x="560" 
d="M296 701c72 0 127.833 -16.332 167.5 -48.999s59.5 -83.334 59.5 -152.001c0 -71.333 -20.5 -126.333 -61.5 -165s-101.167 -58 -180.5 -58h-107v-277h-80v701h202zM278 630.001h-104v-283h107c56.667 0 97.334 12 122.001 36s37 60 37 108c0 48.667 -13.333 84 -40 106
s-67.334 33 -122.001 33z" />
    <glyph glyph-name="Q" unicode="Q" horiz-adv-x="672" 
d="M453 11l194 -116.999l-83 -46l-206 144c-54 -3.33301 -100.5 3 -139.5 19s-69.5 40.5 -91.5 73.5s-38 71 -48 114s-15 92.5 -15 148.5c0 242.667 92 364 276 364c87.333 0 154 -28.333 200 -85s69 -147.334 69 -272.001c0 -184.667 -52 -297.667 -156 -339v-4z
M146 354.001c0 -104.667 16.5 -179.5 49.5 -224.5s80.5 -67.5 142.5 -67.5s109 21.667 141 65s48 116.666 48 219.999c0 105.333 -16.333 180.333 -49 225s-80.334 67 -143.001 67c-61.333 0 -108.166 -21.667 -140.499 -65s-48.5 -116.666 -48.5 -219.999z" />
    <glyph glyph-name="R" unicode="R" horiz-adv-x="595" 
d="M94 701h176.001c156 0 234 -65.667 234 -197c0 -54.667 -15.167 -99 -45.5 -133s-67.833 -53.333 -112.5 -58v-4c29.333 -13.333 57.666 -43.333 84.999 -90l129 -219h-95l-127 224c-26 44.667 -62.333 67 -109 67h-55v-291h-80v701zM174.001 630v-270h90
c105.333 0 158 45 158 135c0 48 -13.5 82.5 -40.5 103.5s-67.833 31.5 -122.5 31.5h-85z" />
    <glyph glyph-name="S" unicode="S" horiz-adv-x="533" 
d="M257 62c46 0 81.834 11.001 107.501 33.001s38.5 50 38.5 84c0 21.333 -6.16699 40.333 -18.5 57s-28.333 30.667 -48 42s-41.334 22.333 -65.001 33s-47.334 22 -71.001 34s-45.334 25.5 -65.001 40.5s-35.667 34.167 -48 57.5s-18.5 50 -18.5 80
c0 53.333 20.5 98 61.5 134s92.833 54 155.5 54c72.667 0 133 -19.667 181 -59l-49 -62c-40 32 -85.667 48 -137 48c-40 0 -71.833 -10.167 -95.5 -30.5s-35.5 -46.833 -35.5 -79.5c0 -22 6.16699 -41.5 18.5 -58.5s28.333 -31.333 48 -43s41.334 -22.834 65.001 -33.501
s47.334 -22 71.001 -34s45.334 -25.333 65.001 -40s35.667 -33.5 48 -56.5s18.5 -49.167 18.5 -78.5c0 -55.333 -20.833 -101.5 -62.5 -138.5s-98.834 -55.5 -171.501 -55.5c-91.333 0 -164.333 24.667 -219 74l47 64c53.333 -44 113 -66 179 -66z" />
    <glyph glyph-name="T" unicode="T" horiz-adv-x="477" 
d="M199 0v630h-187v71h453v-71h-186v-630h-80z" />
    <glyph glyph-name="U" unicode="U" horiz-adv-x="680" 
d="M343 62c110.667 0 166 57.333 166 172v467h80v-457c0 -82.667 -22.5 -145.667 -67.5 -189s-107.5 -65 -187.5 -65c-78 0 -138 21.333 -180 64s-63 102 -63 178v469h80v-457c0 -61.333 15.167 -107 45.5 -137s72.5 -45 126.5 -45z" />
    <glyph glyph-name="V" unicode="V" horiz-adv-x="600" 
d="M239 0l-229 701.002h87l161 -504c0.666992 -2.66699 4.5 -14.834 11.5 -36.501l20 -63c6.33301 -20.333 9.83301 -32.5 10.5 -36.5h4c1.33301 5.33301 8.5 28.666 21.5 69.999s19.833 63.333 20.5 66l162 504h82l-229 -701h-122z" />
    <glyph glyph-name="W" unicode="W" horiz-adv-x="926" 
d="M249 76l4.00098 0.00195312c0.666992 6.66699 8 38 22 94l21 85l110 446h115l114 -451c27.333 -110.667 41.333 -168.334 42 -173.001h4c0 4 3.33301 19.5 10 46.5l21 85c7.33301 29.667 11.333 46.167 12 49.5l113 443h79l-180 -701h-116l-112 448
c-28.667 113.333 -43.334 173.666 -44.001 180.999h-4c-0.666992 -7.33301 -7.16699 -36.5 -19.5 -87.5s-19.5 -80.167 -21.5 -87.5l-114 -454h-115l-181 701h83l112 -434c29.333 -117.333 44.333 -181 45 -191z" />
    <glyph glyph-name="X" unicode="X" horiz-adv-x="588" 
d="M293 296h-5l-180 -296h-91l229 360l-216 341h95l168 -275h5l166 275h90l-214 -339l231 -362h-95z" />
    <glyph glyph-name="Y" unicode="Y" horiz-adv-x="541" 
d="M542 701l-232 -448v-253h-79v253l-232 448h91l181 -366h4l181 366h86z" />
    <glyph glyph-name="Z" unicode="Z" horiz-adv-x="516" 
d="M124 76v-4h355v-72h-438l-13 72l354 553v4h-322v72h403l13 -72z" />
    <glyph glyph-name="bracketleft" unicode="[" horiz-adv-x="308" 
d="M169 747v-902h119v-60h-192v1021h192v-59h-119z" />
    <glyph glyph-name="backslash" unicode="\" horiz-adv-x="338" 
d="M69 730l271 -865h-70l-272 865h71z" />
    <glyph glyph-name="bracketright" unicode="]" horiz-adv-x="308" 
d="M139 747h-119v59h192v-1021h-192v60h119v902z" />
    <glyph glyph-name="asciicircum" unicode="^" horiz-adv-x="529" 
d="M262 647l-58 -144l-83 -192h-79l175 390h96l174 -389h-79l-83 192l-59 143h-4z" />
    <glyph glyph-name="underscore" unicode="_" horiz-adv-x="486" 
d="M486 -118h-486v67h486v-67z" />
    <glyph glyph-name="grave" unicode="`" horiz-adv-x="502" 
d="M128 746l75 42l171 -128l-48 -36z" />
    <glyph glyph-name="a" unicode="a" horiz-adv-x="545" 
d="M364 127l-0.000976562 122.001c-69.333 2.66699 -125.666 -5 -168.999 -23s-65 -46.667 -65 -86c0 -24.667 8.66699 -45.334 26 -62.001s41.333 -25 72 -25c28.667 0 55 7.16699 79 21.5s43 31.833 57 52.5zM250.999 552.001c123.333 0 184.998 -55.001 184.998 -165.001
v-246c0 -54.667 17.667 -82 53 -82h14v-57c-7.33301 -4 -16.666 -6 -27.999 -6c-50.667 0 -83.667 22 -99 66h-4c-42 -48.667 -96 -73 -162 -73c-48 0 -86.167 14.333 -114.5 43s-42.5 62.667 -42.5 102c0 59.333 27.333 103.833 82 133.5s131 43.834 229 42.501v59
c0 42.667 -9.66699 72.5 -29 89.5s-48 25.5 -86 25.5c-55.333 0 -96.666 -22 -123.999 -66l-57 45c43.333 59.333 104.333 89 183 89z" />
    <glyph glyph-name="b" unicode="b" horiz-adv-x="557" 
d="M83 19v740h77v-252h4c34 28 78 42 132 42c61.333 0 111.166 -21.333 149.499 -64s57.5 -108 57.5 -196c0 -91.333 -22.667 -164 -68 -218s-111.666 -81 -198.999 -81c-64.667 0 -115.667 9.66699 -153 29zM248 58c54.667 0 97.832 18.668 129.499 56.001
s47.5 92 47.5 164c0 72.667 -14.167 124.667 -42.5 156s-64.166 47 -107.499 47c-22 0 -43.5 -4.83301 -64.5 -14.5s-37.5 -22.834 -49.5 -39.501v-354c23.333 -10 52.333 -15 87 -15z" />
    <glyph glyph-name="c" unicode="c" horiz-adv-x="472" 
d="M54 264c0 96 21.002 168.167 63.002 216.5s98 72.5 168 72.5s121.667 -19 155 -57l-52 -57c-28.667 30 -64.334 45 -107.001 45c-98 0 -147 -70 -147 -210c0 -142.667 49 -214 147 -214c45.333 0 80.666 14.333 105.999 43l48 -54c-34 -38.667 -87.667 -58 -161 -58
c-146.667 0 -220 91 -220 273z" />
    <glyph glyph-name="d" unicode="d" horiz-adv-x="559" 
d="M399 535l-0.00195312 224h77v-759h-58l-17 55h-4c-12 -18 -30.5 -33.5 -55.5 -46.5s-53.833 -19.5 -86.5 -19.5c-63.333 0 -112.666 21.5 -147.999 64.5s-53 107.833 -53 194.5c0 96 23.333 169.333 70 220s109.334 76 188.001 76c28 0 57 -3 87 -9zM271.998 56
c60.667 0 103 29.334 127 88.001v319c-26 8.66699 -53.667 13 -83 13c-122 0 -183 -73 -183 -219c0 -70.667 13 -121.834 39 -153.501s59.333 -47.5 100 -47.5z" />
    <glyph glyph-name="e" unicode="e" horiz-adv-x="543" 
d="M429 102l35.001 -60c-43.333 -32.667 -100.333 -49 -171 -49c-80 0 -139.833 22.167 -179.5 66.5s-59.5 116.166 -59.5 215.499c0 92.667 22 162.167 66 208.5s99 69.5 165 69.5c63.333 0 112.166 -19 146.499 -57s51.5 -90 51.5 -156c0 -27.333 -2 -58.666 -6 -93.999
h-346c3.33301 -66 19 -113.333 47 -142s69.667 -43 125 -43c25.333 0 49.5 4 72.5 12s40.833 17.667 53.5 29zM278.001 486c-39.333 0 -72.668 -13.999 -100.001 -41.999s-42.666 -72.667 -45.999 -134h273c0.666992 7.33301 1 17.666 1 30.999
c0 96.667 -42.667 145 -128 145z" />
    <glyph glyph-name="f" unicode="f" horiz-adv-x="359" 
d="M358 756l-16.002 -66c-19.333 6.66699 -43.666 10 -72.999 10c-25.333 0 -43.666 -6 -54.999 -18s-17 -30.333 -17 -55v-83h141v-61h-142v-483h-78v483h-90v61h91v82c0 43.333 13 77.833 39 103.5s64.667 38.5 116 38.5c32 0 60 -4 84 -12z" />
    <glyph glyph-name="g" unicode="g" horiz-adv-x="557" 
d="M474 521l0.000976562 -524.999c0 -70 -19.833 -123.167 -59.5 -159.5s-94.5 -54.5 -164.5 -54.5c-80.667 0 -140.334 19.333 -179.001 58l45 62c34 -34 81.667 -51 143 -51c48.667 0 84 11.833 106 35.5s33 60.167 33 109.5v50h-4c-32.667 -28.667 -77 -43 -133 -43
c-60.667 0 -110.334 20.667 -149.001 62s-58 105.666 -58 192.999c0 90 22.333 161 67 213s110.667 78 198 78c64.667 0 116.334 -9.33301 155.001 -28zM397.001 466.001c-25.333 10 -54.999 15 -88.999 15c-54 0 -96.667 -18 -128 -54s-47 -89 -47 -159
c0 -131.333 49.667 -197 149 -197c49.333 0 87.666 17.667 114.999 53v342z" />
    <glyph glyph-name="h" unicode="h" horiz-adv-x="574" 
d="M322 553c52.667 0 94.502 -15.667 125.502 -47s46.5 -74.666 46.5 -129.999v-376h-78v364c0 35.333 -9.5 64.166 -28.5 86.499s-46.167 33.5 -81.5 33.5c-34.667 0 -64.834 -9.5 -90.501 -28.5s-43.834 -41.5 -54.501 -67.5v-388h-78v759h78v-275h4
c38.667 46 91 69 157 69z" />
    <glyph glyph-name="i" unicode="i" horiz-adv-x="289" 
d="M109 0v544h78v-544h-78zM87 703c0 16.667 5.5 30.334 16.5 41.001s24.167 16 39.5 16c16.667 0 30.5 -5.33301 41.5 -16s16.5 -24.334 16.5 -41.001c0 -16 -5.5 -29.333 -16.5 -40s-24.833 -16 -41.5 -16c-15.333 0 -28.5 5.33301 -39.5 16s-16.5 24 -16.5 40z" />
    <glyph glyph-name="j" unicode="j" horiz-adv-x="253" 
d="M1 -221l-27.001 65c36.667 12.667 64.834 32.5 84.501 59.5s29.5 71.167 29.5 132.5v508h78v-510c0 -136 -55 -221 -165 -255zM66.999 703c0 16.667 5.33301 30.334 16 41.001s24 16 40 16c16.667 0 30.334 -5.33301 41.001 -16s16 -24.334 16 -41.001
c0 -16 -5.33301 -29.333 -16 -40s-24.334 -16 -41.001 -16c-16 0 -29.333 5.33301 -40 16s-16 24 -16 40z" />
    <glyph glyph-name="k" unicode="k" horiz-adv-x="501" 
d="M161 759v-759h-78v759h78zM176 279v4l195 261h97l-201 -259v-4l213 -281h-99z" />
    <glyph glyph-name="l" unicode="l" horiz-adv-x="288" 
d="M89 759h77.001v-630c0 -24 4.5 -41.5 13.5 -52.5s23.5 -16.5 43.5 -16.5c15.333 0 30.333 3.66699 45 11v-66c-18 -8 -40.667 -12 -68 -12c-36.667 0 -64.334 10 -83.001 30s-28 48.333 -28 85v651z" />
    <glyph glyph-name="m" unicode="m" horiz-adv-x="859" 
d="M452 469c11.333 24.667 30.667 45.166 58 61.499s61 24.5 101 24.5c54.667 0 96.334 -15.167 125.001 -45.5s43 -75.166 43 -134.499v-375h-77v359c0 41.333 -9.33301 72.833 -28 94.5s-45 32.5 -79 32.5c-31.333 0 -58 -9 -80 -27s-37 -39.333 -45 -64v-395h-78v353
c0 43.333 -9.33301 76.333 -28 99s-45.334 34 -80.001 34c-32 0 -59 -9.66699 -81 -29s-36 -42 -42 -68v-389h-78v544h60l16 -58h4c30 46 77 69 141 69c72.667 0 120.667 -28.667 144 -86h4z" />
    <glyph glyph-name="n" unicode="n" horiz-adv-x="574" 
d="M494 375v-375h-78v357c0 41.333 -10 73.166 -30 95.499s-49 33.5 -87 33.5c-32 0 -60.5 -9.16699 -85.5 -27.5s-42.5 -41.5 -52.5 -69.5v-389h-78v544h59l16 -57h4c12 14.667 31.5 29.667 58.5 45s59.167 23 96.5 23c55.333 0 98.333 -15.167 129 -45.5
s46.667 -75.166 48 -134.499z" />
    <glyph glyph-name="o" unicode="o" horiz-adv-x="559" 
d="M134 277c0 -74 11.833 -128.833 35.5 -164.5s61.167 -53.5 112.5 -53.5s88 17 110 51s33 87.333 33 160c0 74 -11.833 128.667 -35.5 164s-61.5 53 -113.5 53c-50.667 0 -87 -17 -109 -51s-33 -87 -33 -159zM276 -9c-148 0 -222 93.334 -222 280.001
c0 188.667 76 283 228 283c148.667 0 223 -92.667 223 -278c0 -88.667 -18.5 -158.334 -55.5 -209.001s-94.833 -76 -173.5 -76z" />
    <glyph glyph-name="p" unicode="p" horiz-adv-x="559" 
d="M505 294c0 -93.333 -23.332 -165.833 -69.999 -217.5s-109.667 -77.5 -189 -77.5c-30.667 0 -59.334 3 -86.001 9v-202h-77v738h58l17 -55h4c32 43.333 79 65 141 65c64 0 113.667 -21.667 149 -65s53 -108.333 53 -195zM160.001 80c22.667 -8 50.001 -12 82.001 -12
c122.667 0 184 72.333 184 217c0 70.667 -13.333 122 -40 154s-60.334 48 -101.001 48c-56 0 -97.667 -25.333 -125 -76v-331z" />
    <glyph glyph-name="q" unicode="q" horiz-adv-x="557" 
d="M474 520l-0.000976562 -714h-76v226h-4c-34 -28 -78.667 -42 -134 -42c-60.667 0 -110.167 21.333 -148.5 64s-57.5 108 -57.5 196c0 91.333 22.333 164 67 218s110.667 81 198 81c64.667 0 116.334 -9.66699 155.001 -29zM306.999 481c-54 0 -96.5 -19 -127.5 -57
s-46.5 -92.667 -46.5 -164c0 -73.333 14 -125.333 42 -156s63.667 -46 107 -46c22 0 43.5 4.83301 64.5 14.5s37.833 22.5 50.5 38.5v354c-23.333 10.667 -53.333 16 -90 16z" />
    <glyph glyph-name="r" unicode="r" horiz-adv-x="361" 
d="M355 548l0.000976562 -81.001c-18 5.33301 -38.333 8 -61 8c-28.667 0 -55 -5.83301 -79 -17.5s-42.333 -29.167 -55 -52.5v-405h-77v544h59l17 -60h4c12.667 20.667 31 37.334 55 50.001s51.333 19 82 19c23.333 0 41.666 -1.66699 54.999 -5z" />
    <glyph glyph-name="s" unicode="s" horiz-adv-x="474" 
d="M339 144c0 22.667 -9.5 41.333 -28.5 56s-41.833 26.667 -68.5 36s-53.5 19.5 -80.5 30.5s-50 27.833 -69 50.5s-28.5 51 -28.5 85c0 41.333 16.833 76.833 50.5 106.5s78.834 44.5 135.501 44.5c69.333 0 122.333 -19.333 159 -58l-50 -54c-28 29.333 -65 44 -111 44
c-35.333 0 -62 -7.66699 -80 -23s-27 -34.666 -27 -57.999c0 -22 9.5 -40.333 28.5 -55s41.833 -26.667 68.5 -36s53.5 -19.5 80.5 -30.5s50 -28 69 -51s28.5 -51.5 28.5 -85.5c0 -41.333 -17 -77.5 -51 -108.5s-81.667 -46.5 -143 -46.5c-42 0 -79.833 6.66699 -113.5 20
s-59.834 29.666 -78.501 48.999l48 58c38.667 -40 88 -60 148 -60c36 0 63.833 8.16699 83.5 24.5s29.5 36.833 29.5 61.5z" />
    <glyph glyph-name="t" unicode="t" horiz-adv-x="381" 
d="M239 -5c-92.667 0 -139 50 -139 150v336h-81v50l81 15l24 141h53v-143h150v-63h-150v-332c0 -57.333 26.333 -86 79 -86c35.333 0 63 6.33301 83 19l22 -62c-29.333 -16.667 -70 -25 -122 -25z" />
    <glyph glyph-name="u" unicode="u" horiz-adv-x="575" 
d="M80 172v372h78v-356c0 -88 39.667 -132 119 -132c40 0 72.667 11.333 98 34s38.333 55 39 97v357h78v-544h-61l-15 57h-4c-11.333 -16 -30 -31.333 -56 -46s-59 -22 -99 -22c-115.333 0 -174.333 61 -177 183z" />
    <glyph glyph-name="v" unicode="v" horiz-adv-x="483" 
d="M96 544l105.999 -326c14.667 -44 28 -91.667 40 -143h4c6.66699 29.333 20.334 77 41.001 143l104 326h81l-184 -544h-90l-187 544h85z" />
    <glyph glyph-name="w" unicode="w" horiz-adv-x="756" 
d="M382 464h-4.00098l-116 -464h-105l-144 544h80l76 -300c17.333 -68 31 -126.333 41 -175h4c13.333 64 25 115.333 35 154l82 321h100l80 -321c16.667 -70 28.334 -121.333 35.001 -154h4c14.667 67.333 28.667 126 42 176l77 299h75l-146 -544h-105z" />
    <glyph glyph-name="x" unicode="x" horiz-adv-x="480" 
d="M371 0l-131 221h-4l-127 -221h-91l176 283l-166 261h90l122 -202h4l116 202h91l-165 -263l175 -281h-90z" />
    <glyph glyph-name="y" unicode="y" horiz-adv-x="498" 
d="M27 -199l12.0029 68.999c16.667 -6 33.667 -9 51 -9c34 0 61 9.5 81 28.5s36 49.5 48 91.5l-197 563h84l88 -267c27.333 -83.333 47.666 -149.333 60.999 -198h4c10 44.667 28.667 110.667 56 198l84 267h81l-192 -582c-18.667 -55.333 -43.334 -97.666 -74.001 -126.999
s-72.334 -44 -125.001 -44c-24 0 -44.667 3.33301 -62 10z" />
    <glyph glyph-name="z" unicode="z" horiz-adv-x="449" 
d="M122 72v-4h281v-68h-355l-12 77l272 395v4h-251v68h322l16 -77z" />
    <glyph glyph-name="braceleft" unicode="{" horiz-adv-x="330" 
d="M66 335c31.333 4.66699 54.167 15.165 68.5 31.498s21.5 39.5 21.5 69.5c0 21.333 -4 56.833 -12 106.5s-12 88.834 -12 117.501c0 100.667 46 151 138 151c21.333 0 40.333 -3.33301 57 -10l-12 -57c-14.667 5.33301 -29 8 -43 8c-44.667 0 -67 -31.333 -67 -94
c0 -24 3.83301 -61.167 11.5 -111.5s11.5 -86.166 11.5 -107.499c0 -75.333 -30.667 -122 -92 -140v-4c61.333 -18.667 92 -65.667 92 -141c0 -21.333 -3.83301 -57.5 -11.5 -108.5s-11.5 -88.5 -11.5 -112.5c0 -62.667 22.333 -94 67 -94c14 0 28.333 2.66699 43 8l12 -57
c-16.667 -6.66699 -35 -10 -55 -10c-93.333 0 -140 50.333 -140 151c0 28.667 4 68.167 12 118.5s12 86.5 12 108.5c0 57.333 -30 91 -90 101v76z" />
    <glyph glyph-name="bar" unicode="|" horiz-adv-x="271" 
d="M166 -248h-61v1086h61v-1086z" />
    <glyph glyph-name="braceright" unicode="}" horiz-adv-x="330" 
d="M264 335v-75.998c-60 -10 -90 -43.667 -90 -101c0 -22 3.83301 -58.167 11.5 -108.5s11.5 -89.833 11.5 -118.5c0 -100.667 -46.333 -151 -139 -151c-20 0 -38.333 3.33301 -55 10l12 57c14.667 -5.33301 28.667 -8 42 -8c44.667 0 67 31.333 67 94
c0 24 -3.83301 61.5 -11.5 112.5s-11.5 87.167 -11.5 108.5c0 74.667 31 121.667 93 141v4c-62 18 -93 64.667 -93 140c0 21.333 3.83301 57.166 11.5 107.499s11.5 87.5 11.5 111.5c0 62.667 -22.333 94 -67 94c-13.333 0 -27.333 -2.66699 -42 -8l-12 57
c16.667 6.66699 35.334 10 56.001 10c92 0 138 -50.333 138 -151c0 -28.667 -3.83301 -67.834 -11.5 -117.501s-11.5 -85.167 -11.5 -106.5c0 -30 7.16699 -53.167 21.5 -69.5s37.166 -26.833 68.499 -31.5z" />
    <glyph glyph-name="asciitilde" unicode="~" horiz-adv-x="529" 
d="M24 259c-0.666992 4.66699 -1 12.6689 -1 24.002c0 36 10 64.333 30 85s47.333 31 82 31c32.667 0 77.5 -12.5 134.5 -37.5s97.167 -37.5 120.5 -37.5c32.667 0 49 18 49 54c0 8 -1 16.667 -3 26l30 -4c20 -2 32.667 -3.66699 38 -5c0.666992 -6 1 -16 1 -30
c-0.666992 -34.667 -11 -61.834 -31 -81.501s-46.667 -29.5 -80 -29.5s-78.666 12.667 -135.999 38s-97.333 38 -120 38c-32.667 0 -49 -18 -49 -54c0 -8 1 -16.667 3 -26c-0.666992 0 -10.834 1.16699 -30.501 3.5s-32.167 4.16602 -37.5 5.49902z" />
    <glyph glyph-name="exclamdown" unicode="&#xa1;" horiz-adv-x="283" 
d="M113 285h61.999c1.33301 -46 4.83301 -125.667 10.5 -239s8.83398 -180 9.50098 -200h-102l10.5 236c5 112 8.16699 179.667 9.5 203zM201.999 495c0 -17.333 -5.83301 -31.833 -17.5 -43.5s-25.5 -17.5 -41.5 -17.5c-17.333 0 -32 5.83301 -44 17.5s-18 26.167 -18 43.5
c0 16.667 6 30.667 18 42s26.667 17 44 17c16 0 29.833 -5.66699 41.5 -17s17.5 -25.333 17.5 -42z" />
    <glyph glyph-name="cent" unicode="&#xa2;" horiz-adv-x="471" 
d="M177 -128h-58.999l51 141c-76.667 36 -115 119.667 -115 251c0 96 21.167 168.167 63.5 216.5s98.166 72.5 167.499 72.5c28 0 53.667 -3.33301 77 -10l44 121h59l-53 -144c6.66699 -4.66699 16 -13 28 -25l-57 -56l-137 -376c11.333 -2 23 -3 35 -3
c44.667 0 80 14.667 106 44l47 -55c-31.333 -38.667 -85 -58 -161 -58c-16 0 -33 1.66699 -51 5zM133.001 274c0 -92.667 20.667 -155.333 62 -188h1l141 389c-14 6.66699 -33 10 -57 10c-98 0 -147 -70.333 -147 -211z" />
    <glyph glyph-name="sterling" unicode="&#xa3;" horiz-adv-x="546" 
d="M148 73l-0.000976562 -4h365v-69h-442l-14 72c46 24.667 70.667 69.667 74 135l8 103h-77v66h81l10 125c4.66699 63.333 25.5 111.666 62.5 144.999s84.5 50 142.5 50c68.667 0 121.334 -21 158.001 -63l-53 -56c-28 33.333 -67 50 -117 50c-69.333 0 -107 -41 -113 -123
l-10 -128h214v-66h-219l-7 -101c-5.33301 -67.333 -26.333 -112.666 -63 -135.999z" />
    <glyph glyph-name="currency" unicode="&#xa4;" horiz-adv-x="528" 
d="M47 324c0 48 13.333 90.667 40 128l-60 61l50 49l60 -61c38 27.333 81.333 41 130 41c46.667 0 88.667 -12.333 126 -37l58 57l50 -49l-58 -58c25.333 -36 38 -77.667 38 -125s-14 -90.333 -42 -129l62 -61l-50 -49l-62 61c-37.333 -26 -80 -39 -128 -39
s-89.667 12 -125 36l-59 -58l-50 49l58 58c-25.333 35.333 -38 77.333 -38 126zM115 328c0 -43.333 14 -79.168 42 -107.501s63.667 -42.5 107 -42.5s79 14 107 42s42 63.667 42 107c0 42.667 -14 78.334 -42 107.001s-63.667 43 -107 43s-79 -14.167 -107 -42.5
s-42 -63.833 -42 -106.5z" />
    <glyph glyph-name="yen" unicode="&#xa5;" horiz-adv-x="517" 
d="M21 325h159l-179 366h91l105 -223l61 -147h4l63 149l105 221h86l-181 -366h159v-68h-196v-257h-79v257h-198v68z" />
    <glyph glyph-name="brokenbar" unicode="&#xa6;" horiz-adv-x="273" 
d="M167 396h-61v342h61v-342zM167 -152h-61v342h61v-342z" />
    <glyph glyph-name="section" unicode="&#xa7;" horiz-adv-x="573" 
d="M415 11l4.99805 -0.000976562c22.667 32.667 34 71.334 34 116.001c0 34.667 -10.167 67 -30.5 97s-45 56.167 -74 78.5l-87.5 67c-29.333 22.333 -54.5 48 -75.5 77s-31.833 59.833 -32.5 92.5c0 11.333 1.66699 24.666 5 39.999h-4c-20 -30.667 -30 -68.667 -30 -114
c0 -33.333 10.167 -64.666 30.5 -93.999s44.833 -55 73.5 -77l86.5 -66.5c29 -22.333 53.833 -48 74.5 -77s31.334 -59.833 32.001 -92.5c0.666992 -13.333 -1.66602 -29 -6.99902 -47zM112.998 -129.001l11.998 66.001c24.667 -9.33301 52.334 -14 83.001 -14
c54.667 0 94.834 11.5 120.501 34.5s38.5 51.167 38.5 84.5c0 26.667 -10.333 52.334 -31 77.001s-45.5 47.667 -74.5 69s-58.167 44 -87.5 68s-54.333 53.667 -75 89s-31 74 -31 116c0 75.333 26.667 140.166 80 194.499s123.333 81.5 210 81.5c30.667 0 57.667 -3 81 -9
l-12 -64c-24.667 7.33301 -48.334 11 -71.001 11c-48 0 -85 -10.333 -111 -31s-39 -48 -39 -82c0 -24 7.5 -47.5 22.5 -70.5s34 -43.5 57 -61.5l74 -60c26.333 -22 51 -43.833 74 -65.5s42 -48 57 -79s22.5 -63.833 22.5 -98.5c0 -74.667 -28.167 -137.834 -84.5 -189.501
s-131.166 -77.5 -224.499 -77.5c-32.667 0 -63 3.66699 -91 11z" />
    <glyph glyph-name="dieresis" unicode="&#xa8;" horiz-adv-x="502" 
d="M106 710c0 14 4.5 25.667 13.5 35s20.833 14 35.5 14c14 0 25.667 -4.66699 35 -14s14 -21 14 -35s-4.66699 -25.667 -14 -35s-21 -14 -35 -14c-14.667 0 -26.5 4.66699 -35.5 14s-13.5 21 -13.5 35zM297 710c0 14 4.83301 25.667 14.5 35s21.5 14 35.5 14
s25.667 -4.66699 35 -14s14 -21 14 -35s-4.66699 -25.667 -14 -35s-21 -14 -35 -14s-25.833 4.66699 -35.5 14s-14.5 21 -14.5 35z" />
    <glyph glyph-name="copyright" unicode="&#xa9;" horiz-adv-x="833" 
d="M123 346c0 -85.333 27.668 -156 83.001 -212s125.666 -84 210.999 -84s155.5 27.5 210.5 82.5s82.5 125.167 82.5 210.5c0 86 -27.5 156.833 -82.5 212.5s-125.5 83.5 -211.5 83.5s-156.333 -27.5 -211 -82.5s-82 -125.167 -82 -210.5zM55.001 343
c0 104 34.333 189.833 103 257.5s155 101.5 259 101.5c106 0 192.667 -33.333 260 -100s101 -152 101 -256c0 -103.333 -34.333 -188.833 -103 -256.5s-155 -101.5 -259 -101.5c-106 0 -192.667 33.167 -260 99.5s-101 151.5 -101 255.5zM260.001 342
c0 65.333 15.4971 116.167 46.4971 152.5s72.167 54.5 123.5 54.5c52.667 0 89.334 -13.667 110.001 -41l-36 -47c-19.333 21.333 -44.666 32 -75.999 32s-56.166 -12 -74.499 -36s-27.5 -60.667 -27.5 -110c0 -97.333 34.667 -146 104 -146c30 0 54.667 10.333 74 31
l34 -47c-28 -26.667 -65.667 -40 -113 -40c-52 0 -92.5 16.5 -121.5 49.5s-43.5 82.167 -43.5 147.5z" />
    <glyph glyph-name="guillemotleft" unicode="&#xab;" horiz-adv-x="492" 
d="M243 270l153 212l51 -40l-118 -172l118 -171l-51 -39zM44 270l153 212l51 -40l-118 -172l118 -171l-51 -39z" />
    <glyph glyph-name="logicalnot" unicode="&#xac;" horiz-adv-x="528" 
d="M507 192h-69v187h-418v66h487v-253z" />
    <glyph glyph-name="registered" unicode="&#xae;" horiz-adv-x="510" 
d="M254 334c48 0 87.666 15.668 118.999 47.001s47 71.333 47 120s-15.667 88.667 -47 120s-70.666 47 -117.999 47c-48 0 -87.5 -15.333 -118.5 -46s-46.5 -70.667 -46.5 -120c0 -48.667 15.667 -88.834 47 -120.501s70.333 -47.5 117 -47.5zM253.999 293.001
c-61.333 0 -111.501 19 -150.501 57s-58.5 88 -58.5 150c0 61.333 19.833 111.666 59.5 150.999s89.834 59 150.501 59c62 0 112.667 -19 152 -57s59 -88 59 -150c0 -61.333 -20 -111.666 -60 -150.999s-90.667 -59 -152 -59zM253.998 479.001l-23 0.000976562v-81h-42v218
h70c49.333 0 74 -21.333 74 -64c0 -34.667 -13.333 -55.334 -40 -62.001l53 -92h-50zM230.998 515.002h25c22.667 0 34 11 34 33c0 21.333 -10.333 32 -31 32h-28v-65z" />
    <glyph glyph-name="macron" unicode="&#xaf;" horiz-adv-x="502" 
d="M403 668h-305v62h305v-62z" />
    <glyph glyph-name="degree" unicode="&#xb0;" horiz-adv-x="348" 
d="M33 560c0 41.333 13.499 75.167 40.499 101.5s61.167 39.5 102.5 39.5c42 0 75.833 -12.5 101.5 -37.5s38.5 -58.167 38.5 -99.5c0 -40.667 -13.667 -74.167 -41 -100.5s-61.666 -39.5 -102.999 -39.5s-74.833 12.5 -100.5 37.5s-38.5 57.833 -38.5 98.5zM87.999 563.001
c0 -25.333 8.50195 -46.666 25.502 -63.999s37.833 -26 62.5 -26c25.333 0 45.666 8.5 60.999 25.5s23 38.167 23 63.5s-8.33301 46.666 -25 63.999s-37.667 26 -63 26c-24.667 0 -44.834 -8.5 -60.501 -25.5s-23.5 -38.167 -23.5 -63.5z" />
    <glyph glyph-name="plusminus" unicode="&#xb1;" horiz-adv-x="526" 
d="M496 305h-198v-194h198v-69h-466v69h197v194h-197v69h197v199h71v-199h198v-69z" />
    <glyph glyph-name="twosuperior" unicode="&#xb2;" horiz-adv-x="349" 
d="M166 503l-60.999 -56.999c24.667 0.666992 51 1 79 1h126v-53h-277l-9 49c105.333 105.333 160.333 161.333 165 168c30 33.333 45 63.666 45 90.999c0 42 -22 63 -66 63c-19.333 0 -35 -5.83301 -47 -17.5s-19.667 -25.834 -23 -42.501l-64 15
c7.33301 28 22.333 51 45 69s52.667 27 90 27c41.333 0 73.333 -9.83301 96 -29.5s34 -46.167 34 -79.5c0 -42 -21 -85.667 -63 -131c-2.66699 -3.33301 -14.334 -15.666 -35.001 -36.999z" />
    <glyph glyph-name="threesuperior" unicode="&#xb3;" horiz-adv-x="351" 
d="M301 706c0 -49.333 -20 -82.999 -60 -100.999c48 -10.667 72 -42 72 -94c0 -40.667 -13 -71.834 -39 -93.501s-63.333 -32.5 -112 -32.5c-61.333 0 -105.333 22.333 -132 67l51 32c20.667 -32 50 -48 88 -48c54 0 81 24 81 72c0 24 -7.83301 41.5 -23.5 52.5
s-40.5 16.5 -74.5 16.5h-34v47h34c56.667 0 85 25.333 85 76c0 18.667 -6 34.167 -18 46.5s-29.667 18.5 -53 18.5c-37.333 0 -61 -18.333 -71 -55l-60 12c5.33301 27.333 19.833 49.833 43.5 67.5s53.5 26.5 89.5 26.5c41.333 0 73.833 -9.5 97.5 -28.5
s35.5 -46.167 35.5 -81.5z" />
    <glyph glyph-name="acute" unicode="&#xb4;" horiz-adv-x="502" 
d="M374 746l-198 -122l-48 36l170 128z" />
    <glyph glyph-name="uni00B5" unicode="&#xb5;" horiz-adv-x="606" 
d="M554 64c2 0 6.33301 0.666992 13 2v-63c-12 -3.33301 -23 -5 -33 -5c-53.333 0 -86.666 25.333 -99.999 76h-4c-28 -55.333 -79.333 -83 -154 -83c-48 0 -86.667 14.667 -116 44v-229h-77v738h78v-346c0 -48 9.66699 -83.167 29 -105.5s49.333 -33.5 90 -33.5
c42 0 75.333 12 100 36s37 59.333 37 106v343h77v-383c0 -35.333 4.66699 -60.333 14 -75s24.666 -22 45.999 -22z" />
    <glyph glyph-name="paragraph" unicode="&#xb6;" horiz-adv-x="566" 
d="M281 701l0.000976562 -637c0 -101.333 -36 -180 -108 -236l-45 44c31.333 25.333 54.333 51.5 69 78.5s22 67.167 22 120.5v245l-20 -1c-52.667 0 -94.334 15.5 -125.001 46.5s-46 77.5 -46 139.5c0 66 18 115.833 54 149.5s86.333 50.5 151 50.5h48zM443.001 701v-701
h-61v701h61z" />
    <glyph glyph-name="periodcentered" unicode="&#xb7;" horiz-adv-x="229" 
d="M53 351c0 18 5.83301 33 17.5 45s26.167 18 43.5 18s32 -6 44 -18s18 -27 18 -45c0 -16.667 -6 -30.834 -18 -42.501s-26.667 -17.5 -44 -17.5c-16.667 0 -31 5.83301 -43 17.5s-18 25.834 -18 42.501z" />
    <glyph glyph-name="cedilla" unicode="&#xb8;" horiz-adv-x="502" 
d="M313 -115c0 -58.667 -32.667 -99.335 -98 -122.002l-27 42c38.667 18.667 58 44.334 58 77.001c0 21.333 -7.66699 42.333 -23 63v4h72c12 -17.333 18 -38.666 18 -63.999z" />
    <glyph glyph-name="onesuperior" unicode="&#xb9;" horiz-adv-x="289" 
d="M149 807h67v-413h-65v251l3 102h-3c-18 -15.333 -32.667 -26.333 -44 -33l-62 -38l-33 51z" />
    <glyph glyph-name="guillemotright" unicode="&#xbb;" horiz-adv-x="492" 
d="M248 270l-153 -210l-51 39l118 171l-118 172l51 40zM447 270l-153 -210l-51 39l118 171l-118 172l51 40z" />
    <glyph glyph-name="questiondown" unicode="&#xbf;" horiz-adv-x="402" 
d="M228 -93c49.333 0 90.3311 17.002 122.998 51.002l52 -62c-44.667 -40 -103.667 -60 -177 -60c-56 0 -100.167 13.667 -132.5 41s-48.5 66 -48.5 116c0 42 8.66699 77.333 26 106s44 59.667 80 93l117 109c24.667 -10 37 -25.667 37 -47
c0 -13.333 -6.16699 -27.5 -18.5 -42.5s-27.166 -29.5 -44.499 -43.5l-52.5 -44.5c-17.667 -15.667 -32.667 -33.834 -45 -54.501s-18.5 -42.334 -18.5 -65.001c0 -30.667 8.83301 -54.5 26.5 -71.5s42.834 -25.5 75.501 -25.5zM286.998 495.002
c0 -17.333 -5.66699 -31.833 -17 -43.5s-25.333 -17.5 -42 -17.5c-17.333 0 -31.833 5.83301 -43.5 17.5s-17.5 26.167 -17.5 43.5c0 16.667 5.83301 30.667 17.5 42s26.167 17 43.5 17c16.667 0 30.667 -5.66699 42 -17s17 -25.333 17 -42z" />
    <glyph glyph-name="Agrave" unicode="&#xc0;" horiz-adv-x="594" 
d="M335 807l-48 -36l-198 122l75 42zM178 275l235.999 0.00195312l-75 236l-21.5 69.5c-12.333 39.667 -18.833 61.5 -19.5 65.5h-4c-0.666992 -4.66699 -7.16699 -26.834 -19.5 -66.501s-19.166 -61.834 -20.499 -66.501zM501.999 0.00195312l-65 204h-282l-65 -204h-82
l227 701h124l227 -701h-84z" />
    <glyph glyph-name="Aacute" unicode="&#xc1;" horiz-adv-x="594" 
d="M492 909l-198 -122l-48 36l170 128zM178 275l235.999 0.00195312l-75 236l-21.5 69.5c-12.333 39.667 -18.833 61.5 -19.5 65.5h-4c-0.666992 -4.66699 -7.16699 -26.834 -19.5 -66.501s-19.166 -61.834 -20.499 -66.501zM501.999 0.00195312l-65 204h-282l-65 -204h-82
l227 701h124l227 -701h-84z" />
    <glyph glyph-name="Acircumflex" unicode="&#xc2;" horiz-adv-x="594" 
d="M296 881l-163 -95l-29 46l192 125l193 -125l-29 -46zM178 275l235.999 0.00195312l-75 236l-21.5 69.5c-12.333 39.667 -18.833 61.5 -19.5 65.5h-4c-0.666992 -4.66699 -7.16699 -26.834 -19.5 -66.501s-19.166 -61.834 -20.499 -66.501zM501.999 0.00195312l-65 204
h-282l-65 -204h-82l227 701h124l227 -701h-84z" />
    <glyph glyph-name="Atilde" unicode="&#xc3;" horiz-adv-x="594" 
d="M430 904l31 -49c-4 -8.66699 -14.167 -18.167 -30.5 -28.5s-36.5 -15.5 -60.5 -15.5c-16 0 -39.667 6 -71 18s-53.666 18 -66.999 18c-27.333 0 -50.333 -9.66699 -69 -29l-31 50c27.333 27.333 59.333 41 96 41c18.667 0 43.167 -5.83301 73.5 -17.5
s51.833 -17.5 64.5 -17.5c27.333 0 48.666 10 63.999 30zM178 275l235.999 0.00195312l-75 236l-21.5 69.5c-12.333 39.667 -18.833 61.5 -19.5 65.5h-4c-0.666992 -4.66699 -7.16699 -26.834 -19.5 -66.501s-19.166 -61.834 -20.499 -66.501zM501.999 0.00195312l-65 204
h-282l-65 -204h-82l227 701h124l227 -701h-84z" />
    <glyph glyph-name="Adieresis" unicode="&#xc4;" horiz-adv-x="594" 
d="M393 824c-14 0 -25.833 4.66699 -35.5 14s-14.5 21 -14.5 35s4.83301 25.667 14.5 35s21.5 14 35.5 14s25.667 -4.66699 35 -14s14 -21 14 -35s-4.66699 -25.667 -14 -35s-21 -14 -35 -14zM201 824c-14.667 0 -26.5 4.66699 -35.5 14s-13.5 21 -13.5 35
s4.5 25.667 13.5 35s20.833 14 35.5 14c14 0 25.667 -4.66699 35 -14s14 -21 14 -35s-4.66699 -25.667 -14 -35s-21 -14 -35 -14zM178 275l235.999 0.00195312l-75 236l-21.5 69.5c-12.333 39.667 -18.833 61.5 -19.5 65.5h-4
c-0.666992 -4.66699 -7.16699 -26.834 -19.5 -66.501s-19.166 -61.834 -20.499 -66.501zM501.999 0.00195312l-65 204h-282l-65 -204h-82l227 701h124l227 -701h-84z" />
    <glyph glyph-name="Aring" unicode="&#xc5;" horiz-adv-x="594" 
d="M295 938c-18 0 -32.166 -5.33301 -42.499 -16s-15.5 -25 -15.5 -43s5.5 -32.667 16.5 -44s25.833 -17 44.5 -17c18 0 32 5.33301 42 16s15 25 15 43c0 18.667 -5.33301 33.5 -16 44.5s-25.334 16.5 -44.001 16.5zM295.001 772c-32.667 0 -58.667 9.33301 -78 28
s-29 43.667 -29 75c0 32 10.167 58.167 30.5 78.5s46.833 30.5 79.5 30.5s58.834 -9.33301 78.501 -28s29.5 -43.667 29.5 -75c0 -32 -10.333 -58.167 -31 -78.5s-47.334 -30.5 -80.001 -30.5zM178.001 275l235.999 0.00195312l-75 236l-21.5 69.5
c-12.333 39.667 -18.833 61.5 -19.5 65.5h-4c-0.666992 -4.66699 -7.16699 -26.834 -19.5 -66.501s-19.166 -61.834 -20.499 -66.501zM502 0.00195312l-65 204h-282l-65 -204h-82l227 701h124l227 -701h-84z" />
    <glyph glyph-name="AE" unicode="&#xc6;" horiz-adv-x="850" 
d="M803 0h-369v216h-235l-119 -216h-85l386 701h407v-71h-279v-239h244v-71h-244v-249h294v-71zM434 641h-4l-194 -355h198v355z" />
    <glyph glyph-name="Ccedilla" unicode="&#xc7;" horiz-adv-x="569" 
d="M61 345c0 116 24.666 206 73.999 270s120.333 96 213 96c79.333 0 141.333 -19.333 186 -58l-50 -61c-37.333 31.333 -85.333 47 -144 47c-62.667 0 -111.167 -23.667 -145.5 -71s-51.5 -119.333 -51.5 -216c0 -94.667 17.333 -166.5 52 -215.5s85.667 -73.5 153 -73.5
c61.333 0 107 14.333 137 43l44 -57c-40.667 -39.333 -104.667 -59 -192 -59c-93.333 0 -162.666 31.167 -207.999 93.5s-68 149.5 -68 261.5zM393.999 -115c0 -58.667 -32.667 -99.335 -98 -122.002l-27 42c38.667 18.667 58 44.334 58 77.001
c0 21.333 -7.66699 42.333 -23 63v4h72c12 -17.333 18 -38.666 18 -63.999z" />
    <glyph glyph-name="Egrave" unicode="&#xc8;" horiz-adv-x="527" 
d="M480 0h-386v701h372v-71h-292v-239h257v-71h-257v-249h306v-71zM83 909l75 42l171 -128l-48 -36z" />
    <glyph glyph-name="Eacute" unicode="&#xc9;" horiz-adv-x="527" 
d="M482 909l-198 -122l-48 36l170 128zM480 0h-386v701h372v-71h-292v-239h257v-71h-257v-249h306v-71z" />
    <glyph glyph-name="Ecircumflex" unicode="&#xca;" horiz-adv-x="527" 
d="M466 832l-29 -46l-164 95l-163 -95l-29 46l192 125zM480 0h-386v701h372v-71h-292v-239h257v-71h-257v-249h306v-71z" />
    <glyph glyph-name="Edieresis" unicode="&#xcb;" horiz-adv-x="527" 
d="M134 873c0 14 4.5 25.667 13.5 35s20.833 14 35.5 14c14 0 25.667 -4.66699 35 -14s14 -21 14 -35s-4.66699 -25.667 -14 -35s-21 -14 -35 -14c-14.667 0 -26.5 4.66699 -35.5 14s-13.5 21 -13.5 35zM325 873c0 14 4.83301 25.667 14.5 35s21.5 14 35.5 14
s25.667 -4.66699 35 -14s14 -21 14 -35s-4.66699 -25.667 -14 -35s-21 -14 -35 -14s-25.833 4.66699 -35.5 14s-14.5 21 -14.5 35zM480 0h-386v701h372v-71h-292v-239h257v-71h-257v-249h306v-71z" />
    <glyph glyph-name="Igrave" unicode="&#xcc;" horiz-adv-x="288" 
d="M104 0v701h80v-701h-80zM-52 909l75 42l171 -128l-48 -36z" />
    <glyph glyph-name="Iacute" unicode="&#xcd;" horiz-adv-x="288" 
d="M104 0v701h80v-701h-80zM335 909l-198 -122l-48 36l170 128z" />
    <glyph glyph-name="Icircumflex" unicode="&#xce;" horiz-adv-x="288" 
d="M104 0v701h80v-701h-80zM336 832l-29 -46l-164 95l-163 -95l-29 46l192 125z" />
    <glyph glyph-name="Idieresis" unicode="&#xcf;" horiz-adv-x="288" 
d="M104 0v701h80v-701h-80zM-1 873c0 14 4.5 25.667 13.5 35s20.833 14 35.5 14c14 0 25.667 -4.66699 35 -14s14 -21 14 -35s-4.66699 -25.667 -14 -35s-21 -14 -35 -14c-14.667 0 -26.5 4.66699 -35.5 14s-13.5 21 -13.5 35zM190 873c0 14 4.83301 25.667 14.5 35
s21.5 14 35.5 14s25.667 -4.66699 35 -14s14 -21 14 -35s-4.66699 -25.667 -14 -35s-21 -14 -35 -14s-25.833 4.66699 -35.5 14s-14.5 21 -14.5 35z" />
    <glyph glyph-name="Eth" unicode="&#xd0;" horiz-adv-x="652" 
d="M180 71l102.999 0.000976562c78 0 135.167 21.5 171.5 64.5s54.5 113.833 54.5 212.5c0 101.333 -19.167 173.666 -57.5 216.999s-96.166 65 -173.499 65h-98v-241h161v-59h-161v-259zM100.999 701.001h184.001c105.333 0 182.666 -27.833 231.999 -83.5
s74 -142.5 74 -260.5c0 -238 -102.667 -357 -308 -357h-182v330h-75v59h75v312z" />
    <glyph glyph-name="Ntilde" unicode="&#xd1;" horiz-adv-x="699" 
d="M176 606l-7.99902 0.000976562c2 -14.667 3 -76.667 3 -186v-420h-76v701h112l236 -444l22 -42l38 -73.5c12 -23.667 19 -37.834 21 -42.501h7c-1.33301 14 -2 76.667 -2 188v414h75v-701h-110l-238 447c-0.666992 0.666992 -7.83398 14.334 -21.501 41.001l-38 75
c-11.667 23.333 -18.5 37.666 -20.5 42.999zM281.001 909.001c18.667 0 43.167 -5.83301 73.5 -17.5s51.833 -17.5 64.5 -17.5c27.333 0 48.666 10 63.999 30l31 -49c-4 -8.66699 -14.167 -18.167 -30.5 -28.5s-36.5 -15.5 -60.5 -15.5c-15.333 0 -38.666 6 -69.999 18
s-54 18 -68 18c-27.333 0 -50.333 -9.66699 -69 -29l-31 50c27.333 27.333 59.333 41 96 41z" />
    <glyph glyph-name="Ograve" unicode="&#xd2;" horiz-adv-x="671" 
d="M146 354c0 -104.667 16.5 -179.5 49.5 -224.5s80.167 -67.5 141.5 -67.5c62 0 109 21.667 141 65s48 116.666 48 219.999c0 104.667 -16.5 179.5 -49.5 224.5s-80.5 67.5 -142.5 67.5c-61.333 0 -108 -21.667 -140 -65s-48 -116.666 -48 -219.999zM608 354
c0 -242.667 -92 -364.001 -276 -364.001c-86.667 0 -153 28.333 -199 85s-69 147.334 -69 272.001c0 242.667 92 364 276 364c178.667 0 268 -119 268 -357zM139 908.999l75 42l171 -128l-48 -36z" />
    <glyph glyph-name="Oacute" unicode="&#xd3;" horiz-adv-x="671" 
d="M531 909l-198 -122l-48 36l170 128zM146 354c0 -104.667 16.5 -179.5 49.5 -224.5s80.167 -67.5 141.5 -67.5c62 0 109 21.667 141 65s48 116.666 48 219.999c0 104.667 -16.5 179.5 -49.5 224.5s-80.5 67.5 -142.5 67.5c-61.333 0 -108 -21.667 -140 -65
s-48 -116.666 -48 -219.999zM608 354c0 -242.667 -92 -364.001 -276 -364.001c-86.667 0 -153 28.333 -199 85s-69 147.334 -69 272.001c0 242.667 92 364 276 364c178.667 0 268 -119 268 -357z" />
    <glyph glyph-name="Ocircumflex" unicode="&#xd4;" horiz-adv-x="671" 
d="M528 832l-29 -46l-164 95l-163 -95l-29 46l192 125zM146 354c0 -104.667 16.5 -179.5 49.5 -224.5s80.167 -67.5 141.5 -67.5c62 0 109 21.667 141 65s48 116.666 48 219.999c0 104.667 -16.5 179.5 -49.5 224.5s-80.5 67.5 -142.5 67.5c-61.333 0 -108 -21.667 -140 -65
s-48 -116.666 -48 -219.999zM608 354c0 -242.667 -92 -364.001 -276 -364.001c-86.667 0 -153 28.333 -199 85s-69 147.334 -69 272.001c0 242.667 92 364 276 364c178.667 0 268 -119 268 -357z" />
    <glyph glyph-name="Otilde" unicode="&#xd5;" horiz-adv-x="671" 
d="M146 354c0 -104.667 16.5 -179.5 49.5 -224.5s80.167 -67.5 141.5 -67.5c62 0 109 21.667 141 65s48 116.666 48 219.999c0 104.667 -16.5 179.5 -49.5 224.5s-80.5 67.5 -142.5 67.5c-61.333 0 -108 -21.667 -140 -65s-48 -116.666 -48 -219.999zM608 354
c0 -242.667 -92 -364.001 -276 -364.001c-86.667 0 -153 28.333 -199 85s-69 147.334 -69 272.001c0 242.667 92 364 276 364c178.667 0 268 -119 268 -357zM267 908.999c18.667 0 43.167 -5.83301 73.5 -17.5s51.833 -17.5 64.5 -17.5c27.333 0 48.666 10 63.999 30l31 -49
c-4 -8.66699 -14.167 -18.167 -30.5 -28.5s-36.5 -15.5 -60.5 -15.5c-15.333 0 -38.666 6 -69.999 18s-54 18 -68 18c-27.333 0 -50.333 -9.66699 -69 -29l-31 50c27.333 27.333 59.333 41 96 41z" />
    <glyph glyph-name="Odieresis" unicode="&#xd6;" horiz-adv-x="671" 
d="M191 873c0 14 4.5 25.667 13.5 35s20.833 14 35.5 14c14 0 25.667 -4.66699 35 -14s14 -21 14 -35s-4.66699 -25.667 -14 -35s-21 -14 -35 -14c-14.667 0 -26.5 4.66699 -35.5 14s-13.5 21 -13.5 35zM382 873c0 14 4.83301 25.667 14.5 35s21.5 14 35.5 14
s25.667 -4.66699 35 -14s14 -21 14 -35s-4.66699 -25.667 -14 -35s-21 -14 -35 -14s-25.833 4.66699 -35.5 14s-14.5 21 -14.5 35zM146 354c0 -104.667 16.5 -179.5 49.5 -224.5s80.167 -67.5 141.5 -67.5c62 0 109 21.667 141 65s48 116.666 48 219.999
c0 104.667 -16.5 179.5 -49.5 224.5s-80.5 67.5 -142.5 67.5c-61.333 0 -108 -21.667 -140 -65s-48 -116.666 -48 -219.999zM608 354c0 -242.667 -92 -364.001 -276 -364.001c-86.667 0 -153 28.333 -199 85s-69 147.334 -69 272.001c0 242.667 92 364 276 364
c178.667 0 268 -119 268 -357z" />
    <glyph glyph-name="multiply" unicode="&#xd7;" horiz-adv-x="526" 
d="M61 494l49 47l152 -155l155 156l48 -49l-155 -153l155 -154l-48 -47l-154 154l-153 -155l-49 49l156 153z" />
    <glyph glyph-name="Oslash" unicode="&#xd8;" horiz-adv-x="671" 
d="M610 354c0 -242.667 -93.001 -363.999 -279.001 -363.999c-67.333 0 -121.666 16.333 -162.999 49l-30 -48h-77v1l62 93c-41.333 57.333 -62 144.666 -62 261.999c0 242.667 93 364 279 364c65.333 0 119.333 -16.333 162 -49l33 49h75v-1l-62 -95
c41.333 -60 62 -147 62 -261zM142.999 354.001c0 -81.333 10.667 -144.334 32 -189.001l283 429c-30 30 -71.333 45 -124 45c-62 0 -109.333 -21.667 -142 -65s-49 -116.666 -49 -219.999zM527.999 347c0 79.333 -10.667 142.334 -32 189.001l-282 -429
c30 -30 71 -45 123 -45c62 0 109.333 21.667 142 65s49 116.666 49 219.999z" />
    <glyph glyph-name="Ugrave" unicode="&#xd9;" horiz-adv-x="680" 
d="M343 62c110.667 0 166 57.333 166 172v467h80v-457c0 -82.667 -22.5 -145.667 -67.5 -189s-107.5 -65 -187.5 -65c-78 0 -138 21.333 -180 64s-63 102 -63 178v469h80v-457c0 -61.333 15.167 -107 45.5 -137s72.5 -45 126.5 -45zM142 909l75 42l171 -128l-48 -36z" />
    <glyph glyph-name="Uacute" unicode="&#xda;" horiz-adv-x="680" 
d="M548 909l-198 -122l-48 36l170 128zM343 62c110.667 0 166 57.333 166 172v467h80v-457c0 -82.667 -22.5 -145.667 -67.5 -189s-107.5 -65 -187.5 -65c-78 0 -138 21.333 -180 64s-63 102 -63 178v469h80v-457c0 -61.333 15.167 -107 45.5 -137s72.5 -45 126.5 -45z" />
    <glyph glyph-name="Ucircumflex" unicode="&#xdb;" horiz-adv-x="680" 
d="M532 832l-29 -46l-164 95l-163 -95l-29 46l192 125zM343 62c110.667 0 166 57.333 166 172v467h80v-457c0 -82.667 -22.5 -145.667 -67.5 -189s-107.5 -65 -187.5 -65c-78 0 -138 21.333 -180 64s-63 102 -63 178v469h80v-457c0 -61.333 15.167 -107 45.5 -137
s72.5 -45 126.5 -45z" />
    <glyph glyph-name="Udieresis" unicode="&#xdc;" horiz-adv-x="680" 
d="M195 873c0 14 4.5 25.667 13.5 35s20.833 14 35.5 14c14 0 25.667 -4.66699 35 -14s14 -21 14 -35s-4.66699 -25.667 -14 -35s-21 -14 -35 -14c-14.667 0 -26.5 4.66699 -35.5 14s-13.5 21 -13.5 35zM386 873c0 14 4.83301 25.667 14.5 35s21.5 14 35.5 14
s25.667 -4.66699 35 -14s14 -21 14 -35s-4.66699 -25.667 -14 -35s-21 -14 -35 -14s-25.833 4.66699 -35.5 14s-14.5 21 -14.5 35zM343 62c110.667 0 166 57.333 166 172v467h80v-457c0 -82.667 -22.5 -145.667 -67.5 -189s-107.5 -65 -187.5 -65c-78 0 -138 21.333 -180 64
s-63 102 -63 178v469h80v-457c0 -61.333 15.167 -107 45.5 -137s72.5 -45 126.5 -45z" />
    <glyph glyph-name="Yacute" unicode="&#xdd;" horiz-adv-x="541" 
d="M542 701l-232 -448v-253h-79v253l-232 448h91l181 -366h4l181 366h86zM478 909l-198 -122l-48 36l170 128z" />
    <glyph glyph-name="Thorn" unicode="&#xde;" horiz-adv-x="509" 
d="M171 701v-142.001c19.333 8 50.333 12 93 12c61.333 0 110.333 -17.167 147 -51.5s55 -86.166 55 -155.499c0 -78 -19 -136.333 -57 -175s-91.667 -58 -161 -58c-33.333 0 -59 2.66699 -77 8v-139h-77v701h77zM244 497.999c-30.667 0 -54.667 -3.33301 -72 -10v-276
c19.333 -6 42.333 -9 69 -9c95.333 0 143 50.333 143 151c0 96 -46.667 144 -140 144z" />
    <glyph glyph-name="germandbls" unicode="&#xdf;" horiz-adv-x="587" 
d="M251 92c34.667 -22 72.667 -33.002 114 -33.002c32.667 0 58.667 7.66699 78 23s29 36 29 62c0 20.667 -7 39.334 -21 56.001s-31 30.667 -51 42l-60 34c-20 11.333 -37 25.5 -51 42.5s-21 36.5 -21 58.5c0 18 6.33301 36 19 54s26.5 33.667 41.5 47
s28.833 30.333 41.5 51s19 42.334 19 65.001c0 30.667 -9.83301 54 -29.5 70s-45.834 24 -78.501 24c-38 0 -67.667 -11.667 -89 -35s-32 -58.666 -32 -105.999v-547h-77v546c0 69.333 18.833 121.666 56.5 156.999s86.5 53 146.5 53c55.333 0 99 -14.5 131 -43.5
s48 -67.167 48 -114.5c0 -28 -6 -54.167 -18 -78.5s-25.333 -43.333 -40 -57s-28 -27.5 -40 -41.5s-18 -26 -18 -36c0 -12.667 6.83301 -24.834 20.5 -36.501s30.167 -23 49.5 -34s38.833 -23.167 58.5 -36.5s36.334 -31.166 50.001 -53.499s20.5 -47.5 20.5 -75.5
c0 -44 -16.167 -81.167 -48.5 -111.5s-78.833 -45.5 -139.5 -45.5c-58.667 0 -106 12.667 -142 38z" />
    <glyph glyph-name="agrave" unicode="&#xe0;" horiz-adv-x="547" 
d="M364 127l-0.000976562 122.001c-69.333 2.66699 -125.666 -5 -168.999 -23s-65 -46.667 -65 -86c0 -24.667 8.66699 -45.334 26 -62.001s41.333 -25 72 -25c28.667 0 55 7.16699 79 21.5s43 31.833 57 52.5zM250.999 552.001c123.333 0 184.998 -55.001 184.998 -165.001
v-246c0 -54.667 17.667 -82 53 -82h14v-57c-7.33301 -4 -16.666 -6 -27.999 -6c-50.667 0 -83.667 22 -99 66h-4c-42 -48.667 -96 -73 -162 -73c-48 0 -86.167 14.333 -114.5 43s-42.5 62.667 -42.5 102c0 59.333 27.333 103.833 82 133.5s131 43.834 229 42.501v59
c0 42.667 -9.66699 72.5 -29 89.5s-48 25.5 -86 25.5c-55.333 0 -96.666 -22 -123.999 -66l-57 45c43.333 59.333 104.333 89 183 89zM58.9971 746l75 42l171 -128l-48 -36z" />
    <glyph glyph-name="aacute" unicode="&#xe1;" horiz-adv-x="547" 
d="M364 127l-0.000976562 122.001c-69.333 2.66699 -125.666 -5 -168.999 -23s-65 -46.667 -65 -86c0 -24.667 8.66699 -45.334 26 -62.001s41.333 -25 72 -25c28.667 0 55 7.16699 79 21.5s43 31.833 57 52.5zM250.999 552.001c123.333 0 184.998 -55.001 184.998 -165.001
v-246c0 -54.667 17.667 -82 53 -82h14v-57c-7.33301 -4 -16.666 -6 -27.999 -6c-50.667 0 -83.667 22 -99 66h-4c-42 -48.667 -96 -73 -162 -73c-48 0 -86.167 14.333 -114.5 43s-42.5 62.667 -42.5 102c0 59.333 27.333 103.833 82 133.5s131 43.834 229 42.501v59
c0 42.667 -9.66699 72.5 -29 89.5s-48 25.5 -86 25.5c-55.333 0 -96.666 -22 -123.999 -66l-57 45c43.333 59.333 104.333 89 183 89zM459.997 746l-198 -122l-48 36l170 128z" />
    <glyph glyph-name="acircumflex" unicode="&#xe2;" horiz-adv-x="547" 
d="M364 127l-0.000976562 122.001c-69.333 2.66699 -125.666 -5 -168.999 -23s-65 -46.667 -65 -86c0 -24.667 8.66699 -45.334 26 -62.001s41.333 -25 72 -25c28.667 0 55 7.16699 79 21.5s43 31.833 57 52.5zM250.999 552.001c123.333 0 184.998 -55.001 184.998 -165.001
v-246c0 -54.667 17.667 -82 53 -82h14v-57c-7.33301 -4 -16.666 -6 -27.999 -6c-50.667 0 -83.667 22 -99 66h-4c-42 -48.667 -96 -73 -162 -73c-48 0 -86.167 14.333 -114.5 43s-42.5 62.667 -42.5 102c0 59.333 27.333 103.833 82 133.5s131 43.834 229 42.501v59
c0 42.667 -9.66699 72.5 -29 89.5s-48 25.5 -86 25.5c-55.333 0 -96.666 -22 -123.999 -66l-57 45c43.333 59.333 104.333 89 183 89zM454.997 669l-29 -46l-164 95l-163 -95l-29 46l192 125z" />
    <glyph glyph-name="atilde" unicode="&#xe3;" horiz-adv-x="547" 
d="M364 127l-0.000976562 122.001c-69.333 2.66699 -125.666 -5 -168.999 -23s-65 -46.667 -65 -86c0 -24.667 8.66699 -45.334 26 -62.001s41.333 -25 72 -25c28.667 0 55 7.16699 79 21.5s43 31.833 57 52.5zM250.999 552.001c123.333 0 184.998 -55.001 184.998 -165.001
v-246c0 -54.667 17.667 -82 53 -82h14v-57c-7.33301 -4 -16.666 -6 -27.999 -6c-50.667 0 -83.667 22 -99 66h-4c-42 -48.667 -96 -73 -162 -73c-48 0 -86.167 14.333 -114.5 43s-42.5 62.667 -42.5 102c0 59.333 27.333 103.833 82 133.5s131 43.834 229 42.501v59
c0 42.667 -9.66699 72.5 -29 89.5s-48 25.5 -86 25.5c-55.333 0 -96.666 -22 -123.999 -66l-57 45c43.333 59.333 104.333 89 183 89zM203.997 746c18.667 0 43.167 -5.83301 73.5 -17.5s51.833 -17.5 64.5 -17.5c27.333 0 48.666 10 63.999 30l31 -49
c-4 -8.66699 -14.167 -18.167 -30.5 -28.5s-36.5 -15.5 -60.5 -15.5c-16 0 -39.667 6 -71 18s-53.666 18 -66.999 18c-27.333 0 -50.333 -9.66699 -69 -29l-31 50c27.333 27.333 59.333 41 96 41z" />
    <glyph glyph-name="adieresis" unicode="&#xe4;" horiz-adv-x="547" 
d="M364 127l-0.000976562 122.001c-69.333 2.66699 -125.666 -5 -168.999 -23s-65 -46.667 -65 -86c0 -24.667 8.66699 -45.334 26 -62.001s41.333 -25 72 -25c28.667 0 55 7.16699 79 21.5s43 31.833 57 52.5zM250.999 552.001c123.333 0 184.998 -55.001 184.998 -165.001
v-246c0 -54.667 17.667 -82 53 -82h14v-57c-7.33301 -4 -16.666 -6 -27.999 -6c-50.667 0 -83.667 22 -99 66h-4c-42 -48.667 -96 -73 -162 -73c-48 0 -86.167 14.333 -114.5 43s-42.5 62.667 -42.5 102c0 59.333 27.333 103.833 82 133.5s131 43.834 229 42.501v59
c0 42.667 -9.66699 72.5 -29 89.5s-48 25.5 -86 25.5c-55.333 0 -96.666 -22 -123.999 -66l-57 45c43.333 59.333 104.333 89 183 89zM125.997 710c0 14 4.5 25.667 13.5 35s20.833 14 35.5 14c14 0 25.667 -4.66699 35 -14s14 -21 14 -35s-4.66699 -25.667 -14 -35
s-21 -14 -35 -14c-14.667 0 -26.5 4.66699 -35.5 14s-13.5 21 -13.5 35zM316.997 710c0 14 4.83301 25.667 14.5 35s21.5 14 35.5 14s25.667 -4.66699 35 -14s14 -21 14 -35s-4.66699 -25.667 -14 -35s-21 -14 -35 -14s-25.833 4.66699 -35.5 14s-14.5 21 -14.5 35z" />
    <glyph glyph-name="aring" unicode="&#xe5;" horiz-adv-x="547" 
d="M364 127l-0.000976562 122.001c-69.333 2.66699 -125.666 -5 -168.999 -23s-65 -46.667 -65 -86c0 -24.667 8.66699 -45.334 26 -62.001s41.333 -25 72 -25c28.667 0 55 7.16699 79 21.5s43 31.833 57 52.5zM250.999 552.001c123.333 0 184.998 -55.001 184.998 -165.001
v-246c0 -54.667 17.667 -82 53 -82h14v-57c-7.33301 -4 -16.666 -6 -27.999 -6c-50.667 0 -83.667 22 -99 66h-4c-42 -48.667 -96 -73 -162 -73c-48 0 -86.167 14.333 -114.5 43s-42.5 62.667 -42.5 102c0 59.333 27.333 103.833 82 133.5s131 43.834 229 42.501v59
c0 42.667 -9.66699 72.5 -29 89.5s-48 25.5 -86 25.5c-55.333 0 -96.666 -22 -123.999 -66l-57 45c43.333 59.333 104.333 89 183 89zM163.997 712c0 32 10.167 58.167 30.5 78.5s46.833 30.5 79.5 30.5s58.834 -9.33301 78.501 -28s29.5 -43.667 29.5 -75
c0 -32 -10.333 -58.167 -31 -78.5s-47.334 -30.5 -80.001 -30.5s-58.667 9.33301 -78 28s-29 43.667 -29 75zM330.997 714c0 18.667 -5.33203 33.5 -15.999 44.5s-25.334 16.5 -44.001 16.5c-18 0 -32.167 -5.33301 -42.5 -16s-15.5 -25 -15.5 -43s5.5 -32.667 16.5 -44
s25.833 -17 44.5 -17c18 0 32 5.33301 42 16s15 25 15 43z" />
    <glyph glyph-name="ae" unicode="&#xe6;" horiz-adv-x="849" 
d="M409 88l-3.99609 -0.00292969c-28 -66.667 -90.333 -100 -187 -100c-59.333 0 -103.166 14.5 -131.499 43.5s-42.5 64.167 -42.5 105.5c0 20.667 2.66699 39.334 8 56.001s15.166 32.834 29.499 48.501s33.166 28.834 56.499 39.501s54.166 19.167 92.499 25.5
s82.833 9.5 133.5 9.5v55c0 75.333 -39.333 113 -118 113c-54.667 0 -96 -21 -124 -63l-56 51c43.333 53.333 104.666 80 183.999 80c88 0 144.333 -27.667 169 -83h4c39.333 56 94.666 84 165.999 84c64 0 113.5 -19.167 148.5 -57.5s52.5 -90.833 52.5 -157.5
c0 -24.667 -2 -55.667 -6 -93h-346c4 -66 20 -113.167 48 -141.5s69.667 -42.5 125 -42.5c54.667 0 99.667 16.333 135 49l38 -61c-40.667 -37.333 -101.667 -56 -183 -56c-94 0 -158 31.667 -192 95zM227.004 49.9971c91.333 0 137.001 45.999 137.001 137.999v68
c-84.667 0 -146.167 -8.33301 -184.5 -25s-57.5 -45 -57.5 -85c0 -27.333 9.66699 -50.166 29 -68.499s44.666 -27.5 75.999 -27.5zM580.005 485.996c-38 0 -70.166 -13.668 -96.499 -41.001s-41.5 -72.666 -45.5 -135.999h273c0.666992 8 1 18.333 1 31
c0 47.333 -11.333 83.5 -34 108.5s-55.334 37.5 -98.001 37.5z" />
    <glyph glyph-name="ccedilla" unicode="&#xe7;" horiz-adv-x="472" 
d="M54 264c0 96 21.002 168.167 63.002 216.5s98 72.5 168 72.5s121.667 -19 155 -57l-52 -57c-28.667 30 -64.334 45 -107.001 45c-98 0 -147 -70 -147 -210c0 -142.667 49 -214 147 -214c45.333 0 80.666 14.333 105.999 43l48 -54c-34 -38.667 -87.667 -58 -161 -58
c-146.667 0 -220 91 -220 273zM328.002 -115c0 -58.667 -32.667 -99.335 -98 -122.002l-27 42c38.667 18.667 58 44.334 58 77.001c0 21.333 -7.66699 42.333 -23 63v4h72c12 -17.333 18 -38.666 18 -63.999z" />
    <glyph glyph-name="egrave" unicode="&#xe8;" horiz-adv-x="543" 
d="M429 102l35.001 -60c-43.333 -32.667 -100.333 -49 -171 -49c-80 0 -139.833 22.167 -179.5 66.5s-59.5 116.166 -59.5 215.499c0 92.667 22 162.167 66 208.5s99 69.5 165 69.5c63.333 0 112.166 -19 146.499 -57s51.5 -90 51.5 -156c0 -27.333 -2 -58.666 -6 -93.999
h-346c3.33301 -66 19 -113.333 47 -142s69.667 -43 125 -43c25.333 0 49.5 4 72.5 12s40.833 17.667 53.5 29zM278.001 486c-39.333 0 -72.668 -13.999 -100.001 -41.999s-42.666 -72.667 -45.999 -134h273c0.666992 7.33301 1 17.666 1 30.999
c0 96.667 -42.667 145 -128 145zM82.999 746.001l75 42l171 -128l-48 -36z" />
    <glyph glyph-name="eacute" unicode="&#xe9;" horiz-adv-x="543" 
d="M485 746l-198 -122l-48 36l170 128zM429 102l35.001 -60c-43.333 -32.667 -100.333 -49 -171 -49c-80 0 -139.833 22.167 -179.5 66.5s-59.5 116.166 -59.5 215.499c0 92.667 22 162.167 66 208.5s99 69.5 165 69.5c63.333 0 112.166 -19 146.499 -57s51.5 -90 51.5 -156
c0 -27.333 -2 -58.666 -6 -93.999h-346c3.33301 -66 19 -113.333 47 -142s69.667 -43 125 -43c25.333 0 49.5 4 72.5 12s40.833 17.667 53.5 29zM278.001 486c-39.333 0 -72.668 -13.999 -100.001 -41.999s-42.666 -72.667 -45.999 -134h273
c0.666992 7.33301 1 17.666 1 30.999c0 96.667 -42.667 145 -128 145z" />
    <glyph glyph-name="ecircumflex" unicode="&#xea;" horiz-adv-x="543" 
d="M463 669l-29 -46l-164 95l-163 -95l-29 46l192 125zM429 102l35.001 -60c-43.333 -32.667 -100.333 -49 -171 -49c-80 0 -139.833 22.167 -179.5 66.5s-59.5 116.166 -59.5 215.499c0 92.667 22 162.167 66 208.5s99 69.5 165 69.5c63.333 0 112.166 -19 146.499 -57
s51.5 -90 51.5 -156c0 -27.333 -2 -58.666 -6 -93.999h-346c3.33301 -66 19 -113.333 47 -142s69.667 -43 125 -43c25.333 0 49.5 4 72.5 12s40.833 17.667 53.5 29zM278.001 486c-39.333 0 -72.668 -13.999 -100.001 -41.999s-42.666 -72.667 -45.999 -134h273
c0.666992 7.33301 1 17.666 1 30.999c0 96.667 -42.667 145 -128 145z" />
    <glyph glyph-name="edieresis" unicode="&#xeb;" horiz-adv-x="543" 
d="M126 710c0 14 4.5 25.667 13.5 35s20.833 14 35.5 14c14 0 25.667 -4.66699 35 -14s14 -21 14 -35s-4.66699 -25.667 -14 -35s-21 -14 -35 -14c-14.667 0 -26.5 4.66699 -35.5 14s-13.5 21 -13.5 35zM317 710c0 14 4.83301 25.667 14.5 35s21.5 14 35.5 14
s25.667 -4.66699 35 -14s14 -21 14 -35s-4.66699 -25.667 -14 -35s-21 -14 -35 -14s-25.833 4.66699 -35.5 14s-14.5 21 -14.5 35zM429 102l35.001 -60c-43.333 -32.667 -100.333 -49 -171 -49c-80 0 -139.833 22.167 -179.5 66.5s-59.5 116.166 -59.5 215.499
c0 92.667 22 162.167 66 208.5s99 69.5 165 69.5c63.333 0 112.166 -19 146.499 -57s51.5 -90 51.5 -156c0 -27.333 -2 -58.666 -6 -93.999h-346c3.33301 -66 19 -113.333 47 -142s69.667 -43 125 -43c25.333 0 49.5 4 72.5 12s40.833 17.667 53.5 29zM278.001 486
c-39.333 0 -72.668 -13.999 -100.001 -41.999s-42.666 -72.667 -45.999 -134h273c0.666992 7.33301 1 17.666 1 30.999c0 96.667 -42.667 145 -128 145z" />
    <glyph glyph-name="igrave" unicode="&#xec;" horiz-adv-x="289" 
d="M109 0v544h78v-544h-78zM-48 746l75 42l171 -128l-48 -36z" />
    <glyph glyph-name="iacute" unicode="&#xed;" horiz-adv-x="289" 
d="M109 0v544h78v-544h-78zM338 746l-198 -122l-48 36l170 128z" />
    <glyph glyph-name="icircumflex" unicode="&#xee;" horiz-adv-x="289" 
d="M109 0v544h78v-544h-78zM337 669l-29 -46l-164 95l-163 -95l-29 46l192 125z" />
    <glyph glyph-name="idieresis" unicode="&#xef;" horiz-adv-x="289" 
d="M109 0v544h78v-544h-78zM0 710c0 14 4.5 25.667 13.5 35s20.833 14 35.5 14c14 0 25.667 -4.66699 35 -14s14 -21 14 -35s-4.66699 -25.667 -14 -35s-21 -14 -35 -14c-14.667 0 -26.5 4.66699 -35.5 14s-13.5 21 -13.5 35zM191 710c0 14 4.83301 25.667 14.5 35
s21.5 14 35.5 14s25.667 -4.66699 35 -14s14 -21 14 -35s-4.66699 -25.667 -14 -35s-21 -14 -35 -14s-25.833 4.66699 -35.5 14s-14.5 21 -14.5 35z" />
    <glyph glyph-name="eth" unicode="&#xf0;" horiz-adv-x="526" 
d="M465 269c0 -84.667 -18.332 -150.998 -54.999 -198.998s-90.334 -72 -161.001 -72c-61.333 0 -110.333 19.667 -147 59s-55 92.666 -55 159.999c0 72 19.833 127.667 59.5 167s88.5 59 146.5 59c42.667 0 79 -8 109 -24l2 2c-16 50.667 -41.667 96.667 -77 138l-149 -83
v62l109 62c-37.333 33.333 -82 64.666 -134 93.999v7h114c28 -16 56.333 -38.333 85 -67l126 71v-62l-88 -50c76.667 -96 115 -204 115 -324zM389.001 258.002c0 31.333 -2.33301 58.667 -7 82c-34 24.667 -74.667 37 -122 37c-42.667 0 -76 -12.5 -100 -37.5
s-36 -63.5 -36 -115.5s11.833 -91.167 35.5 -117.5s56.5 -39.5 98.5 -39.5c87.333 0 131 63.667 131 191z" />
    <glyph glyph-name="ntilde" unicode="&#xf1;" horiz-adv-x="574" 
d="M494 375v-375h-78v357c0 41.333 -10 73.166 -30 95.499s-49 33.5 -87 33.5c-32 0 -60.5 -9.16699 -85.5 -27.5s-42.5 -41.5 -52.5 -69.5v-389h-78v544h59l16 -57h4c12 14.667 31.5 29.667 58.5 45s59.167 23 96.5 23c55.333 0 98.333 -15.167 129 -45.5
s46.667 -75.166 48 -134.499zM218 746c18.667 0 43.167 -5.83301 73.5 -17.5s51.833 -17.5 64.5 -17.5c27.333 0 48.666 10 63.999 30l31 -49c-4 -8.66699 -14.167 -18.167 -30.5 -28.5s-36.5 -15.5 -60.5 -15.5c-16 0 -39.667 6 -71 18s-53.666 18 -66.999 18
c-27.333 0 -50.333 -9.66699 -69 -29l-31 50c27.333 27.333 59.333 41 96 41z" />
    <glyph glyph-name="ograve" unicode="&#xf2;" horiz-adv-x="559" 
d="M134 277c0 -74 11.833 -128.833 35.5 -164.5s61.167 -53.5 112.5 -53.5s88 17 110 51s33 87.333 33 160c0 74 -11.833 128.667 -35.5 164s-61.5 53 -113.5 53c-50.667 0 -87 -17 -109 -51s-33 -87 -33 -159zM276 -9c-148 0 -222 93.334 -222 280.001
c0 188.667 76 283 228 283c148.667 0 223 -92.667 223 -278c0 -88.667 -18.5 -158.334 -55.5 -209.001s-94.833 -76 -173.5 -76zM82 746.001l75 42l171 -128l-48 -36z" />
    <glyph glyph-name="oacute" unicode="&#xf3;" horiz-adv-x="559" 
d="M473 746l-198 -122l-48 36l170 128zM134 277c0 -74 11.833 -128.833 35.5 -164.5s61.167 -53.5 112.5 -53.5s88 17 110 51s33 87.333 33 160c0 74 -11.833 128.667 -35.5 164s-61.5 53 -113.5 53c-50.667 0 -87 -17 -109 -51s-33 -87 -33 -159zM276 -9
c-148 0 -222 93.334 -222 280.001c0 188.667 76 283 228 283c148.667 0 223 -92.667 223 -278c0 -88.667 -18.5 -158.334 -55.5 -209.001s-94.833 -76 -173.5 -76z" />
    <glyph glyph-name="ocircumflex" unicode="&#xf4;" horiz-adv-x="559" 
d="M472 669l-29 -46l-164 95l-163 -95l-29 46l192 125zM134 277c0 -74 11.833 -128.833 35.5 -164.5s61.167 -53.5 112.5 -53.5s88 17 110 51s33 87.333 33 160c0 74 -11.833 128.667 -35.5 164s-61.5 53 -113.5 53c-50.667 0 -87 -17 -109 -51s-33 -87 -33 -159zM276 -9
c-148 0 -222 93.334 -222 280.001c0 188.667 76 283 228 283c148.667 0 223 -92.667 223 -278c0 -88.667 -18.5 -158.334 -55.5 -209.001s-94.833 -76 -173.5 -76z" />
    <glyph glyph-name="otilde" unicode="&#xf5;" horiz-adv-x="559" 
d="M134 277c0 -74 11.833 -128.833 35.5 -164.5s61.167 -53.5 112.5 -53.5s88 17 110 51s33 87.333 33 160c0 74 -11.833 128.667 -35.5 164s-61.5 53 -113.5 53c-50.667 0 -87 -17 -109 -51s-33 -87 -33 -159zM276 -9c-148 0 -222 93.334 -222 280.001
c0 188.667 76 283 228 283c148.667 0 223 -92.667 223 -278c0 -88.667 -18.5 -158.334 -55.5 -209.001s-94.833 -76 -173.5 -76zM211 746.001c18.667 0 43.167 -5.83301 73.5 -17.5s51.833 -17.5 64.5 -17.5c27.333 0 48.666 10 63.999 30l31 -49
c-4 -8.66699 -14.167 -18.167 -30.5 -28.5s-36.5 -15.5 -60.5 -15.5c-15.333 0 -38.666 6 -69.999 18s-54 18 -68 18c-27.333 0 -50.333 -9.66699 -69 -29l-31 50c27.333 27.333 59.333 41 96 41z" />
    <glyph glyph-name="odieresis" unicode="&#xf6;" horiz-adv-x="559" 
d="M135 710c0 14 4.5 25.667 13.5 35s20.833 14 35.5 14c14 0 25.667 -4.66699 35 -14s14 -21 14 -35s-4.66699 -25.667 -14 -35s-21 -14 -35 -14c-14.667 0 -26.5 4.66699 -35.5 14s-13.5 21 -13.5 35zM326 710c0 14 4.83301 25.667 14.5 35s21.5 14 35.5 14
s25.667 -4.66699 35 -14s14 -21 14 -35s-4.66699 -25.667 -14 -35s-21 -14 -35 -14s-25.833 4.66699 -35.5 14s-14.5 21 -14.5 35zM134 277c0 -74 11.833 -128.833 35.5 -164.5s61.167 -53.5 112.5 -53.5s88 17 110 51s33 87.333 33 160c0 74 -11.833 128.667 -35.5 164
s-61.5 53 -113.5 53c-50.667 0 -87 -17 -109 -51s-33 -87 -33 -159zM276 -9c-148 0 -222 93.334 -222 280.001c0 188.667 76 283 228 283c148.667 0 223 -92.667 223 -278c0 -88.667 -18.5 -158.334 -55.5 -209.001s-94.833 -76 -173.5 -76z" />
    <glyph glyph-name="divide" unicode="&#xf7;" horiz-adv-x="526" 
d="M30 305v69h466v-69h-466zM204 520c0 16.667 5.5 30.667 16.5 42s24.5 17 40.5 17c16.667 0 30.667 -5.66699 42 -17s17 -25.333 17 -42c0 -16 -5.66699 -29.667 -17 -41s-25.333 -17 -42 -17c-16 0 -29.5 5.66699 -40.5 17s-16.5 25 -16.5 41zM204 159
c0 16.667 5.5 30.668 16.5 42.001s24.5 17 40.5 17c16.667 0 30.667 -5.66699 42 -17s17 -25.333 17 -42c0 -16 -5.66699 -29.5 -17 -40.5s-25.333 -16.5 -42 -16.5c-16 0 -29.5 5.66699 -40.5 17s-16.5 24.666 -16.5 39.999z" />
    <glyph glyph-name="oslash" unicode="&#xf8;" horiz-adv-x="559" 
d="M276 -9c-52 0 -94.333 11.668 -127 35.001l-24 -35h-70v3l49 72c-33.333 46 -50 114.333 -50 205c0 188.667 76 283 228 283c52.667 0 95.667 -11.667 129 -35l23 35h69v-3l-49 -72c34 -46 51 -113.667 51 -203c0 -88.667 -18.5 -158.334 -55.5 -209.001
s-94.833 -76 -173.5 -76zM426 270.001c0 54 -7.33203 98.333 -21.999 133l-213 -315c22 -19.333 52.333 -29 91 -29c51.333 0 88.166 17 110.499 51s33.5 87.333 33.5 160zM133.001 277.001c0 -58.667 7.33301 -104 22 -136l213 316c-22 20 -52.667 30 -92 30
c-50.667 0 -87.167 -17 -109.5 -51s-33.5 -87 -33.5 -159z" />
    <glyph glyph-name="ugrave" unicode="&#xf9;" horiz-adv-x="575" 
d="M80 172v372h78v-356c0 -88 39.667 -132 119 -132c40 0 72.667 11.333 98 34s38.333 55 39 97v357h78v-544h-61l-15 57h-4c-11.333 -16 -30 -31.333 -56 -46s-59 -22 -99 -22c-115.333 0 -174.333 61 -177 183zM89 746l75 42l171 -128l-48 -36z" />
    <glyph glyph-name="uacute" unicode="&#xfa;" horiz-adv-x="575" 
d="M493 746l-198 -122l-48 36l170 128zM80 172v372h78v-356c0 -88 39.667 -132 119 -132c40 0 72.667 11.333 98 34s38.333 55 39 97v357h78v-544h-61l-15 57h-4c-11.333 -16 -30 -31.333 -56 -46s-59 -22 -99 -22c-115.333 0 -174.333 61 -177 183z" />
    <glyph glyph-name="ucircumflex" unicode="&#xfb;" horiz-adv-x="575" 
d="M480 669l-29 -46l-164 95l-163 -95l-29 46l192 125zM80 172v372h78v-356c0 -88 39.667 -132 119 -132c40 0 72.667 11.333 98 34s38.333 55 39 97v357h78v-544h-61l-15 57h-4c-11.333 -16 -30 -31.333 -56 -46s-59 -22 -99 -22c-115.333 0 -174.333 61 -177 183z" />
    <glyph glyph-name="udieresis" unicode="&#xfc;" horiz-adv-x="575" 
d="M142 710c0 14 4.5 25.667 13.5 35s20.833 14 35.5 14c14 0 25.667 -4.66699 35 -14s14 -21 14 -35s-4.66699 -25.667 -14 -35s-21 -14 -35 -14c-14.667 0 -26.5 4.66699 -35.5 14s-13.5 21 -13.5 35zM333 710c0 14 4.83301 25.667 14.5 35s21.5 14 35.5 14
s25.667 -4.66699 35 -14s14 -21 14 -35s-4.66699 -25.667 -14 -35s-21 -14 -35 -14s-25.833 4.66699 -35.5 14s-14.5 21 -14.5 35zM80 172v372h78v-356c0 -88 39.667 -132 119 -132c40 0 72.667 11.333 98 34s38.333 55 39 97v357h78v-544h-61l-15 57h-4
c-11.333 -16 -30 -31.333 -56 -46s-59 -22 -99 -22c-115.333 0 -174.333 61 -177 183z" />
    <glyph glyph-name="yacute" unicode="&#xfd;" horiz-adv-x="498" 
d="M27 -199l12.0029 68.999c16.667 -6 33.667 -9 51 -9c34 0 61 9.5 81 28.5s36 49.5 48 91.5l-197 563h84l88 -267c27.333 -83.333 47.666 -149.333 60.999 -198h4c10 44.667 28.667 110.667 56 198l84 267h81l-192 -582c-18.667 -55.333 -43.334 -97.666 -74.001 -126.999
s-72.334 -44 -125.001 -44c-24 0 -44.667 3.33301 -62 10zM462.003 745.999l-198 -122l-48 36l170 128z" />
    <glyph glyph-name="thorn" unicode="&#xfe;" horiz-adv-x="558" 
d="M504 289c0 -93.333 -22.333 -166.334 -67 -219.001s-107.667 -79 -189 -79c-34.667 0 -64 4 -88 12v-193h-77v943h77v-251h4c30 32 74.667 48 134 48c60.667 0 110.167 -21.667 148.5 -65s57.5 -108.666 57.5 -195.999zM160 73.999
c26 -9.33301 56.334 -14.001 91.001 -14.001c53.333 0 95.666 18.5 126.999 55.5s47 92.167 47 165.5c0 72.667 -14 124.334 -42 155.001s-63.333 46 -106 46c-21.333 0 -43 -5 -65 -15s-39.333 -23.667 -52 -41v-352z" />
    <glyph glyph-name="ydieresis" unicode="&#xff;" horiz-adv-x="498" 
d="M27 -199l12.0029 68.999c16.667 -6 33.667 -9 51 -9c34 0 61 9.5 81 28.5s36 49.5 48 91.5l-197 563h84l88 -267c27.333 -83.333 47.666 -149.333 60.999 -198h4c10 44.667 28.667 110.667 56 198l84 267h81l-192 -582c-18.667 -55.333 -43.334 -97.666 -74.001 -126.999
s-72.334 -44 -125.001 -44c-24 0 -44.667 3.33301 -62 10zM104.003 709.999c0 14 4.5 25.667 13.5 35s20.833 14 35.5 14c14 0 25.667 -4.66699 35 -14s14 -21 14 -35s-4.66699 -25.667 -14 -35s-21 -14 -35 -14c-14.667 0 -26.5 4.66699 -35.5 14s-13.5 21 -13.5 35z
M295.003 709.999c0 14 4.83301 25.667 14.5 35s21.5 14 35.5 14s25.667 -4.66699 35 -14s14 -21 14 -35s-4.66699 -25.667 -14 -35s-21 -14 -35 -14s-25.833 4.66699 -35.5 14s-14.5 21 -14.5 35z" />
    <glyph glyph-name="Amacron" unicode="&#x100;" horiz-adv-x="594" 
d="M450 893v-62h-305v62h305zM178 275l235.999 0.00195312l-75 236l-21.5 69.5c-12.333 39.667 -18.833 61.5 -19.5 65.5h-4c-0.666992 -4.66699 -7.16699 -26.834 -19.5 -66.501s-19.166 -61.834 -20.499 -66.501zM501.999 0.00195312l-65 204h-282l-65 -204h-82l227 701
h124l227 -701h-84z" />
    <glyph glyph-name="amacron" unicode="&#x101;" horiz-adv-x="547" 
d="M364 127l-0.000976562 122.001c-69.333 2.66699 -125.666 -5 -168.999 -23s-65 -46.667 -65 -86c0 -24.667 8.66699 -45.334 26 -62.001s41.333 -25 72 -25c28.667 0 55 7.16699 79 21.5s43 31.833 57 52.5zM250.999 552.001c123.333 0 184.998 -55.001 184.998 -165.001
v-246c0 -54.667 17.667 -82 53 -82h14v-57c-7.33301 -4 -16.666 -6 -27.999 -6c-50.667 0 -83.667 22 -99 66h-4c-42 -48.667 -96 -73 -162 -73c-48 0 -86.167 14.333 -114.5 43s-42.5 62.667 -42.5 102c0 59.333 27.333 103.833 82 133.5s131 43.834 229 42.501v59
c0 42.667 -9.66699 72.5 -29 89.5s-48 25.5 -86 25.5c-55.333 0 -96.666 -22 -123.999 -66l-57 45c43.333 59.333 104.333 89 183 89zM410.997 668h-305v62h305v-62z" />
    <glyph glyph-name="Abreve" unicode="&#x102;" horiz-adv-x="594" 
d="M414 932l52 -33c-38 -64.667 -94.333 -97 -169 -97s-131 32.333 -169 97l52 33c2.66699 -5.33301 6.16699 -11 10.5 -17s11 -13.5 20 -22.5s21.167 -16.333 36.5 -22s32 -8.5 50 -8.5c52.667 0 91.667 23.333 117 70zM178 275l235.999 0.00195312l-75 236l-21.5 69.5
c-12.333 39.667 -18.833 61.5 -19.5 65.5h-4c-0.666992 -4.66699 -7.16699 -26.834 -19.5 -66.501s-19.166 -61.834 -20.499 -66.501zM501.999 0.00195312l-65 204h-282l-65 -204h-82l227 701h124l227 -701h-84z" />
    <glyph glyph-name="abreve" unicode="&#x103;" horiz-adv-x="547" 
d="M364 127l-0.000976562 122.001c-69.333 2.66699 -125.666 -5 -168.999 -23s-65 -46.667 -65 -86c0 -24.667 8.66699 -45.334 26 -62.001s41.333 -25 72 -25c28.667 0 55 7.16699 79 21.5s43 31.833 57 52.5zM250.999 552.001c123.333 0 184.998 -55.001 184.998 -165.001
v-246c0 -54.667 17.667 -82 53 -82h14v-57c-7.33301 -4 -16.666 -6 -27.999 -6c-50.667 0 -83.667 22 -99 66h-4c-42 -48.667 -96 -73 -162 -73c-48 0 -86.167 14.333 -114.5 43s-42.5 62.667 -42.5 102c0 59.333 27.333 103.833 82 133.5s131 43.834 229 42.501v59
c0 42.667 -9.66699 72.5 -29 89.5s-48 25.5 -86 25.5c-55.333 0 -96.666 -22 -123.999 -66l-57 45c43.333 59.333 104.333 89 183 89zM259.997 639c-74.667 0 -131 32.333 -169 97l52 33c2.66699 -5.33301 6.16699 -11 10.5 -17s11 -13.5 20 -22.5s21.167 -16.333 36.5 -22
s32 -8.5 50 -8.5c52.667 0 91.667 23.333 117 70l52 -33c-38 -64.667 -94.333 -97 -169 -97z" />
    <glyph glyph-name="Aogonek" unicode="&#x104;" horiz-adv-x="594" 
d="M178 275l235.999 0.00195312l-75 236l-21.5 69.5c-12.333 39.667 -18.833 61.5 -19.5 65.5h-4c-0.666992 -4.66699 -7.16699 -26.834 -19.5 -66.501s-19.166 -61.834 -20.499 -66.501zM593.999 -173.998l11.999 -56c-20.667 -8 -46.667 -12 -78 -12
c-41.333 0 -72.166 10 -92.499 30s-30.5 46 -30.5 78c0 52 31.667 99 95 141l-63 197h-282l-65 -204h-82l227 701h124l227 -701c-28.667 -14.667 -54.667 -33.167 -78 -55.5s-35 -45.833 -35 -70.5c0 -38.667 24.333 -58 73 -58c18.667 0 34.667 3.33301 48 10z" />
    <glyph glyph-name="aogonek" unicode="&#x105;" horiz-adv-x="547" 
d="M364 127l-0.000976562 122.001c-69.333 2.66699 -125.666 -5 -168.999 -23s-65 -46.667 -65 -86c0 -24.667 8.66699 -45.334 26 -62.001s41.333 -25 72 -25c28.667 0 55 7.16699 79 21.5s43 31.833 57 52.5zM513.999 -170.999l11.998 -56.001
c-20.667 -8 -46.667 -12 -78 -12c-41.333 0 -72.166 10 -92.499 30s-30.5 46 -30.5 78c0 52.667 31.333 99.667 94 141c-20 10.667 -34.333 28 -43 52h-4c-42 -48.667 -96 -73 -162 -73c-48 0 -86.167 14.333 -114.5 43s-42.5 62.667 -42.5 102
c0 59.333 27.333 103.833 82 133.5s131 43.834 229 42.501v59c0 42.667 -9.66699 72.5 -29 89.5s-48 25.5 -86 25.5c-55.333 0 -96.666 -22 -123.999 -66l-57 45c43.333 59.333 104.333 89 183 89c123.333 0 185 -55 185 -165v-246c0 -54.667 17.667 -82 53 -82h14v-52l3 -4
c-28.667 -14.667 -54.667 -33.167 -78 -55.5s-35 -45.833 -35 -70.5c0 -38.667 24.333 -58 73 -58c18.667 0 34.667 3.33301 48 10z" />
    <glyph glyph-name="Cacute" unicode="&#x106;" horiz-adv-x="569" 
d="M535 909l-198 -122l-48 36l170 128zM61 345c0 116 24.666 206 73.999 270s120.333 96 213 96c79.333 0 141.333 -19.333 186 -58l-50 -61c-37.333 31.333 -85.333 47 -144 47c-62.667 0 -111.167 -23.667 -145.5 -71s-51.5 -119.333 -51.5 -216
c0 -94.667 17.333 -166.5 52 -215.5s85.667 -73.5 153 -73.5c61.333 0 107 14.333 137 43l44 -57c-40.667 -39.333 -104.667 -59 -192 -59c-93.333 0 -162.666 31.167 -207.999 93.5s-68 149.5 -68 261.5z" />
    <glyph glyph-name="cacute" unicode="&#x107;" horiz-adv-x="472" 
d="M466 746l-198 -122l-48 36l170 128zM54 264c0 96 21.002 168.167 63.002 216.5s98 72.5 168 72.5s121.667 -19 155 -57l-52 -57c-28.667 30 -64.334 45 -107.001 45c-98 0 -147 -70 -147 -210c0 -142.667 49 -214 147 -214c45.333 0 80.666 14.333 105.999 43l48 -54
c-34 -38.667 -87.667 -58 -161 -58c-146.667 0 -220 91 -220 273z" />
    <glyph glyph-name="Ccircumflex" unicode="&#x108;" horiz-adv-x="569" 
d="M534 832l-29 -46l-164 95l-163 -95l-29 46l192 125zM61 345c0 116 24.666 206 73.999 270s120.333 96 213 96c79.333 0 141.333 -19.333 186 -58l-50 -61c-37.333 31.333 -85.333 47 -144 47c-62.667 0 -111.167 -23.667 -145.5 -71s-51.5 -119.333 -51.5 -216
c0 -94.667 17.333 -166.5 52 -215.5s85.667 -73.5 153 -73.5c61.333 0 107 14.333 137 43l44 -57c-40.667 -39.333 -104.667 -59 -192 -59c-93.333 0 -162.666 31.167 -207.999 93.5s-68 149.5 -68 261.5z" />
    <glyph glyph-name="ccircumflex" unicode="&#x109;" horiz-adv-x="472" 
d="M455 669l-29 -46l-164 95l-163 -95l-29 46l192 125zM54 264c0 96 21.002 168.167 63.002 216.5s98 72.5 168 72.5s121.667 -19 155 -57l-52 -57c-28.667 30 -64.334 45 -107.001 45c-98 0 -147 -70 -147 -210c0 -142.667 49 -214 147 -214
c45.333 0 80.666 14.333 105.999 43l48 -54c-34 -38.667 -87.667 -58 -161 -58c-146.667 0 -220 91 -220 273z" />
    <glyph glyph-name="Cdotaccent" unicode="&#x10a;" horiz-adv-x="569" 
d="M61 345c0 116 24.666 206 73.999 270s120.333 96 213 96c79.333 0 141.333 -19.333 186 -58l-50 -61c-37.333 31.333 -85.333 47 -144 47c-62.667 0 -111.167 -23.667 -145.5 -71s-51.5 -119.333 -51.5 -216c0 -94.667 17.333 -166.5 52 -215.5s85.667 -73.5 153 -73.5
c61.333 0 107 14.333 137 43l44 -57c-40.667 -39.333 -104.667 -59 -192 -59c-93.333 0 -162.666 31.167 -207.999 93.5s-68 149.5 -68 261.5zM282.999 868c0 16.667 5.5 30.5 16.5 41.5s24.5 16.5 40.5 16.5c16.667 0 30.5 -5.5 41.5 -16.5s16.5 -24.833 16.5 -41.5
c0 -16 -5.5 -29.5 -16.5 -40.5s-24.833 -16.5 -41.5 -16.5c-16 0 -29.5 5.5 -40.5 16.5s-16.5 24.5 -16.5 40.5z" />
    <glyph glyph-name="cdotaccent" unicode="&#x10b;" horiz-adv-x="472" 
d="M54 264c0 96 21.002 168.167 63.002 216.5s98 72.5 168 72.5s121.667 -19 155 -57l-52 -57c-28.667 30 -64.334 45 -107.001 45c-98 0 -147 -70 -147 -210c0 -142.667 49 -214 147 -214c45.333 0 80.666 14.333 105.999 43l48 -54c-34 -38.667 -87.667 -58 -161 -58
c-146.667 0 -220 91 -220 273zM222.002 705c0 16.667 5.5 30.5 16.5 41.5s24.5 16.5 40.5 16.5c16.667 0 30.5 -5.5 41.5 -16.5s16.5 -24.833 16.5 -41.5c0 -16 -5.5 -29.5 -16.5 -40.5s-24.833 -16.5 -41.5 -16.5c-16 0 -29.5 5.5 -40.5 16.5s-16.5 24.5 -16.5 40.5z" />
    <glyph glyph-name="Ccaron" unicode="&#x10c;" horiz-adv-x="569" 
d="M526 911l-193 -125l-192 125l29 46l163 -95l164 95zM61 345c0 116 24.666 206 73.999 270s120.333 96 213 96c79.333 0 141.333 -19.333 186 -58l-50 -61c-37.333 31.333 -85.333 47 -144 47c-62.667 0 -111.167 -23.667 -145.5 -71s-51.5 -119.333 -51.5 -216
c0 -94.667 17.333 -166.5 52 -215.5s85.667 -73.5 153 -73.5c61.333 0 107 14.333 137 43l44 -57c-40.667 -39.333 -104.667 -59 -192 -59c-93.333 0 -162.666 31.167 -207.999 93.5s-68 149.5 -68 261.5z" />
    <glyph glyph-name="ccaron" unicode="&#x10d;" horiz-adv-x="472" 
d="M464 748l-193 -125l-192 125l29 46l163 -95l164 95zM54 264c0 96 21.002 168.167 63.002 216.5s98 72.5 168 72.5s121.667 -19 155 -57l-52 -57c-28.667 30 -64.334 45 -107.001 45c-98 0 -147 -70 -147 -210c0 -142.667 49 -214 147 -214
c45.333 0 80.666 14.333 105.999 43l48 -54c-34 -38.667 -87.667 -58 -161 -58c-146.667 0 -220 91 -220 273z" />
    <glyph glyph-name="Dcaron" unicode="&#x10e;" horiz-adv-x="645" 
d="M499 911l-193 -125l-192 125l29 46l163 -95l164 95zM94 0l0.000976562 701h184c105.333 0 182.666 -27.833 231.999 -83.5s74 -142.5 74 -260.5c0 -238 -102.333 -357 -307 -357h-183zM174.001 630l-0.000976562 -558.999h102c78 0 135.167 21.5 171.5 64.5
s54.5 113.833 54.5 212.5c0 101.333 -19.167 173.666 -57.5 216.999s-96.166 65 -173.499 65h-97z" />
    <glyph glyph-name="dcaron" unicode="&#x10f;" horiz-adv-x="647" 
d="M565 511l-23.999 38.002c47.333 20 71 46 71 78c0 27.333 -18.333 50 -55 68v6c0 16.667 5.5 30.5 16.5 41.5s24.833 16.5 41.5 16.5c20 0 36.667 -7.5 50 -22.5s20 -35.833 20 -62.5c0 -38.667 -12.333 -72.834 -37 -102.501s-52.334 -49.834 -83.001 -60.501z
M399.001 535.002l-0.00195312 224h77v-759h-58l-17 55h-4c-12 -18 -30.5 -33.5 -55.5 -46.5s-53.833 -19.5 -86.5 -19.5c-63.333 0 -112.666 21.5 -147.999 64.5s-53 107.833 -53 194.5c0 96 23.333 169.333 70 220s109.334 76 188.001 76c28 0 57 -3 87 -9zM271.999 56.002
c60.667 0 103 29.334 127 88.001v319c-26 8.66699 -53.667 13 -83 13c-122 0 -183 -73 -183 -219c0 -70.667 13 -121.834 39 -153.501s59.333 -47.5 100 -47.5z" />
    <glyph glyph-name="Dcroat" unicode="&#x110;" horiz-adv-x="653" 
d="M180 71l102.999 0.000976562c78 0 135.167 21.5 171.5 64.5s54.5 113.833 54.5 212.5c0 101.333 -19.167 173.666 -57.5 216.999s-96.166 65 -173.499 65h-98v-235h161v-65h-161v-259zM100.999 701.001h184.001c105.333 0 182.666 -27.833 231.999 -83.5
s74 -142.5 74 -260.5c0 -238 -102.667 -357 -308 -357h-182v330h-78v65h78v306z" />
    <glyph glyph-name="dcroat" unicode="&#x111;" horiz-adv-x="561" 
d="M399 179v284c-26 8.66699 -53.667 13 -83 13c-122 0 -183 -73 -183 -219c0 -70.667 13 -121.834 39 -153.501s59.333 -47.5 100 -47.5c35.333 0 64.833 10.333 88.5 31s36.5 51.334 38.5 92.001zM536 677l-0.00195312 -55h-60v-622l-57 -3l-18 58h-4
c-12 -18 -30.5 -33.5 -55.5 -46.5s-53.833 -19.5 -86.5 -19.5c-63.333 0 -112.666 21.5 -147.999 64.5s-53 107.833 -53 194.5c0 96 23.333 169.333 70 220s109.334 76 188.001 76c28 0 57 -3 87 -9v87h-179v55h179v82h77v-82h60z" />
    <glyph glyph-name="Emacron" unicode="&#x112;" horiz-adv-x="527" 
d="M480 0h-386v701h372v-71h-292v-239h257v-71h-257v-249h306v-71zM436 831h-305v62h305v-62z" />
    <glyph glyph-name="emacron" unicode="&#x113;" horiz-adv-x="543" 
d="M429 102l35.001 -60c-43.333 -32.667 -100.333 -49 -171 -49c-80 0 -139.833 22.167 -179.5 66.5s-59.5 116.166 -59.5 215.499c0 92.667 22 162.167 66 208.5s99 69.5 165 69.5c63.333 0 112.166 -19 146.499 -57s51.5 -90 51.5 -156c0 -27.333 -2 -58.666 -6 -93.999
h-346c3.33301 -66 19 -113.333 47 -142s69.667 -43 125 -43c25.333 0 49.5 4 72.5 12s40.833 17.667 53.5 29zM278.001 486c-39.333 0 -72.668 -13.999 -100.001 -41.999s-42.666 -72.667 -45.999 -134h273c0.666992 7.33301 1 17.666 1 30.999
c0 96.667 -42.667 145 -128 145zM423.999 668.001h-305v62h305v-62z" />
    <glyph glyph-name="Ebreve" unicode="&#x114;" horiz-adv-x="527" 
d="M480 0h-386v701h372v-71h-292v-239h257v-71h-257v-249h306v-71zM280 802c-74.667 0 -131 32.333 -169 97l52 33c2.66699 -5.33301 6.16699 -11 10.5 -17s11 -13.5 20 -22.5s21.167 -16.333 36.5 -22s32 -8.5 50 -8.5c52.667 0 91.667 23.333 117 70l52 -33
c-38 -64.667 -94.333 -97 -169 -97z" />
    <glyph glyph-name="ebreve" unicode="&#x115;" horiz-adv-x="543" 
d="M429 102l35.001 -60c-43.333 -32.667 -100.333 -49 -171 -49c-80 0 -139.833 22.167 -179.5 66.5s-59.5 116.166 -59.5 215.499c0 92.667 22 162.167 66 208.5s99 69.5 165 69.5c63.333 0 112.166 -19 146.499 -57s51.5 -90 51.5 -156c0 -27.333 -2 -58.666 -6 -93.999
h-346c3.33301 -66 19 -113.333 47 -142s69.667 -43 125 -43c25.333 0 49.5 4 72.5 12s40.833 17.667 53.5 29zM278.001 486c-39.333 0 -72.668 -13.999 -100.001 -41.999s-42.666 -72.667 -45.999 -134h273c0.666992 7.33301 1 17.666 1 30.999
c0 96.667 -42.667 145 -128 145zM270.999 639.001c-74.667 0 -131 32.333 -169 97l52 33c2.66699 -5.33301 6.16699 -11 10.5 -17s11 -13.5 20 -22.5s21.167 -16.333 36.5 -22s32 -8.5 50 -8.5c52.667 0 91.667 23.333 117 70l52 -33c-38 -64.667 -94.333 -97 -169 -97z" />
    <glyph glyph-name="Edotaccent" unicode="&#x116;" horiz-adv-x="527" 
d="M480 0h-386v701h372v-71h-292v-239h257v-71h-257v-249h306v-71zM222 868c0 16.667 5.5 30.5 16.5 41.5s24.5 16.5 40.5 16.5c16.667 0 30.5 -5.5 41.5 -16.5s16.5 -24.833 16.5 -41.5c0 -16 -5.5 -29.5 -16.5 -40.5s-24.833 -16.5 -41.5 -16.5
c-16 0 -29.5 5.5 -40.5 16.5s-16.5 24.5 -16.5 40.5z" />
    <glyph glyph-name="edotaccent" unicode="&#x117;" horiz-adv-x="543" 
d="M429 102l35.001 -60c-43.333 -32.667 -100.333 -49 -171 -49c-80 0 -139.833 22.167 -179.5 66.5s-59.5 116.166 -59.5 215.499c0 92.667 22 162.167 66 208.5s99 69.5 165 69.5c63.333 0 112.166 -19 146.499 -57s51.5 -90 51.5 -156c0 -27.333 -2 -58.666 -6 -93.999
h-346c3.33301 -66 19 -113.333 47 -142s69.667 -43 125 -43c25.333 0 49.5 4 72.5 12s40.833 17.667 53.5 29zM278.001 486c-39.333 0 -72.668 -13.999 -100.001 -41.999s-42.666 -72.667 -45.999 -134h273c0.666992 7.33301 1 17.666 1 30.999
c0 96.667 -42.667 145 -128 145zM213.999 705.001c0 16.667 5.5 30.5 16.5 41.5s24.5 16.5 40.5 16.5c16.667 0 30.5 -5.5 41.5 -16.5s16.5 -24.833 16.5 -41.5c0 -16 -5.5 -29.5 -16.5 -40.5s-24.833 -16.5 -41.5 -16.5c-16 0 -29.5 5.5 -40.5 16.5s-16.5 24.5 -16.5 40.5z
" />
    <glyph glyph-name="Eogonek" unicode="&#x118;" horiz-adv-x="527" 
d="M488 -174l11.999 -56.001c-20.667 -8 -46.667 -12 -78 -12c-41.333 0 -72.166 10 -92.499 30s-30.5 46 -30.5 78c0 48.667 28 93.334 84 134.001h-289v701h372v-71h-292v-239h257v-71h-257v-249h306v-71c-28.667 -14.667 -54.667 -33.167 -78 -55.5
s-35 -45.833 -35 -70.5c0 -38.667 24.333 -58 73 -58c18.667 0 34.667 3.33301 48 10z" />
    <glyph glyph-name="eogonek" unicode="&#x119;" horiz-adv-x="543" 
d="M132 310l272.998 0.000976562c0.666992 7.33301 1 17.666 1 30.999c0 96.667 -42.667 145 -128 145c-39.333 0 -72.666 -14 -99.999 -42s-42.666 -72.667 -45.999 -134zM302.998 -6.99902h-10c-80 0 -139.833 22.167 -179.5 66.5s-59.5 116.166 -59.5 215.499
c0 92.667 22 162.167 66 208.5s99 69.5 165 69.5c63.333 0 112.166 -19 146.499 -57s51.5 -90 51.5 -156c0 -27.333 -2 -58.666 -6 -93.999h-346c3.33301 -66 19 -113.333 47 -142s69.667 -43 125 -43c25.333 0 49.5 4 72.5 12s40.833 17.667 53.5 29l35 -60
c-8.66699 -6.66699 -19 -13 -31 -19c-28.667 -15.333 -54 -33.833 -76 -55.5s-33 -44.5 -33 -68.5c0 -38.667 24.333 -58 73 -58c18.667 0 34.667 3.33301 48 10l12 -56c-20.667 -8 -46.667 -12 -78 -12c-41.333 0 -72.166 10 -92.499 30s-30.5 46 -30.5 78
c0 36.667 15.667 70.667 47 102z" />
    <glyph glyph-name="Ecaron" unicode="&#x11a;" horiz-adv-x="527" 
d="M456 911l-193 -125l-192 125l29 46l163 -95l164 95zM480 0h-386v701h372v-71h-292v-239h257v-71h-257v-249h306v-71z" />
    <glyph glyph-name="ecaron" unicode="&#x11b;" horiz-adv-x="543" 
d="M463 748l-193 -125l-192 125l29 46l163 -95l164 95zM429 102l35.001 -60c-43.333 -32.667 -100.333 -49 -171 -49c-80 0 -139.833 22.167 -179.5 66.5s-59.5 116.166 -59.5 215.499c0 92.667 22 162.167 66 208.5s99 69.5 165 69.5c63.333 0 112.166 -19 146.499 -57
s51.5 -90 51.5 -156c0 -27.333 -2 -58.666 -6 -93.999h-346c3.33301 -66 19 -113.333 47 -142s69.667 -43 125 -43c25.333 0 49.5 4 72.5 12s40.833 17.667 53.5 29zM278.001 486c-39.333 0 -72.668 -13.999 -100.001 -41.999s-42.666 -72.667 -45.999 -134h273
c0.666992 7.33301 1 17.666 1 30.999c0 96.667 -42.667 145 -128 145z" />
    <glyph glyph-name="Gcircumflex" unicode="&#x11c;" horiz-adv-x="636" 
d="M546 832l-29 -46l-164 95l-163 -95l-29 46l192 125zM362 711c86.667 0 150.999 -20 192.999 -60l-52 -61c-33.333 32 -82 48 -146 48c-28 0 -53.667 -4.16699 -77 -12.5s-45.833 -22.5 -67.5 -42.5s-38.667 -49.333 -51 -88s-18.5 -85.334 -18.5 -140.001
c0 -102.667 17.667 -177.5 53 -224.5s88.333 -70.5 159 -70.5c54.667 0 95.667 9.33301 123 28v268h80v-303c-51.333 -42 -124.666 -63 -219.999 -63c-90.667 0 -159.5 30 -206.5 90s-70.5 149.333 -70.5 268c0 120.667 28 211.334 84 272.001s128.333 91 217 91z" />
    <glyph glyph-name="gcircumflex" unicode="&#x11d;" horiz-adv-x="557" 
d="M484 669l-29 -46l-164 95l-163 -95l-29 46l192 125zM474 521l0.000976562 -524.999c0 -70 -19.833 -123.167 -59.5 -159.5s-94.5 -54.5 -164.5 -54.5c-80.667 0 -140.334 19.333 -179.001 58l45 62c34 -34 81.667 -51 143 -51c48.667 0 84 11.833 106 35.5
s33 60.167 33 109.5v50h-4c-32.667 -28.667 -77 -43 -133 -43c-60.667 0 -110.334 20.667 -149.001 62s-58 105.666 -58 192.999c0 90 22.333 161 67 213s110.667 78 198 78c64.667 0 116.334 -9.33301 155.001 -28zM397.001 466.001c-25.333 10 -54.999 15 -88.999 15
c-54 0 -96.667 -18 -128 -54s-47 -89 -47 -159c0 -131.333 49.667 -197 149 -197c49.333 0 87.666 17.667 114.999 53v342z" />
    <glyph glyph-name="Gbreve" unicode="&#x11e;" horiz-adv-x="636" 
d="M362 711c86.667 0 150.999 -20 192.999 -60l-52 -61c-33.333 32 -82 48 -146 48c-28 0 -53.667 -4.16699 -77 -12.5s-45.833 -22.5 -67.5 -42.5s-38.667 -49.333 -51 -88s-18.5 -85.334 -18.5 -140.001c0 -102.667 17.667 -177.5 53 -224.5s88.333 -70.5 159 -70.5
c54.667 0 95.667 9.33301 123 28v268h80v-303c-51.333 -42 -124.666 -63 -219.999 -63c-90.667 0 -159.5 30 -206.5 90s-70.5 149.333 -70.5 268c0 120.667 28 211.334 84 272.001s128.333 91 217 91zM343.999 802c-74.667 0 -131 32.333 -169 97l52 33
c2.66699 -5.33301 6.16699 -11 10.5 -17s11 -13.5 20 -22.5s21.167 -16.333 36.5 -22s32 -8.5 50 -8.5c52.667 0 91.667 23.333 117 70l52 -33c-38 -64.667 -94.333 -97 -169 -97z" />
    <glyph glyph-name="gbreve" unicode="&#x11f;" horiz-adv-x="557" 
d="M474 521l0.000976562 -524.999c0 -70 -19.833 -123.167 -59.5 -159.5s-94.5 -54.5 -164.5 -54.5c-80.667 0 -140.334 19.333 -179.001 58l45 62c34 -34 81.667 -51 143 -51c48.667 0 84 11.833 106 35.5s33 60.167 33 109.5v50h-4c-32.667 -28.667 -77 -43 -133 -43
c-60.667 0 -110.334 20.667 -149.001 62s-58 105.666 -58 192.999c0 90 22.333 161 67 213s110.667 78 198 78c64.667 0 116.334 -9.33301 155.001 -28zM397.001 466.001c-25.333 10 -54.999 15 -88.999 15c-54 0 -96.667 -18 -128 -54s-47 -89 -47 -159
c0 -131.333 49.667 -197 149 -197c49.333 0 87.666 17.667 114.999 53v342zM291.002 639.001c-74.667 0 -131 32.333 -169 97l52 33c2.66699 -5.33301 6.16699 -11 10.5 -17s11 -13.5 20 -22.5s21.167 -16.333 36.5 -22s32 -8.5 50 -8.5c52.667 0 91.667 23.333 117 70
l52 -33c-38 -64.667 -94.333 -97 -169 -97z" />
    <glyph glyph-name="Gdotaccent" unicode="&#x120;" horiz-adv-x="636" 
d="M362 711c86.667 0 150.999 -20 192.999 -60l-52 -61c-33.333 32 -82 48 -146 48c-28 0 -53.667 -4.16699 -77 -12.5s-45.833 -22.5 -67.5 -42.5s-38.667 -49.333 -51 -88s-18.5 -85.334 -18.5 -140.001c0 -102.667 17.667 -177.5 53 -224.5s88.333 -70.5 159 -70.5
c54.667 0 95.667 9.33301 123 28v268h80v-303c-51.333 -42 -124.666 -63 -219.999 -63c-90.667 0 -159.5 30 -206.5 90s-70.5 149.333 -70.5 268c0 120.667 28 211.334 84 272.001s128.333 91 217 91zM289.999 868c0 16.667 5.5 30.5 16.5 41.5s24.5 16.5 40.5 16.5
c16.667 0 30.5 -5.5 41.5 -16.5s16.5 -24.833 16.5 -41.5c0 -16 -5.5 -29.5 -16.5 -40.5s-24.833 -16.5 -41.5 -16.5c-16 0 -29.5 5.5 -40.5 16.5s-16.5 24.5 -16.5 40.5z" />
    <glyph glyph-name="gdotaccent" unicode="&#x121;" horiz-adv-x="557" 
d="M474 521l0.000976562 -524.999c0 -70 -19.833 -123.167 -59.5 -159.5s-94.5 -54.5 -164.5 -54.5c-80.667 0 -140.334 19.333 -179.001 58l45 62c34 -34 81.667 -51 143 -51c48.667 0 84 11.833 106 35.5s33 60.167 33 109.5v50h-4c-32.667 -28.667 -77 -43 -133 -43
c-60.667 0 -110.334 20.667 -149.001 62s-58 105.666 -58 192.999c0 90 22.333 161 67 213s110.667 78 198 78c64.667 0 116.334 -9.33301 155.001 -28zM397.001 466.001c-25.333 10 -54.999 15 -88.999 15c-54 0 -96.667 -18 -128 -54s-47 -89 -47 -159
c0 -131.333 49.667 -197 149 -197c49.333 0 87.666 17.667 114.999 53v342zM244.002 702.001c0 16.667 5.5 30.5 16.5 41.5s24.5 16.5 40.5 16.5c16.667 0 30.5 -5.5 41.5 -16.5s16.5 -24.833 16.5 -41.5c0 -16 -5.5 -29.5 -16.5 -40.5s-24.833 -16.5 -41.5 -16.5
c-16 0 -29.5 5.5 -40.5 16.5s-16.5 24.5 -16.5 40.5z" />
    <glyph glyph-name="uni0122" unicode="&#x122;" horiz-adv-x="636" 
d="M325 -327l-19.998 31c34.667 17.333 52 39.666 52 66.999c0 10.667 -3.16699 20.334 -9.5 29.001s-12.833 15.167 -19.5 19.5s-16.334 9.83301 -29.001 16.5v5c0 16 5 29.167 15 39.5s23 15.5 39 15.5c19.333 0 35.166 -7.16699 47.499 -21.5s18.5 -33.833 18.5 -58.5
c0 -32.667 -9.33301 -61.5 -28 -86.5s-40.667 -43.833 -66 -56.5zM362.002 711c86.667 0 150.999 -20 192.999 -60l-52 -61c-33.333 32 -82 48 -146 48c-28 0 -53.667 -4.16699 -77 -12.5s-45.833 -22.5 -67.5 -42.5s-38.667 -49.333 -51 -88s-18.5 -85.334 -18.5 -140.001
c0 -102.667 17.667 -177.5 53 -224.5s88.333 -70.5 159 -70.5c54.667 0 95.667 9.33301 123 28v268h80v-303c-51.333 -42 -124.666 -63 -219.999 -63c-90.667 0 -159.5 30 -206.5 90s-70.5 149.333 -70.5 268c0 120.667 28 211.334 84 272.001s128.333 91 217 91z" />
    <glyph glyph-name="uni0123" unicode="&#x123;" horiz-adv-x="557" 
d="M363 879l24 -39.001c-46.667 -19.333 -70 -45 -70 -77c0 -14.667 4.5 -27.167 13.5 -37.5s22.833 -20.166 41.5 -29.499v-6c0 -16.667 -5.5 -30.5 -16.5 -41.5s-24.833 -16.5 -41.5 -16.5c-20 0 -36.5 7.33301 -49.5 22s-19.5 35.667 -19.5 63
c0 38.667 12.167 72.667 36.5 102s51.5 49.333 81.5 60zM474 520.999l0.000976562 -524.999c0 -70 -19.833 -123.167 -59.5 -159.5s-94.5 -54.5 -164.5 -54.5c-80.667 0 -140.334 19.333 -179.001 58l45 62c34 -34 81.667 -51 143 -51c48.667 0 84 11.833 106 35.5
s33 60.167 33 109.5v50h-4c-32.667 -28.667 -77 -43 -133 -43c-60.667 0 -110.334 20.667 -149.001 62s-58 105.666 -58 192.999c0 90 22.333 161 67 213s110.667 78 198 78c64.667 0 116.334 -9.33301 155.001 -28zM397.001 466c-25.333 10 -54.999 15 -88.999 15
c-54 0 -96.667 -18 -128 -54s-47 -89 -47 -159c0 -131.333 49.667 -197 149 -197c49.333 0 87.666 17.667 114.999 53v342z" />
    <glyph glyph-name="Hcircumflex" unicode="&#x124;" horiz-adv-x="687" 
d="M536 832l-29 -46l-164 95l-163 -95l-29 46l192 125zM513 701h80v-701h-80v319h-339v-319h-80v701h80v-311h339v311z" />
    <glyph glyph-name="hcircumflex" unicode="&#x125;" horiz-adv-x="574" 
d="M313 825l-29 -46l-164 95l-163 -95l-29 46l192 125zM322 553c52.667 0 94.502 -15.667 125.502 -47s46.5 -74.666 46.5 -129.999v-376h-78v364c0 35.333 -9.5 64.166 -28.5 86.499s-46.167 33.5 -81.5 33.5c-34.667 0 -64.834 -9.5 -90.501 -28.5
s-43.834 -41.5 -54.501 -67.5v-388h-78v759h78v-275h4c38.667 46 91 69 157 69z" />
    <glyph glyph-name="Hbar" unicode="&#x126;" horiz-adv-x="700" 
d="M519 390v125h-339v-125h339zM669 570v-55h-70v-515h-80v319h-339v-319h-80v515h-69v55h69v131h80v-131h339v131h80v-131h70z" />
    <glyph glyph-name="hbar" unicode="&#x127;" horiz-adv-x="577" 
d="M163 484h4.00195c38.667 46 91 69 157 69c52.667 0 94.5 -15.667 125.5 -47s46.5 -74.666 46.5 -129.999v-376h-78v364c0 35.333 -9.5 64.166 -28.5 86.499s-46.167 33.5 -81.5 33.5c-34.667 0 -64.834 -9.5 -90.501 -28.5s-43.834 -41.5 -54.501 -67.5v-388h-78v622h-64
v55h64v82h78v-82h174v-55h-174v-138z" />
    <glyph glyph-name="Itilde" unicode="&#x128;" horiz-adv-x="288" 
d="M104 0v701h80v-701h-80zM75 909c18.667 0 43.167 -5.83301 73.5 -17.5s51.833 -17.5 64.5 -17.5c27.333 0 48.666 10 63.999 30l31 -49c-4 -8.66699 -14.167 -18.167 -30.5 -28.5s-36.5 -15.5 -60.5 -15.5c-15.333 0 -38.666 6 -69.999 18s-54 18 -68 18
c-27.333 0 -50.333 -9.66699 -69 -29l-31 50c27.333 27.333 59.333 41 96 41z" />
    <glyph glyph-name="itilde" unicode="&#x129;" horiz-adv-x="289" 
d="M109 0v544h78v-544h-78zM76 746c18.667 0 43.168 -5.83301 73.501 -17.5s51.833 -17.5 64.5 -17.5c27.333 0 48.666 10 63.999 30l31 -49c-4 -8.66699 -14.167 -18.167 -30.5 -28.5s-36.5 -15.5 -60.5 -15.5c-16 0 -39.5 6 -70.5 18s-53.5 18 -67.5 18
c-27.333 0 -50.333 -9.66699 -69 -29l-31 50c27.333 27.333 59.333 41 96 41z" />
    <glyph glyph-name="Imacron" unicode="&#x12a;" horiz-adv-x="288" 
d="M104 0v701h80v-701h-80zM297 831h-305v62h305v-62z" />
    <glyph glyph-name="imacron" unicode="&#x12b;" horiz-adv-x="289" 
d="M109 0v544h78v-544h-78zM297 668h-305v62h305v-62z" />
    <glyph glyph-name="Ibreve" unicode="&#x12c;" horiz-adv-x="288" 
d="M104 0v701h80v-701h-80zM144 802c-74.667 0 -131 32.333 -169 97l52 33c2.66699 -5.33301 6.16699 -11 10.5 -17s11 -13.5 20 -22.5s21.167 -16.333 36.5 -22s32 -8.5 50 -8.5c52.667 0 91.667 23.333 117 70l52 -33c-38 -64.667 -94.333 -97 -169 -97z" />
    <glyph glyph-name="ibreve" unicode="&#x12d;" horiz-adv-x="289" 
d="M109 0v544h78v-544h-78zM145 639c-74.667 0 -131 32.333 -169 97l52 33c2.66699 -5.33301 6.16699 -11 10.5 -17s11 -13.5 20 -22.5s21.167 -16.333 36.5 -22s32 -8.5 50 -8.5c52.667 0 91.667 23.333 117 70l52 -33c-38 -64.667 -94.333 -97 -169 -97z" />
    <glyph glyph-name="Iogonek" unicode="&#x12e;" horiz-adv-x="288" 
d="M192 -174l11.999 -56c-20.667 -8 -46.667 -12 -78 -12c-41.333 0 -72.166 10 -92.499 30s-30.5 46 -30.5 78c0 54 33.667 102.333 101 145v690h80v-701c-28.667 -14.667 -54.667 -33.167 -78 -55.5s-35 -45.833 -35 -70.5c0 -38.667 24.333 -58 73 -58
c18.667 0 34.667 3.33301 48 10z" />
    <glyph glyph-name="iogonek" unicode="&#x12f;" horiz-adv-x="289" 
d="M143 647c-15.333 0 -28.5 5.33301 -39.5 16s-16.5 24 -16.5 40c0 16.667 5.5 30.334 16.5 41.001s24.167 16 39.5 16c16.667 0 30.5 -5.33301 41.5 -16s16.5 -24.334 16.5 -41.001c0 -16 -5.5 -29.333 -16.5 -40s-24.833 -16 -41.5 -16zM195 -174l11.999 -56
c-20.667 -8 -46.667 -12 -78 -12c-41.333 0 -72.166 10 -92.499 30s-30.5 46 -30.5 78c0 55.333 34.333 104 103 146v532h78v-544c-28.667 -14.667 -54.667 -33.167 -78 -55.5s-35 -45.833 -35 -70.5c0 -38.667 24.333 -58 73 -58c18.667 0 34.667 3.33301 48 10z" />
    <glyph glyph-name="Idotaccent" unicode="&#x130;" horiz-adv-x="288" 
d="M104 0v701h80v-701h-80zM87 868c0 16.667 5.5 30.5 16.5 41.5s24.5 16.5 40.5 16.5c16.667 0 30.5 -5.5 41.5 -16.5s16.5 -24.833 16.5 -41.5c0 -16 -5.5 -29.5 -16.5 -40.5s-24.833 -16.5 -41.5 -16.5c-16 0 -29.5 5.5 -40.5 16.5s-16.5 24.5 -16.5 40.5z" />
    <glyph glyph-name="dotlessi" unicode="&#x131;" horiz-adv-x="289" 
d="M109 0v544h78v-544h-78z" />
    <glyph glyph-name="IJ" unicode="&#x132;" horiz-adv-x="674" 
d="M104 0v701h80v-701h-80zM295 9l26 73c26 -15.333 57.667 -23 95 -23c30 0 51.5 7 64.5 21s19.5 36.333 19.5 67v554h79v-556c0 -47.333 -13.667 -85.5 -41 -114.5s-69.666 -43.5 -126.999 -43.5c-46.667 0 -85.334 7.33301 -116.001 22z" />
    <glyph glyph-name="ij" unicode="&#x133;" horiz-adv-x="540" 
d="M109 0v544h78v-544h-78zM87 703c0 16.667 5.5 30.334 16.5 41.001s24.167 16 39.5 16c16.667 0 30.5 -5.33301 41.5 -16s16.5 -24.334 16.5 -41.001c0 -16 -5.5 -29.333 -16.5 -40s-24.833 -16 -41.5 -16c-15.333 0 -28.5 5.33301 -39.5 16s-16.5 24 -16.5 40zM288 -221
l-27.001 65c36.667 12.667 64.834 32.5 84.501 59.5s29.5 71.167 29.5 132.5v508h78v-510c0 -136 -55 -221 -165 -255zM353.999 703c0 16.667 5.33301 30.334 16 41.001s24 16 40 16c16.667 0 30.334 -5.33301 41.001 -16s16 -24.334 16 -41.001
c0 -16 -5.33301 -29.333 -16 -40s-24.334 -16 -41.001 -16c-16 0 -29.333 5.33301 -40 16s-16 24 -16 40z" />
    <glyph glyph-name="Jcircumflex" unicode="&#x134;" horiz-adv-x="388" 
d="M444 832l-29 -46l-164 95l-163 -95l-29 46l192 125zM9 9l26 73c26 -15.333 57.667 -23 95 -23c30 0 51.5 7 64.5 21s19.5 36.333 19.5 67v554h79v-556c0 -47.333 -13.667 -85.5 -41 -114.5s-69.666 -43.5 -126.999 -43.5c-46.667 0 -85.334 7.33301 -116.001 22z" />
    <glyph glyph-name="jcircumflex" unicode="&#x135;" horiz-adv-x="273" 
d="M11 -228l-27.001 65c36.667 12.667 64.834 32.5 84.501 59.5s29.5 71.167 29.5 132.5v515h78v-517c0 -136 -55 -221 -165 -255zM328.999 669l-29 -46l-164 95l-163 -95l-29 46l192 125z" />
    <glyph glyph-name="uni0136" unicode="&#x136;" horiz-adv-x="578" 
d="M274 -325l-20.999 30.999c34.667 16.667 52 39.334 52 68.001c0 10 -3.16699 19.333 -9.5 28s-12.833 15.167 -19.5 19.5s-16.334 9.83301 -29.001 16.5v5c0 16 5 29.167 15 39.5s23 15.5 39 15.5c19.333 0 35.166 -7.16699 47.499 -21.5s18.5 -33.833 18.5 -58.5
c0 -32.667 -9.16699 -61.5 -27.5 -86.5s-40.166 -43.833 -65.499 -56.5zM174.001 700.999v-701h-80v701h80zM200.001 350.999l247 350h93l-249 -350l272 -351h-102l-261 347v4z" />
    <glyph glyph-name="uni0137" unicode="&#x137;" horiz-adv-x="501" 
d="M233 -325l-21.001 31.001c35.333 17.333 53 40 53 68c0 14.667 -5 26.667 -15 36s-24.667 18.666 -44 27.999v5c0 15.333 5.16699 28.333 15.5 39s23.5 16 39.5 16c19.333 0 35 -7.16699 47 -21.5s18 -33.833 18 -58.5c0 -32.667 -9.16699 -61.5 -27.5 -86.5
s-40.166 -43.833 -65.499 -56.5zM160.999 759.001v-759h-78v759h78zM175.999 279.001v4l195 261h97l-201 -259v-4l213 -281h-99z" />
    <glyph glyph-name="kgreenlandic" unicode="&#x138;" horiz-adv-x="501" 
d="M83 544h78v-544h-78v544zM181 260v4l190 280h94l-194 -276v-4l209 -264h-99z" />
    <glyph glyph-name="Lacute" unicode="&#x139;" horiz-adv-x="491" 
d="M338 909l-198 -122l-48 36l170 128zM94 701h80v-630h301v-71h-381v701z" />
    <glyph glyph-name="lacute" unicode="&#x13a;" horiz-adv-x="290" 
d="M324 922l-198 -122l-48 36l170 128zM89 759h77.001v-630c0 -24 4.5 -41.5 13.5 -52.5s23.5 -16.5 43.5 -16.5c15.333 0 30.333 3.66699 45 11v-66c-18 -8 -40.667 -12 -68 -12c-36.667 0 -64.334 10 -83.001 30s-28 48.333 -28 85v651z" />
    <glyph glyph-name="uni013B" unicode="&#x13b;" horiz-adv-x="491" 
d="M246 -325l-21.001 31.001c35.333 17.333 53 40 53 68c0 14.667 -5 26.667 -15 36s-24.667 18.666 -44 27.999v5c0 15.333 5.16699 28.333 15.5 39s23.5 16 39.5 16c19.333 0 35 -7.16699 47 -21.5s18 -33.833 18 -58.5c0 -32.667 -9.16699 -61.5 -27.5 -86.5
s-40.166 -43.833 -65.499 -56.5zM93.999 701.001h80v-630h301v-71h-381v701z" />
    <glyph glyph-name="uni013C" unicode="&#x13c;" horiz-adv-x="290" 
d="M131 -325l-20.999 30.999c34.667 16.667 52 39.334 52 68.001c0 10 -3.16699 19.333 -9.5 28s-12.833 15.167 -19.5 19.5s-16.334 9.83301 -29.001 16.5v5c0 16 5 29.167 15 39.5s23 15.5 39 15.5c19.333 0 35.166 -7.16699 47.499 -21.5s18.5 -33.833 18.5 -58.5
c0 -32.667 -9.16699 -61.5 -27.5 -86.5s-40.166 -43.833 -65.499 -56.5zM89.001 758.999h77.001v-630c0 -24 4.5 -41.5 13.5 -52.5s23.5 -16.5 43.5 -16.5c15.333 0 30.333 3.66699 45 11v-66c-18 -8 -40.667 -12 -68 -12c-36.667 0 -64.334 10 -83.001 30
s-28 48.333 -28 85v651z" />
    <glyph glyph-name="Lcaron" unicode="&#x13d;" horiz-adv-x="491" 
d="M269 473l-25 39.002c47.333 20 71 46 71 78c0 15.333 -4.33301 28 -13 38s-22.667 19.667 -42 29v7c0 16 5.66699 29.667 17 41s25.333 17 42 17c20 0 36.5 -7.5 49.5 -22.5s19.5 -36.167 19.5 -63.5c0 -38.667 -12.167 -72.834 -36.5 -102.501
s-51.833 -49.834 -82.5 -60.501zM94 701.002h80v-630h301v-71h-381v701z" />
    <glyph glyph-name="lcaron" unicode="&#x13e;" horiz-adv-x="361" 
d="M268 508l-25 39.001c47.333 20 71 46 71 78c0 14.667 -4.5 27.167 -13.5 37.5s-22.833 20.166 -41.5 29.499v7c0 16.667 5.66699 30.5 17 41.5s25.333 16.5 42 16.5c20 0 36.5 -7.5 49.5 -22.5s19.5 -35.833 19.5 -62.5c0 -38.667 -12.333 -73 -37 -103
s-52 -50.333 -82 -61zM89 759.001h77.001v-630c0 -24 4.5 -41.5 13.5 -52.5s23.5 -16.5 43.5 -16.5c15.333 0 30.333 3.66699 45 11v-66c-18 -8 -40.667 -12 -68 -12c-36.667 0 -64.334 10 -83.001 30s-28 48.333 -28 85v651z" />
    <glyph glyph-name="Ldot" unicode="&#x13f;" horiz-adv-x="491" 
d="M292 377c0 16.667 5.66699 30.834 17 42.501s25 17.5 41 17.5c17.333 0 31.833 -5.83301 43.5 -17.5s17.5 -25.834 17.5 -42.501c0 -16 -6 -29.667 -18 -41s-26.333 -17 -43 -17c-16 0 -29.667 5.66699 -41 17s-17 25 -17 41zM94 701h80v-630h301v-71h-381v701z" />
    <glyph glyph-name="ldot" unicode="&#x140;" horiz-adv-x="384" 
d="M271 400c0 16.667 5.66699 30.832 17 42.499s25 17.5 41 17.5c16.667 0 30.834 -5.66699 42.501 -17s17.5 -25.666 17.5 -42.999c0 -16 -5.83301 -29.667 -17.5 -41s-25.834 -17 -42.501 -17c-16 0 -29.667 5.66699 -41 17s-17 25 -17 41zM89 758.998h77.001v-630
c0 -24 4.5 -41.5 13.5 -52.5s23.5 -16.5 43.5 -16.5c15.333 0 30.333 3.66699 45 11v-66c-18 -8 -40.667 -12 -68 -12c-36.667 0 -64.334 10 -83.001 30s-28 48.333 -28 85v651z" />
    <glyph glyph-name="Lslash" unicode="&#x141;" horiz-adv-x="496" 
d="M180 71h301v-71h-381v290l-62 -45v68l62 45v343h80v-285l141 103v-67l-141 -103v-278z" />
    <glyph glyph-name="lslash" unicode="&#x142;" horiz-adv-x="300" 
d="M171 374l0.000976562 -245c0 -24 4.5 -41.5 13.5 -52.5s23.5 -16.5 43.5 -16.5c15.333 0 30.333 3.66699 45 11v-66c-18 -8 -40.667 -12 -68 -12c-36.667 0 -64.334 10 -83.001 30s-28 48.333 -28 85v206l-56 -43v67l56 43v378h77v-318l99 77v-67z" />
    <glyph glyph-name="Nacute" unicode="&#x143;" horiz-adv-x="699" 
d="M559 909l-198 -122l-48 36l170 128zM176 606l-7.99902 0.000976562c2 -14.667 3 -76.667 3 -186v-420h-76v701h112l236 -444l22 -42l38 -73.5c12 -23.667 19 -37.834 21 -42.501h7c-1.33301 14 -2 76.667 -2 188v414h75v-701h-110l-238 447
c-0.666992 0.666992 -7.83398 14.334 -21.501 41.001l-38 75c-11.667 23.333 -18.5 37.666 -20.5 42.999z" />
    <glyph glyph-name="nacute" unicode="&#x144;" horiz-adv-x="574" 
d="M498 746l-198 -122l-48 36l170 128zM494 375v-375h-78v357c0 41.333 -10 73.166 -30 95.499s-49 33.5 -87 33.5c-32 0 -60.5 -9.16699 -85.5 -27.5s-42.5 -41.5 -52.5 -69.5v-389h-78v544h59l16 -57h4c12 14.667 31.5 29.667 58.5 45s59.167 23 96.5 23
c55.333 0 98.333 -15.167 129 -45.5s46.667 -75.166 48 -134.499z" />
    <glyph glyph-name="uni0145" unicode="&#x145;" horiz-adv-x="699" 
d="M317 -325l-21.001 31.001c35.333 17.333 53 40 53 68c0 14.667 -5 26.667 -15 36s-24.667 18.666 -44 27.999v5c0 15.333 5.16699 28.333 15.5 39s23.5 16 39.5 16c19.333 0 35 -7.16699 47 -21.5s18 -33.833 18 -58.5c0 -32.667 -9.16699 -61.5 -27.5 -86.5
s-40.166 -43.833 -65.499 -56.5zM175.999 606.001l-7.99902 0.000976562c2 -14.667 3 -76.667 3 -186v-420h-76v701h112l236 -444l22 -42l38 -73.5c12 -23.667 19 -37.834 21 -42.501h7c-1.33301 14 -2 76.667 -2 188v414h75v-701h-110l-238 447
c-0.666992 0.666992 -7.83398 14.334 -21.501 41.001l-38 75c-11.667 23.333 -18.5 37.666 -20.5 42.999z" />
    <glyph glyph-name="uni0146" unicode="&#x146;" horiz-adv-x="574" 
d="M255 -325l-20.999 30.999c34.667 16.667 52 39.334 52 68.001c0 10 -3.16699 19.333 -9.5 28s-12.833 15.167 -19.5 19.5s-16.334 9.83301 -29.001 16.5v5c0 16 5 29.167 15 39.5s23 15.5 39 15.5c19.333 0 35.166 -7.16699 47.499 -21.5s18.5 -33.833 18.5 -58.5
c0 -32.667 -9.16699 -61.5 -27.5 -86.5s-40.166 -43.833 -65.499 -56.5zM494.001 374.999v-375h-78v357c0 41.333 -10 73.166 -30 95.499s-49 33.5 -87 33.5c-32 0 -60.5 -9.16699 -85.5 -27.5s-42.5 -41.5 -52.5 -69.5v-389h-78v544h59l16 -57h4
c12 14.667 31.5 29.667 58.5 45s59.167 23 96.5 23c55.333 0 98.333 -15.167 129 -45.5s46.667 -75.166 48 -134.499z" />
    <glyph glyph-name="Ncaron" unicode="&#x147;" horiz-adv-x="699" 
d="M542 911l-193 -125l-192 125l29 46l163 -95l164 95zM176 606l-7.99902 0.000976562c2 -14.667 3 -76.667 3 -186v-420h-76v701h112l236 -444l22 -42l38 -73.5c12 -23.667 19 -37.834 21 -42.501h7c-1.33301 14 -2 76.667 -2 188v414h75v-701h-110l-238 447
c-0.666992 0.666992 -7.83398 14.334 -21.501 41.001l-38 75c-11.667 23.333 -18.5 37.666 -20.5 42.999z" />
    <glyph glyph-name="ncaron" unicode="&#x148;" horiz-adv-x="574" 
d="M479 748l-193 -125l-192 125l29 46l163 -95l164 95zM494 375v-375h-78v357c0 41.333 -10 73.166 -30 95.499s-49 33.5 -87 33.5c-32 0 -60.5 -9.16699 -85.5 -27.5s-42.5 -41.5 -52.5 -69.5v-389h-78v544h59l16 -57h4c12 14.667 31.5 29.667 58.5 45s59.167 23 96.5 23
c55.333 0 98.333 -15.167 129 -45.5s46.667 -75.166 48 -134.499z" />
    <glyph glyph-name="napostrophe" unicode="&#x149;" horiz-adv-x="683" 
d="M18 471l-26 40.002c49.333 21.333 74 48.666 74 81.999c0 16 -4.5 29.167 -13.5 39.5s-23.5 20.5 -43.5 30.5v7c0 17.333 5.83301 31.666 17.5 42.999s26.167 17 43.5 17c21.333 0 38.833 -7.83301 52.5 -23.5s20.5 -37.5 20.5 -65.5c0 -40 -12.833 -75.667 -38.5 -107
s-54.5 -52.333 -86.5 -63zM603 375.002v-375h-78v357c0 41.333 -10 73.166 -30 95.499s-49 33.5 -87 33.5c-32 0 -60.5 -9.16699 -85.5 -27.5s-42.5 -41.5 -52.5 -69.5v-389h-78v544h59l16 -57h4c12 14.667 31.5 29.667 58.5 45s59.167 23 96.5 23
c55.333 0 98.333 -15.167 129 -45.5s46.667 -75.166 48 -134.499z" />
    <glyph glyph-name="Eng" unicode="&#x14a;" horiz-adv-x="699" 
d="M176 606l-7.99902 0.000976562c2 -14.667 3 -77 3 -187v-419h-76v701h112l236 -444l22 -42l38 -73.5c12 -23.667 19 -37.834 21 -42.501h7c-1.33301 14 -2 76 -2 186v416h75v-674c0 -136 -55 -221 -165 -255l-27 65c33.333 11.333 60 28.833 80 52.5
s31.667 60.5 35 110.5h-33l-238 447c-0.666992 0.666992 -7.83398 14.334 -21.501 41.001l-38 75c-11.667 23.333 -18.5 37.666 -20.5 42.999z" />
    <glyph glyph-name="eng" unicode="&#x14b;" horiz-adv-x="577" 
d="M158 487l3.99805 -0.000976562c12 14.667 31.5 29.667 58.5 45s59.167 23 96.5 23c55.333 0 98.333 -15.167 129 -45.5s46.667 -75.166 48 -134.499v-348c0 -136 -55 -221 -165 -255l-27 65c36.667 12.667 64.834 32.5 84.501 59.5s29.5 71.167 29.5 132.5v328
c0 42 -9.83301 74 -29.5 96s-48.5 33 -86.5 33c-32.667 0 -61.667 -9.33301 -87 -28s-42.666 -41.667 -51.999 -69v-389h-78v544h59z" />
    <glyph glyph-name="Omacron" unicode="&#x14c;" horiz-adv-x="671" 
d="M488 831h-305v62h305v-62zM146 354c0 -104.667 16.5 -179.5 49.5 -224.5s80.167 -67.5 141.5 -67.5c62 0 109 21.667 141 65s48 116.666 48 219.999c0 104.667 -16.5 179.5 -49.5 224.5s-80.5 67.5 -142.5 67.5c-61.333 0 -108 -21.667 -140 -65
s-48 -116.666 -48 -219.999zM608 354c0 -242.667 -92 -364.001 -276 -364.001c-86.667 0 -153 28.333 -199 85s-69 147.334 -69 272.001c0 242.667 92 364 276 364c178.667 0 268 -119 268 -357z" />
    <glyph glyph-name="omacron" unicode="&#x14d;" horiz-adv-x="559" 
d="M432 668h-305v62h305v-62zM134 277c0 -74 11.833 -128.833 35.5 -164.5s61.167 -53.5 112.5 -53.5s88 17 110 51s33 87.333 33 160c0 74 -11.833 128.667 -35.5 164s-61.5 53 -113.5 53c-50.667 0 -87 -17 -109 -51s-33 -87 -33 -159zM276 -9
c-148 0 -222 93.334 -222 280.001c0 188.667 76 283 228 283c148.667 0 223 -92.667 223 -278c0 -88.667 -18.5 -158.334 -55.5 -209.001s-94.833 -76 -173.5 -76z" />
    <glyph glyph-name="Obreve" unicode="&#x14e;" horiz-adv-x="671" 
d="M146 354c0 -104.667 16.5 -179.5 49.5 -224.5s80.167 -67.5 141.5 -67.5c62 0 109 21.667 141 65s48 116.666 48 219.999c0 104.667 -16.5 179.5 -49.5 224.5s-80.5 67.5 -142.5 67.5c-61.333 0 -108 -21.667 -140 -65s-48 -116.666 -48 -219.999zM608 354
c0 -242.667 -92 -364.001 -276 -364.001c-86.667 0 -153 28.333 -199 85s-69 147.334 -69 272.001c0 242.667 92 364 276 364c178.667 0 268 -119 268 -357zM336 801.999c-74.667 0 -131 32.333 -169 97l52 33c2.66699 -5.33301 6.16699 -11 10.5 -17s11 -13.5 20 -22.5
s21.167 -16.333 36.5 -22s32 -8.5 50 -8.5c52.667 0 91.667 23.333 117 70l52 -33c-38 -64.667 -94.333 -97 -169 -97z" />
    <glyph glyph-name="obreve" unicode="&#x14f;" horiz-adv-x="559" 
d="M134 277c0 -74 11.833 -128.833 35.5 -164.5s61.167 -53.5 112.5 -53.5s88 17 110 51s33 87.333 33 160c0 74 -11.833 128.667 -35.5 164s-61.5 53 -113.5 53c-50.667 0 -87 -17 -109 -51s-33 -87 -33 -159zM276 -9c-148 0 -222 93.334 -222 280.001
c0 188.667 76 283 228 283c148.667 0 223 -92.667 223 -278c0 -88.667 -18.5 -158.334 -55.5 -209.001s-94.833 -76 -173.5 -76zM280 639.001c-74.667 0 -131 32.333 -169 97l52 33c2.66699 -5.33301 6.16699 -11 10.5 -17s11 -13.5 20 -22.5s21.167 -16.333 36.5 -22
s32 -8.5 50 -8.5c52.667 0 91.667 23.333 117 70l52 -33c-38 -64.667 -94.333 -97 -169 -97z" />
    <glyph glyph-name="Ohungarumlaut" unicode="&#x150;" horiz-adv-x="671" 
d="M644 898l-199 -116l-41 42l180 123zM430 908l-191 -126l-46 38l172 133zM146 354c0 -104.667 16.5 -179.5 49.5 -224.5s80.167 -67.5 141.5 -67.5c62 0 109 21.667 141 65s48 116.666 48 219.999c0 104.667 -16.5 179.5 -49.5 224.5s-80.5 67.5 -142.5 67.5
c-61.333 0 -108 -21.667 -140 -65s-48 -116.666 -48 -219.999zM608 354c0 -242.667 -92 -364.001 -276 -364.001c-86.667 0 -153 28.333 -199 85s-69 147.334 -69 272.001c0 242.667 92 364 276 364c178.667 0 268 -119 268 -357z" />
    <glyph glyph-name="ohungarumlaut" unicode="&#x151;" horiz-adv-x="559" 
d="M569 735l-199 -116l-41 42l180 123zM355 745l-191 -126l-46 38l172 133zM134 277c0 -74 11.833 -128.833 35.5 -164.5s61.167 -53.5 112.5 -53.5s88 17 110 51s33 87.333 33 160c0 74 -11.833 128.667 -35.5 164s-61.5 53 -113.5 53c-50.667 0 -87 -17 -109 -51
s-33 -87 -33 -159zM276 -9c-148 0 -222 93.334 -222 280.001c0 188.667 76 283 228 283c148.667 0 223 -92.667 223 -278c0 -88.667 -18.5 -158.334 -55.5 -209.001s-94.833 -76 -173.5 -76z" />
    <glyph glyph-name="OE" unicode="&#x152;" horiz-adv-x="963" 
d="M916 0h-379.999v88h-3c-38.667 -65.333 -106 -98 -202 -98c-180 0 -270 119 -270 357c0 124.667 24.5 216.5 73.5 275.5s117.5 88.5 205.5 88.5c91.333 0 155.666 -30.667 192.999 -92h3v82h366v-71h-294v-239h258v-71h-258v-249h308v-71zM143.001 354
c0 -104 16.832 -178.667 50.499 -224s81.834 -68 144.501 -68c62 0 109.667 21.667 143 65s50 116.666 50 219.999c0 104 -17.167 178.667 -51.5 224s-82.833 68 -145.5 68c-62 0 -109.333 -21.667 -142 -65s-49 -116.666 -49 -219.999z" />
    <glyph glyph-name="oe" unicode="&#x153;" horiz-adv-x="914" 
d="M503 309l273.001 -0.000976562c0.666992 8 1 18.333 1 31c0 47.333 -11.167 83.5 -33.5 108.5s-54.833 37.5 -97.5 37.5c-37.333 0 -69.333 -13.167 -96 -39.5s-42.334 -70.166 -47.001 -131.499v-6zM134.001 276.999c0 -74 11.833 -128.833 35.5 -164.5
s61.5 -53.5 113.5 -53.5s89 17.167 111 51.5s33 89.5 33 165.5c0 140.667 -50.333 211 -151 211c-50.667 0 -87 -17 -109 -51s-33 -87 -33 -159zM466.001 97.999h-4c-35.333 -71.333 -97.333 -107 -186 -107c-148 0 -222 93.333 -222 280c0 188.667 76 283 228 283
c91.333 0 152 -35.333 182 -106h5c36 70 98 105 186 105c64 0 113.333 -19.167 148 -57.5s52 -90.833 52 -157.5c0 -24.667 -2 -55.667 -6 -93h-347c0 -0.666992 0.166992 -1.66699 0.5 -3l0.5 -2c4.66699 -64 21.334 -109.833 50.001 -137.5s70 -41.5 124 -41.5
s98.667 16.333 134 49l38 -61c-40.667 -37.333 -101.334 -56 -182.001 -56c-100.667 0 -167.667 35 -201 105z" />
    <glyph glyph-name="Racute" unicode="&#x154;" horiz-adv-x="595" 
d="M480 909l-198 -122l-48 36l170 128zM94 701h176.001c156 0 234 -65.667 234 -197c0 -54.667 -15.167 -99 -45.5 -133s-67.833 -53.333 -112.5 -58v-4c29.333 -13.333 57.666 -43.333 84.999 -90l129 -219h-95l-127 224c-26 44.667 -62.333 67 -109 67h-55v-291h-80v701z
M174.001 630v-270h90c105.333 0 158 45 158 135c0 48 -13.5 82.5 -40.5 103.5s-67.833 31.5 -122.5 31.5h-85z" />
    <glyph glyph-name="racute" unicode="&#x155;" horiz-adv-x="356" 
d="M310 746l-198 -122l-48 36l170 128zM355 548l0.000976562 -81.001c-18 5.33301 -38.333 8 -61 8c-28.667 0 -55 -5.83301 -79 -17.5s-42.333 -29.167 -55 -52.5v-405h-77v544h59l17 -60h4c12.667 20.667 31 37.334 55 50.001s51.333 19 82 19
c23.333 0 41.666 -1.66699 54.999 -5z" />
    <glyph glyph-name="uni0156" unicode="&#x156;" horiz-adv-x="595" 
d="M282 -325l-19.998 31c34.667 17.333 52 40 52 68c0 10 -3.16699 19.333 -9.5 28s-12.833 15.167 -19.5 19.5s-16.334 9.83301 -29.001 16.5v5c0 16 5 29.167 15 39.5s23 15.5 39 15.5c19.333 0 35.166 -7.16699 47.499 -21.5s18.5 -33.833 18.5 -58.5
c0 -32.667 -9.33301 -61.5 -28 -86.5s-40.667 -43.833 -66 -56.5zM94.002 701h176.001c156 0 234 -65.667 234 -197c0 -54.667 -15.167 -99 -45.5 -133s-67.833 -53.333 -112.5 -58v-4c29.333 -13.333 57.666 -43.333 84.999 -90l129 -219h-95l-127 224
c-26 44.667 -62.333 67 -109 67h-55v-291h-80v701zM174.003 630v-270h90c105.333 0 158 45 158 135c0 48 -13.5 82.5 -40.5 103.5s-67.833 31.5 -122.5 31.5h-85z" />
    <glyph glyph-name="uni0157" unicode="&#x157;" horiz-adv-x="356" 
d="M88 -325l-20.999 31.001c35.333 17.333 53 40 53 68c0 14.667 -5 26.667 -15 36s-24.667 18.666 -44 27.999v5c0 15.333 5.16699 28.333 15.5 39s23.5 16 39.5 16c19.333 0 35.166 -7.16699 47.499 -21.5s18.5 -33.833 18.5 -58.5c0 -32 -9.33301 -60.667 -28 -86
s-40.667 -44.333 -66 -57zM355.001 548.001l0.000976562 -81.001c-18 5.33301 -38.333 8 -61 8c-28.667 0 -55 -5.83301 -79 -17.5s-42.333 -29.167 -55 -52.5v-405h-77v544h59l17 -60h4c12.667 20.667 31 37.334 55 50.001s51.333 19 82 19
c23.333 0 41.666 -1.66699 54.999 -5z" />
    <glyph glyph-name="Rcaron" unicode="&#x158;" horiz-adv-x="595" 
d="M490 911l-193 -125l-192 125l29 46l163 -95l164 95zM94 701h176.001c156 0 234 -65.667 234 -197c0 -54.667 -15.167 -99 -45.5 -133s-67.833 -53.333 -112.5 -58v-4c29.333 -13.333 57.666 -43.333 84.999 -90l129 -219h-95l-127 224c-26 44.667 -62.333 67 -109 67h-55
v-291h-80v701zM174.001 630v-270h90c105.333 0 158 45 158 135c0 48 -13.5 82.5 -40.5 103.5s-67.833 31.5 -122.5 31.5h-85z" />
    <glyph glyph-name="rcaron" unicode="&#x159;" horiz-adv-x="356" 
d="M377 748l-193 -125l-192 125l29 46l163 -95l164 95zM355 548l0.000976562 -81.001c-18 5.33301 -38.333 8 -61 8c-28.667 0 -55 -5.83301 -79 -17.5s-42.333 -29.167 -55 -52.5v-405h-77v544h59l17 -60h4c12.667 20.667 31 37.334 55 50.001s51.333 19 82 19
c23.333 0 41.666 -1.66699 54.999 -5z" />
    <glyph glyph-name="Sacute" unicode="&#x15a;" horiz-adv-x="533" 
d="M485 909l-198 -122l-48 36l170 128zM257 62c46 0 81.834 11.001 107.501 33.001s38.5 50 38.5 84c0 21.333 -6.16699 40.333 -18.5 57s-28.333 30.667 -48 42s-41.334 22.333 -65.001 33s-47.334 22 -71.001 34s-45.334 25.5 -65.001 40.5s-35.667 34.167 -48 57.5
s-18.5 50 -18.5 80c0 53.333 20.5 98 61.5 134s92.833 54 155.5 54c72.667 0 133 -19.667 181 -59l-49 -62c-40 32 -85.667 48 -137 48c-40 0 -71.833 -10.167 -95.5 -30.5s-35.5 -46.833 -35.5 -79.5c0 -22 6.16699 -41.5 18.5 -58.5s28.333 -31.333 48 -43
s41.334 -22.834 65.001 -33.501s47.334 -22 71.001 -34s45.334 -25.333 65.001 -40s35.667 -33.5 48 -56.5s18.5 -49.167 18.5 -78.5c0 -55.333 -20.833 -101.5 -62.5 -138.5s-98.834 -55.5 -171.501 -55.5c-91.333 0 -164.333 24.667 -219 74l47 64
c53.333 -44 113 -66 179 -66z" />
    <glyph glyph-name="sacute" unicode="&#x15b;" horiz-adv-x="474" 
d="M447 746l-198 -122l-48 36l170 128zM339 144c0 22.667 -9.5 41.333 -28.5 56s-41.833 26.667 -68.5 36s-53.5 19.5 -80.5 30.5s-50 27.833 -69 50.5s-28.5 51 -28.5 85c0 41.333 16.833 76.833 50.5 106.5s78.834 44.5 135.501 44.5c69.333 0 122.333 -19.333 159 -58
l-50 -54c-28 29.333 -65 44 -111 44c-35.333 0 -62 -7.66699 -80 -23s-27 -34.666 -27 -57.999c0 -22 9.5 -40.333 28.5 -55s41.833 -26.667 68.5 -36s53.5 -19.5 80.5 -30.5s50 -28 69 -51s28.5 -51.5 28.5 -85.5c0 -41.333 -17 -77.5 -51 -108.5s-81.667 -46.5 -143 -46.5
c-42 0 -79.833 6.66699 -113.5 20s-59.834 29.666 -78.501 48.999l48 58c38.667 -40 88 -60 148 -60c36 0 63.833 8.16699 83.5 24.5s29.5 36.833 29.5 61.5z" />
    <glyph glyph-name="Scircumflex" unicode="&#x15c;" horiz-adv-x="533" 
d="M461 832l-29 -46l-164 95l-163 -95l-29 46l192 125zM257 62c46 0 81.834 11.001 107.501 33.001s38.5 50 38.5 84c0 21.333 -6.16699 40.333 -18.5 57s-28.333 30.667 -48 42s-41.334 22.333 -65.001 33s-47.334 22 -71.001 34s-45.334 25.5 -65.001 40.5
s-35.667 34.167 -48 57.5s-18.5 50 -18.5 80c0 53.333 20.5 98 61.5 134s92.833 54 155.5 54c72.667 0 133 -19.667 181 -59l-49 -62c-40 32 -85.667 48 -137 48c-40 0 -71.833 -10.167 -95.5 -30.5s-35.5 -46.833 -35.5 -79.5c0 -22 6.16699 -41.5 18.5 -58.5
s28.333 -31.333 48 -43s41.334 -22.834 65.001 -33.501s47.334 -22 71.001 -34s45.334 -25.333 65.001 -40s35.667 -33.5 48 -56.5s18.5 -49.167 18.5 -78.5c0 -55.333 -20.833 -101.5 -62.5 -138.5s-98.834 -55.5 -171.501 -55.5c-91.333 0 -164.333 24.667 -219 74l47 64
c53.333 -44 113 -66 179 -66z" />
    <glyph glyph-name="scircumflex" unicode="&#x15d;" horiz-adv-x="474" 
d="M430 669l-29 -46l-164 95l-163 -95l-29 46l192 125zM339 144c0 22.667 -9.5 41.333 -28.5 56s-41.833 26.667 -68.5 36s-53.5 19.5 -80.5 30.5s-50 27.833 -69 50.5s-28.5 51 -28.5 85c0 41.333 16.833 76.833 50.5 106.5s78.834 44.5 135.501 44.5
c69.333 0 122.333 -19.333 159 -58l-50 -54c-28 29.333 -65 44 -111 44c-35.333 0 -62 -7.66699 -80 -23s-27 -34.666 -27 -57.999c0 -22 9.5 -40.333 28.5 -55s41.833 -26.667 68.5 -36s53.5 -19.5 80.5 -30.5s50 -28 69 -51s28.5 -51.5 28.5 -85.5
c0 -41.333 -17 -77.5 -51 -108.5s-81.667 -46.5 -143 -46.5c-42 0 -79.833 6.66699 -113.5 20s-59.834 29.666 -78.501 48.999l48 58c38.667 -40 88 -60 148 -60c36 0 63.833 8.16699 83.5 24.5s29.5 36.833 29.5 61.5z" />
    <glyph glyph-name="uni015E" unicode="&#x15e;" horiz-adv-x="533" 
d="M257 62c46 0 81.834 11.001 107.501 33.001s38.5 50 38.5 84c0 21.333 -6.16699 40.333 -18.5 57s-28.333 30.667 -48 42s-41.334 22.333 -65.001 33s-47.334 22 -71.001 34s-45.334 25.5 -65.001 40.5s-35.667 34.167 -48 57.5s-18.5 50 -18.5 80
c0 53.333 20.5 98 61.5 134s92.833 54 155.5 54c72.667 0 133 -19.667 181 -59l-49 -62c-40 32 -85.667 48 -137 48c-40 0 -71.833 -10.167 -95.5 -30.5s-35.5 -46.833 -35.5 -79.5c0 -22 6.16699 -41.5 18.5 -58.5s28.333 -31.333 48 -43s41.334 -22.834 65.001 -33.501
s47.334 -22 71.001 -34s45.334 -25.333 65.001 -40s35.667 -33.5 48 -56.5s18.5 -49.167 18.5 -78.5c0 -55.333 -20.833 -101.5 -62.5 -138.5s-98.834 -55.5 -171.501 -55.5c-91.333 0 -164.333 24.667 -219 74l47 64c53.333 -44 113 -66 179 -66zM319.001 -114.999
c0 -58.667 -32.667 -99.335 -98 -122.002l-27 42c38.667 18.667 58 44.334 58 77.001c0 21.333 -7.66699 42.333 -23 63v4h72c12 -17.333 18 -38.666 18 -63.999z" />
    <glyph glyph-name="uni015F" unicode="&#x15f;" horiz-adv-x="474" 
d="M339 144c0 22.667 -9.5 41.333 -28.5 56s-41.833 26.667 -68.5 36s-53.5 19.5 -80.5 30.5s-50 27.833 -69 50.5s-28.5 51 -28.5 85c0 41.333 16.833 76.833 50.5 106.5s78.834 44.5 135.501 44.5c69.333 0 122.333 -19.333 159 -58l-50 -54c-28 29.333 -65 44 -111 44
c-35.333 0 -62 -7.66699 -80 -23s-27 -34.666 -27 -57.999c0 -22 9.5 -40.333 28.5 -55s41.833 -26.667 68.5 -36s53.5 -19.5 80.5 -30.5s50 -28 69 -51s28.5 -51.5 28.5 -85.5c0 -41.333 -17 -77.5 -51 -108.5s-81.667 -46.5 -143 -46.5c-42 0 -79.833 6.66699 -113.5 20
s-59.834 29.666 -78.501 48.999l48 58c38.667 -40 88 -60 148 -60c36 0 63.833 8.16699 83.5 24.5s29.5 36.833 29.5 61.5zM292 -115.001c0 -58.667 -32.667 -99.335 -98 -122.002l-27 42c38.667 18.667 58 44.334 58 77.001c0 21.333 -7.66699 42.333 -23 63v4h72
c12 -17.333 18 -38.666 18 -63.999z" />
    <glyph glyph-name="Scaron" unicode="&#x160;" horiz-adv-x="533" 
d="M470 911l-193 -125l-192 125l29 46l163 -95l164 95zM257 62c46 0 81.834 11.001 107.501 33.001s38.5 50 38.5 84c0 21.333 -6.16699 40.333 -18.5 57s-28.333 30.667 -48 42s-41.334 22.333 -65.001 33s-47.334 22 -71.001 34s-45.334 25.5 -65.001 40.5
s-35.667 34.167 -48 57.5s-18.5 50 -18.5 80c0 53.333 20.5 98 61.5 134s92.833 54 155.5 54c72.667 0 133 -19.667 181 -59l-49 -62c-40 32 -85.667 48 -137 48c-40 0 -71.833 -10.167 -95.5 -30.5s-35.5 -46.833 -35.5 -79.5c0 -22 6.16699 -41.5 18.5 -58.5
s28.333 -31.333 48 -43s41.334 -22.834 65.001 -33.501s47.334 -22 71.001 -34s45.334 -25.333 65.001 -40s35.667 -33.5 48 -56.5s18.5 -49.167 18.5 -78.5c0 -55.333 -20.833 -101.5 -62.5 -138.5s-98.834 -55.5 -171.501 -55.5c-91.333 0 -164.333 24.667 -219 74l47 64
c53.333 -44 113 -66 179 -66z" />
    <glyph glyph-name="scaron" unicode="&#x161;" horiz-adv-x="474" 
d="M429 748l-193 -125l-192 125l29 46l163 -95l164 95zM339 144c0 22.667 -9.5 41.333 -28.5 56s-41.833 26.667 -68.5 36s-53.5 19.5 -80.5 30.5s-50 27.833 -69 50.5s-28.5 51 -28.5 85c0 41.333 16.833 76.833 50.5 106.5s78.834 44.5 135.501 44.5
c69.333 0 122.333 -19.333 159 -58l-50 -54c-28 29.333 -65 44 -111 44c-35.333 0 -62 -7.66699 -80 -23s-27 -34.666 -27 -57.999c0 -22 9.5 -40.333 28.5 -55s41.833 -26.667 68.5 -36s53.5 -19.5 80.5 -30.5s50 -28 69 -51s28.5 -51.5 28.5 -85.5
c0 -41.333 -17 -77.5 -51 -108.5s-81.667 -46.5 -143 -46.5c-42 0 -79.833 6.66699 -113.5 20s-59.834 29.666 -78.501 48.999l48 58c38.667 -40 88 -60 148 -60c36 0 63.833 8.16699 83.5 24.5s29.5 36.833 29.5 61.5z" />
    <glyph glyph-name="uni0162" unicode="&#x162;" horiz-adv-x="477" 
d="M206 -325l-20.999 30.999c34.667 16.667 52 39.334 52 68.001c0 10 -3.16699 19.333 -9.5 28s-12.833 15.167 -19.5 19.5s-16.334 9.83301 -29.001 16.5v5c0 16 5 29.167 15 39.5s23 15.5 39 15.5c19.333 0 35.166 -7.16699 47.499 -21.5s18.5 -33.833 18.5 -58.5
c0 -32.667 -9.16699 -61.5 -27.5 -86.5s-40.166 -43.833 -65.499 -56.5zM199.001 -0.000976562v630h-187v71h453v-71h-186v-630h-80z" />
    <glyph glyph-name="uni0163" unicode="&#x163;" horiz-adv-x="381" 
d="M158 -325l-20.999 30.999c34.667 16.667 52 39.334 52 68.001c0 10 -3.16699 19.333 -9.5 28s-12.833 15.167 -19.5 19.5s-16.334 9.83301 -29.001 16.5v5c0 16 5 29.167 15 39.5s23 15.5 39 15.5c19.333 0 35.166 -7.16699 47.499 -21.5s18.5 -33.833 18.5 -58.5
c0 -32.667 -9.16699 -61.5 -27.5 -86.5s-40.166 -43.833 -65.499 -56.5zM239.001 -5.00098c-92.667 0 -139 50 -139 150v336h-81v50l81 15l24 141h53v-143h150v-63h-150v-332c0 -57.333 26.333 -86 79 -86c35.333 0 63 6.33301 83 19l22 -62
c-29.333 -16.667 -70 -25 -122 -25z" />
    <glyph glyph-name="Tcaron" unicode="&#x164;" horiz-adv-x="477" 
d="M431 911l-193 -125l-192 125l29 46l163 -95l164 95zM199 0v630h-187v71h453v-71h-186v-630h-80z" />
    <glyph glyph-name="tcaron" unicode="&#x165;" horiz-adv-x="383" 
d="M264 606l-25 39.0039c47.333 20 71 45.667 71 77c0 15.333 -4.33301 28.166 -13 38.499s-22.667 20.166 -42 29.499v7c0 16 5.66699 29.667 17 41s25.333 17 42 17c20 0 36.5 -7.5 49.5 -22.5s19.5 -36.167 19.5 -63.5c0 -38.667 -12.167 -72.834 -36.5 -102.501
s-51.833 -49.834 -82.5 -60.501zM239 -4.99609c-92.667 0 -139 50 -139 150v336h-81v50l81 15l24 141h53v-143h150v-63h-150v-332c0 -57.333 26.333 -86 79 -86c35.333 0 63 6.33301 83 19l22 -62c-29.333 -16.667 -70 -25 -122 -25z" />
    <glyph glyph-name="Tbar" unicode="&#x166;" horiz-adv-x="481" 
d="M467 630h-186v-246h118v-60h-118v-324h-80v324h-119v60h119v246h-187v71h453v-71z" />
    <glyph glyph-name="tbar" unicode="&#x167;" horiz-adv-x="381" 
d="M339 82l22 -62c-29.333 -16.667 -70 -25 -122 -25c-92.667 0 -139 50 -139 150v151h-81v50l81 16v119h-81v50l81 15l24 141h53v-143h150v-63h-150v-121h148v-64h-148v-147c0 -57.333 26.333 -86 79 -86c35.333 0 63 6.33301 83 19z" />
    <glyph glyph-name="Utilde" unicode="&#x168;" horiz-adv-x="680" 
d="M343 62c110.667 0 166 57.333 166 172v467h80v-457c0 -82.667 -22.5 -145.667 -67.5 -189s-107.5 -65 -187.5 -65c-78 0 -138 21.333 -180 64s-63 102 -63 178v469h80v-457c0 -61.333 15.167 -107 45.5 -137s72.5 -45 126.5 -45zM271 909
c18.667 0 43.168 -5.83301 73.501 -17.5s51.833 -17.5 64.5 -17.5c27.333 0 48.666 10 63.999 30l31 -49c-4 -8.66699 -14.167 -18.167 -30.5 -28.5s-36.5 -15.5 -60.5 -15.5c-16 0 -39.5 6 -70.5 18s-53.5 18 -67.5 18c-27.333 0 -50.333 -9.66699 -69 -29l-31 50
c27.333 27.333 59.333 41 96 41z" />
    <glyph glyph-name="utilde" unicode="&#x169;" horiz-adv-x="575" 
d="M80 172v372h78v-356c0 -88 39.667 -132 119 -132c40 0 72.667 11.333 98 34s38.333 55 39 97v357h78v-544h-61l-15 57h-4c-11.333 -16 -30 -31.333 -56 -46s-59 -22 -99 -22c-115.333 0 -174.333 61 -177 183zM219 746c18.667 0 43.167 -5.83301 73.5 -17.5
s51.833 -17.5 64.5 -17.5c27.333 0 48.666 10 63.999 30l31 -49c-4 -8.66699 -14.167 -18.167 -30.5 -28.5s-36.5 -15.5 -60.5 -15.5c-15.333 0 -38.666 6 -69.999 18s-54 18 -68 18c-27.333 0 -50.333 -9.66699 -69 -29l-31 50c27.333 27.333 59.333 41 96 41z" />
    <glyph glyph-name="Umacron" unicode="&#x16a;" horiz-adv-x="680" 
d="M343 62c110.667 0 166 57.333 166 172v467h80v-457c0 -82.667 -22.5 -145.667 -67.5 -189s-107.5 -65 -187.5 -65c-78 0 -138 21.333 -180 64s-63 102 -63 178v469h80v-457c0 -61.333 15.167 -107 45.5 -137s72.5 -45 126.5 -45zM492 831h-305v62h305v-62z" />
    <glyph glyph-name="umacron" unicode="&#x16b;" horiz-adv-x="575" 
d="M80 172v372h78v-356c0 -88 39.667 -132 119 -132c40 0 72.667 11.333 98 34s38.333 55 39 97v357h78v-544h-61l-15 57h-4c-11.333 -16 -30 -31.333 -56 -46s-59 -22 -99 -22c-115.333 0 -174.333 61 -177 183zM439 668h-305v62h305v-62z" />
    <glyph glyph-name="Ubreve" unicode="&#x16c;" horiz-adv-x="680" 
d="M343 62c110.667 0 166 57.333 166 172v467h80v-457c0 -82.667 -22.5 -145.667 -67.5 -189s-107.5 -65 -187.5 -65c-78 0 -138 21.333 -180 64s-63 102 -63 178v469h80v-457c0 -61.333 15.167 -107 45.5 -137s72.5 -45 126.5 -45zM340 802c-74.667 0 -131 32.333 -169 97
l52 33c2.66699 -5.33301 6.16699 -11 10.5 -17s11 -13.5 20 -22.5s21.167 -16.333 36.5 -22s32 -8.5 50 -8.5c52.667 0 91.667 23.333 117 70l52 -33c-38 -64.667 -94.333 -97 -169 -97z" />
    <glyph glyph-name="ubreve" unicode="&#x16d;" horiz-adv-x="575" 
d="M80 172v372h78v-356c0 -88 39.667 -132 119 -132c40 0 72.667 11.333 98 34s38.333 55 39 97v357h78v-544h-61l-15 57h-4c-11.333 -16 -30 -31.333 -56 -46s-59 -22 -99 -22c-115.333 0 -174.333 61 -177 183zM287 639c-74.667 0 -131 32.333 -169 97l52 33
c2.66699 -5.33301 6.16699 -11 10.5 -17s11 -13.5 20 -22.5s21.167 -16.333 36.5 -22s32 -8.5 50 -8.5c52.667 0 91.667 23.333 117 70l52 -33c-38 -64.667 -94.333 -97 -169 -97z" />
    <glyph glyph-name="Uring" unicode="&#x16e;" horiz-adv-x="680" 
d="M231 875c0 32 10.167 58.167 30.5 78.5s46.833 30.5 79.5 30.5s58.834 -9.33301 78.501 -28s29.5 -43.667 29.5 -75c0 -32 -10.333 -58.167 -31 -78.5s-47.334 -30.5 -80.001 -30.5s-58.667 9.33301 -78 28s-29 43.667 -29 75zM398 877
c0 18.667 -5.33203 33.5 -15.999 44.5s-25.334 16.5 -44.001 16.5c-18 0 -32.167 -5.33301 -42.5 -16s-15.5 -25 -15.5 -43s5.5 -32.667 16.5 -44s25.833 -17 44.5 -17c18 0 32 5.33301 42 16s15 25 15 43zM343.001 62c110.667 0 166 57.333 166 172v467h80v-457
c0 -82.667 -22.5 -145.667 -67.5 -189s-107.5 -65 -187.5 -65c-78 0 -138 21.333 -180 64s-63 102 -63 178v469h80v-457c0 -61.333 15.167 -107 45.5 -137s72.5 -45 126.5 -45z" />
    <glyph glyph-name="uring" unicode="&#x16f;" horiz-adv-x="575" 
d="M179 712c0 32 10.167 58.167 30.5 78.5s46.833 30.5 79.5 30.5s58.834 -9.33301 78.501 -28s29.5 -43.667 29.5 -75c0 -32 -10.333 -58.167 -31 -78.5s-47.334 -30.5 -80.001 -30.5s-58.667 9.33301 -78 28s-29 43.667 -29 75zM346 714
c0 18.667 -5.33203 33.5 -15.999 44.5s-25.334 16.5 -44.001 16.5c-18 0 -32.167 -5.33301 -42.5 -16s-15.5 -25 -15.5 -43s5.5 -32.667 16.5 -44s25.833 -17 44.5 -17c18 0 32 5.33301 42 16s15 25 15 43zM80.001 172v372h78v-356c0 -88 39.667 -132 119 -132
c40 0 72.667 11.333 98 34s38.333 55 39 97v357h78v-544h-61l-15 57h-4c-11.333 -16 -30 -31.333 -56 -46s-59 -22 -99 -22c-115.333 0 -174.333 61 -177 183z" />
    <glyph glyph-name="Uhungarumlaut" unicode="&#x170;" horiz-adv-x="680" 
d="M343 62c110.667 0 166 57.333 166 172v467h80v-457c0 -82.667 -22.5 -145.667 -67.5 -189s-107.5 -65 -187.5 -65c-78 0 -138 21.333 -180 64s-63 102 -63 178v469h80v-457c0 -61.333 15.167 -107 45.5 -137s72.5 -45 126.5 -45zM636 898l-199 -116l-41 42l180 123z
M422 908l-191 -126l-46 38l172 133z" />
    <glyph glyph-name="uhungarumlaut" unicode="&#x171;" horiz-adv-x="575" 
d="M80 172v372h78v-356c0 -88 39.667 -132 119 -132c40 0 72.667 11.333 98 34s38.333 55 39 97v357h78v-544h-61l-15 57h-4c-11.333 -16 -30 -31.333 -56 -46s-59 -22 -99 -22c-115.333 0 -174.333 61 -177 183zM587 735l-199 -116l-41 42l180 123zM373 745l-191 -126
l-46 38l172 133z" />
    <glyph glyph-name="Uogonek" unicode="&#x172;" horiz-adv-x="680" 
d="M509 701l79.998 -0.000976562v-457c0 -120 -46 -198 -138 -234c-29.333 -15.333 -55.166 -34 -77.499 -56s-33.5 -45 -33.5 -69c0 -38.667 24.333 -58 73 -58c18.667 0 34.667 3.33301 48 10l12 -56c-20.667 -8 -46.667 -12 -78 -12c-41.333 0 -72.166 10 -92.499 30
s-30.5 46 -30.5 78c0 40 19.333 77.667 58 113c-76.667 0.666992 -135.667 22.334 -177 65.001s-62 101.667 -62 177v469h80v-457c0 -61.333 15.167 -107 45.5 -137s72.5 -45 126.5 -45c110.667 0 166 57.333 166 172v467z" />
    <glyph glyph-name="uogonek" unicode="&#x173;" horiz-adv-x="575" 
d="M500 -174l11.999 -56c-20.667 -8 -46.667 -12 -78 -12c-41.333 0 -72.166 10 -92.499 30s-30.5 46 -30.5 78c0 56.667 38.333 108 115 154l-10 37h-4c-11.333 -16 -30 -31.333 -56 -46s-59 -22 -99 -22c-115.333 0 -174.333 61 -177 183v372h78v-356
c0 -88 39.667 -132 119 -132c40 0 72.667 11.333 98 34s38.333 55 39 97v357h78v-544c-28.667 -14.667 -54.667 -33.167 -78 -55.5s-35 -45.833 -35 -70.5c0 -38.667 24.333 -58 73 -58c18.667 0 34.667 3.33301 48 10z" />
    <glyph glyph-name="Wcircumflex" unicode="&#x174;" horiz-adv-x="926" 
d="M655 832l-29 -46l-164 95l-163 -95l-29 46l192 125zM249 76l4.00098 0.00195312c0.666992 6.66699 8 38 22 94l21 85l110 446h115l114 -451c27.333 -110.667 41.333 -168.334 42 -173.001h4c0 4 3.33301 19.5 10 46.5l21 85c7.33301 29.667 11.333 46.167 12 49.5
l113 443h79l-180 -701h-116l-112 448c-28.667 113.333 -43.334 173.666 -44.001 180.999h-4c-0.666992 -7.33301 -7.16699 -36.5 -19.5 -87.5s-19.5 -80.167 -21.5 -87.5l-114 -454h-115l-181 701h83l112 -434c29.333 -117.333 44.333 -181 45 -191z" />
    <glyph glyph-name="wcircumflex" unicode="&#x175;" horiz-adv-x="756" 
d="M570 669l-29 -46l-164 95l-163 -95l-29 46l192 125zM381 464h-4.00098l-116 -464h-105l-144 544h80l76 -300c17.333 -68 31 -126.333 41 -175h4c13.333 64 25 115.333 35 154l82 321h100l80 -321c16.667 -70 28.334 -121.333 35.001 -154h4
c14.667 67.333 28.667 126 42 176l77 299h75l-146 -544h-105z" />
    <glyph glyph-name="Ycircumflex" unicode="&#x176;" horiz-adv-x="541" 
d="M542 701l-232 -448v-253h-79v253l-232 448h91l181 -366h4l181 366h86zM463 832l-29 -46l-164 95l-163 -95l-29 46l192 125z" />
    <glyph glyph-name="ycircumflex" unicode="&#x177;" horiz-adv-x="498" 
d="M27 -199l12.0029 68.999c16.667 -6 33.667 -9 51 -9c34 0 61 9.5 81 28.5s36 49.5 48 91.5l-197 563h84l88 -267c27.333 -83.333 47.666 -149.333 60.999 -198h4c10 44.667 28.667 110.667 56 198l84 267h81l-192 -582c-18.667 -55.333 -43.334 -97.666 -74.001 -126.999
s-72.334 -44 -125.001 -44c-24 0 -44.667 3.33301 -62 10zM441.003 668.999l-29 -46l-164 95l-163 -95l-29 46l192 125z" />
    <glyph glyph-name="Ydieresis" unicode="&#x178;" horiz-adv-x="541" 
d="M542 701l-232 -448v-253h-79v253l-232 448h91l181 -366h4l181 366h86zM126 873c0 14 4.5 25.667 13.5 35s20.833 14 35.5 14c14 0 25.667 -4.66699 35 -14s14 -21 14 -35s-4.66699 -25.667 -14 -35s-21 -14 -35 -14c-14.667 0 -26.5 4.66699 -35.5 14s-13.5 21 -13.5 35z
M317 873c0 14 4.83301 25.667 14.5 35s21.5 14 35.5 14s25.667 -4.66699 35 -14s14 -21 14 -35s-4.66699 -25.667 -14 -35s-21 -14 -35 -14s-25.833 4.66699 -35.5 14s-14.5 21 -14.5 35z" />
    <glyph glyph-name="Zacute" unicode="&#x179;" horiz-adv-x="516" 
d="M455 909l-198 -122l-48 36l170 128zM124 76v-4h355v-72h-438l-13 72l354 553v4h-322v72h403l13 -72z" />
    <glyph glyph-name="zacute" unicode="&#x17a;" horiz-adv-x="449" 
d="M420 746l-198 -122l-48 36l170 128zM122 72v-4h281v-68h-355l-12 77l272 395v4h-251v68h322l16 -77z" />
    <glyph glyph-name="Zdotaccent" unicode="&#x17b;" horiz-adv-x="516" 
d="M124 76v-4h355v-72h-438l-13 72l354 553v4h-322v72h403l13 -72zM200 868c0 16.667 5.5 30.5 16.5 41.5s24.5 16.5 40.5 16.5c16.667 0 30.5 -5.5 41.5 -16.5s16.5 -24.833 16.5 -41.5c0 -16 -5.5 -29.5 -16.5 -40.5s-24.833 -16.5 -41.5 -16.5
c-16 0 -29.5 5.5 -40.5 16.5s-16.5 24.5 -16.5 40.5z" />
    <glyph glyph-name="zdotaccent" unicode="&#x17c;" horiz-adv-x="449" 
d="M122 72v-4h281v-68h-355l-12 77l272 395v4h-251v68h322l16 -77zM168 705c0 16.667 5.5 30.5 16.5 41.5s24.5 16.5 40.5 16.5c16.667 0 30.5 -5.5 41.5 -16.5s16.5 -24.833 16.5 -41.5c0 -16 -5.5 -29.5 -16.5 -40.5s-24.833 -16.5 -41.5 -16.5
c-16 0 -29.5 5.5 -40.5 16.5s-16.5 24.5 -16.5 40.5z" />
    <glyph glyph-name="Zcaron" unicode="&#x17d;" horiz-adv-x="516" 
d="M450 911l-193 -125l-192 125l29 46l163 -95l164 95zM124 76v-4h355v-72h-438l-13 72l354 553v4h-322v72h403l13 -72z" />
    <glyph glyph-name="zcaron" unicode="&#x17e;" horiz-adv-x="449" 
d="M417 748l-193 -125l-192 125l29 46l163 -95l164 95zM122 72v-4h281v-68h-355l-12 77l272 395v4h-251v68h322l16 -77z" />
    <glyph glyph-name="longs" unicode="&#x17f;" horiz-adv-x="359" 
d="M196 627l-0.000976562 -627h-78v626c0 43.333 13.333 77.833 40 103.5s65.667 38.5 117 38.5c46.667 0 83.334 -6.66699 110.001 -20l-21 -66c-27.333 12 -59 18 -95 18c-25.333 0 -43.833 -6 -55.5 -18s-17.5 -30.333 -17.5 -55z" />
    <glyph glyph-name="florin" unicode="&#x192;" horiz-adv-x="507" 
d="M148 -22l45 355h-99v66h107l16 127c6 51.333 24.5 92.5 55.5 123.5s72.167 46.5 123.5 46.5c39.333 0 67.333 -5 84 -15l-26 -68c-15.333 9.33301 -37.333 14 -66 14c-54 0 -85.333 -33.667 -94 -101l-15 -127h130v-66h-138l-46 -355
c-6.66699 -51.333 -25.5 -92.5 -56.5 -123.5s-72.167 -46.5 -123.5 -46.5c-40 0 -68 5 -84 15l26 69c18 -10.667 40 -16 66 -16c54 0 85.667 34 95 102z" />
    <glyph glyph-name="uni0218" unicode="&#x218;" horiz-adv-x="533" 
d="M246 -325l-21.001 31.001c35.333 17.333 53 40 53 68c0 14.667 -5 26.667 -15 36s-24.667 18.666 -44 27.999v5c0 15.333 5.16699 28.333 15.5 39s23.5 16 39.5 16c19.333 0 35 -7.16699 47 -21.5s18 -33.833 18 -58.5c0 -32.667 -9.16699 -61.5 -27.5 -86.5
s-40.166 -43.833 -65.499 -56.5zM256.999 62.001c46 0 81.834 11.001 107.501 33.001s38.5 50 38.5 84c0 21.333 -6.16699 40.333 -18.5 57s-28.333 30.667 -48 42s-41.334 22.333 -65.001 33s-47.334 22 -71.001 34s-45.334 25.5 -65.001 40.5s-35.667 34.167 -48 57.5
s-18.5 50 -18.5 80c0 53.333 20.5 98 61.5 134s92.833 54 155.5 54c72.667 0 133 -19.667 181 -59l-49 -62c-40 32 -85.667 48 -137 48c-40 0 -71.833 -10.167 -95.5 -30.5s-35.5 -46.833 -35.5 -79.5c0 -22 6.16699 -41.5 18.5 -58.5s28.333 -31.333 48 -43
s41.334 -22.834 65.001 -33.501s47.334 -22 71.001 -34s45.334 -25.333 65.001 -40s35.667 -33.5 48 -56.5s18.5 -49.167 18.5 -78.5c0 -55.333 -20.833 -101.5 -62.5 -138.5s-98.834 -55.5 -171.501 -55.5c-91.333 0 -164.333 24.667 -219 74l47 64
c53.333 -44 113 -66 179 -66z" />
    <glyph glyph-name="uni0219" unicode="&#x219;" horiz-adv-x="474" 
d="M205 -325l-20.999 30.999c34.667 16.667 52 39.334 52 68.001c0 10 -3.16699 19.333 -9.5 28s-12.833 15.167 -19.5 19.5s-16.334 9.83301 -29.001 16.5v5c0 16 5 29.167 15 39.5s23 15.5 39 15.5c19.333 0 35.166 -7.16699 47.499 -21.5s18.5 -33.833 18.5 -58.5
c0 -32.667 -9.16699 -61.5 -27.5 -86.5s-40.166 -43.833 -65.499 -56.5zM339.001 143.999c0 22.667 -9.5 41.333 -28.5 56s-41.833 26.667 -68.5 36s-53.5 19.5 -80.5 30.5s-50 27.833 -69 50.5s-28.5 51 -28.5 85c0 41.333 16.833 76.833 50.5 106.5
s78.834 44.5 135.501 44.5c69.333 0 122.333 -19.333 159 -58l-50 -54c-28 29.333 -65 44 -111 44c-35.333 0 -62 -7.66699 -80 -23s-27 -34.666 -27 -57.999c0 -22 9.5 -40.333 28.5 -55s41.833 -26.667 68.5 -36s53.5 -19.5 80.5 -30.5s50 -28 69 -51
s28.5 -51.5 28.5 -85.5c0 -41.333 -17 -77.5 -51 -108.5s-81.667 -46.5 -143 -46.5c-42 0 -79.833 6.66699 -113.5 20s-59.834 29.666 -78.501 48.999l48 58c38.667 -40 88 -60 148 -60c36 0 63.833 8.16699 83.5 24.5s29.5 36.833 29.5 61.5z" />
    <glyph glyph-name="uni021A" unicode="&#x21a;" horiz-adv-x="477" 
d="M207 -325l-20.999 31.001c35.333 17.333 53 40 53 68c0 14.667 -5 26.667 -15 36s-24.667 18.666 -44 27.999v5c0 15.333 5.16699 28.333 15.5 39s23.5 16 39.5 16c19.333 0 35.166 -7.16699 47.499 -21.5s18.5 -33.833 18.5 -58.5c0 -32 -9.33301 -60.667 -28 -86
s-40.667 -44.333 -66 -57zM199.001 0.000976562v630h-187v71h453v-71h-186v-630h-80z" />
    <glyph glyph-name="uni021B" unicode="&#x21b;" horiz-adv-x="381" 
d="M157 -325l-20.999 30.999c34.667 16.667 52 39.334 52 68.001c0 10 -3.16699 19.333 -9.5 28s-12.833 15.167 -19.5 19.5s-16.334 9.83301 -29.001 16.5v5c0 16 5 29.167 15 39.5s23 15.5 39 15.5c19.333 0 35.166 -7.16699 47.499 -21.5s18.5 -33.833 18.5 -58.5
c0 -32.667 -9.16699 -61.5 -27.5 -86.5s-40.166 -43.833 -65.499 -56.5zM239.001 -5.00098c-92.667 0 -139 50 -139 150v336h-81v50l81 15l24 141h53v-143h150v-63h-150v-332c0 -57.333 26.333 -86 79 -86c35.333 0 63 6.33301 83 19l22 -62
c-29.333 -16.667 -70 -25 -122 -25z" />
    <glyph glyph-name="uni0237" unicode="&#x237;" horiz-adv-x="253" 
d="M1 -228l-27.001 65c36.667 12.667 64.834 32.5 84.501 59.5s29.5 71.167 29.5 132.5v515h78v-517c0 -136 -55 -221 -165 -255z" />
    <glyph glyph-name="uni02BC" unicode="&#x2bc;" horiz-adv-x="231" 
d="M62 471l-25 40.002c49.333 21.333 74 48.666 74 81.999c0 16 -4.5 29.167 -13.5 39.5s-23.5 20.5 -43.5 30.5v7c0 17.333 5.66699 31.666 17 42.999s26 17 44 17c21.333 0 38.833 -7.83301 52.5 -23.5s20.5 -37.5 20.5 -65.5c0 -40.667 -13 -76.5 -39 -107.5
s-55 -51.833 -87 -62.5z" />
    <glyph glyph-name="circumflex" unicode="&#x2c6;" horiz-adv-x="502" 
d="M443 669l-29 -46l-164 95l-163 -95l-29 46l192 125z" />
    <glyph glyph-name="caron" unicode="&#x2c7;" horiz-adv-x="502" 
d="M443 748l-193 -125l-192 125l29 46l163 -95l164 95z" />
    <glyph glyph-name="breve" unicode="&#x2d8;" horiz-adv-x="502" 
d="M251 639c-74.667 0 -131 32.333 -169 97l52 33c2.66699 -5.33301 6.16699 -11 10.5 -17s11 -13.5 20 -22.5s21.167 -16.333 36.5 -22s32 -8.5 50 -8.5c52.667 0 91.667 23.333 117 70l52 -33c-38 -64.667 -94.333 -97 -169 -97z" />
    <glyph glyph-name="dotaccent" unicode="&#x2d9;" horiz-adv-x="502" 
d="M193 705c0 16.667 5.5 30.5 16.5 41.5s24.5 16.5 40.5 16.5c16.667 0 30.5 -5.5 41.5 -16.5s16.5 -24.833 16.5 -41.5c0 -16 -5.5 -29.5 -16.5 -40.5s-24.833 -16.5 -41.5 -16.5c-16 0 -29.5 5.5 -40.5 16.5s-16.5 24.5 -16.5 40.5z" />
    <glyph glyph-name="ring" unicode="&#x2da;" horiz-adv-x="502" 
d="M142 712c0 32 10.167 58.167 30.5 78.5s46.833 30.5 79.5 30.5s58.834 -9.33301 78.501 -28s29.5 -43.667 29.5 -75c0 -32 -10.333 -58.167 -31 -78.5s-47.334 -30.5 -80.001 -30.5s-58.667 9.33301 -78 28s-29 43.667 -29 75zM309 714
c0 18.667 -5.33203 33.5 -15.999 44.5s-25.334 16.5 -44.001 16.5c-18 0 -32.167 -5.33301 -42.5 -16s-15.5 -25 -15.5 -43s5.5 -32.667 16.5 -44s25.833 -17 44.5 -17c18 0 32 5.33301 42 16s15 25 15 43z" />
    <glyph glyph-name="ogonek" unicode="&#x2db;" horiz-adv-x="502" 
d="M351 -219c-20.667 -8 -46.668 -12 -78.001 -12c-41.333 0 -72.166 10 -92.499 30s-30.5 46 -30.5 78c0 66.667 50 124 150 172l31 -38c-28.667 -14.667 -54.667 -33.167 -78 -55.5s-35 -45.833 -35 -70.5c0 -38.667 24.333 -58 73 -58c18.667 0 34.667 3.33301 48 10z
" />
    <glyph glyph-name="tilde" unicode="&#x2dc;" horiz-adv-x="502" 
d="M182 746c18.667 0 43.168 -5.83301 73.501 -17.5s51.833 -17.5 64.5 -17.5c27.333 0 48.666 10 63.999 30l31 -49c-4 -8.66699 -14.167 -18.167 -30.5 -28.5s-36.5 -15.5 -60.5 -15.5c-16 0 -39.5 6 -70.5 18s-53.5 18 -67.5 18c-27.333 0 -50.333 -9.66699 -69 -29
l-31 50c27.333 27.333 59.333 41 96 41z" />
    <glyph glyph-name="hungarumlaut" unicode="&#x2dd;" horiz-adv-x="502" 
d="M476 735l-199 -116l-41 42l180 123zM262 745l-191 -126l-46 38l172 133z" />
    <glyph glyph-name="pi" unicode="&#x3c0;" horiz-adv-x="617" 
d="M93 31c18 26 30.167 50.5 36.5 73.5s9.5 59.833 9.5 110.5v266h-72v68h492v-68h-72v-481h-77v481h-194v-269c0 -99.333 -19.667 -172.333 -59 -219z" />
    <glyph glyph-name="uni0900" unicode="&#x900;" 
d="M-188 808c0 14 4.83301 25.833 14.5 35.5s21.834 14.5 36.501 14.5s27 -4.83301 37 -14.5s15 -21.5 15 -35.5c0 -15.333 -4.83301 -28 -14.5 -38s-22.167 -15 -37.5 -15c-14.667 0 -26.834 5 -36.501 15s-14.5 22.667 -14.5 38zM-282 880l-59 31
c40.667 81.333 109 122 205 122c95.333 0 163.333 -40.667 204 -122l-59 -31c-28.667 57.333 -77 86 -145 86c-67.333 0 -116 -28.667 -146 -86z" />
    <glyph glyph-name="uni0901" unicode="&#x901;" 
d="M-187 967c0 16 4.83301 29 14.5 39s21.834 15 36.501 15c15.333 0 27.833 -5 37.5 -15s14.5 -23 14.5 -39c0 -14 -5 -25.667 -15 -35s-22.333 -14 -37 -14s-26.834 4.66699 -36.501 14s-14.5 21 -14.5 35zM-136 750c-97.333 0 -165.667 40.333 -205 121l59 32
c30 -57.333 78.667 -86 146 -86c66.667 0 115 28.667 145 86l58 -32c-39.333 -80.667 -107 -121 -203 -121z" />
    <glyph glyph-name="uni0902" unicode="&#x902;" 
d="M-193 808c0 16.667 5.33301 30.5 16 41.5s24 16.5 40 16.5c16.667 0 30.334 -5.5 41.001 -16.5s16 -24.833 16 -41.5c0 -15.333 -5.33301 -28.166 -16 -38.499s-24.334 -15.5 -41.001 -15.5c-15.333 0 -28.5 5.16699 -39.5 15.5s-16.5 23.166 -16.5 38.499z" />
    <glyph glyph-name="uni0903" unicode="&#x903;" horiz-adv-x="267" 
d="M107 450c0 16.667 5.5 30.665 16.5 41.998s24.167 17 39.5 17c16.667 0 30.334 -5.5 41.001 -16.5s16 -25.167 16 -42.5c0 -15.333 -5.33301 -28.166 -16 -38.499s-24.334 -15.5 -41.001 -15.5c-15.333 0 -28.5 5.33301 -39.5 16s-16.5 23.334 -16.5 38.001zM107 135.998
c0 16.667 5.33301 30.5 16 41.5s24 16.5 40 16.5c16.667 0 30.334 -5.5 41.001 -16.5s16 -24.833 16 -41.5c0 -15.333 -5.33301 -28.166 -16 -38.499s-24.334 -15.5 -41.001 -15.5c-15.333 0 -28.5 5.16699 -39.5 15.5s-16.5 23.166 -16.5 38.499z" />
    <glyph glyph-name="uni0904" unicode="&#x904;" horiz-adv-x="725" 
d="M625 642l121.997 0.000976562v-64h-121v-578h-76v260c-21.333 -9.33301 -43.666 -14 -66.999 -14c-27.333 0 -52.333 5.33301 -75 16c1.33301 -10.667 2 -19 2 -25c0 -48.667 -17.167 -89.167 -51.5 -121.5s-79.833 -48.5 -136.5 -48.5
c-70.667 0 -130.667 25.333 -180 76l52 52c34.667 -40.667 77.334 -61 128.001 -61c36 0 63.667 9.66699 83 29s29 43.666 29 72.999c0 28 -9.5 49.833 -28.5 65.5s-46.167 23.5 -81.5 23.5h-54v67h31c31.333 0 56.5 8.66699 75.5 26s28.5 41 28.5 71
c0 26 -7.83301 46.833 -23.5 62.5s-36.834 23.5 -63.501 23.5c-37.333 0 -66.333 -14.667 -87 -44l-53 48c32.667 42.667 80 64 142 64c49.333 0 88.5 -14.167 117.5 -42.5s43.5 -63.833 43.5 -106.5c0 -28.667 -7.16699 -53.834 -21.5 -75.501s-30.833 -37.167 -49.5 -46.5
v-4c22 -5.33301 41.667 -16.333 59 -33c29.333 -16 61 -24 95 -24c34.667 0 63.334 7 86.001 21v246h-107v64h107c0 20 -4.66699 35 -14 45s-25.333 19.667 -48 29c-1.33301 0.666992 -13.666 5.5 -36.999 14.5l-72.5 28c-25 9.66699 -39.833 15.5 -44.5 17.5
c-68 25.333 -99.667 71 -95 137l73 -1c-1.33301 -22 3.5 -38.5 14.5 -49.5s29.167 -21.5 54.5 -31.5l43 -17l73.5 -29c23.667 -9.33301 36.5 -14.666 38.5 -15.999c59.333 -24.667 89 -67 89 -127z" />
    <glyph glyph-name="uni0905" unicode="&#x905;" horiz-adv-x="725" 
d="M443 642l303.998 0.00195312v-64h-121v-578h-76v260c-21.333 -9.33301 -43.666 -14 -66.999 -14c-27.333 0 -52.333 5.33301 -75 16c1.33301 -10.667 2 -19 2 -25c0 -48.667 -17.167 -89.167 -51.5 -121.5s-79.833 -48.5 -136.5 -48.5c-70.667 0 -130.667 25.333 -180 76
l52 52c34.667 -40.667 77.334 -61 128.001 -61c36 0 63.667 9.66699 83 29s29 43.666 29 72.999c0 28 -9.5 49.833 -28.5 65.5s-46.167 23.5 -81.5 23.5h-54v67h31c31.333 0 56.5 8.66699 75.5 26s28.5 41 28.5 71c0 26 -7.83301 46.833 -23.5 62.5
s-36.834 23.5 -63.501 23.5c-37.333 0 -66.333 -14.667 -87 -44l-53 48c32.667 42.667 80 64 142 64c49.333 0 88.5 -14.167 117.5 -42.5s43.5 -63.833 43.5 -106.5c0 -28.667 -7.16699 -53.834 -21.5 -75.501s-30.833 -37.167 -49.5 -46.5v-4
c22 -5.33301 41.667 -16.333 59 -33c29.333 -16 61 -24 95 -24c34.667 0 63.334 7 86.001 21v246h-107v64z" />
    <glyph glyph-name="uni0906" unicode="&#x906;" horiz-adv-x="997" 
d="M1020 642l-0.00195312 -63.998h-121v-578h-75v578h-198v-578h-76v260c-21.333 -9.33301 -43.666 -14 -66.999 -14c-27.333 0 -52.333 5.33301 -75 16c1.33301 -10.667 2 -19 2 -25c0 -48.667 -17.167 -89.167 -51.5 -121.5s-79.833 -48.5 -136.5 -48.5
c-70.667 0 -130.667 25.333 -180 76l52 52c34.667 -40.667 77.334 -61 128.001 -61c36 0 63.667 9.66699 83 29s29 43.666 29 72.999c0 28 -9.5 49.833 -28.5 65.5s-46.167 23.5 -81.5 23.5h-54v67h31c31.333 0 56.5 8.66699 75.5 26s28.5 41 28.5 71
c0 26 -7.83301 46.833 -23.5 62.5s-36.834 23.5 -63.501 23.5c-37.333 0 -66.333 -14.667 -87 -44l-53 48c32.667 42.667 80 64 142 64c49.333 0 88.5 -14.167 117.5 -42.5s43.5 -63.833 43.5 -106.5c0 -28.667 -7.16699 -53.834 -21.5 -75.501s-30.833 -37.167 -49.5 -46.5
v-4c22 -5.33301 41.667 -16.333 59 -33c29.333 -16 61 -24 95 -24c34.667 0 63.334 7 86.001 21v246h-107v64h577z" />
    <glyph glyph-name="uni0907" unicode="&#x907;" horiz-adv-x="531" 
d="M287 32v-3.99609l157 -104l-81 -43l-158 142c-48.667 1.33301 -85.667 11.666 -111 30.999s-38 42 -38 68c0 23.333 9.66699 40.666 29 51.999l130 -89h34c37.333 0 69.166 8.16699 95.499 24.5s39.5 40.166 39.5 71.499c0 27.333 -9.33301 47.333 -28 60l-155 -32
c-36.667 11.333 -67.5 32.166 -92.5 62.499s-37.5 64.5 -37.5 102.5c0 30.667 10.333 55.5 31 74.5s48.667 28.5 84 28.5h150v101h-358v64h575v-64h-143v-166h-189c-27.333 0 -46.166 -4.66699 -56.499 -14s-15.5 -23 -15.5 -41c0 -17.333 6.33301 -33.5 19 -48.5
s27.667 -24.833 45 -29.5l169 35c18.667 -8.66699 36 -24.5 52 -47.5s24 -51.167 24 -84.5c0 -47.333 -17 -83.833 -51 -109.5s-74 -39.167 -120 -40.5z" />
    <glyph glyph-name="uni0908" unicode="&#x908;" horiz-adv-x="531" 
d="M410 412l-189.001 0.00488281c-27.333 0 -46.166 -4.66699 -56.499 -14s-15.5 -23 -15.5 -41c0 -17.333 6.33301 -33.5 19 -48.5s27.667 -24.833 45 -29.5l169 35c18.667 -8.66699 36 -24.5 52 -47.5s24 -51.167 24 -84.5c0 -47.333 -17 -83.833 -51 -109.5
s-74 -39.167 -120 -40.5v-4l157 -104l-81 -43l-158 142c-48.667 1.33301 -85.667 11.666 -111 30.999s-38 42 -38 68c0 23.333 9.66699 40.666 29 51.999l130 -89h34c37.333 0 69.166 8.16699 95.499 24.5s39.5 40.166 39.5 71.499c0 27.333 -9.33301 47.333 -28 60
l-155 -32c-36.667 11.333 -67.5 32.166 -92.5 62.499s-37.5 64.5 -37.5 102.5c0 30.667 10.333 55.5 31 74.5s48.667 28.5 84 28.5h150v101h-358v64h336v4c-18 11.333 -33.167 27.166 -45.5 47.499s-18.5 43.833 -18.5 70.5c0 40.667 14.5 73.5 43.5 98.5
s63.5 37.5 103.5 37.5c40.667 0 73.334 -8 98.001 -24l-26 -62c-19.333 12.667 -41.333 19 -66 19c-23.333 0 -42.333 -7.16699 -57 -21.5s-22 -32.833 -22 -55.5c0 -24 7.66699 -46.5 23 -67.5s35.333 -36.5 60 -46.5h146v-64h-143v-166z" />
    <glyph glyph-name="uni0909" unicode="&#x909;" horiz-adv-x="475" 
d="M-4 146l63 41.9971c35.333 -64 85 -96 149 -96c38.667 0 68.834 10 90.501 30s32.5 46.667 32.5 80c0 31.333 -10.5 56.333 -31.5 75s-51.5 28 -91.5 28h-61v68h51c29.333 0 54.166 8.33301 74.499 25s30.5 41.334 30.5 74.001c0 70.667 -42.667 106 -128 106h-197v64
h519v-64h-168v-6c35.333 -19.333 53 -53.666 53 -102.999c0 -28 -7.66699 -53.167 -23 -75.5s-35 -37.833 -59 -46.5v-4c30.667 -6.66699 56.667 -22.667 78 -48s32 -56.666 32 -93.999c0 -51.333 -18.167 -93.833 -54.5 -127.5s-85.5 -50.5 -147.5 -50.5
c-52.667 0 -97 12.5 -133 37.5s-62.333 53.5 -79 85.5z" />
    <glyph glyph-name="uni090A" unicode="&#x90a;" horiz-adv-x="675" 
d="M697 578l-368.001 -0.00390625v-6c35.333 -19.333 53 -53.666 53 -102.999c0 -28 -7.66699 -53.167 -23 -75.5s-35 -37.833 -59 -46.5v-4c30 -7.33301 55 -22.333 75 -45c10 22.667 26.5 41.834 49.5 57.501s50.5 23.5 82.5 23.5c42.667 0 78.667 -14.167 108 -42.5
s44 -65.833 44 -112.5c0 -49.333 -16.167 -89.666 -48.5 -120.999s-68.5 -50.333 -108.5 -57l-29 67c31.333 4.66699 57.5 16.5 78.5 35.5s31.5 44.167 31.5 75.5c0 26.667 -8 47.667 -24 63s-35 23 -57 23c-27.333 0 -49.666 -9.33301 -66.999 -28s-25.666 -44 -24.999 -76
v-5c0 -51.333 -18 -93.833 -54 -127.5s-85.333 -50.5 -148 -50.5c-52.667 0 -97 12.5 -133 37.5s-62.333 53.5 -79 85.5l63 42c35.333 -64 85 -96 149 -96c38.667 0 69 10 91 30s33 46.667 33 80c0 31.333 -10.667 56.333 -32 75s-52 28 -92 28h-61v68h51
c29.333 0 54.166 8.33301 74.499 25s30.5 41.334 30.5 74.001c0 70.667 -42.667 106 -128 106h-197v64h719v-64z" />
    <glyph glyph-name="uni090B" unicode="&#x90b;" horiz-adv-x="824" 
d="M846 578h-401.002v-238l51 31c37.333 22.667 62.666 42.834 75.999 60.501s20 37.5 20 59.5v11h71v-10c0 -35.333 -11.667 -67.666 -35 -96.999c16.667 -21.333 42.334 -32 77.001 -32h30l25 -59c-60.667 -48.667 -100.167 -83 -118.5 -103s-27.5 -39.667 -27.5 -59
c0 -16.667 7.33301 -30.834 22 -42.501s34.334 -17.5 59.001 -17.5c37.333 0 68.333 13.667 93 41l32 -61c-34.667 -30 -75.667 -45 -123 -45c-45.333 0 -83 12.167 -113 36.5s-45 54.5 -45 90.5c0 27.333 8.16699 51.166 24.5 71.499s48.833 50.833 97.5 91.5v4
c-36 2 -64.667 13.667 -86 35c-12.667 -10 -27.667 -20 -45 -30l-85 -52v-264h-73v225l-259 -168l-53 53l267 160c-14 38 -33.667 66.333 -59 85s-53.333 28 -84 28c-42 0 -78.333 -15.333 -109 -46l-53 58c44.667 39.333 97.334 59 158.001 59
c88.667 0 151 -42.667 187 -128h4v252h-393v64h868v-64z" />
    <glyph glyph-name="uni090C" unicode="&#x90c;" horiz-adv-x="716" 
d="M538 423l4.00098 -0.000976562v155h-564v64h761v-64h-121v-429l-71 -42c-34.667 -21.333 -57.334 -38.166 -68.001 -50.499s-16 -27.833 -16 -46.5c0 -19.333 8.83301 -37 26.5 -53s41.5 -24 71.5 -24c41.333 0 75 12 101 36l35 -61c-35.333 -27.333 -78 -41 -128 -41
c-50.667 0 -93 15 -127 45s-51 65.333 -51 106c0 48.667 24.667 87.667 74 117l79 47v173c-22.667 21.333 -49.667 32 -81 32c-26 0 -46.5 -8.5 -61.5 -25.5s-22.5 -42.167 -22.5 -75.5v-91h-73v92c0 32 -7.16699 56.167 -21.5 72.5s-34.5 24.5 -60.5 24.5
s-47.5 -9.5 -64.5 -28.5s-25.5 -47.5 -25.5 -85.5c0 -98.667 50 -172.667 150 -222l-50 -54c-51.333 26.667 -93.666 64.667 -126.999 114s-50 104 -50 164c0 56 15.833 100 47.5 132s69.167 48 112.5 48c64.667 0 105.667 -26.333 123 -79h4
c7.33301 26 20.833 46.333 40.5 61s42.5 22 68.5 22c37.333 0 65.666 -11 84.999 -33z" />
    <glyph glyph-name="uni090D" unicode="&#x90d;" horiz-adv-x="548" 
d="M382 101c24.667 -22 42.668 -42.001 54.001 -60.001s17 -38 17 -60c0 -30 -9.66699 -57.667 -29 -83h-81v5c22.667 25.333 34 50.333 34 75c0 22 -12.333 43.333 -37 64l-254 219v317h-108v64h592v-64h-112v-169c0 -70 -28.667 -119.333 -86 -148l-58 50
c23.333 10 40.666 22.333 51.999 37s17 35.334 17 62.001v168h-222v-286zM281.001 749.999c-97.333 0 -165.667 40.333 -205 121l59 32c30 -57.333 78.667 -86 146 -86c66.667 0 115 28.667 145 86l58 -32c-39.333 -80.667 -107 -121 -203 -121z" />
    <glyph glyph-name="uni090E" unicode="&#x90e;" horiz-adv-x="548" 
d="M458 642l112 -0.00195312v-64h-112v-169c0 -70 -28.667 -119.333 -86 -148l-58 50c23.333 10 40.666 22.333 51.999 37s17 35.334 17 62.001v168h-222v-286l221 -191c24.667 -22 42.667 -42 54 -60s17 -38 17 -60c0 -30 -9.66699 -57.667 -29 -83h-81v5
c22.667 25.333 34 50.333 34 75c0 22 -12.333 43.333 -37 64l-254 219v317h-108v64h405c0 20 -4.66699 35 -14 45s-25.333 19.667 -48 29c-1.33301 0.666992 -13.666 5.5 -36.999 14.5l-72.5 28c-25 9.66699 -39.833 15.5 -44.5 17.5c-68 25.333 -99.667 71 -95 137l73 -1
c-1.33301 -22 3.5 -38.5 14.5 -49.5s29.167 -21.5 54.5 -31.5l43 -17l73.5 -29c23.667 -9.33301 36.5 -14.666 38.5 -15.999c59.333 -24.667 89 -67 89 -127z" />
    <glyph glyph-name="uni090F" unicode="&#x90f;" horiz-adv-x="548" 
d="M382 101c24.667 -22 42.668 -42.001 54.001 -60.001s17 -38 17 -60c0 -30 -9.66699 -57.667 -29 -83h-81v5c22.667 25.333 34 50.333 34 75c0 22 -12.333 43.333 -37 64l-254 219v317h-108v64h592v-64h-112v-169c0 -70 -28.667 -119.333 -86 -148l-58 50
c23.333 10 40.666 22.333 51.999 37s17 35.334 17 62.001v168h-222v-286z" />
    <glyph glyph-name="uni0910" unicode="&#x910;" horiz-adv-x="548" 
d="M451 642l119.001 -0.000976562v-64h-112v-169c0 -70 -28.667 -119.333 -86 -148l-58 50c23.333 10 40.666 22.333 51.999 37s17 35.334 17 62.001v168h-222v-286l221 -191c24.667 -22 42.667 -42 54 -60s17 -38 17 -60c0 -30 -9.66699 -57.667 -29 -83h-81v5
c22.667 25.333 34 50.333 34 75c0 22 -12.333 43.333 -37 64l-254 219v317h-108v64h403c-50.667 44.667 -101 96 -151 154l-82 94l86 20z" />
    <glyph glyph-name="uni0911" unicode="&#x911;" horiz-adv-x="997" 
d="M871 903l57.999 -32c-39.333 -80.667 -107 -121 -203 -121c-97.333 0 -165.666 40.333 -204.999 121l59 32c30 -57.333 78.667 -86 146 -86c66.667 0 115 28.667 145 86zM1019 642l-0.00195312 -63.998h-120v-578h-76v578h-197v-578h-76v260
c-21.333 -9.33301 -43.666 -14 -66.999 -14c-27.333 0 -52.333 5.33301 -75 16c1.33301 -10.667 2 -19 2 -25c0 -48.667 -17.167 -89.167 -51.5 -121.5s-79.833 -48.5 -136.5 -48.5c-70.667 0 -130.667 25.333 -180 76l52 52c34.667 -40.667 77.334 -61 128.001 -61
c36 0 63.667 9.66699 83 29s29 43.666 29 72.999c0 28 -9.5 49.833 -28.5 65.5s-46.167 23.5 -81.5 23.5h-54v67h31c31.333 0 56.5 8.66699 75.5 26s28.5 41 28.5 71c0 26 -7.83301 46.833 -23.5 62.5s-36.834 23.5 -63.501 23.5c-37.333 0 -66.333 -14.667 -87 -44l-53 48
c32.667 42.667 80 64 142 64c49.333 0 88.5 -14.167 117.5 -42.5s43.5 -63.833 43.5 -106.5c0 -28.667 -7.16699 -53.834 -21.5 -75.501s-30.833 -37.167 -49.5 -46.5v-4c22 -5.33301 41.667 -16.333 59 -33c29.333 -16 61 -24 95 -24c34.667 0 63.334 7 86.001 21v246h-107
v64h576z" />
    <glyph glyph-name="uni0912" unicode="&#x912;" horiz-adv-x="997" 
d="M895 642l124.997 0.000976562v-64h-121v-578h-75v578h-198v-578h-76v260c-21.333 -9.33301 -43.666 -14 -66.999 -14c-27.333 0 -52.333 5.33301 -75 16c1.33301 -10.667 2 -19 2 -25c0 -48.667 -17.167 -89.167 -51.5 -121.5s-79.833 -48.5 -136.5 -48.5
c-70.667 0 -130.667 25.333 -180 76l52 52c34.667 -40.667 77.334 -61 128.001 -61c36 0 63.667 9.66699 83 29s29 43.666 29 72.999c0 28 -9.5 49.833 -28.5 65.5s-46.167 23.5 -81.5 23.5h-54v67h31c31.333 0 56.5 8.66699 75.5 26s28.5 41 28.5 71
c0 26 -7.83301 46.833 -23.5 62.5s-36.834 23.5 -63.501 23.5c-37.333 0 -66.333 -14.667 -87 -44l-53 48c32.667 42.667 80 64 142 64c49.333 0 88.5 -14.167 117.5 -42.5s43.5 -63.833 43.5 -106.5c0 -28.667 -7.16699 -53.834 -21.5 -75.501s-30.833 -37.167 -49.5 -46.5
v-4c22 -5.33301 41.667 -16.333 59 -33c29.333 -16 61 -24 95 -24c34.667 0 63.334 7 86.001 21v246h-107v64h377c0 20 -4.66699 35 -14 45s-25.333 19.667 -48 29c-1.33301 0.666992 -13.666 5.5 -36.999 14.5l-72.5 28c-25 9.66699 -39.833 15.5 -44.5 17.5
c-68 25.333 -99.667 71 -95 137l73 -1c-1.33301 -22 3.5 -38.5 14.5 -49.5s29.167 -21.5 54.5 -31.5l43 -17l73.5 -29c23.667 -9.33301 36.5 -14.666 38.5 -15.999c59.333 -24.667 89 -67 89 -127z" />
    <glyph glyph-name="uni0913" unicode="&#x913;" horiz-adv-x="997" 
d="M890 642l129.998 0.00195312v-64h-121v-578h-75v578h-198v-578h-76v260c-21.333 -9.33301 -43.666 -14 -66.999 -14c-27.333 0 -52.333 5.33301 -75 16c1.33301 -10.667 2 -19 2 -25c0 -48.667 -17.167 -89.167 -51.5 -121.5s-79.833 -48.5 -136.5 -48.5
c-70.667 0 -130.667 25.333 -180 76l52 52c34.667 -40.667 77.334 -61 128.001 -61c36 0 63.667 9.66699 83 29s29 43.666 29 72.999c0 28 -9.5 49.833 -28.5 65.5s-46.167 23.5 -81.5 23.5h-54v67h31c31.333 0 56.5 8.66699 75.5 26s28.5 41 28.5 71
c0 26 -7.83301 46.833 -23.5 62.5s-36.834 23.5 -63.501 23.5c-37.333 0 -66.333 -14.667 -87 -44l-53 48c32.667 42.667 80 64 142 64c49.333 0 88.5 -14.167 117.5 -42.5s43.5 -63.833 43.5 -106.5c0 -28.667 -7.16699 -53.834 -21.5 -75.501s-30.833 -37.167 -49.5 -46.5
v-4c22 -5.33301 41.667 -16.333 59 -33c29.333 -16 61 -24 95 -24c34.667 0 63.334 7 86.001 21v246h-107v64h377c-50.667 44.667 -101 96 -151 154l-82 94l86 20z" />
    <glyph glyph-name="uni0914" unicode="&#x914;" horiz-adv-x="997" 
d="M902 642l116.997 0.00195312v-64h-121v-578h-75v578h-197v-578h-76v260c-21.333 -9.33301 -43.666 -14 -66.999 -14c-27.333 0 -52.333 5.33301 -75 16c1.33301 -10.667 2 -19 2 -25c0 -48.667 -17.167 -89.167 -51.5 -121.5s-79.833 -48.5 -136.5 -48.5
c-70.667 0 -130.667 25.333 -180 76l52 52c34.667 -40.667 77.334 -61 128.001 -61c36 0 63.667 9.66699 83 29s29 43.666 29 72.999c0 28 -9.5 49.833 -28.5 65.5s-46.167 23.5 -81.5 23.5h-54v67h31c31.333 0 56.5 8.66699 75.5 26s28.5 41 28.5 71
c0 26 -7.83301 46.833 -23.5 62.5s-36.834 23.5 -63.501 23.5c-37.333 0 -66.333 -14.667 -87 -44l-53 48c32.667 42.667 80 64 142 64c49.333 0 88.5 -14.167 117.5 -42.5s43.5 -63.833 43.5 -106.5c0 -28.667 -7.16699 -53.834 -21.5 -75.501s-30.833 -37.167 -49.5 -46.5
v-4c22 -5.33301 41.667 -16.333 59 -33c29.333 -16 61 -24 95 -24c34.667 0 63.334 7 86.001 21v246h-107v64h348c-97.333 70 -192.666 145 -285.999 225l71 43l277 -268h4l-138 251l84 20z" />
    <glyph glyph-name="uni0915" unicode="&#x915;" horiz-adv-x="770" 
d="M647 297c0 30.667 -9.66797 55.668 -29.001 75.001s-44.666 29 -75.999 29c-35.333 0 -64 -11.667 -86 -35s-33 -53.666 -33 -90.999v-275h-75v183h-4c-30 -38 -73 -57 -129 -57c-46.667 0 -86.667 16 -120 48s-50 73 -50 123c0 58.667 21.167 104 63.5 136
s91.5 44.333 147.5 37l12 -69c-38.667 6.66699 -72.334 1.16699 -101.001 -16.5s-43 -46.5 -43 -86.5c0 -30 9.66699 -54.833 29 -74.5s44.666 -29.5 75.999 -29.5c35.333 0 64 11.667 86 35s33 53.666 33 90.999v258h-370v64h814v-64h-369v-167h4
c28 38.667 71.333 58 130 58c46.667 0 86.334 -15.833 119.001 -47.5s49 -72.834 49 -123.501c0 -58.667 -21 -104 -63 -136s-91 -44 -147 -36l-12 69c38.667 -6.66699 72.334 -1.16699 101.001 16.5s43 46.167 43 85.5z" />
    <glyph glyph-name="uni0916" unicode="&#x916;" horiz-adv-x="792" 
d="M621 131l-4.00098 -0.000976562c-24 -29.333 -56 -53.666 -96 -72.999s-85.333 -29 -136 -29c-95.333 0 -172.166 32.167 -230.499 96.5s-92.833 147.5 -103.5 249.5l66 23c15.333 -30 38.333 -45 69 -45c33.333 0 50 19.667 50 59v166h-258v64h836v-64h-121v-578h-72
v131zM615.999 458.999l4 -0.000976562v119h-310v-163c0 -38.667 -10.5 -69 -31.5 -91s-47.833 -33 -80.5 -33c-22 0 -40.333 3.66699 -55 11c14 -64.667 43 -115.167 87 -151.5s96.333 -54.5 157 -54.5c66 0 121.833 20 167.5 60s68.5 93.667 68.5 161
c0 34 -9.33301 60.833 -28 80.5s-41.334 29.5 -68.001 29.5s-48.5 -8.16699 -65.5 -24.5s-25.5 -37.833 -25.5 -64.5c0 -27.333 10 -49.833 30 -67.5s46.667 -27.167 80 -28.5l-40 -53c-37.333 2.66699 -70.166 17.334 -98.499 44.001s-42.5 62 -42.5 106
c0 44.667 14.833 81.5 44.5 110.5s66.167 43.5 109.5 43.5c42 0 74.333 -11.333 97 -34z" />
    <glyph glyph-name="uni0917" unicode="&#x917;" horiz-adv-x="557" 
d="M-22 642h600.999v-64h-121v-578h-75v578h-183v-371h-81c-35.333 28.667 -53.666 69.667 -54.999 123l62 44v204h-148v64z" />
    <glyph glyph-name="uni0918" unicode="&#x918;" horiz-adv-x="635" 
d="M462 354l0.000976562 224h-205c-32.667 0 -57.334 -7.66699 -74.001 -23s-25 -35 -25 -59c0 -23.333 8.83301 -42.166 26.5 -56.499s44.5 -21.5 80.5 -21.5h62v-65h-59c-34 0 -59.667 -7.33301 -77 -22s-26 -34.334 -26 -59.001c0 -24 9.5 -44.667 28.5 -62
s48.167 -26 87.5 -26c56 0 100.167 16.167 132.5 48.5s48.5 72.833 48.5 121.5zM658.001 642l0.00292969 -64h-121v-578h-76v197h-4c-14.667 -20 -37.334 -38.333 -68.001 -55s-69.334 -25 -116.001 -25c-59.333 0 -105.5 14.833 -138.5 44.5s-49.5 65.5 -49.5 107.5
c0 30 8.66699 55 26 75s37.666 33 60.999 39v4c-26.667 4 -49 15 -67 33s-27 42 -27 72c0 38.667 15 66 45 82v4h-145v64h680z" />
    <glyph glyph-name="uni0919" unicode="&#x919;" horiz-adv-x="622" 
d="M544 410c14 0 25.668 -4.66699 35.001 -14s14 -21 14 -35c0 -13.333 -4.66699 -24.666 -14 -33.999s-21 -14 -35 -14s-25.5 4.66699 -34.5 14s-13.5 20.666 -13.5 33.999c0 14 4.66699 25.667 14 35s20.666 14 33.999 14zM-21.999 642h666.002v-64h-208v-164h-182
c-28 0 -47.167 -4.66699 -57.5 -14s-15.5 -23 -15.5 -41c0 -17.333 6.16699 -33.666 18.5 -48.999s27.5 -25.333 45.5 -30l168 34c22 -10.667 40.333 -28.167 55 -52.5s22 -51.833 22 -82.5c0 -47.333 -18.167 -87 -54.5 -119s-83.833 -48 -142.5 -48
c-56.667 0 -107 15.167 -151 45.5s-79.333 70.833 -106 121.5l56 41c22 -44 50.167 -78.667 84.5 -104s73.166 -38 116.499 -38c37.333 0 67.333 9 90 27s34 42.667 34 74c0 27.333 -9.66699 48.333 -29 63l-156 -33c-36.667 12.667 -67.167 34.167 -91.5 64.5
s-36.5 63.833 -36.5 100.5c0 31.333 10.167 56.666 30.5 75.999s48.166 29 83.499 29h144v99h-384v64z" />
    <glyph glyph-name="uni091A" unicode="&#x91a;" horiz-adv-x="644" 
d="M470 192h-4c-14 -20 -35.833 -38 -65.5 -54s-66.5 -24 -110.5 -24c-55.333 0 -100.333 16 -135 48s-52 70.667 -52 116c0 46.667 17 82.667 51 108v4h-138v68h363v-67h-78c-37.333 0 -66.5 -9.66699 -87.5 -29s-31.5 -44.666 -31.5 -75.999c0 -30 11 -54.667 33 -74
s51.333 -29 88 -29c49.333 0 89.5 16.167 120.5 48.5s46.5 76.166 46.5 131.499v215h-492v64h688v-64h-121v-578h-75v192z" />
    <glyph glyph-name="uni091B" unicode="&#x91b;" horiz-adv-x="678" 
d="M459 484l0.00195312 94.001h-190c-33.333 0 -60.5 -9.5 -81.5 -28.5s-31.5 -43.833 -31.5 -74.5c0 -28.667 9.33301 -51.5 28 -68.5s44.334 -25.5 77.001 -25.5h37v-67h-23c-33.333 -0.666992 -59.333 -9.33398 -78 -26.001s-28 -39.334 -28 -68.001
c0 -32 12.5 -58.5 37.5 -79.5s59.833 -31.5 104.5 -31.5c65.333 0 121.666 21.667 168.999 65s71 95 71 155c0 28.667 -6.83301 51 -20.5 67s-30.834 24 -51.501 24c-16.667 0 -30.834 -5.33301 -42.501 -16s-17.5 -24.667 -17.5 -42c0 -18 5.5 -32.833 16.5 -44.5
s26.833 -18.834 47.5 -21.501l-46 -49c-27.333 6.66699 -49.333 20.334 -66 41.001s-25 45.334 -25 74.001c0 31.333 10.5 58.5 31.5 81.5s48.167 36.5 81.5 40.5zM700.002 578.001l-169.002 0.00292969v-102c28.667 -10.667 51.334 -29.167 68.001 -55.5
s25 -56.833 25 -91.5c0 -74 -30 -140.5 -90 -199.5s-135 -88.5 -225 -88.5c-67.333 0 -120.666 17.167 -159.999 51.5s-59 76.166 -59 125.499c0 32.667 8 59.5 24 80.5s36 36.167 60 45.5v4c-30 7.33301 -53.833 22.166 -71.5 44.499s-26.5 48.166 -26.5 77.499
c0 42 16.667 76.667 50 104v4h-148v64h722v-64z" />
    <glyph glyph-name="uni091C" unicode="&#x91c;" horiz-adv-x="741" 
d="M273 375l-0.000976562 6l33 58h260v139h-588v64h785v-64h-121v-578h-76v374h-174v-4c32 -26.667 48 -63 48 -109c0 -41.333 -14.333 -76 -43 -104s-66.667 -42 -114 -42c-31.333 0 -60.666 6.16699 -87.999 18.5s-50.333 28.333 -69 48s-35.167 42.5 -49.5 68.5
s-25.333 51.667 -33 77s-12.834 50.666 -15.501 75.999l74 30c2.66699 -65.333 20 -123.166 52 -173.499s73.333 -75.5 124 -75.5c26.667 0 47.834 7.66699 63.501 23s23.5 35.333 23.5 60c0 28.667 -9.5 52.167 -28.5 70.5s-40.167 30.833 -63.5 37.5z" />
    <glyph glyph-name="uni091D" unicode="&#x91d;" horiz-adv-x="773" 
d="M214 279l169 35c4.66699 -2.66699 11 -6.66699 19 -12c33.333 -14 70 -21 110 -21c34 0 63.333 5.66699 88 17v280h-189v-166h-188c-27.333 0 -46.333 -4.66699 -57 -14s-16 -23 -16 -41c0 -17.333 6.33301 -33.5 19 -48.5s27.667 -24.833 45 -29.5zM795 642v-63.998
h-121v-578h-74v225c-20 -6.66699 -45 -10 -75 -10c-23.333 0 -47.666 4 -72.999 12c4 -12.667 6 -27.667 6 -45c0 -46 -16.833 -82.167 -50.5 -108.5s-73.5 -40.166 -119.5 -41.499v-4l158 -104l-82 -43l-157 142c-48.667 1.33301 -85.667 11.666 -111 30.999s-38 42 -38 68
c0 24 9.33301 41.333 28 52l130 -89h34c37.333 0 69.333 8.16699 96 24.5s40 40.166 40 71.499c0 27.333 -9.33301 47.333 -28 60l-156 -32c-36.667 11.333 -67.334 32.166 -92.001 62.499s-37 64.5 -37 102.5c0 30.667 10.333 55.5 31 74.5s48.667 28.5 84 28.5h149v101
h-359v64h817z" />
    <glyph glyph-name="uni091E" unicode="&#x91e;" horiz-adv-x="701" 
d="M-22 642l744.998 -0.000976562v-64h-121v-578h-75v271c-8 -1.33301 -20.333 -2 -37 -2c-31.333 1.33301 -56 4.33301 -74 9c-4.66699 -51.333 -25.5 -93 -62.5 -125s-82.5 -48 -136.5 -48c-48 0 -89.833 11.5 -125.5 34.5s-63.5 49.833 -83.5 80.5l52 53
c40.667 -64.667 93.334 -97 158.001 -97c34 0 62.833 10.833 86.5 32.5s35.5 51.5 35.5 89.5c0 34.667 -9.83301 61.834 -29.5 81.501s-45.5 30.167 -77.5 31.5c-30 0.666992 -56.333 -6 -79 -20l-28 64c30.667 17.333 65.334 26.333 104.001 27
c46.667 0 86.334 -12.167 119.001 -36.5s53.667 -57.833 63 -100.5c21.333 -4 43.666 -6 66.999 -6c16 0 32 1 48 3v236h-549v64z" />
    <glyph glyph-name="uni091F" unicode="&#x91f;" horiz-adv-x="503" 
d="M-22 578l0.000976562 64.002h548v-64h-139v-166l-145 -42c-45.333 -14 -76 -30 -92 -48s-24 -42.333 -24 -73c0 -36.667 14.5 -69 43.5 -97s67.167 -42 114.5 -42c66.667 0 119.667 21.333 159 64l42 -61c-48 -48 -112 -72 -192 -72c-69.333 0 -127.333 22.167 -174 66.5
s-70 96.166 -70 155.499c0 42.667 11.667 77.167 35 103.5s59.666 47.166 108.999 62.499l118 36v113h-333z" />
    <glyph glyph-name="uni0920" unicode="&#x920;" horiz-adv-x="574" 
d="M321 394l-80 -24.0029c-46 -13.333 -77 -29.166 -93 -47.499s-24 -42.833 -24 -73.5c0 -37.333 13.833 -69.833 41.5 -97.5s65.5 -41.5 113.5 -41.5c56 0 98.667 13.833 128 41.5s44 61.834 44 102.501c0 38.667 -13.833 69.834 -41.5 93.501s-57.167 39.167 -88.5 46.5z
M596 577.997l-211 0.00195312v-135c38 -16 71.167 -40.333 99.5 -73s42.5 -73.334 42.5 -122.001c0 -58.667 -22.333 -107.834 -67 -147.501s-102 -59.5 -172 -59.5c-69.333 0 -126.833 21.333 -172.5 64s-68.5 94.667 -68.5 156c0 42.667 12 77.5 36 104.5
s60.667 47.833 110 62.5l116 36v114h-331v64h618v-64z" />
    <glyph glyph-name="uni0921" unicode="&#x921;" horiz-adv-x="544" 
d="M436 414h-181.998c-28 0 -47.167 -4.66699 -57.5 -14s-15.5 -23 -15.5 -41c0 -17.333 6.16699 -33.666 18.5 -48.999s27.5 -25.333 45.5 -30l168 34c22 -10.667 40.333 -28.167 55 -52.5s22 -51.833 22 -82.5c0 -47.333 -18.167 -87 -54.5 -119s-83.833 -48 -142.5 -48
c-56.667 0 -107 15.167 -151 45.5s-79.333 70.833 -106 121.5l56 41c22 -44 50.167 -78.667 84.5 -104s73.166 -38 116.499 -38c37.333 0 67.333 9 90 27s34 42.667 34 74c0 27.333 -9.66699 48.333 -29 63l-156 -33c-36.667 12.667 -67.167 34.167 -91.5 64.5
s-36.5 63.833 -36.5 100.5c0 31.333 10.167 56.666 30.5 75.999s48.166 29 83.499 29h144v99h-384v64h588v-64h-130v-164z" />
    <glyph glyph-name="uni0922" unicode="&#x922;" horiz-adv-x="526" 
d="M299 106c32 0 57.001 7.66699 75.001 23s27 35.333 27 60c0 15.333 -5.33301 28.333 -16 39s-24 16 -40 16c-20.667 0 -36.334 -7.33301 -47.001 -22s-14.334 -32.334 -11.001 -53.001l-61 32c0 28 10.833 53.667 32.5 77s51.5 35 89.5 35c36 0 66.167 -12 90.5 -36
s36.5 -53 36.5 -87c0 -42 -16.333 -77.833 -49 -107.5s-74.334 -44.5 -125.001 -44.5c-70.667 0 -130.667 22.667 -180 68s-74 99.666 -74 162.999c0 43.333 13.333 80.833 40 112.5s63.334 53.834 110.001 66.501l136 39v91h-355v64h570v-64h-139v-144l-167 -44
c-44 -11.333 -74.5 -27.5 -91.5 -48.5s-25.5 -47.5 -25.5 -79.5c0 -41.333 16.333 -77.666 49 -108.999s74.334 -47 125.001 -47z" />
    <glyph glyph-name="uni0923" unicode="&#x923;" horiz-adv-x="756" 
d="M338 345v233h-178v-233c0 -32.667 7.66699 -57.5 23 -74.5s37.333 -25.5 66 -25.5s50.667 8.66699 66 26s23 42 23 74zM778 642l-0.000976562 -64h-121v-578h-75v578h-169v-235c0 -52.667 -15.167 -93.5 -45.5 -122.5s-70.166 -43.5 -119.499 -43.5
s-88.833 14.5 -118.5 43.5s-44.5 69.833 -44.5 122.5v235h-107v64h800z" />
    <glyph glyph-name="uni0924" unicode="&#x924;" horiz-adv-x="556" 
d="M244 38l-60.001 -45.001c-39.333 30 -71.333 67.333 -96 112s-37 95 -37 151c0 55.333 16.833 99.5 50.5 132.5s75.834 49.5 126.501 49.5h154v140h-404v64h600v-64h-121v-578h-75v370h-140c-34 0 -61.333 -10.167 -82 -30.5s-31 -48.5 -31 -84.5
c0 -87.333 38.333 -159.666 115 -216.999z" />
    <glyph glyph-name="uni0925" unicode="&#x925;" horiz-adv-x="645" 
d="M181 324c-0.666992 0 -5.83301 -1.50098 -15.5 -4.50098s-19 -5.66699 -28 -8s-14.167 -3.5 -15.5 -3.5c1.33301 -12 5.16602 -25 11.499 -39s15.333 -28.5 27 -43.5s28.334 -27.5 50.001 -37.5s45.834 -15 72.501 -15c60.667 0 107.167 18.5 139.5 55.5
s48.5 82.833 48.5 137.5v276h196v-64h-121v-578h-75v192h-4c-14.667 -22.667 -38.167 -43 -70.5 -61s-71.833 -27 -118.5 -27c-72 0 -130 23.167 -174 69.5s-68 105.166 -72 176.499l101 28c66 18.667 110.333 38.334 133 59.001s34 46.334 34 77.001
c0 21.333 -6.16699 38.333 -18.5 51s-29.166 19 -50.499 19c-20.667 0 -37.334 -5.83301 -50.001 -17.5s-19 -27.5 -19 -47.5c0 -23.333 9.33301 -43.333 28 -60l-71 -21c-21.333 21.333 -32 49.333 -32 84c0 36 13.5 66.667 40.5 92s61.5 38 103.5 38
c43.333 0 78.166 -13 104.499 -39s39.5 -59.667 39.5 -101c0 -90 -64.667 -152.667 -194 -188z" />
    <glyph glyph-name="uni0926" unicode="&#x926;" horiz-adv-x="523" 
d="M398 425l-156.999 -38.002c-42.667 -11.333 -72.834 -26 -90.501 -44s-26.5 -41.667 -26.5 -71c0 -37.333 13.5 -68.666 40.5 -93.999s60.833 -37.666 101.5 -36.999c40 0 69.333 8.33301 88 25v102l55 20c13.333 -6.66699 25 -17.167 35 -31.5s15 -31.166 15 -50.499
c0 -34.667 -11.667 -62.334 -35 -83.001l111 -141l-89 -22l-73 132c-28 -13.333 -60.333 -20 -97 -20c-68 0 -123.167 20.833 -165.5 62.5s-63.5 90.5 -63.5 146.5c0 86 51.667 141.667 155 167l120 30v100h-344v64h567v-64h-147v-153z" />
    <glyph glyph-name="uni0927" unicode="&#x927;" horiz-adv-x="632" 
d="M654 642l0.00292969 -63.999h-120v-578h-76v198h-4c-15.333 -20 -38.333 -38.333 -69 -55s-69.334 -25 -116.001 -25c-59.333 0 -105.333 14.833 -138 44.5s-49 65.5 -49 107.5c0 30 8.66699 55 26 75s37.666 33 60.999 39v4c-26.667 3.33301 -49 14 -67 32
s-27 42 -27 72c0 20 4.83301 37.167 14.5 51.5s20.5 24.5 32.5 30.5v4h-144v64h261l11 -62c-28.667 -3.33301 -51.667 -12.333 -69 -27s-26 -33.667 -26 -57c0 -22.667 8.83301 -41.167 26.5 -55.5s44.5 -21.5 80.5 -21.5h65v-66h-62c-34.667 0 -60.667 -7.16699 -78 -21.5
s-26 -33.833 -26 -58.5s9.33301 -45.5 28 -62.5s47.667 -25.5 87 -25.5c57.333 0 102.166 16.667 134.499 50s48.5 73.666 48.5 120.999v222h-116v64h311z" />
    <glyph glyph-name="uni0928" unicode="&#x928;" horiz-adv-x="513" 
d="M139 233l-46.001 -16c-19.333 12 -35.166 30 -47.499 54s-18.5 49.667 -18.5 77l56 45h256v185h-361v64h557v-64h-121v-578h-75v325h-200v-92z" />
    <glyph glyph-name="uni0928093C" unicode="&#x929;" horiz-adv-x="513" 
d="M139 233l-46.001 -16c-19.333 12 -35.166 30 -47.499 54s-18.5 49.667 -18.5 77l56 45h256v185h-361v64h557v-64h-121v-578h-75v325h-200v-92zM54.999 59c0 14 4.5 25.667 13.5 35s20.167 14 33.5 14c14 0 25.5 -4.66699 34.5 -14s13.5 -21 13.5 -35
c0 -13.333 -4.5 -24.666 -13.5 -33.999s-20.5 -14 -34.5 -14c-13.333 0 -24.5 4.66699 -33.5 14s-13.5 20.666 -13.5 33.999z" />
    <glyph glyph-name="uni092A" unicode="&#x92a;" horiz-adv-x="562" 
d="M388 257l-4 -0.000976562c-27.333 -41.333 -72.333 -62 -135 -62c-48 0 -87.167 14.333 -117.5 43s-45.5 69.334 -45.5 122.001v218h-108v64h606v-64h-121v-578h-75v257zM388 408.999v169h-227v-208c0 -37.333 8.33301 -64.333 25 -81s41.667 -25 75 -25
c40 0 71.167 13.167 93.5 39.5s33.5 61.5 33.5 105.5z" />
    <glyph glyph-name="uni092B" unicode="&#x92b;" horiz-adv-x="794" 
d="M371 252h-4c-24.667 -39.333 -66.334 -59 -125.001 -59c-47.333 0 -85.166 14.167 -113.499 42.5s-42.5 68.5 -42.5 120.5v222h-108v64h839v-64h-372v-170h4c11.333 15.333 28.666 29.333 51.999 42s51 19 83 19c47.333 0 87.5 -15.833 120.5 -47.5
s49.5 -72.834 49.5 -123.501c0 -59.333 -20.5 -106.166 -61.5 -140.499s-90.833 -47.833 -149.5 -40.5l-12 70c44 -8 79.167 -1.16699 105.5 20.5s39.5 51.5 39.5 89.5c0 30.667 -9.66699 55.5 -29 74.5s-44.666 28.5 -75.999 28.5c-36 0 -66 -13 -90 -39
s-36 -59.667 -36 -101v-260h-74v252zM371 398v180h-210v-211c0 -70 29.667 -105 89 -105c36.667 0 66 12.333 88 37s33 57.667 33 99z" />
    <glyph glyph-name="uni092C" unicode="&#x92c;" horiz-adv-x="567" 
d="M341 200l-202.001 166c-12 -20.667 -18 -43 -18 -67c0 -37.333 11.833 -68 35.5 -92s54.834 -36 93.501 -36c34.667 0 65 9.66699 91 29zM-22.001 642h611.001v-64h-120v-578h-76v169h-4c-34.667 -43.333 -84.334 -65 -149.001 -65c-54.667 0 -100.667 18.167 -138 54.5
s-56 82.5 -56 138.5c0 58 20.333 105.333 61 142s89 55 145 55c27.333 0 50.333 -2.66699 69 -8l3 -70c-20 7.33301 -42.333 11 -67 11c-30.667 0 -57.667 -7.66699 -81 -23l199 -164c12 21.333 18 45 18 71v267h-415v64z" />
    <glyph glyph-name="uni092D" unicode="&#x92d;" horiz-adv-x="583" 
d="M304 642l301.001 -0.000976562v-64h-120v-578h-75v286h-218v-104h-80c-18 14.667 -31.833 33.834 -41.5 57.501s-14.834 46.834 -15.501 69.501l63 45v153c0 24.667 -6 42.667 -18 54s-30.667 17 -56 17h-66v64h75c42.667 0 76.667 -10.833 102 -32.5
s38 -53.834 38 -96.501v-158h217v223h-106v64z" />
    <glyph glyph-name="uni092E" unicode="&#x92e;" horiz-adv-x="579" 
d="M405 355v223h-212v-223h212zM-22 642l623.001 -0.00195312v-64h-121v-578h-75v286h-212v-6h-1v-98h-80c-18 14.667 -31.833 33.834 -41.5 57.501s-14.834 46.834 -15.501 69.501l63 45v224h-140v64z" />
    <glyph glyph-name="uni092F" unicode="&#x92f;" horiz-adv-x="609" 
d="M435 209h-4c-36 -48 -88.667 -72 -158 -72c-60.667 0 -111.667 20.5 -153 61.5s-66 97.5 -74 169.5c48 10.667 84 25 108 43s36 42 36 72c0 38 -14.333 69.667 -43 95h-169v64h654v-64h-121v-578h-76v209zM133 333c4.66699 -32.667 19.668 -62 45.001 -88
s60.666 -39 105.999 -39s82 14.5 110 43.5s42 69.167 42 120.5v208h-209v-4c26.667 -28.667 40 -62.667 40 -102c0 -34 -12.333 -63.333 -37 -88s-57 -41.667 -97 -51z" />
    <glyph glyph-name="uni0930" unicode="&#x930;" horiz-adv-x="402" 
d="M154 276l-1.00098 -3.00098c26.667 -30.667 49.667 -58.334 69 -83.001l116 -152l-61 -41l-259 340l57 45c26.667 -31.333 57.334 -47 92.001 -47c44.667 0 67 22 67 66v177h-256v64h446v-64h-115v-184c0 -39.333 -11.5 -69.166 -34.5 -89.499
s-51.833 -31.166 -86.5 -32.499c-14 0 -25.333 1.33301 -34 4z" />
    <glyph glyph-name="uni0930093C" unicode="&#x931;" horiz-adv-x="408" 
d="M160 276l-2 -3.00098c26.667 -30.667 49.667 -58.334 69 -83.001l117 -152l-61 -41l-259 340l57 45c25.333 -31.333 56 -47 92 -47c44 0 66 22 66 66v177h-261v64h452v-64h-116v-184c0 -39.333 -11.333 -69.166 -34 -89.499s-51.667 -31.166 -87 -32.499
c-14 0 -25 1.33301 -33 4zM-24 62.999c0 14 4.5 25.667 13.5 35s20.167 14 33.5 14c14 0 25.5 -4.66699 34.5 -14s13.5 -21 13.5 -35c0 -13.333 -4.5 -24.666 -13.5 -33.999s-20.5 -14 -34.5 -14c-13.333 0 -24.5 4.66699 -33.5 14s-13.5 20.666 -13.5 33.999z" />
    <glyph glyph-name="uni0932" unicode="&#x932;" horiz-adv-x="713" 
d="M535 423l4 -0.000976562v155h-561v64h757v-64h-120v-578h-76v354c-22 22 -48.667 33 -80 33c-25.333 0 -45.5 -8.5 -60.5 -25.5s-22.5 -42.167 -22.5 -75.5v-95h-73v95c0 32 -7.33301 56.167 -22 72.5s-34.667 24.5 -60 24.5c-26 0 -47.5 -9.5 -64.5 -28.5
s-25.5 -47.5 -25.5 -85.5c0 -94 50 -168 150 -222l-51 -54c-51.333 28 -93.666 66.5 -126.999 115.5s-50 103.167 -50 162.5c0 56 15.833 100.167 47.5 132.5s69.5 48.5 113.5 48.5c32 0 58.5 -7.16699 79.5 -21.5s35.5 -33.833 43.5 -58.5h4
c7.33301 26.667 21 47.334 41 62.001s42.667 22 68 22c37.333 0 65.666 -11 84.999 -33z" />
    <glyph glyph-name="uni0933" unicode="&#x933;" horiz-adv-x="733" 
d="M395 237l-3 -9.99902c27.333 -58.667 66.666 -88 117.999 -88c30.667 0 55.334 11.5 74.001 34.5s28 54.5 28 94.5c0 37.333 -8.33301 68.166 -25 92.499s-40 36.5 -70 36.5c-8 0 -15.667 -0.833008 -23 -2.5s-14 -4.66699 -20 -9l-16 -11.5
c-4.66699 -3.33301 -9.33398 -9 -14.001 -17s-8.5 -14.333 -11.5 -19s-6.5 -12.5 -10.5 -23.5s-7 -19 -9 -24s-5.16699 -14 -9.5 -27s-7.16602 -21.833 -8.49902 -26.5zM341 300.001l4 11.002c-29.333 57.333 -68.333 86 -117 86c-30 0 -54.5 -11.833 -73.5 -35.5
s-28.5 -54.834 -28.5 -93.501c0 -38 7.83301 -69 23.5 -93s38.5 -36 68.5 -36c12.667 0 24 1.66699 34 5s19 9.66602 27 18.999l19.5 23c5 6 10.667 17.667 17 35s10.5 29.333 12.5 36zM755 578.003l-206 -0.000976562v-116c42 -6.66699 75.5 -27.167 100.5 -61.5
s37.5 -77.5 37.5 -129.5c0 -59.333 -16.667 -107 -50 -143s-76 -54 -128 -54c-64.667 0 -113.667 28.333 -147 85c-32.667 -58 -82.667 -87 -150 -87c-48.667 0 -87.667 17.667 -117 53s-44 82 -44 140c0 58.667 16.333 106.167 49 142.5s76 54.5 130 54.5
c61.333 0 109.333 -27.667 144 -83c24 42.667 57.667 69.334 101 80.001v119h-497v64h777v-64z" />
    <glyph glyph-name="uni0933093C" unicode="&#x934;" horiz-adv-x="733" 
d="M362 31c14.667 0 26.5 -4.5 35.5 -13.5s13.5 -20.5 13.5 -34.5s-4.5 -25.5 -13.5 -34.5s-20.833 -13.5 -35.5 -13.5c-13.333 0 -24.5 4.5 -33.5 13.5s-13.5 20.5 -13.5 34.5s4.5 25.5 13.5 34.5s20.167 13.5 33.5 13.5zM395 237l-3 -9.99902
c27.333 -58.667 66.666 -88 117.999 -88c30.667 0 55.334 11.5 74.001 34.5s28 54.5 28 94.5c0 37.333 -8.33301 68.166 -25 92.499s-40 36.5 -70 36.5c-8 0 -15.667 -0.833008 -23 -2.5s-14 -4.66699 -20 -9l-16 -11.5c-4.66699 -3.33301 -9.33398 -9 -14.001 -17
s-8.5 -14.333 -11.5 -19s-6.5 -12.5 -10.5 -23.5s-7 -19 -9 -24s-5.16699 -14 -9.5 -27s-7.16602 -21.833 -8.49902 -26.5zM341 300.001l4 11.002c-29.333 57.333 -68.333 86 -117 86c-30 0 -54.5 -11.833 -73.5 -35.5s-28.5 -54.834 -28.5 -93.501
c0 -38 7.83301 -69 23.5 -93s38.5 -36 68.5 -36c12.667 0 24 1.66699 34 5s19 9.66602 27 18.999l19.5 23c5 6 10.667 17.667 17 35s10.5 29.333 12.5 36zM755 578.003l-206 -0.000976562v-116c42 -6.66699 75.5 -27.167 100.5 -61.5s37.5 -77.5 37.5 -129.5
c0 -59.333 -16.667 -107 -50 -143s-76 -54 -128 -54c-64.667 0 -113.667 28.333 -147 85c-32.667 -58 -82.667 -87 -150 -87c-48.667 0 -87.667 17.667 -117 53s-44 82 -44 140c0 58.667 16.333 106.167 49 142.5s76 54.5 130 54.5c61.333 0 109.333 -27.667 144 -83
c24 42.667 57.667 69.334 101 80.001v119h-497v64h777v-64z" />
    <glyph glyph-name="uni0935" unicode="&#x935;" horiz-adv-x="548" 
d="M449 578v-578h-75v175h-4c-32 -40 -79 -60 -141 -60c-50.667 0 -94 17 -130 51s-54 78 -54 132c0 66.667 24.667 116 74 148s104.333 42.667 165 32l7 -71c-43.333 11.333 -81.833 7 -115.5 -13s-50.5 -51.667 -50.5 -95c0 -33.333 10.833 -61 32.5 -83
s49.834 -33 84.501 -33c39.333 0 71.166 13.833 95.499 41.5s36.5 62.167 36.5 103.5v250h-396v64h592v-64h-121z" />
    <glyph glyph-name="uni0936" unicode="&#x936;" horiz-adv-x="718" 
d="M228 445l-46.002 -52c-27.333 8 -48.666 22.667 -63.999 44s-23 46.666 -23 75.999c0 38.667 14.333 71.5 43 98.5s65.667 40.5 111 40.5c54 0 96.333 -17.667 127 -53s46 -78 46 -128c0 -72 -26.667 -127.833 -80 -167.5s-118.666 -56.834 -195.999 -51.501l-2 -4
c44.667 -37.333 78.334 -66.666 101.001 -87.999l133 -128l-63 -43l-230 224l-70 59l45 61c31.333 -11.333 65.666 -17 102.999 -17c52.667 0 96 13.833 130 41.5s51 65.167 51 112.5c0 36 -9.16699 64.333 -27.5 85s-40.5 31 -66.5 31c-24.667 0 -44 -6.66699 -58 -20
s-21 -30.666 -21 -51.999c0 -16 5 -30.5 15 -43.5s24 -21.5 42 -25.5zM543.998 0v642h196v-64h-121v-578h-75z" />
    <glyph glyph-name="uni0937" unicode="&#x937;" horiz-adv-x="572" 
d="M398 255l-3.99902 -0.000976562c-12 -19.333 -30 -35.166 -54 -47.499s-52.667 -18.5 -86 -18.5c-48.667 0 -88.834 14.5 -120.501 43.5s-47.5 69.167 -47.5 120.5v225h-108v64h616v-64h-121v-578h-75v255zM267.001 254.999c45.333 0 79.667 15.667 103 47l-148 142
l-67 67l4 -92v-58c0 -70.667 36 -106 108 -106zM400.002 401.999v176.001h-241l234 -225c4.66699 13.333 7 29.666 7 48.999z" />
    <glyph glyph-name="uni0938" unicode="&#x938;" horiz-adv-x="680" 
d="M307 578v-192c0 -14 -1.33301 -25.333 -4 -34c33.333 -9.33301 69 -14 107 -14c36 0 67.667 4.33301 95 13v227h-198zM-22 642h724.002v-64h-121v-578h-76v279c-24.667 -5.33301 -55.334 -8 -92.001 -8c-52 0 -99 8 -141 24c-21.333 -19.333 -50 -29.666 -86 -30.999
c-16 0 -27 1 -33 3l-2 -3c30.667 -34.667 53.667 -62.334 69 -83.001l117 -152l-61 -40l-258 338l57 45c25.333 -30 55.666 -45 90.999 -45c44 0 66 21.667 66 65v186h-254v64z" />
    <glyph glyph-name="uni0939" unicode="&#x939;" horiz-adv-x="507" 
d="M423 414l-213 -0.000976562c-41.333 0 -62 -15.667 -62 -47c0 -33.333 19 -61 57 -83c26 10 55.667 15 89 15c52.667 0 93.167 -13.333 121.5 -40s42.5 -59 42.5 -97c0 -41.333 -16 -76.666 -48 -105.999l-66 38c26.667 21.333 40 45 40 71
c0 19.333 -7.66699 35.333 -23 48s-37 19 -65 19c-41.333 0 -74.666 -9.83301 -99.999 -29.5s-38 -44.5 -38 -74.5c0 -87.333 90 -136 270 -146l-32 -65c-98.667 7.33301 -175.834 29.166 -231.501 65.499s-83.5 85.5 -83.5 147.5c0 49.333 21.333 90 64 122
c-48.667 30.667 -73 72.334 -73 125.001c0 30 10.667 54.5 32 73.5s51 28.5 89 28.5h157v99h-372v64h551v-64h-106v-164z" />
    <glyph glyph-name="uni093A" unicode="&#x93a;" 
d="M-99 621h-75v186h75v-186z" />
    <glyph glyph-name="uni093B" unicode="&#x93b;" horiz-adv-x="273" 
d="M174 642h121v-64h-121v-578h-75v578h-121v64h121v165h75v-165z" />
    <glyph glyph-name="uni093C" unicode="&#x93c;" 
d="M-321 -109c0 14 4.5 25.667 13.5 35s20.5 14 34.5 14s25.5 -4.66699 34.5 -14s13.5 -21 13.5 -35c0 -13.333 -4.5 -24.666 -13.5 -33.999s-20.5 -14 -34.5 -14s-25.5 4.66699 -34.5 14s-13.5 20.666 -13.5 33.999z" />
    <glyph glyph-name="uni093D" unicode="&#x93d;" horiz-adv-x="490" 
d="M238 107c40 0 70.502 8.82812 91.502 26.4951s31.5 40.834 31.5 69.501c0 16 -2.83301 30 -8.5 42s-16.334 23.667 -32.001 35s-29.167 20 -40.5 26s-31 15.667 -59 29c-22 10.667 -39.5 19.834 -52.5 27.501s-27.333 18.167 -43 31.5s-27.334 28.833 -35.001 46.5
s-11.5 37.834 -11.5 60.501c0 42.667 15.333 76.834 46 102.501s71 38.5 121 38.5h164v-69h-158c-30 0 -53.333 -6.5 -70 -19.5s-25 -30.5 -25 -52.5c0 -12.667 2.66699 -24.167 8 -34.5s15 -20.5 29 -30.5s26.667 -18.167 38 -24.5s29 -15.5 53 -27.5
c24.667 -12 44.5 -22.5 59.5 -31.5s30.5 -20.667 46.5 -35s27.833 -30.833 35.5 -49.5s11.5 -40 11.5 -64c0 -49.333 -17.667 -89.666 -53 -120.999s-85 -47 -149 -47c-81.333 0 -151.333 24.667 -210 74l47 62c46 -43.333 101 -65 165 -65z" />
    <glyph glyph-name="uni093E" unicode="&#x93e;" horiz-adv-x="273" 
d="M295 578h-121v-578h-75v578h-121v64h317v-64z" />
    <glyph glyph-name="uni093F" unicode="&#x93f;" horiz-adv-x="273" 
d="M98 642v93c0 56 20 101.833 60 137.5s90.667 53.5 152 53.5c76 0 145.833 -18.167 209.5 -54.5s114.167 -77.166 151.5 -122.499l-50 -49c-32 40.667 -75.667 77.167 -131 109.5s-115.333 48.5 -180 48.5c-42.667 0 -76 -11.333 -100 -34s-36 -53.334 -36 -92.001v-90
h121v-64h-121v-578h-75v578h-121v64h120z" />
    <glyph glyph-name="uni0940" unicode="&#x940;" horiz-adv-x="273" 
d="M295 578l-121.002 -0.00195312v-578h-75v578h-121v64h121c-3.33301 59.333 -20.166 110.333 -50.499 153s-69.166 64 -116.499 64c-24 0 -43.167 -6.66699 -57.5 -20s-21.5 -30.666 -21.5 -51.999c0 -27.333 10 -50.666 30 -69.999l-76 -16c-21.333 22.667 -32 52 -32 88
c0 38.667 14.333 71 43 97s66 39 112 39c66.667 0 122.167 -25.833 166.5 -77.5s69.833 -120.167 76.5 -205.5h122v-64z" />
    <glyph glyph-name="uni0941" unicode="&#x941;" 
d="M-427 -68c70 -103.333 152.667 -155.001 248 -155.001c32.667 0 59.834 8.16699 81.501 24.5s32.5 39.833 32.5 70.5c0 22 -7.33301 40.5 -22 55.5s-33.334 22.5 -56.001 22.5c-36.667 0 -64.667 -15 -84 -45l-55 46c34.667 44 81.667 66 141 66
c44.667 0 81.5 -13.167 110.5 -39.5s43.5 -61.5 43.5 -105.5c0 -43.333 -16.167 -81.166 -48.5 -113.499s-80.5 -48.5 -144.5 -48.5c-117.333 0 -219 56.667 -305 170z" />
    <glyph glyph-name="uni0942" unicode="&#x942;" 
d="M144 -258l-73 -21.001c-13.333 66.667 -39 121.167 -77 163.5s-80.667 63.5 -128 63.5c-25.333 0 -46.333 -7.5 -63 -22.5s-25 -33.833 -25 -56.5c0 -20.667 6.83301 -38.167 20.5 -52.5s31.5 -21.5 53.5 -21.5c16.667 0 34 4 52 12v-69
c-14 -6.66699 -33.333 -10 -58 -10c-43.333 0 -78.333 13.5 -105 40.5s-40 60.167 -40 99.5c0 42.667 15.833 77.834 47.5 105.501s71.167 41.5 118.5 41.5c49.333 0 94.5 -14.833 135.5 -44.5s72.667 -64.5 95 -104.5s37.833 -81.333 46.5 -124z" />
    <glyph glyph-name="uni0943" unicode="&#x943;" 
d="M-34 -144l29 -60c-38 -22.667 -82.333 -34 -133 -34c-47.333 0 -85.5 12.167 -114.5 36.5s-43.5 57.5 -43.5 99.5c0 42.667 17.333 77 52 103s79.667 40.667 135 44l10 -45v-15c-82.667 -9.33301 -124 -38.333 -124 -87c0 -22 7.5 -39.333 22.5 -52s36.833 -19 65.5 -19
c39.333 0 73 9.66699 101 29z" />
    <glyph glyph-name="uni0944" unicode="&#x944;" 
d="M-91 -123l10.9961 -55.9971c-89.333 -5.33301 -134 -27.333 -134 -66c0 -15.333 6.83301 -27.333 20.5 -36s32.5 -13 56.5 -13c52.667 0 92.334 11.333 119.001 34l28 -58c-39.333 -25.333 -87.666 -38 -144.999 -38c-43.333 0 -79.166 9.16699 -107.499 27.5
s-42.5 45.166 -42.5 80.499c0 23.333 7.16699 42.166 21.5 56.499s31.833 24.166 52.5 29.499c-21.333 2 -41 10.833 -59 26.5s-27 37.167 -27 64.5c0 36 17.833 64.5 53.5 85.5s80.834 30.833 135.501 29.5l9 -44v-16c-84 0 -126 -20 -126 -60c0 -34.667 26.667 -52 80 -52
c19.333 0 37.333 1.66699 54 5z" />
    <glyph glyph-name="uni0945" unicode="&#x945;" 
d="M-136 750c-97.333 0 -165.667 40.333 -205 121l59 32c30 -57.333 78.667 -86 146 -86c66.667 0 115 28.667 145 86l58 -32c-39.333 -80.667 -107 -121 -203 -121z" />
    <glyph glyph-name="uni0946" unicode="&#x946;" 
d="M-236 716c-1.33301 0.666992 -13.667 5.5 -37 14.5l-72.5 28c-25 9.66699 -39.833 15.5 -44.5 17.5c-68 25.333 -99.667 71 -95 137l73 -1c-1.33301 -22 3.5 -38.5 14.5 -49.5s29.167 -21.5 54.5 -31.5l43 -17l73.5 -29c23.667 -9.33301 36.5 -14.666 38.5 -15.999
c59.333 -24.667 89 -67.334 89 -128.001h-75c0 20.667 -4.66699 36 -14 46s-25.333 19.667 -48 29z" />
    <glyph glyph-name="uni0947" unicode="&#x947;" 
d="M-105 638l-56.001 -10.001l-5 4c-47.333 38.667 -101.666 93.334 -162.999 164.001l-82 94l86 20z" />
    <glyph glyph-name="uni0948" unicode="&#x948;" 
d="M-146 641l3.00098 1l-138 251l84 20l103 -281l-57 -30c-114.667 78 -229.334 166.333 -344.001 265l71 43z" />
    <glyph glyph-name="uni0949" unicode="&#x949;" horiz-adv-x="273" 
d="M295 578h-121v-578h-75v578h-121v64h317v-64zM139 750c-97.333 0 -165.667 40.333 -205 121l59 32c30 -57.333 78.667 -86 146 -86c66.667 0 115 28.667 145 86l58 -32c-39.333 -80.667 -107 -121 -203 -121z" />
    <glyph glyph-name="uni094A" unicode="&#x94a;" horiz-adv-x="273" 
d="M174 642l120.999 -0.000976562v-64h-121v-578h-75v578h-121v64h121c0 20 -4.66699 35 -14 45s-25.333 19.667 -48 29c-1.33301 0.666992 -13.666 5.5 -36.999 14.5l-72.5 28c-25 9.66699 -39.833 15.5 -44.5 17.5c-68 25.333 -99.667 71 -95 137l73 -1
c-1.33301 -22 3.5 -38.5 14.5 -49.5s29.167 -21.5 54.5 -31.5l43 -17l73.5 -29c23.667 -9.33301 36.5 -14.666 38.5 -15.999c59.333 -24.667 89 -67 89 -127z" />
    <glyph glyph-name="uni094B" unicode="&#x94b;" horiz-adv-x="273" 
d="M167 642h128v-64h-121v-578h-75v578h-121v64h119c-50.667 44 -101 95.333 -151 154l-82 94l86 20z" />
    <glyph glyph-name="uni094C" unicode="&#x94c;" horiz-adv-x="273" 
d="M175 642h119.999v-64h-121v-578h-75v578h-121v64h86c-97.333 70 -192.666 145 -285.999 225l71 43l277 -268h4l-138 251l84 20z" />
    <glyph glyph-name="uni094D" unicode="&#x94d;" 
d="M38 -232v-4h-97l-110 146l62 24z" />
    <glyph glyph-name="uni094E" unicode="&#x94e;" horiz-adv-x="273" 
d="M295 578h-121v-578h-75v642h196v-64z" />
    <glyph glyph-name="uni094F" unicode="&#x94f;" horiz-adv-x="273" 
d="M174 642l120.999 -0.00585938v-64h-121v-578h-75v578h-121v64h121c-8 15.333 -21 27.833 -39 37.5s-44.833 20 -80.5 31s-60.167 19.167 -73.5 24.5c-68.667 26.667 -101.667 70.667 -99 132h75c-0.666992 -22 4.5 -39.167 15.5 -51.5s28.833 -23.833 53.5 -34.5
l47 -19.5c22 -9 37.833 -15.833 47.5 -20.5s21.5 -11.667 35.5 -21s25 -19.666 33 -30.999s14.333 -24.666 19 -39.999h5c-1.33301 16.667 -7.16602 33 -17.499 49s-22.5 30.667 -36.5 44s-27.833 27.333 -41.5 42s-25.334 31.834 -35.001 51.501s-14.5 40.834 -14.5 63.501
c0 16.667 1.33301 27.667 4 33h71l-1 -6c-0.666992 -3.33301 -1.33398 -7.66602 -2.00098 -12.999s-1 -10.333 -1 -15c0 -19.333 3.83301 -37.666 11.5 -54.999s16.834 -32.833 27.501 -46.5l32 -41.5c10.667 -14 19.834 -30 27.501 -48s11.5 -36.667 11.5 -56v-9z" />
    <glyph glyph-name="uni0950" unicode="&#x950;" horiz-adv-x="1223" 
d="M697 719c-14.667 0 -27.332 5 -37.999 15s-16 22 -16 36c0 16 5.16699 29.333 15.5 40s23.166 16 38.499 16s28.166 -5.16699 38.499 -15.5s15.5 -23.833 15.5 -40.5c0 -14 -5.16699 -26 -15.5 -36s-23.166 -15 -38.499 -15zM846.002 696l58.999 -29
c-17.333 -36 -44 -65.667 -80 -89s-79.667 -35 -131 -35s-94.833 11.667 -130.5 35s-62.167 53 -79.5 89l60 30c32 -57.333 82 -86 150 -86c34.667 0 65.334 8 92.001 24s46.667 36.333 60 61zM807.001 238l-8.00098 -14c12 -32.667 29 -59.167 51 -79.5
s47.667 -30.5 77 -30.5c33.333 0 61.333 16.167 84 48.5s34 73.833 34 124.5c0 36 -8.83301 65 -26.5 87s-39.5 33 -65.5 33c-8 0 -15.667 -1.33301 -23 -4s-14.833 -7.5 -22.5 -14.5s-14.167 -13.333 -19.5 -19s-12.166 -15 -20.499 -28s-14.5 -23 -18.5 -30l-21 -36.5z
M378 334l-0.00195312 -4.00098c38 -10 70 -39.667 96 -89c1.33301 -3.33301 4.5 -10 9.5 -20s8.5 -16.667 10.5 -20l10.5 -17.5c5 -8.33301 9.16699 -14.166 12.5 -17.499l14 -13.5c6 -5.66699 11.667 -9.66699 17 -12s12 -4.5 20 -6.5s16.333 -3 25 -3
c30.667 0 56.667 11.333 78 34s45.666 57.667 72.999 105c4 6.66699 10.667 18.834 20 36.501s16.333 30.334 21 38.001l20.5 33.5c9 14.667 16.667 25.667 23 33s14.5 16 24.5 26s19.333 17.333 28 22s18.834 8.83398 30.501 12.501s23.834 5.5 36.501 5.5
c50.667 0 92 -17.667 124 -53s48 -84.666 48 -147.999c0 -36.667 -6.83301 -72.334 -20.5 -107.001s-34.834 -63.834 -63.501 -87.501s-61.667 -35.5 -99 -35.5c-82 0 -141.333 38.333 -178 115c-48 -66 -101.333 -99 -160 -99c-58 0 -102 26.667 -132 80
c-7.33301 -34 -26.666 -63.333 -57.999 -88s-72.333 -37 -123 -37c-46 0 -85.333 10.5 -118 31.5s-58.334 45.5 -77.001 73.5l60 48c34 -54.667 80 -82 138 -82c36.667 0 64.834 10.167 84.501 30.5s29.5 45.166 29.5 74.499c0 26 -9.16699 47.833 -27.5 65.5
s-43.5 26.5 -75.5 26.5c-7.33301 0 -15 -0.666992 -23 -2l-40 -5l-12 69c50.667 4 88.167 14.667 112.5 32s36.5 43.666 36.5 78.999c0 26 -8.16699 47 -24.5 63s-38.5 24 -66.5 24c-37.333 0 -68.666 -15.333 -93.999 -46l-51 48c35.333 44 85 66 149 66
c48 0 87.167 -14.167 117.5 -42.5s45.5 -64.833 45.5 -109.5c0 -58 -24 -100.333 -72 -127z" />
    <glyph glyph-name="uni0951" unicode="&#x951;" 
d="M-171 924h69v-212h-69v212z" />
    <glyph glyph-name="uni0952" unicode="&#x952;" 
d="M-92 -219h-493v60h493v-60z" />
    <glyph glyph-name="uni0953" unicode="&#x953;" 
d="M-294 887l53 44l152 -182l-53 -43z" />
    <glyph glyph-name="uni0954" unicode="&#x954;" 
d="M-37 931l53 -44l-152 -181l-53 43z" />
    <glyph glyph-name="uni0955" unicode="&#x955;" 
d="M-136 809c-86.667 0 -148 36.333 -184 109l53 28c26 -51.333 69.667 -77 131 -77c62 0 105.667 25.667 131 77l52 -28c-36 -72.667 -97 -109 -183 -109zM34 708h-339v56h339v-56z" />
    <glyph glyph-name="uni0956" unicode="&#x956;" 
d="M-275 -182c-88 0 -155.333 11.667 -202 35l14 52c66 -14.667 128.667 -22 188 -22s122 7.33301 188 22l13 -52c-42.667 -23.333 -109.667 -35 -201 -35z" />
    <glyph glyph-name="uni0957" unicode="&#x957;" 
d="M-275 -174c-78.667 0 -146 11.667 -202 35l14 51c66 -14.667 128.667 -22 188 -22s122 7.33301 188 22l13 -51c-51.333 -23.333 -118.333 -35 -201 -35zM-275 -317c-78.667 0 -146 11.667 -202 35l14 51c66 -14.667 128.667 -22 188 -22s122 7.33301 188 22l13 -51
c-51.333 -23.333 -118.333 -35 -201 -35z" />
    <glyph glyph-name="uni0915093C" unicode="&#x958;" horiz-adv-x="770" 
d="M647 297c0 30.667 -9.66797 55.668 -29.001 75.001s-44.666 29 -75.999 29c-35.333 0 -64 -11.667 -86 -35s-33 -53.666 -33 -90.999v-275h-75v183h-4c-30 -38 -73 -57 -129 -57c-46.667 0 -86.667 16 -120 48s-50 73 -50 123c0 58.667 21.167 104 63.5 136
s91.5 44.333 147.5 37l12 -69c-38.667 6.66699 -72.334 1.16699 -101.001 -16.5s-43 -46.5 -43 -86.5c0 -30 9.66699 -54.833 29 -74.5s44.666 -29.5 75.999 -29.5c35.333 0 64 11.667 86 35s33 53.666 33 90.999v258h-370v64h814v-64h-369v-167h4
c28 38.667 71.333 58 130 58c46.667 0 86.334 -15.833 119.001 -47.5s49 -72.834 49 -123.501c0 -58.667 -21 -104 -63 -136s-91 -44 -147 -36l-12 69c38.667 -6.66699 72.334 -1.16699 101.001 16.5s43 46.167 43 85.5zM91.999 18.001c0 14 4.5 25.667 13.5 35
s20.167 14 33.5 14c14 0 25.5 -4.66699 34.5 -14s13.5 -21 13.5 -35c0 -13.333 -4.5 -24.666 -13.5 -33.999s-20.5 -14 -34.5 -14c-13.333 0 -24.5 4.66699 -33.5 14s-13.5 20.666 -13.5 33.999z" />
    <glyph glyph-name="uni0916093C" unicode="&#x959;" horiz-adv-x="792" 
d="M621 131l-4.00098 -0.000976562c-24 -29.333 -56 -53.666 -96 -72.999s-85.333 -29 -136 -29c-95.333 0 -172.166 32.167 -230.499 96.5s-92.833 147.5 -103.5 249.5l66 23c15.333 -30 38.333 -45 69 -45c33.333 0 50 19.667 50 59v166h-258v64h836v-64h-121v-578h-72
v131zM615.999 458.999l4 -0.000976562v119h-310v-163c0 -38.667 -10.5 -69 -31.5 -91s-47.833 -33 -80.5 -33c-22 0 -40.333 3.66699 -55 11c14 -64.667 43 -115.167 87 -151.5s96.333 -54.5 157 -54.5c66 0 121.833 20 167.5 60s68.5 93.667 68.5 161
c0 34 -9.33301 60.833 -28 80.5s-41.334 29.5 -68.001 29.5s-48.5 -8.16699 -65.5 -24.5s-25.5 -37.833 -25.5 -64.5c0 -27.333 10 -49.833 30 -67.5s46.667 -27.167 80 -28.5l-40 -53c-37.333 2.66699 -70.166 17.334 -98.499 44.001s-42.5 62 -42.5 106
c0 44.667 14.833 81.5 44.5 110.5s66.167 43.5 109.5 43.5c42 0 74.333 -11.333 97 -34zM83.999 -13.002c0 14 4.5 25.667 13.5 35s20.167 14 33.5 14c14 0 25.5 -4.66699 34.5 -14s13.5 -21 13.5 -35c0 -13.333 -4.5 -24.666 -13.5 -33.999s-20.5 -14 -34.5 -14
c-13.333 0 -24.5 4.66699 -33.5 14s-13.5 20.666 -13.5 33.999z" />
    <glyph glyph-name="uni0917093C" unicode="&#x95a;" horiz-adv-x="557" 
d="M158 101c14 0 25.5 -4.66699 34.5 -14s13.5 -21 13.5 -35c0 -13.333 -4.5 -24.666 -13.5 -33.999s-20.5 -14 -34.5 -14c-13.333 0 -24.5 4.66699 -33.5 14s-13.5 20.666 -13.5 33.999c0 14 4.5 25.667 13.5 35s20.167 14 33.5 14zM-22 642h600.999v-64h-121v-578h-75v578
h-183v-371h-81c-35.333 28.667 -53.666 69.667 -54.999 123l62 44v204h-148v64z" />
    </font>
</defs>
</svg>
