<svg id="592c4816-6771-4d1b-81e3-535522c7a8f0" data-name="Layer 1" xmlns="http://www.w3.org/2000/svg" width="36" height="32" viewBox="0 0 36 32"><title>568678</title><path d="M5.93176,19.40082a12.73759,12.73759,0,0,0,1.13907,2.70485l-1.3747,1.73392a1.42339,1.42339,0,0,0,.10656,1.8858l2.36807,2.36806A1.417,1.417,0,0,0,10.05655,28.2l1.7227-1.36347a12.529,12.529,0,0,0,2.8114,1.1895l0.25815,2.21683A1.42019,1.42019,0,0,0,16.25752,31.5h3.35042a1.41971,1.41971,0,0,0,1.40844-1.25713l0.24692-2.13819a12.65225,12.65225,0,0,0,3.01357-1.2177l1.66658,1.31879a1.4237,1.4237,0,0,0,1.8858-.10656l2.36807-2.36835a1.41669,1.41669,0,0,0,.10656-1.88552L29.00781,22.201A12.36675,12.36675,0,0,0,30.248,19.23808l1.99754-.23023a1.41949,1.41949,0,0,0,1.2572-1.40844V14.24906a1.41961,1.41961,0,0,0-1.2572-1.40851L30.276,12.6104a12.44918,12.44918,0,0,0-1.18978-2.92953l1.21223-1.532a1.42335,1.42335,0,0,0-.10656-1.88552L27.82925,3.90079a1.41712,1.41712,0,0,0-1.8858-.10663L24.45638,4.97272a12.48257,12.48257,0,0,0-3.08077-1.29087L21.1512,1.75712A1.42,1.42,0,0,0,19.74248.5H16.39206a1.41947,1.41947,0,0,0-1.40844,1.25712l-0.2244,1.92473a12.44477,12.44477,0,0,0-3.15941,1.33555L10.05655,3.79416a1.42347,1.42347,0,0,0-1.88579.10663L5.80269,6.26885a1.417,1.417,0,0,0-.10656,1.8858L6.98672,9.78749a12.21325,12.21325,0,0,0-1.16734,2.95745l-2.065.2359a1.41962,1.41962,0,0,0-1.2572,1.40851v3.35035a1.41948,1.41948,0,0,0,1.2572,1.40844Zm12.13839-7.048a3.52356,3.52356,0,1,1-3.52357,3.52357,3.52866,3.52866,0,0,1,3.52357-3.52357h0Zm0,0" style="fill:#43c2a7"/></svg>