<svg id="1181bd28-fc97-447e-aedc-f77a3f131f24" data-name="Layer 1" xmlns="http://www.w3.org/2000/svg" width="28" height="28" viewBox="0 0 28 28"><title>dfg</title><path d="M23.0913,0H4.90938A4.91507,4.91507,0,0,0,0,4.909V16.12337a4.91507,4.91507,0,0,0,4.90938,4.909l11.58079,0.00034,5.54336,5.54379a0.98253,0.98253,0,0,0,1.67672-.69454V20.99369A4.91576,4.91576,0,0,0,28,16.12337V4.909A4.91448,4.91448,0,0,0,23.0913,0ZM21.22622,14.41364H6.77378a0.9818,0.9818,0,0,1,0-1.9636H21.22622A0.9818,0.9818,0,1,1,21.22622,14.41364Zm0-5.49806H6.77378a0.9818,0.9818,0,0,1,0-1.9636H21.22622A0.9818,0.9818,0,1,1,21.22622,8.91557Z" style="fill:#545454"/></svg>