<svg id="e7ed4e29-fd45-4395-9cde-f746e47246c2" data-name="Layer 1" xmlns="http://www.w3.org/2000/svg" width="50" height="50" viewBox="0 0 50 50"><title>Untitled-1</title><path d="M25,1A24,24,0,1,0,49,25,24,24,0,0,0,25,1Zm11.7263,24.84591L15.06169,35.90451s-0.87467-.09232-0.01647-1.53105c1.5293-2.56382,3.84881-6.82363,3.84881-9.18239,0-2.53484-2.2847-6.68165-3.81592-9.18971-0.69323-1.13553,0-1.51454,0-1.51454l21.6541,10.06226a0.6633,0.6633,0,0,1,.35027.642A0.73406,0.73406,0,0,1,36.72632,25.84591Z" style="fill:#00b7a6"/></svg>