<svg id="3781da2a-d7c7-41dc-8a4a-f9134a12e8e4" data-name="Layer 1" xmlns="http://www.w3.org/2000/svg" width="80" height="80" viewBox="0 0 80 80"><title>Untitled-5</title><path d="M30.27239,53.42923a15.937,15.937,0,0,1-1.14426-4.633,22.36637,22.36637,0,0,0,.33753-7.058,13.42861,13.42861,0,0,0-.22861-3.52817l-0.02453.04018c-0.1517-1.84088-1.18645-2.16834-1.88153-2.17106-1.20292-.46292-2.9503,3.23852-2.9503,3.23852-0.00758-.2125-0.01707-0.421-0.03224-0.61829-0.35258-4.86952-3.0681-5.5825-3.0681-5.5825-4.03126-2.173-3.56681,3.87589-3.56681,3.87589-4.49584-5.42689-7.4427-3.2576-7.4427-3.2576-5.5825,4.96421,1.8602,8.06265,1.8602,8.06265a4.92851,4.92851,0,0,0-2.9023-.15822l0.00308-.01244c-0.01.00687-.01695,0.01363-0.02678,0.0205a1.9586,1.9586,0,0,0-1.24938,1.21181A2.44833,2.44833,0,0,0,7.66329,45.161a1.74856,1.74856,0,0,0,1.0402,1.33139l-0.05772.01185a6.21426,6.21426,0,0,0,3.27787,1.47017c-1.75022.37213-2.63943,0.92406-2.98443,1.526-0.84477,1.03179.08592,2.1265,0.761,2.71528,0.16485,0.12136.33184,0.2503,0.49859,0.37925,0.02667,0.01541.05321,0.02667,0.07964,0.04172h0c0.02406,0.012.04812,0.02406,0.07206,0.038a27.42105,27.42105,0,0,0,9.35422.9378l-0.03034.01778a8.41593,8.41593,0,0,1,3.79708.79784C32.4982,60.02775,32.908,77.61385,32.908,77.61385l1.70483-.46647C34.61285,62.72845,30.27239,53.42923,30.27239,53.42923Z" style="fill:#fff"/><path d="M72.33667,45.01281a2.44886,2.44886,0,0,0-.29392-2.304,1.95536,1.95536,0,0,0-1.24-1.20316c-0.01256-.00877-0.02169-0.01766-0.03449-0.02643l0.00391,0.016a4.93183,4.93183,0,0,0-2.90336.15857s7.4408-3.10223,1.8602-8.06288c0,0-2.94674-2.16929-7.4427,3.258,0,0,.46469-6.04921-3.56479-3.8798,0,0-2.71919.71689-3.07011,5.5825-0.01316.20088-.02465,0.40579-0.03224,0.62184,0,0-1.74726-3.7012-2.95018-3.23828-0.6952.00332-1.72829,0.33137-1.88106,2.16834l-0.025-.041a13.44764,13.44764,0,0,0-.22861,3.52995,22.37146,22.37146,0,0,0,.33753,7.051,16.02952,16.02952,0,0,1-1.14236,4.63806s-4.34035,9.3029-4.34035,23.718l1.7027,0.47026S47.50176,59.89785,56.51821,54.288a8.42014,8.42014,0,0,1,3.80739-.80187l-0.03591-.021a27.34877,27.34877,0,0,0,9.35979-.9384l0.07135-.03532,0.00059,0.00119c0.01505-.00853.03-0.01612,0.04492-0.02358l0.02157-.01067,0.0019-.00166,0.01126-.00593c0.167-.12894.33385-0.25777,0.49693-0.38292,0.67707-.58866,1.60848-1.68124.76513-2.71161-0.34381-.60205-1.23207-1.15433-2.9804-1.52777a6.23973,6.23973,0,0,0,3.27135-1.46827l-0.06175-.0128A1.75218,1.75218,0,0,0,72.33667,45.01281Z" style="fill:#fff"/><path d="M56.39661,27.07935c-0.32793-3.28427-6.07741-2.62817-6.07741-2.62817,3.28616-2.62817,1.9722-5.74557,1.9722-5.74557-1.14911-5.25635-6.56866-1.14911-6.56866-1.14911,0-7.54711-2.54344-8.71376-6.2361-8.39212-5.4673.47619-4.93067,8.39212-4.93067,8.39212-5.74557-3.61421-6.89469.6561-6.89469,0.6561a5.25814,5.25814,0,0,0,.49527,4.29685,11.36821,11.36821,0,0,0,1.60777,2.745l0.01,0.09588c-3.02081-1.40333-4.4117-1.2393-5.04456-.86527l0.02086-.0832a3.45518,3.45518,0,0,0-1.42549,3.29173l0.00213,0.02951c0.004,0.02015.00865,0.04006,0.01316,0.06032a3.48076,3.48076,0,0,0,1.985,2.40833L24.944,30.06022s3.87222,3.1699,5.5915,4.48138a27.74937,27.74937,0,0,1,6.15362,10.73514l-0.03413.01019s1.20493,8.41511,1.64889,18.5674c0.07336,5.37249.053,10.39335,0.03828,12.53609-0.01078.23632-.01553,0.476-0.028,0.71132l0.02264-.00841c-0.00213.25492-.00356,0.39916-0.00356,0.39916l3.6122-.49693c-1.80521-3.94013,1.64213-33.16872,1.64213-33.16872A15.58472,15.58472,0,0,1,52.2914,31.51273C57.54573,29.7074,56.39661,27.07935,56.39661,27.07935Z" style="fill:#fff"/></svg>