<svg id="863e1243-af8e-404c-9639-dc166eb22f34" data-name="Layer 1" xmlns="http://www.w3.org/2000/svg" width="80" height="80" viewBox="0 0 80 80"><title>Untitled-3</title><path d="M58.00238,38.381c-7.54016-2.46326-10.67487-5.52588-10.67487-5.52588l-0.25226.24048c-2.239,2.10742-4.71533,3.34692-6.97144,3.34692h-0.213c-2.2561,0-4.7323-1.2395-6.97217-3.34692l-0.2522-.24048S29.53253,35.91772,21.99237,38.381c-11.13068,4.15771-9.46606,34.496-9.46875,34.627,0.35052,1.884.55695,2.52728,0.73236,2.60461,12.21558,5.38568,42.30481,4.97681,53.48267,0,0.17755-.07263.382-0.72064,0.73248-2.60461C67.46777,72.877,69.17755,42.60565,58.00238,38.381Z" style="fill:#fff"/><path d="M29.37592,22.7038c1.32855,6.23779,5.9483,11.56439,10.65643,11.56439s9.08356-5.3266,10.41211-11.56439a8.09856,8.09856,0,0,0,1.098-2.35828c0.4632-1.56635.58044-3.17462,0.144-3.55261l-0.0929-.10162a7.5689,7.5689,0,0,1-.57727-0.54034s1.0921-5.51129.21619-8.11792c-1.375-4.16327-9.58917-6.95251-11.23688-7.27753,0-.00269-1.0022-0.20312-1.06573-0.2038a5.10652,5.10652,0,0,0-2.798.39313c-0.97809.37665-6.09241,2.695-7.544,7.0882-0.87531,2.60663.2168,8.11792,0.2168,8.11792a7.55557,7.55557,0,0,1-.577.54034l-0.09375.10162c-0.42383.48077-.319,1.98627,0.144,3.55261A8.13715,8.13715,0,0,0,29.37592,22.7038Z" style="fill:#fff"/></svg>