<svg id="61982b6d-e4a9-4865-8cf7-70f2771f9b6f" data-name="Layer 1" xmlns="http://www.w3.org/2000/svg" width="26" height="26" viewBox="0 0 26 26"><title>Untitled-8</title><path d="M24.07316,5.89918A14.30776,14.30776,0,0,0,14.24528.97323,17.5236,17.5236,0,0,0,12.48664.88414c-6.45538,0-11.79755,3.67321-12.42539,8.54348-0.40037,3.10283,1.17946,6.2332,4.23189,8.411,0.42146,2.06112.33883,4.74891-2.22819,6.2672a0.54329,0.54329,0,0,0,.27491,1.01006,0.59209,0.59209,0,0,0,.12369-0.01349c0.25912-.0598,6.0978-1.445,8.09738-4.72663,0.40506,0.07092.8037,0.126,1.19061,0.16472a16.70634,16.70634,0,0,0,1.75864.092c6.45538,0,11.79753-3.67557,12.42712-8.54641A8.16625,8.16625,0,0,0,24.07316,5.89918ZM5.57506,12.43493a1.8571,1.8571,0,1,1,1.85888-1.856A1.85724,1.85724,0,0,1,5.57506,12.43493Zm7.0662-.57223a1.28485,1.28485,0,1,1,1.28592-1.28378A1.28664,1.28664,0,0,1,12.64126,11.86269Zm7.97848,0.57223a1.8571,1.8571,0,1,1,1.85532-1.856A1.85742,1.85742,0,0,1,20.61974,12.43493Z" style="fill:#b4b1b0"/></svg>