<svg id="1a5b2e90-0a81-4f68-81f3-79c730f70e2f" data-name="Layer 1" xmlns="http://www.w3.org/2000/svg" width="26" height="26" viewBox="0 0 26 26"><title>909000</title><path d="M15.91669,5.87149H1.43a1.37925,1.37925,0,1,0,0,2.7585H15.91669a1.37925,1.37925,0,1,0,0-2.7585h0Zm8.64768,0" style="fill:#00b8a6"/><circle cx="24.58129" cy="7.25075" r="1.36871" style="fill:#00b8a6"/><circle cx="20.55342" cy="7.25075" r="1.36871" style="fill:#00b8a6"/><path d="M15.91669,17.37H1.43a1.37925,1.37925,0,1,0,0,2.7585H15.91669a1.37925,1.37925,0,1,0,0-2.7585h0Zm8.64768,0" style="fill:#00b8a6"/><circle cx="24.58129" cy="18.74925" r="1.36871" style="fill:#00b8a6"/><circle cx="20.55342" cy="18.74925" r="1.36871" style="fill:#00b8a6"/><path d="M15.91669,11.62075H1.43a1.37925,1.37925,0,1,0,0,2.7585H15.91669a1.37925,1.37925,0,1,0,0-2.7585h0Zm8.64768,0" style="fill:#00b8a6"/><circle cx="24.58129" cy="13" r="1.36871" style="fill:#00b8a6"/><circle cx="20.55342" cy="13" r="1.36871" style="fill:#00b8a6"/></svg>