<?xml version="1.0" encoding="utf-8"?>
<!-- Generator: Adobe Illustrator 18.0.0, SVG Export Plug-In . SVG Version: 6.00 Build 0)  -->
<!DOCTYPE svg PUBLIC "-//W3C//DTD SVG 1.1//EN" "http://www.w3.org/Graphics/SVG/1.1/DTD/svg11.dtd">
<svg version="1.1" id="_x36_1982b6d-e4a9-4865-8cf7-70f2771f9b6f"
	 xmlns="http://www.w3.org/2000/svg" xmlns:xlink="http://www.w3.org/1999/xlink" x="0px" y="0px" viewBox="0 0 26 26"
	 enable-background="new 0 0 26 26" xml:space="preserve">
<title>Untitled-8</title>
<path fill="#6E6EED" d="M24.1,5.9C21.6,3,18,1.2,14.2,1c-0.6-0.1-1.2-0.1-1.8-0.1C6,0.9,0.7,4.6,0.1,9.4c-0.4,3.1,1.2,6.2,4.2,8.4
	c0.4,2.1,0.3,4.7-2.2,6.3c-0.3,0.2-0.3,0.5-0.2,0.7C2,25,2.1,25.1,2.3,25.1c0,0,0.1,0,0.1,0c0.3-0.1,6.1-1.4,8.1-4.7
	c0.4,0.1,0.8,0.1,1.2,0.2c0.6,0.1,1.2,0.1,1.8,0.1c6.5,0,11.8-3.7,12.4-8.5C26.2,9.9,25.5,7.6,24.1,5.9z M5.6,12.4
	c-1,0-1.9-0.8-1.9-1.9s0.8-1.9,1.9-1.9c1,0,1.9,0.8,1.9,1.9C7.4,11.6,6.6,12.4,5.6,12.4C5.6,12.4,5.6,12.4,5.6,12.4z M12.6,11.9
	c-0.7,0-1.3-0.6-1.3-1.3s0.6-1.3,1.3-1.3s1.3,0.6,1.3,1.3C13.9,11.3,13.4,11.9,12.6,11.9z M20.6,12.4c-1,0-1.9-0.8-1.9-1.9
	s0.8-1.9,1.9-1.9c1,0,1.9,0.8,1.9,1.9c0,0,0,0,0,0C22.5,11.6,21.6,12.4,20.6,12.4z"/>
</svg>
