<svg id="521e3dfc-9a24-4438-939d-e2a46cc42001" data-name="Layer 1" xmlns="http://www.w3.org/2000/svg" width="30" height="26" viewBox="0 0 30 26"><title>Untitled-3</title><path d="M13.86985,18.87793a0.6681,0.6681,0,0,1-.369-0.28537,8.70171,8.70171,0,0,1-.36792-1.0554A0.72417,0.72417,0,0,0,12.75436,16.99a0.31122,0.31122,0,0,1-.12851-0.24409,3.45113,3.45113,0,0,1,.43277-2.41851,0.23064,0.23064,0,0,0,.04124-0.079,12.74433,12.74433,0,0,1,.85258-2.22393,0.11647,0.11647,0,0,0,.01414-0.06013c0.05542-.51179.10969-1.02236,0.15211-1.53887a0.24549,0.24549,0,0,0-.10616-0.19807,0.41488,0.41488,0,0,1-.23938-0.49761c0.00475-1.00351,0-2.00816,0-3.01167A1.9107,1.9107,0,0,0,13.16,5.22056c-0.50233-.45162-1.01761-0.88914-1.53408-1.32659a0.34265,0.34265,0,0,1-.0366-0.60377,2.87621,2.87621,0,0,1,.355-0.26176c-0.02361-.03771-0.0507-0.079-0.079-0.11555a3.21424,3.21424,0,0,0-.46465,0c-0.5707.09669-1.14263,0.17453-1.7039,0.30894a7.04718,7.04718,0,0,0-2.97629,1.2983A2.68608,2.68608,0,0,0,5.592,6.39032c-0.0271.41974-.0271,0.84783-0.0271,1.27117-0.00471.68625,0.00471,1.37726-.00946,2.0683a0.4473,0.4473,0,0,1-.14265.32308,0.36127,0.36127,0,0,0-.24881.50233c0.02242,0.15568.00471,0.32189,0.03653,0.47876,0.10144,0.43277.20285,0.86079,0.32664,1.29a7.54128,7.54128,0,0,1,.32312.93391,3.1424,3.1424,0,0,0,.76884,1.68155,0.49452,0.49452,0,0,1,.11555.32308c-0.03185.4929-.08255,0.99051-0.1474,1.4787a0.3441,0.3441,0,0,1-.1981.25233,0.64822,0.64822,0,0,0-.45634.58135c-0.10616.33607-.21581,0.67215-0.3455,0.99879a0.52015,0.52015,0,0,1-.24413.25349C4.763,19.08075.599,20.75712,0.15681,21.56781a3.18944,3.18944,0,0,0-.11055,1.52451h20.295a2.44991,2.44991,0,0,0-.15668-1.17444C19.80555,21.3643,15.753,19.60078,13.86985,18.87793Zm5.54105,2.409" style="fill:#b4b1b0"/><path d="M27.5862,20.32479c-0.85611-.31837-1.7039-0.68629-2.53762-1.06483a4.10947,4.10947,0,0,1-.63083-0.51057,0.763,0.763,0,0,0-.32193-0.16154,0.65687,0.65687,0,0,1-.64973-0.58017,3.39667,3.39667,0,0,1-.10141-1.52469,0.54062,0.54062,0,0,1,.35022-0.46105c0.45519-.17925.91149-0.37739,1.36311-0.57077,0.34082-.14265.36439-0.26291,0.23938-0.61317a13.56379,13.56379,0,0,1-.77827-3.422,13.09991,13.09991,0,0,0-.22167-2.24754H24.27031c-0.01411-.0696-0.02353-0.13793-0.04124-0.20282A3.12191,3.12191,0,0,0,21.34123,6.8879a0.0602,0.0602,0,0,1-.02828-0.00468,2.409,2.409,0,0,0-.263.01411,10.572,10.572,0,0,0-1.36315.51536,2.04216,2.04216,0,0,0-1.211,1.34544,9.36432,9.36432,0,0,0-.33136,2.65789,13.48286,13.48286,0,0,1-.77827,3.4173c-0.125.35493-.10141,0.4752,0.23938,0.61784,0.45047,0.19339.90678,0.39153,1.36315,0.57077a0.5381,0.5381,0,0,1,.35018.46105,3.48685,3.48685,0,0,1-.09666,1.52469,0.66968,0.66968,0,0,1-.65444.58017,0.80367,0.80367,0,0,0-.32193.15683,3.58346,3.58346,0,0,1-.632.51061c-0.09669.046-.20167,0.08842-0.29836,0.13441,0.81483,0.35378,3.17492,1.2405,3.71667,2.215a4.95757,4.95757,0,0,1,.13811,1.49241H30c0-1.474-1.09074-2.28882-2.4138-2.77229h0Zm0,0" style="fill:#b4b1b0"/></svg>